G04 #@! TF.FileFunction,Copper,L1,Top,Signal*
%FSLAX46Y46*%
G04 Gerber Fmt 4.6, Leading zero omitted, Abs format (unit mm)*
G04 Created by KiCad (PCBNEW 4.0.7) date 02/11/18 01:39:45*
%MOMM*%
%LPD*%
G01*
G04 APERTURE LIST*
%ADD10C,0.100000*%
%ADD11C,3.000000*%
%ADD12R,3.000000X3.000000*%
%ADD13R,1.500000X1.250000*%
%ADD14R,1.800000X1.800000*%
%ADD15O,1.800000X1.800000*%
%ADD16R,2.400000X2.400000*%
%ADD17C,2.400000*%
%ADD18R,2.000000X2.600000*%
%ADD19O,2.000000X2.600000*%
%ADD20C,1.520000*%
%ADD21C,1.600000*%
%ADD22O,1.600000X1.600000*%
%ADD23C,1.700000*%
%ADD24O,1.700000X1.700000*%
%ADD25R,2.600000X2.000000*%
%ADD26O,2.600000X2.000000*%
%ADD27C,3.200000*%
%ADD28R,1.600000X1.600000*%
%ADD29C,1.440000*%
%ADD30R,1.300000X1.500000*%
%ADD31C,1.800000*%
%ADD32O,2.500000X4.000000*%
%ADD33R,3.500000X1.800000*%
%ADD34R,1.800000X3.500000*%
%ADD35R,0.800000X0.900000*%
%ADD36R,1.500000X1.300000*%
%ADD37R,2.000000X0.600000*%
%ADD38C,4.064000*%
%ADD39C,0.600000*%
%ADD40C,1.000000*%
%ADD41C,0.250000*%
%ADD42C,0.400000*%
%ADD43C,1.200000*%
%ADD44C,0.800000*%
%ADD45C,4.000000*%
%ADD46C,2.500000*%
G04 APERTURE END LIST*
D10*
D11*
X116200000Y-49280000D03*
X121280000Y-49280000D03*
D12*
X111120000Y-49280000D03*
D11*
X126360000Y-49280000D03*
D13*
X146000000Y-134750000D03*
X143500000Y-134750000D03*
D14*
X147950000Y-138180000D03*
D15*
X147950000Y-135640000D03*
X147950000Y-133100000D03*
D14*
X147950000Y-82300000D03*
D15*
X147950000Y-79760000D03*
X147950000Y-77220000D03*
D16*
X160650000Y-91190000D03*
D17*
X160650000Y-96190000D03*
X160650000Y-101190000D03*
X160650000Y-106190000D03*
D14*
X147950000Y-120400000D03*
D15*
X147950000Y-117860000D03*
X147950000Y-115320000D03*
D14*
X67940000Y-98810000D03*
D15*
X70480000Y-98810000D03*
X73020000Y-98810000D03*
D14*
X73020000Y-91190000D03*
D15*
X70480000Y-91190000D03*
X67940000Y-91190000D03*
D14*
X111120000Y-98810000D03*
D15*
X113660000Y-98810000D03*
X116200000Y-98810000D03*
D14*
X116200000Y-91190000D03*
D15*
X113660000Y-91190000D03*
X111120000Y-91190000D03*
D10*
G36*
X111194543Y-72025305D02*
X110275305Y-72944543D01*
X109214645Y-71883883D01*
X110133883Y-70964645D01*
X111194543Y-72025305D01*
X111194543Y-72025305D01*
G37*
G36*
X109285355Y-70116117D02*
X108366117Y-71035355D01*
X107305457Y-69974695D01*
X108224695Y-69055457D01*
X109285355Y-70116117D01*
X109285355Y-70116117D01*
G37*
G36*
X108805457Y-68474695D02*
X109724695Y-67555457D01*
X110785355Y-68616117D01*
X109866117Y-69535355D01*
X108805457Y-68474695D01*
X108805457Y-68474695D01*
G37*
G36*
X110714645Y-70383883D02*
X111633883Y-69464645D01*
X112694543Y-70525305D01*
X111775305Y-71444543D01*
X110714645Y-70383883D01*
X110714645Y-70383883D01*
G37*
D18*
X115565000Y-56900000D03*
D19*
X113025000Y-56900000D03*
D20*
X92203949Y-94796051D03*
X90407898Y-96592102D03*
D10*
G36*
X92925198Y-93000000D02*
X94000000Y-91925198D01*
X95074802Y-93000000D01*
X94000000Y-94074802D01*
X92925198Y-93000000D01*
X92925198Y-93000000D01*
G37*
D21*
X155570000Y-135640000D03*
D22*
X158110000Y-135640000D03*
D21*
X155570000Y-139450000D03*
D22*
X158110000Y-139450000D03*
D21*
X155570000Y-131830000D03*
D22*
X158110000Y-131830000D03*
D21*
X155570000Y-117860000D03*
D22*
X158110000Y-117860000D03*
D21*
X155570000Y-121670000D03*
D22*
X158110000Y-121670000D03*
D21*
X155570000Y-114050000D03*
D22*
X158110000Y-114050000D03*
D21*
X155570000Y-79760000D03*
D22*
X158110000Y-79760000D03*
D21*
X155570000Y-83570000D03*
D22*
X158110000Y-83570000D03*
D21*
X155570000Y-75950000D03*
D22*
X158110000Y-75950000D03*
D21*
X155570000Y-61980000D03*
D22*
X158110000Y-61980000D03*
D21*
X155570000Y-65790000D03*
D22*
X158110000Y-65790000D03*
D21*
X155570000Y-58170000D03*
D22*
X158110000Y-58170000D03*
D14*
X140965000Y-133100000D03*
D15*
X140965000Y-135640000D03*
X140965000Y-138180000D03*
D10*
G36*
X127863604Y-60585787D02*
X128429290Y-60020101D01*
X129065686Y-60656497D01*
X128500000Y-61222183D01*
X127863604Y-60585787D01*
X127863604Y-60585787D01*
G37*
G36*
X126520101Y-61929290D02*
X127085787Y-61363604D01*
X127722183Y-62000000D01*
X127156497Y-62565686D01*
X126520101Y-61929290D01*
X126520101Y-61929290D01*
G37*
G36*
X128606066Y-62671752D02*
X129171752Y-62106066D01*
X129808148Y-62742462D01*
X129242462Y-63308148D01*
X128606066Y-62671752D01*
X128606066Y-62671752D01*
G37*
D14*
X140965000Y-115320000D03*
D15*
X140965000Y-117860000D03*
X140965000Y-120400000D03*
D14*
X140965000Y-77220000D03*
D15*
X140965000Y-79760000D03*
X140965000Y-82300000D03*
D14*
X140965000Y-59440000D03*
D15*
X140965000Y-61980000D03*
X140965000Y-64520000D03*
D23*
X160650000Y-135640000D03*
X163190000Y-138180000D03*
D24*
X163190000Y-135640000D03*
X163190000Y-133100000D03*
D18*
X124455000Y-56900000D03*
D19*
X121915000Y-56900000D03*
X119375000Y-56900000D03*
D25*
X122500000Y-142000000D03*
D26*
X122500000Y-139460000D03*
D23*
X160650000Y-117860000D03*
X163190000Y-120400000D03*
D24*
X163190000Y-117860000D03*
X163190000Y-115320000D03*
D25*
X113750000Y-139500000D03*
D26*
X113750000Y-142040000D03*
D23*
X160650000Y-79760000D03*
X163190000Y-82300000D03*
D24*
X163190000Y-79760000D03*
X163190000Y-77220000D03*
D25*
X122500000Y-135500000D03*
D26*
X122500000Y-132960000D03*
D23*
X160650000Y-61980000D03*
X163190000Y-64520000D03*
D24*
X163190000Y-61980000D03*
X163190000Y-59440000D03*
D16*
X46000000Y-87250000D03*
D17*
X46000000Y-92250000D03*
X46000000Y-97250000D03*
X46000000Y-102250000D03*
D25*
X113750000Y-133000000D03*
D26*
X113750000Y-135540000D03*
D13*
X146000000Y-136250000D03*
X143500000Y-136250000D03*
X149750000Y-132250000D03*
X152250000Y-132250000D03*
X149750000Y-134000000D03*
X152250000Y-134000000D03*
X146000000Y-118250000D03*
X143500000Y-118250000D03*
X146000000Y-116750000D03*
X143500000Y-116750000D03*
X149750000Y-116000000D03*
X152250000Y-116000000D03*
X149750000Y-114500000D03*
X152250000Y-114500000D03*
X146000000Y-78750000D03*
X143500000Y-78750000D03*
X146000000Y-80250000D03*
X143500000Y-80250000D03*
X149750000Y-76500000D03*
X152250000Y-76500000D03*
X149750000Y-78000000D03*
X152250000Y-78000000D03*
X146000000Y-61000000D03*
X143500000Y-61000000D03*
X146000000Y-62500000D03*
X143500000Y-62500000D03*
X149750000Y-58750000D03*
X152250000Y-58750000D03*
X149750000Y-60250000D03*
X152250000Y-60250000D03*
D10*
G36*
X68262742Y-77000000D02*
X66000000Y-79262742D01*
X63737258Y-77000000D01*
X66000000Y-74737258D01*
X68262742Y-77000000D01*
X68262742Y-77000000D01*
G37*
D27*
X55223693Y-66223693D02*
X55223693Y-66223693D01*
D28*
X96500000Y-103250000D03*
D21*
X96500000Y-106750000D03*
D28*
X87750000Y-103250000D03*
D21*
X87750000Y-106750000D03*
D28*
X104750000Y-86750000D03*
D21*
X104750000Y-83250000D03*
D28*
X87750000Y-86750000D03*
D21*
X87750000Y-83250000D03*
D29*
X68000000Y-103420000D03*
X70540000Y-105960000D03*
X68000000Y-108500000D03*
X67500000Y-80920000D03*
X70040000Y-83460000D03*
X67500000Y-86000000D03*
D13*
X107000000Y-97750000D03*
X109500000Y-97750000D03*
X120250000Y-97750000D03*
X117750000Y-97750000D03*
X120250000Y-99750000D03*
X117750000Y-99750000D03*
X77250000Y-97750000D03*
X74750000Y-97750000D03*
X77250000Y-99750000D03*
X74750000Y-99750000D03*
X107000000Y-92250000D03*
X109500000Y-92250000D03*
X107000000Y-90250000D03*
X109500000Y-90250000D03*
X63750000Y-90250000D03*
X66250000Y-90250000D03*
X63750000Y-92250000D03*
X66250000Y-92250000D03*
D30*
X73000000Y-108350000D03*
X73000000Y-105650000D03*
X72250000Y-83600000D03*
X72250000Y-80900000D03*
D10*
G36*
X97620963Y-113383705D02*
X99883705Y-111120963D01*
X101792893Y-113030151D01*
X99530151Y-115292893D01*
X97620963Y-113383705D01*
X97620963Y-113383705D01*
G37*
G36*
X103207107Y-118969849D02*
X105469849Y-116707107D01*
X107379037Y-118616295D01*
X105116295Y-120879037D01*
X103207107Y-118969849D01*
X103207107Y-118969849D01*
G37*
G36*
X99883705Y-78379037D02*
X97620963Y-76116295D01*
X99530151Y-74207107D01*
X101792893Y-76469849D01*
X99883705Y-78379037D01*
X99883705Y-78379037D01*
G37*
G36*
X105469849Y-72792893D02*
X103207107Y-70530151D01*
X105116295Y-68620963D01*
X107379037Y-70883705D01*
X105469849Y-72792893D01*
X105469849Y-72792893D01*
G37*
D28*
X104750000Y-103250000D03*
D21*
X104750000Y-106750000D03*
D28*
X79500000Y-103250000D03*
D21*
X79500000Y-106750000D03*
D13*
X63750000Y-97750000D03*
X66250000Y-97750000D03*
X107000000Y-99750000D03*
X109500000Y-99750000D03*
X63750000Y-99750000D03*
X66250000Y-99750000D03*
D28*
X96500000Y-86750000D03*
D21*
X96500000Y-83250000D03*
D13*
X120250000Y-92250000D03*
X117750000Y-92250000D03*
X120250000Y-90250000D03*
X117750000Y-90250000D03*
X77250000Y-92250000D03*
X74750000Y-92250000D03*
X77250000Y-90250000D03*
X74750000Y-90250000D03*
D28*
X79500000Y-86750000D03*
D21*
X79500000Y-83250000D03*
X103000000Y-54250000D03*
D22*
X103000000Y-61870000D03*
D21*
X103000000Y-128500000D03*
D22*
X103000000Y-136120000D03*
D14*
X103000000Y-143000000D03*
D31*
X103000000Y-140460000D03*
D10*
G36*
X102058808Y-67228400D02*
X103331600Y-68501192D01*
X100856726Y-70976066D01*
X99583934Y-69703274D01*
X102058808Y-67228400D01*
X102058808Y-67228400D01*
G37*
G36*
X98523274Y-70763934D02*
X99796066Y-72036726D01*
X97321192Y-74511600D01*
X96048400Y-73238808D01*
X98523274Y-70763934D01*
X98523274Y-70763934D01*
G37*
G36*
X103391600Y-120868808D02*
X102118808Y-122141600D01*
X99643934Y-119666726D01*
X100916726Y-118393934D01*
X103391600Y-120868808D01*
X103391600Y-120868808D01*
G37*
G36*
X99856066Y-117333274D02*
X98583274Y-118606066D01*
X96108400Y-116131192D01*
X97381192Y-114858400D01*
X99856066Y-117333274D01*
X99856066Y-117333274D01*
G37*
D32*
X46000000Y-142000000D03*
X46000000Y-120000000D03*
D33*
X103750000Y-99250000D03*
X98750000Y-99250000D03*
X80500000Y-99250000D03*
X85500000Y-99250000D03*
D10*
G36*
X66000000Y-110737258D02*
X68262742Y-113000000D01*
X66000000Y-115262742D01*
X63737258Y-113000000D01*
X66000000Y-110737258D01*
X66000000Y-110737258D01*
G37*
D27*
X55223693Y-123776307D02*
X55223693Y-123776307D01*
D10*
G36*
X68262742Y-142000000D02*
X66000000Y-144262742D01*
X63737258Y-142000000D01*
X66000000Y-139737258D01*
X68262742Y-142000000D01*
X68262742Y-142000000D01*
G37*
D27*
X55223693Y-131223693D02*
X55223693Y-131223693D01*
D10*
G36*
X100262742Y-124000000D02*
X98000000Y-126262742D01*
X95737258Y-124000000D01*
X98000000Y-121737258D01*
X100262742Y-124000000D01*
X100262742Y-124000000D01*
G37*
D27*
X87223693Y-113223693D02*
X87223693Y-113223693D01*
D10*
G36*
X98000000Y-128737258D02*
X100262742Y-131000000D01*
X98000000Y-133262742D01*
X95737258Y-131000000D01*
X98000000Y-128737258D01*
X98000000Y-128737258D01*
G37*
D27*
X87223693Y-141776307D02*
X87223693Y-141776307D01*
D10*
G36*
X109972271Y-113393845D02*
X110856155Y-114277729D01*
X109795495Y-115338389D01*
X108911611Y-114454505D01*
X109972271Y-113393845D01*
X109972271Y-113393845D01*
G37*
G36*
X108204505Y-115161611D02*
X109088389Y-116045495D01*
X108027729Y-117106155D01*
X107143845Y-116222271D01*
X108204505Y-115161611D01*
X108204505Y-115161611D01*
G37*
G36*
X110356155Y-75222271D02*
X109472271Y-76106155D01*
X108411611Y-75045495D01*
X109295495Y-74161611D01*
X110356155Y-75222271D01*
X110356155Y-75222271D01*
G37*
G36*
X108588389Y-73454505D02*
X107704505Y-74338389D01*
X106643845Y-73277729D01*
X107527729Y-72393845D01*
X108588389Y-73454505D01*
X108588389Y-73454505D01*
G37*
D16*
X85000000Y-124000000D03*
D17*
X85000000Y-131500000D03*
D16*
X68000000Y-124000000D03*
D17*
X68000000Y-131500000D03*
D32*
X46000000Y-48000000D03*
X46000000Y-70000000D03*
D10*
G36*
X66000000Y-45737258D02*
X68262742Y-48000000D01*
X66000000Y-50262742D01*
X63737258Y-48000000D01*
X66000000Y-45737258D01*
X66000000Y-45737258D01*
G37*
D27*
X55223693Y-58776307D02*
X55223693Y-58776307D01*
D10*
G36*
X100262742Y-59000000D02*
X98000000Y-61262742D01*
X95737258Y-59000000D01*
X98000000Y-56737258D01*
X100262742Y-59000000D01*
X100262742Y-59000000D01*
G37*
D27*
X87223693Y-48223693D02*
X87223693Y-48223693D01*
D16*
X85000000Y-66000000D03*
D17*
X85000000Y-58500000D03*
D16*
X68000000Y-66000000D03*
D17*
X68000000Y-58500000D03*
D10*
G36*
X98000000Y-63737258D02*
X100262742Y-66000000D01*
X98000000Y-68262742D01*
X95737258Y-66000000D01*
X98000000Y-63737258D01*
X98000000Y-63737258D01*
G37*
D27*
X87223693Y-76776307D02*
X87223693Y-76776307D01*
D33*
X103750000Y-90750000D03*
X98750000Y-90750000D03*
X80500000Y-90750000D03*
X85500000Y-90750000D03*
D34*
X61590000Y-108930000D03*
X61590000Y-103930000D03*
X61590000Y-81070000D03*
X61590000Y-86070000D03*
D14*
X103000000Y-47000000D03*
D31*
X103000000Y-49540000D03*
D14*
X147950000Y-64520000D03*
D15*
X147950000Y-61980000D03*
X147950000Y-59440000D03*
D10*
G36*
X104545873Y-112851041D02*
X104263030Y-112568198D01*
X105012563Y-111818665D01*
X105295406Y-112101508D01*
X104545873Y-112851041D01*
X104545873Y-112851041D01*
G37*
G36*
X105005492Y-113310660D02*
X104722649Y-113027817D01*
X105472182Y-112278284D01*
X105755025Y-112561127D01*
X105005492Y-113310660D01*
X105005492Y-113310660D01*
G37*
G36*
X105472183Y-113777351D02*
X105189340Y-113494508D01*
X105938873Y-112744975D01*
X106221716Y-113027818D01*
X105472183Y-113777351D01*
X105472183Y-113777351D01*
G37*
G36*
X105931802Y-114236970D02*
X105648959Y-113954127D01*
X106398492Y-113204594D01*
X106681335Y-113487437D01*
X105931802Y-114236970D01*
X105931802Y-114236970D01*
G37*
G36*
X107487437Y-112681335D02*
X107204594Y-112398492D01*
X107954127Y-111648959D01*
X108236970Y-111931802D01*
X107487437Y-112681335D01*
X107487437Y-112681335D01*
G37*
G36*
X107027818Y-112221716D02*
X106744975Y-111938873D01*
X107494508Y-111189340D01*
X107777351Y-111472183D01*
X107027818Y-112221716D01*
X107027818Y-112221716D01*
G37*
G36*
X106561127Y-111755025D02*
X106278284Y-111472182D01*
X107027817Y-110722649D01*
X107310660Y-111005492D01*
X106561127Y-111755025D01*
X106561127Y-111755025D01*
G37*
G36*
X106101508Y-111295406D02*
X105818665Y-111012563D01*
X106568198Y-110263030D01*
X106851041Y-110545873D01*
X106101508Y-111295406D01*
X106101508Y-111295406D01*
G37*
G36*
X105398959Y-75045873D02*
X105681802Y-74763030D01*
X106431335Y-75512563D01*
X106148492Y-75795406D01*
X105398959Y-75045873D01*
X105398959Y-75045873D01*
G37*
G36*
X104939340Y-75505492D02*
X105222183Y-75222649D01*
X105971716Y-75972182D01*
X105688873Y-76255025D01*
X104939340Y-75505492D01*
X104939340Y-75505492D01*
G37*
G36*
X104472649Y-75972183D02*
X104755492Y-75689340D01*
X105505025Y-76438873D01*
X105222182Y-76721716D01*
X104472649Y-75972183D01*
X104472649Y-75972183D01*
G37*
G36*
X104013030Y-76431802D02*
X104295873Y-76148959D01*
X105045406Y-76898492D01*
X104762563Y-77181335D01*
X104013030Y-76431802D01*
X104013030Y-76431802D01*
G37*
G36*
X105568665Y-77987437D02*
X105851508Y-77704594D01*
X106601041Y-78454127D01*
X106318198Y-78736970D01*
X105568665Y-77987437D01*
X105568665Y-77987437D01*
G37*
G36*
X106028284Y-77527818D02*
X106311127Y-77244975D01*
X107060660Y-77994508D01*
X106777817Y-78277351D01*
X106028284Y-77527818D01*
X106028284Y-77527818D01*
G37*
G36*
X106494975Y-77061127D02*
X106777818Y-76778284D01*
X107527351Y-77527817D01*
X107244508Y-77810660D01*
X106494975Y-77061127D01*
X106494975Y-77061127D01*
G37*
G36*
X106954594Y-76601508D02*
X107237437Y-76318665D01*
X107986970Y-77068198D01*
X107704127Y-77351041D01*
X106954594Y-76601508D01*
X106954594Y-76601508D01*
G37*
D11*
X139060000Y-49280000D03*
X144140000Y-49280000D03*
D12*
X133980000Y-49280000D03*
D11*
X149220000Y-49280000D03*
D35*
X135550000Y-64500000D03*
X137450000Y-64500000D03*
X136500000Y-62500000D03*
X135550000Y-82250000D03*
X137450000Y-82250000D03*
X136500000Y-80250000D03*
X135550000Y-121000000D03*
X137450000Y-121000000D03*
X136500000Y-119000000D03*
X135550000Y-138750000D03*
X137450000Y-138750000D03*
X136500000Y-136750000D03*
D36*
X132900000Y-70750000D03*
X135600000Y-70750000D03*
X132900000Y-68750000D03*
X135600000Y-68750000D03*
X132900000Y-66750000D03*
X135600000Y-66750000D03*
D30*
X138500000Y-87850000D03*
X138500000Y-85150000D03*
D36*
X132900000Y-86250000D03*
X135600000Y-86250000D03*
X132900000Y-84250000D03*
X135600000Y-84250000D03*
X132900000Y-126750000D03*
X135600000Y-126750000D03*
X132900000Y-124750000D03*
X135600000Y-124750000D03*
X132900000Y-122750000D03*
X135600000Y-122750000D03*
X141350000Y-141500000D03*
X138650000Y-141500000D03*
X130900000Y-141250000D03*
X133600000Y-141250000D03*
X130900000Y-139500000D03*
X133600000Y-139500000D03*
D37*
X114550000Y-74420000D03*
X114550000Y-75690000D03*
X114550000Y-76960000D03*
X114550000Y-78230000D03*
X114550000Y-79500000D03*
X114550000Y-80770000D03*
X114550000Y-82040000D03*
X114550000Y-83310000D03*
X114550000Y-84580000D03*
X123950000Y-84580000D03*
X123950000Y-83310000D03*
X123950000Y-82040000D03*
X123950000Y-80770000D03*
X123950000Y-79500000D03*
X123950000Y-78230000D03*
X123950000Y-76960000D03*
X123950000Y-75690000D03*
X123950000Y-74420000D03*
D38*
X140000000Y-127000000D03*
X52000000Y-116000000D03*
X52000000Y-74000000D03*
X140000000Y-71000000D03*
D18*
X133345000Y-56900000D03*
D19*
X130805000Y-56900000D03*
X128265000Y-56900000D03*
D39*
X132900000Y-68750000D03*
X63750000Y-92250000D03*
X63750000Y-97750000D03*
X77250000Y-97750000D03*
X77250000Y-92250000D03*
X152250000Y-78000000D03*
X143500000Y-78750000D03*
X114550000Y-84580000D03*
X114550000Y-79500000D03*
X114550000Y-76960000D03*
X109383883Y-75133883D03*
X104750000Y-89000000D03*
X120250000Y-92250000D03*
X120250000Y-97750000D03*
X109000000Y-96250000D03*
X108116117Y-116133883D03*
X130900000Y-141250000D03*
X141350000Y-141500000D03*
X143500000Y-134750000D03*
X152250000Y-134000000D03*
X152250000Y-116000000D03*
X143500000Y-116750000D03*
X132900000Y-124750000D03*
X138500000Y-87850000D03*
X132250000Y-86250000D03*
X152250000Y-60250000D03*
X143500000Y-61000000D03*
X123050000Y-74400000D03*
X120800000Y-74400000D03*
X107805000Y-74945000D03*
X106750000Y-76000000D03*
X110300000Y-78200000D03*
X106400000Y-82800000D03*
X106200000Y-93600000D03*
X106200000Y-96400000D03*
X106200000Y-106000000D03*
X105250000Y-77500000D03*
X108250000Y-79250000D03*
X106600000Y-81800000D03*
X107800000Y-105200000D03*
X107800000Y-96400000D03*
X107800000Y-93600000D03*
X112750000Y-73250000D03*
X111000000Y-75500000D03*
X112700000Y-75700000D03*
X107000000Y-105500000D03*
X107000000Y-96400000D03*
X107000000Y-93600000D03*
X107000000Y-83800000D03*
D40*
X58250000Y-93750000D03*
X55500000Y-91000000D03*
X56950000Y-92450000D03*
D39*
X93500000Y-120000000D03*
X93500000Y-117500000D03*
X86750000Y-120000000D03*
X86750000Y-117500000D03*
D40*
X86750000Y-118750000D03*
X89000000Y-118750000D03*
X91250000Y-118750000D03*
X93500000Y-118750000D03*
D39*
X67000000Y-87750000D03*
X76000000Y-84750000D03*
X76250000Y-88750000D03*
D40*
X135250000Y-77250000D03*
X134250000Y-78250000D03*
X117000000Y-108750000D03*
X117000000Y-119750000D03*
X117000000Y-110250000D03*
X116979900Y-118229900D03*
X124250000Y-92500000D03*
X132750000Y-92500000D03*
X134250000Y-89750000D03*
X134250000Y-88500000D03*
X131300002Y-92500000D03*
X125750000Y-92500000D03*
X118750000Y-106500000D03*
X118750000Y-118250000D03*
X118750000Y-116750000D03*
X118750000Y-108250000D03*
X124250000Y-94000000D03*
X132750000Y-94000000D03*
X131300002Y-94000000D03*
X125750000Y-94000000D03*
X129250000Y-136250000D03*
X128000000Y-137500000D03*
X134250000Y-131250000D03*
X133000000Y-132500000D03*
D39*
X94800000Y-91700000D03*
X128000000Y-66750000D03*
X130500000Y-66750000D03*
X127250000Y-84250000D03*
X131250000Y-84250000D03*
X126000000Y-101250000D03*
X126000000Y-112250000D03*
X127450000Y-122750000D03*
X131050000Y-122750000D03*
X125000000Y-102300000D03*
X125000000Y-112250000D03*
X84250000Y-101250000D03*
X76250000Y-101250000D03*
X99500000Y-101250000D03*
X71000000Y-101250000D03*
D41*
X40000000Y-95000000D02*
X45000000Y-95000000D01*
D42*
X132900000Y-70750000D02*
X132900000Y-68750000D01*
X107000000Y-90250000D02*
X105750000Y-89000000D01*
X105750000Y-89000000D02*
X104750000Y-89000000D01*
X107000000Y-97750000D02*
X107500000Y-97750000D01*
X107500000Y-97750000D02*
X109000000Y-96250000D01*
X132900000Y-86250000D02*
X132250000Y-86250000D01*
X104988837Y-76205528D02*
X104988837Y-76238837D01*
X104988837Y-76238837D02*
X105500000Y-76750000D01*
X105500000Y-76750000D02*
X106466691Y-76750000D01*
X106466691Y-76750000D02*
X107011163Y-77294472D01*
D43*
X143500000Y-61000000D02*
X143500000Y-62500000D01*
X152250000Y-60250000D02*
X152250000Y-58750000D01*
X143500000Y-78750000D02*
X143500000Y-80250000D01*
X152250000Y-76500000D02*
X152250000Y-78000000D01*
D42*
X132900000Y-126750000D02*
X132900000Y-124750000D01*
D44*
X143500000Y-116750000D02*
X143500000Y-118250000D01*
X152250000Y-116000000D02*
X152250000Y-114500000D01*
X143500000Y-134750000D02*
X143500000Y-136250000D01*
X152250000Y-134000000D02*
X152250000Y-132250000D01*
D45*
X133980000Y-49280000D02*
X139060000Y-49280000D01*
X139060000Y-49280000D02*
X144140000Y-49280000D01*
X144140000Y-49280000D02*
X149220000Y-49280000D01*
D42*
X106165147Y-113720782D02*
X106220782Y-113720782D01*
X106220782Y-113720782D02*
X108116117Y-115616117D01*
X108116117Y-115616117D02*
X108116117Y-116133883D01*
X108116117Y-115633883D02*
X108078248Y-115633883D01*
D41*
X106165147Y-113720782D02*
X106203016Y-113720782D01*
X104988837Y-76205528D02*
X104988837Y-76238837D01*
X104988837Y-76238837D02*
X105500000Y-76750000D01*
X105500000Y-76750000D02*
X106466691Y-76750000D01*
X106466691Y-76750000D02*
X107011163Y-77294472D01*
D42*
X107011163Y-77294472D02*
X107470782Y-76834853D01*
X107470782Y-76834853D02*
X107682913Y-76834853D01*
X107682913Y-76834853D02*
X109383883Y-75133883D01*
D45*
X55223693Y-66223693D02*
X55223693Y-58776307D01*
X55223693Y-58776307D02*
X55500000Y-58500000D01*
X55500000Y-58500000D02*
X85000000Y-58500000D01*
X55223693Y-131223693D02*
X55223693Y-123776307D01*
X67723693Y-131223693D02*
X55223693Y-131223693D01*
X68000000Y-131500000D02*
X67723693Y-131223693D01*
X85000000Y-131500000D02*
X68000000Y-131500000D01*
D42*
X109633883Y-74633883D02*
X109616117Y-74633883D01*
X77250000Y-99750000D02*
X77250000Y-97750000D01*
X63750000Y-97750000D02*
X63750000Y-99750000D01*
X63750000Y-90250000D02*
X63750000Y-92250000D01*
X77250000Y-92250000D02*
X77250000Y-90250000D01*
X120250000Y-99750000D02*
X120250000Y-97750000D01*
X107000000Y-97750000D02*
X107000000Y-99750000D01*
X107000000Y-90250000D02*
X107000000Y-92250000D01*
X120250000Y-90250000D02*
X120250000Y-92250000D01*
D46*
X55223693Y-123776307D02*
X55223693Y-131223693D01*
X55223693Y-131223693D02*
X55500000Y-131500000D01*
X55500000Y-131500000D02*
X85000000Y-131500000D01*
D42*
X68000000Y-58500000D02*
X55500000Y-58500000D01*
X55500000Y-58500000D02*
X55223693Y-58776307D01*
D46*
X55223693Y-58776307D02*
X55500000Y-58500000D01*
X55500000Y-58500000D02*
X85000000Y-58500000D01*
D42*
X129750000Y-63250000D02*
X129750000Y-64500000D01*
X129750000Y-64500000D02*
X129750000Y-64250000D01*
X129750000Y-64250000D02*
X129750000Y-64500000D01*
X129207107Y-62707107D02*
X129750000Y-63250000D01*
X130000000Y-63500000D02*
X130000000Y-64250000D01*
X130750000Y-63500000D02*
X130000000Y-63500000D01*
X131000000Y-63250000D02*
X130750000Y-63500000D01*
X129750000Y-63250000D02*
X131000000Y-63250000D01*
X136500000Y-80250000D02*
X136500000Y-79760000D01*
X136500000Y-79760000D02*
X136500000Y-79750000D01*
X136500000Y-79750000D02*
X136500000Y-79760000D01*
D43*
X140965000Y-79760000D02*
X136500000Y-79760000D01*
X136500000Y-79760000D02*
X133060000Y-79760000D01*
X133060000Y-79760000D02*
X129250000Y-83570000D01*
D42*
X136500000Y-62500000D02*
X136500000Y-61980000D01*
D43*
X132270000Y-61980000D02*
X136500000Y-61980000D01*
X136500000Y-61980000D02*
X140965000Y-61980000D01*
X129250000Y-83570000D02*
X129250000Y-65000000D01*
X129250000Y-65000000D02*
X129750000Y-64500000D01*
X129750000Y-64500000D02*
X130000000Y-64250000D01*
X130000000Y-64250000D02*
X132270000Y-61980000D01*
D42*
X136500000Y-61980000D02*
X136500000Y-62000000D01*
X136500000Y-62000000D02*
X136500000Y-61980000D01*
X103000000Y-128500000D02*
X103000000Y-122500000D01*
X103000000Y-122500000D02*
X105293072Y-120206928D01*
X105293072Y-120206928D02*
X105293072Y-118793072D01*
D46*
X129250000Y-83570000D02*
X129250000Y-102000000D01*
X129250000Y-102000000D02*
X129500000Y-101750000D01*
X129500000Y-101750000D02*
X129750000Y-101750000D01*
X129750000Y-101750000D02*
X129750000Y-101500000D01*
D42*
X136500000Y-136750000D02*
X136500000Y-135640000D01*
X136500000Y-135640000D02*
X136500000Y-136000000D01*
X136500000Y-136000000D02*
X136500000Y-135640000D01*
X136500000Y-119000000D02*
X136500000Y-117860000D01*
X136500000Y-117860000D02*
X136500000Y-118000000D01*
X136500000Y-118000000D02*
X136500000Y-117860000D01*
D46*
X140965000Y-117860000D02*
X136500000Y-117860000D01*
X136500000Y-117860000D02*
X132360000Y-117860000D01*
X132360000Y-117860000D02*
X129250000Y-114750000D01*
X140965000Y-135640000D02*
X136500000Y-135640000D01*
X136500000Y-135640000D02*
X132890000Y-135640000D01*
X132890000Y-135640000D02*
X129250000Y-132000000D01*
X121000000Y-110250000D02*
X126750000Y-110250000D01*
X126750000Y-110250000D02*
X129250000Y-112750000D01*
X129250000Y-112750000D02*
X129250000Y-114750000D01*
X129250000Y-114750000D02*
X129250000Y-132000000D01*
D45*
X160650000Y-101190000D02*
X160650000Y-106190000D01*
X160650000Y-96190000D02*
X160650000Y-91190000D01*
X160650000Y-96190000D02*
X160650000Y-101190000D01*
X160650000Y-101190000D02*
X158210000Y-98750000D01*
X158210000Y-98750000D02*
X158090000Y-98750000D01*
X105293072Y-118793072D02*
X106750000Y-120250000D01*
X106750000Y-120250000D02*
X111000000Y-120250000D01*
X111000000Y-120250000D02*
X121000000Y-110250000D01*
X121000000Y-110250000D02*
X129750000Y-101500000D01*
X129750000Y-101500000D02*
X132500000Y-98750000D01*
X132500000Y-98750000D02*
X158090000Y-98750000D01*
X158090000Y-98750000D02*
X160650000Y-96190000D01*
D42*
X104779218Y-112334853D02*
X102750000Y-114364071D01*
X102750000Y-114364071D02*
X102750000Y-116250000D01*
X102750000Y-116250000D02*
X105293072Y-118793072D01*
D41*
X105293072Y-118793072D02*
X102750000Y-116250000D01*
X102750000Y-116250000D02*
X102750000Y-114364071D01*
X102750000Y-114364071D02*
X104779218Y-112334853D01*
X103000000Y-122500000D02*
X105293072Y-120206928D01*
X105293072Y-120206928D02*
X105293072Y-118793072D01*
D42*
X123050000Y-74400000D02*
X123070000Y-74420000D01*
X123070000Y-74420000D02*
X123950000Y-74420000D01*
X117280000Y-74420000D02*
X120780000Y-74420000D01*
X120780000Y-74420000D02*
X120800000Y-74400000D01*
X123980000Y-74420000D02*
X123950000Y-74420000D01*
X103000000Y-61870000D02*
X103000000Y-67000000D01*
X103000000Y-67000000D02*
X105293072Y-69293072D01*
X105293072Y-69293072D02*
X105293072Y-70706928D01*
X106750000Y-76000000D02*
X107805000Y-74945000D01*
X107805000Y-74945000D02*
X109100000Y-73650000D01*
X109100000Y-73650000D02*
X109100000Y-72580000D01*
X109100000Y-72580000D02*
X106260000Y-69740000D01*
X116500000Y-75200000D02*
X116500000Y-75750000D01*
X117280000Y-74420000D02*
X116500000Y-75200000D01*
X116500000Y-77600000D02*
X116500000Y-75750000D01*
X115870000Y-78230000D02*
X116500000Y-77600000D01*
X114550000Y-78230000D02*
X115870000Y-78230000D01*
X114550000Y-80770000D02*
X113370000Y-80770000D01*
X113370000Y-80770000D02*
X112900000Y-80300000D01*
X112900000Y-80300000D02*
X112900000Y-78700000D01*
X112900000Y-78700000D02*
X112430000Y-78230000D01*
X105250000Y-77500000D02*
X105250000Y-77385929D01*
X105250000Y-77385929D02*
X104529218Y-76665147D01*
X114550000Y-78230000D02*
X112430000Y-78230000D01*
X112430000Y-78230000D02*
X110330000Y-78230000D01*
X110330000Y-78230000D02*
X110300000Y-78200000D01*
X110045406Y-68295406D02*
X109995406Y-68295406D01*
X109995406Y-68295406D02*
X108850000Y-67150000D01*
X108295406Y-70045406D02*
X108295406Y-69695406D01*
X108295406Y-69695406D02*
X107300000Y-68700000D01*
D45*
X111120000Y-49280000D02*
X116200000Y-49280000D01*
X116200000Y-49280000D02*
X121280000Y-49280000D01*
D42*
X109883883Y-114366117D02*
X108366117Y-114366117D01*
X108366117Y-114366117D02*
X106675000Y-112675000D01*
X106675000Y-112675000D02*
X106325000Y-112675000D01*
X110400000Y-59250000D02*
X109750000Y-59250000D01*
X109750000Y-59250000D02*
X109000000Y-58500000D01*
X110400000Y-61250000D02*
X109000000Y-61250000D01*
X107500000Y-109614071D02*
X107500000Y-110533309D01*
X107500000Y-110533309D02*
X106794472Y-111238837D01*
X107500000Y-108250000D02*
X107500000Y-109614071D01*
X107500000Y-109614071D02*
X106334853Y-110779218D01*
X107500000Y-107300000D02*
X106200000Y-106000000D01*
X107500000Y-108250000D02*
X107500000Y-107300000D01*
D45*
X105293072Y-70706928D02*
X106260000Y-69740000D01*
X106260000Y-69740000D02*
X107300000Y-68700000D01*
X107300000Y-68700000D02*
X108850000Y-67150000D01*
X108850000Y-67150000D02*
X109000000Y-67000000D01*
X109000000Y-51400000D02*
X111120000Y-49280000D01*
X109000000Y-67000000D02*
X109000000Y-61250000D01*
X109000000Y-61250000D02*
X109000000Y-58500000D01*
X109000000Y-58500000D02*
X109000000Y-51400000D01*
X121280000Y-49280000D02*
X126360000Y-49280000D01*
D42*
X105250000Y-77500000D02*
X105250000Y-77550000D01*
X105250000Y-77550000D02*
X104800000Y-78000000D01*
X104800000Y-78000000D02*
X104800000Y-81200000D01*
X104800000Y-81200000D02*
X106400000Y-82800000D01*
X106200000Y-93600000D02*
X106200000Y-96400000D01*
X106794472Y-111238837D02*
X106334853Y-110779218D01*
X105705528Y-113261163D02*
X105738837Y-113261163D01*
X105738837Y-113261163D02*
X106325000Y-112675000D01*
X106325000Y-112675000D02*
X106325000Y-111708309D01*
X106325000Y-111708309D02*
X106794472Y-111238837D01*
X104500000Y-73000000D02*
X104500000Y-73864071D01*
X104500000Y-73864071D02*
X105915147Y-75279218D01*
X105915147Y-75279218D02*
X105915147Y-75165147D01*
D41*
X106794472Y-111238837D02*
X106761163Y-111238837D01*
X105915147Y-75279218D02*
X106029218Y-75279218D01*
X104529218Y-76779218D02*
X104529218Y-76665147D01*
D42*
X105915147Y-75279218D02*
X105915147Y-75067087D01*
X105915147Y-75067087D02*
X107616117Y-73366117D01*
X105293072Y-70706928D02*
X104500000Y-71500000D01*
X104500000Y-71500000D02*
X104500000Y-73000000D01*
X105293072Y-70706928D02*
X105293072Y-69293072D01*
X105293072Y-69293072D02*
X103000000Y-67000000D01*
D45*
X46000000Y-48000000D02*
X66000000Y-48000000D01*
X66000000Y-48000000D02*
X66223693Y-48223693D01*
X66223693Y-48223693D02*
X87223693Y-48223693D01*
D46*
X66000000Y-48000000D02*
X66223693Y-48223693D01*
X66223693Y-48223693D02*
X87223693Y-48223693D01*
D45*
X66223693Y-141776307D02*
X87223693Y-141776307D01*
X66000000Y-142000000D02*
X66223693Y-141776307D01*
X46000000Y-142000000D02*
X66000000Y-142000000D01*
D46*
X87223693Y-141776307D02*
X66223693Y-141776307D01*
X66223693Y-141776307D02*
X66000000Y-142000000D01*
D42*
X110204594Y-71954594D02*
X110204594Y-70045406D01*
X113025000Y-67225000D02*
X113025000Y-56900000D01*
X110204594Y-70045406D02*
X113025000Y-67225000D01*
X111954594Y-73704594D02*
X110204594Y-71954594D01*
X114550000Y-74420000D02*
X112670000Y-74420000D01*
X112670000Y-74420000D02*
X111954594Y-73704594D01*
X108250000Y-79250000D02*
X111954594Y-75545406D01*
X111954594Y-75545406D02*
X111954594Y-73704594D01*
X109000000Y-107750000D02*
X109000000Y-110885929D01*
X109000000Y-110885929D02*
X107720782Y-112165147D01*
X106600000Y-80200000D02*
X106600000Y-78735929D01*
X106600000Y-81800000D02*
X106600000Y-80200000D01*
X106600000Y-78735929D02*
X106084853Y-78220782D01*
X109000000Y-107750000D02*
X109000000Y-106400000D01*
X109000000Y-106400000D02*
X107800000Y-105200000D01*
X107800000Y-96400000D02*
X107800000Y-93600000D01*
X111704594Y-70454594D02*
X111704594Y-70295406D01*
X111704594Y-70295406D02*
X113750000Y-68250000D01*
X113750000Y-58715000D02*
X115565000Y-56900000D01*
X113750000Y-68250000D02*
X113750000Y-58715000D01*
X111704594Y-70454594D02*
X112750000Y-71500000D01*
X112750000Y-71500000D02*
X112750000Y-71250000D01*
X112750000Y-73250000D02*
X112750000Y-71250000D01*
X107000000Y-83800000D02*
X107000000Y-83700000D01*
X107000000Y-83700000D02*
X107500000Y-83200000D01*
X114550000Y-75690000D02*
X112710000Y-75690000D01*
X112710000Y-75690000D02*
X112700000Y-75700000D01*
X107500000Y-78750000D02*
X107750000Y-78750000D01*
X107750000Y-78750000D02*
X111000000Y-75500000D01*
D41*
X107261163Y-111705528D02*
X107244474Y-111705528D01*
D42*
X108250000Y-108500000D02*
X108250000Y-110716691D01*
X108250000Y-110716691D02*
X107261163Y-111705528D01*
X108250000Y-108500000D02*
X108250000Y-106750000D01*
X108250000Y-106750000D02*
X107000000Y-105500000D01*
X107000000Y-96400000D02*
X107000000Y-93600000D01*
X107500000Y-83200000D02*
X107500000Y-78750000D01*
X107500000Y-78750000D02*
X107500000Y-78716691D01*
X107500000Y-78716691D02*
X106544472Y-77761163D01*
X103000000Y-140460000D02*
X103000000Y-136120000D01*
X103000000Y-49540000D02*
X103000000Y-54250000D01*
D46*
X79500000Y-86750000D02*
X70750000Y-86750000D01*
X70750000Y-86750000D02*
X67940000Y-89560000D01*
X67940000Y-89560000D02*
X67940000Y-91190000D01*
X87750000Y-86750000D02*
X87750000Y-88500000D01*
X87750000Y-88500000D02*
X85500000Y-90750000D01*
X67940000Y-91190000D02*
X67940000Y-89560000D01*
X70750000Y-86750000D02*
X87750000Y-86750000D01*
X67940000Y-89560000D02*
X70750000Y-86750000D01*
D42*
X66250000Y-92250000D02*
X66880000Y-92250000D01*
X66880000Y-92250000D02*
X67940000Y-91190000D01*
X66250000Y-90250000D02*
X67000000Y-90250000D01*
X67000000Y-90250000D02*
X67940000Y-91190000D01*
X96500000Y-86750000D02*
X104750000Y-86750000D01*
D46*
X96500000Y-86750000D02*
X96500000Y-88500000D01*
X96500000Y-88500000D02*
X98750000Y-90750000D01*
X111120000Y-91190000D02*
X111120000Y-89120000D01*
X108750000Y-86750000D02*
X96500000Y-86750000D01*
X111120000Y-89120000D02*
X108750000Y-86750000D01*
D42*
X109500000Y-92250000D02*
X110060000Y-92250000D01*
X110060000Y-92250000D02*
X111120000Y-91190000D01*
X109500000Y-90250000D02*
X110180000Y-90250000D01*
X110180000Y-90250000D02*
X111120000Y-91190000D01*
X79500000Y-103250000D02*
X75250000Y-103250000D01*
X75250000Y-103250000D02*
X73020000Y-101020000D01*
X73020000Y-101020000D02*
X73020000Y-98810000D01*
X74750000Y-99750000D02*
X74250000Y-99750000D01*
X74250000Y-99750000D02*
X73020000Y-100980000D01*
X74750000Y-99750000D02*
X73960000Y-99750000D01*
X73960000Y-99750000D02*
X73020000Y-98810000D01*
D46*
X87750000Y-101500000D02*
X85500000Y-99250000D01*
X87750000Y-103250000D02*
X87750000Y-101500000D01*
X73020000Y-98810000D02*
X73020000Y-100980000D01*
X73020000Y-100980000D02*
X73020000Y-101020000D01*
X75250000Y-103250000D02*
X87750000Y-103250000D01*
X73020000Y-101020000D02*
X75250000Y-103250000D01*
D42*
X74750000Y-97750000D02*
X74080000Y-97750000D01*
X74750000Y-99750000D02*
X73960000Y-99750000D01*
X74080000Y-97750000D02*
X73020000Y-98810000D01*
X73960000Y-99750000D02*
X73020000Y-98810000D01*
X116200000Y-98810000D02*
X116200000Y-101050000D01*
X116200000Y-101050000D02*
X114000000Y-103250000D01*
X114000000Y-103250000D02*
X104750000Y-103250000D01*
D46*
X96500000Y-103250000D02*
X96500000Y-101500000D01*
X96500000Y-101500000D02*
X98750000Y-99250000D01*
X116200000Y-98810000D02*
X116200000Y-101050000D01*
X114000000Y-103250000D02*
X96500000Y-103250000D01*
X116200000Y-101050000D02*
X114000000Y-103250000D01*
D42*
X117750000Y-99750000D02*
X117140000Y-99750000D01*
X117750000Y-97750000D02*
X117260000Y-97750000D01*
X117140000Y-99750000D02*
X116200000Y-98810000D01*
X117260000Y-97750000D02*
X116200000Y-98810000D01*
X70040000Y-83460000D02*
X66710000Y-83460000D01*
X66710000Y-83460000D02*
X64320000Y-81070000D01*
X64320000Y-81070000D02*
X61590000Y-81070000D01*
X61590000Y-108930000D02*
X64070000Y-108930000D01*
X64070000Y-108930000D02*
X67040000Y-105960000D01*
X67040000Y-105960000D02*
X70540000Y-105960000D01*
X72250000Y-80900000D02*
X67520000Y-80900000D01*
X67520000Y-80900000D02*
X67500000Y-80920000D01*
X68000000Y-103420000D02*
X70770000Y-103420000D01*
X70770000Y-103420000D02*
X73000000Y-105650000D01*
D45*
X68000000Y-66000000D02*
X66750000Y-66000000D01*
X66750000Y-66000000D02*
X54000000Y-78750000D01*
D46*
X58250000Y-93750000D02*
X58250000Y-94250000D01*
X59000000Y-95000000D02*
X66000000Y-95000000D01*
X58250000Y-94250000D02*
X59000000Y-95000000D01*
D45*
X56950000Y-92450000D02*
X58250000Y-93750000D01*
X54000000Y-89500000D02*
X55500000Y-91000000D01*
X55500000Y-91000000D02*
X56950000Y-92450000D01*
X98000000Y-59000000D02*
X98000000Y-66000000D01*
X98000000Y-66000000D02*
X85000000Y-66000000D01*
X85000000Y-66000000D02*
X68000000Y-66000000D01*
X54000000Y-78750000D02*
X54000000Y-89500000D01*
D46*
X66000000Y-95000000D02*
X71500000Y-95000000D01*
X73020000Y-93480000D02*
X73020000Y-91190000D01*
X71500000Y-95000000D02*
X73020000Y-93480000D01*
X67940000Y-96940000D02*
X67940000Y-98810000D01*
X66000000Y-95000000D02*
X67940000Y-96940000D01*
X98000000Y-66000000D02*
X98355534Y-66000000D01*
X98355534Y-66000000D02*
X101457767Y-69102233D01*
D42*
X66250000Y-99750000D02*
X67000000Y-99750000D01*
X67000000Y-99750000D02*
X67940000Y-98810000D01*
X66250000Y-97750000D02*
X66880000Y-97750000D01*
X66880000Y-97750000D02*
X67940000Y-98810000D01*
X74750000Y-92250000D02*
X74080000Y-92250000D01*
X74080000Y-92250000D02*
X73020000Y-91190000D01*
X74750000Y-90250000D02*
X73960000Y-90250000D01*
X73960000Y-90250000D02*
X73020000Y-91190000D01*
D46*
X98000000Y-66000000D02*
X85000000Y-66000000D01*
X68000000Y-66000000D02*
X85000000Y-66000000D01*
D42*
X93500000Y-120000000D02*
X93500000Y-118750000D01*
X93500000Y-118750000D02*
X93500000Y-120000000D01*
X93500000Y-120000000D02*
X93500000Y-118750000D01*
X93500000Y-118750000D02*
X93500000Y-117500000D01*
X86750000Y-120000000D02*
X86750000Y-118750000D01*
X86750000Y-118750000D02*
X86750000Y-120000000D01*
X86750000Y-120000000D02*
X86750000Y-118750000D01*
X86750000Y-118750000D02*
X86750000Y-117500000D01*
D45*
X68000000Y-124000000D02*
X68000000Y-121250000D01*
X70500000Y-118750000D02*
X68000000Y-121250000D01*
X70500000Y-118750000D02*
X86750000Y-118750000D01*
X86750000Y-118750000D02*
X86750000Y-118750000D01*
X86750000Y-118750000D02*
X89000000Y-118750000D01*
X89000000Y-118750000D02*
X91250000Y-118750000D01*
X91250000Y-118750000D02*
X93500000Y-118750000D01*
X93500000Y-118750000D02*
X93500000Y-118750000D01*
D46*
X101517767Y-120267767D02*
X101517767Y-120482233D01*
X101517767Y-120482233D02*
X98000000Y-124000000D01*
D45*
X85000000Y-124000000D02*
X68000000Y-124000000D01*
X98000000Y-124000000D02*
X85000000Y-124000000D01*
X98000000Y-131000000D02*
X98000000Y-124000000D01*
D46*
X111120000Y-98810000D02*
X111120000Y-96880000D01*
X116200000Y-94050000D02*
X116200000Y-91190000D01*
X115250000Y-95000000D02*
X116200000Y-94050000D01*
X113000000Y-95000000D02*
X115250000Y-95000000D01*
X111120000Y-96880000D02*
X113000000Y-95000000D01*
D42*
X109500000Y-97750000D02*
X110060000Y-97750000D01*
X110060000Y-97750000D02*
X111120000Y-98810000D01*
X109500000Y-99750000D02*
X110180000Y-99750000D01*
X110180000Y-99750000D02*
X111120000Y-98810000D01*
X117750000Y-92250000D02*
X117260000Y-92250000D01*
X117260000Y-92250000D02*
X116200000Y-91190000D01*
X117750000Y-90250000D02*
X117140000Y-90250000D01*
X117140000Y-90250000D02*
X116200000Y-91190000D01*
D46*
X98000000Y-124000000D02*
X85000000Y-124000000D01*
X85000000Y-124000000D02*
X68000000Y-124000000D01*
D43*
X147950000Y-59440000D02*
X148510000Y-59440000D01*
X148510000Y-59440000D02*
X149750000Y-58750000D01*
X149750000Y-58750000D02*
X149750000Y-60250000D01*
X149750000Y-60250000D02*
X148490000Y-59440000D01*
X148490000Y-59440000D02*
X147950000Y-59440000D01*
X140965000Y-59440000D02*
X147950000Y-59440000D01*
X147950000Y-61980000D02*
X147330000Y-61980000D01*
X147330000Y-61980000D02*
X146060000Y-62500000D01*
X146060000Y-62500000D02*
X146060000Y-61060000D01*
X146060000Y-61060000D02*
X147330000Y-61980000D01*
X147330000Y-61980000D02*
X147950000Y-61980000D01*
X155570000Y-58170000D02*
X155570000Y-61980000D01*
X155570000Y-61980000D02*
X155570000Y-65790000D01*
X147950000Y-61980000D02*
X155570000Y-61980000D01*
X147950000Y-77220000D02*
X148570000Y-77220000D01*
X148570000Y-77220000D02*
X149750000Y-78000000D01*
X147950000Y-77220000D02*
X148570000Y-77220000D01*
X148570000Y-77220000D02*
X149750000Y-76540000D01*
X149750000Y-76540000D02*
X149750000Y-78000000D01*
X140965000Y-77220000D02*
X147950000Y-77220000D01*
X147950000Y-79760000D02*
X147410000Y-79760000D01*
X147410000Y-79760000D02*
X146120000Y-80250000D01*
X146120000Y-80250000D02*
X146120000Y-78870000D01*
X146120000Y-78870000D02*
X147410000Y-79760000D01*
X147410000Y-79760000D02*
X147950000Y-79760000D01*
X155570000Y-75950000D02*
X155570000Y-79760000D01*
X155570000Y-79760000D02*
X155570000Y-83570000D01*
X147950000Y-79760000D02*
X155570000Y-79760000D01*
X147950000Y-115320000D02*
X140965000Y-115320000D01*
D44*
X147950000Y-115320000D02*
X148570000Y-115320000D01*
X148570000Y-115320000D02*
X149750000Y-116000000D01*
X149750000Y-116000000D02*
X149750000Y-114500000D01*
X149750000Y-114500000D02*
X148430000Y-115320000D01*
X148430000Y-115320000D02*
X147950000Y-115320000D01*
X140965000Y-115320000D02*
X147950000Y-115320000D01*
D43*
X155570000Y-114050000D02*
X155570000Y-117860000D01*
X155570000Y-117860000D02*
X155570000Y-121670000D01*
X147950000Y-117860000D02*
X155570000Y-117860000D01*
D44*
X155570000Y-114050000D02*
X155570000Y-117860000D01*
X155570000Y-117860000D02*
X155570000Y-121670000D01*
X147950000Y-117860000D02*
X147390000Y-117860000D01*
X147390000Y-117860000D02*
X146000000Y-116970000D01*
X146000000Y-116970000D02*
X146000000Y-118250000D01*
X146000000Y-118250000D02*
X147390000Y-117860000D01*
X147390000Y-117860000D02*
X147950000Y-117860000D01*
X147950000Y-117860000D02*
X155570000Y-117860000D01*
D43*
X140965000Y-133100000D02*
X147950000Y-133100000D01*
D44*
X149750000Y-132250000D02*
X149550000Y-132250000D01*
X149550000Y-132250000D02*
X148650000Y-133100000D01*
X148650000Y-133100000D02*
X147950000Y-133100000D01*
X147950000Y-133100000D02*
X148650000Y-133100000D01*
X148650000Y-133100000D02*
X149750000Y-134000000D01*
X147950000Y-133100000D02*
X140965000Y-133100000D01*
D43*
X155570000Y-131830000D02*
X155570000Y-135640000D01*
X155570000Y-135640000D02*
X155570000Y-139450000D01*
X147950000Y-135640000D02*
X155570000Y-135640000D01*
D44*
X147950000Y-135640000D02*
X147310000Y-135640000D01*
X147310000Y-135640000D02*
X146000000Y-136250000D01*
X146000000Y-136250000D02*
X146000000Y-134750000D01*
X146000000Y-134750000D02*
X147390000Y-135640000D01*
X147390000Y-135640000D02*
X147950000Y-135640000D01*
X155570000Y-139450000D02*
X155570000Y-135640000D01*
X155570000Y-135640000D02*
X155570000Y-131830000D01*
X155570000Y-135640000D02*
X147950000Y-135640000D01*
D45*
X87223693Y-76776307D02*
X66223693Y-76776307D01*
X66223693Y-76776307D02*
X66000000Y-77000000D01*
D46*
X66223693Y-76776307D02*
X66000000Y-77000000D01*
X87000000Y-77000000D02*
X87223693Y-76776307D01*
D42*
X67000000Y-87750000D02*
X65320000Y-86070000D01*
X65320000Y-86070000D02*
X61590000Y-86070000D01*
D46*
X80500000Y-98250000D02*
X81000000Y-98250000D01*
X81000000Y-98250000D02*
X84250000Y-95000000D01*
X84250000Y-95000000D02*
X80500000Y-91250000D01*
X80500000Y-91250000D02*
X80500000Y-91500000D01*
X80500000Y-91500000D02*
X81500000Y-92500000D01*
X81500000Y-92500000D02*
X80500000Y-92500000D01*
D42*
X99706928Y-76293072D02*
X99956928Y-76293072D01*
X99956928Y-76293072D02*
X102000000Y-74250000D01*
X102000000Y-74250000D02*
X103966691Y-74250000D01*
X103966691Y-74250000D02*
X105455528Y-75738837D01*
D46*
X80500000Y-95000000D02*
X80500000Y-92500000D01*
X80500000Y-92500000D02*
X80500000Y-90750000D01*
D42*
X72250000Y-83600000D02*
X74850000Y-83600000D01*
X74850000Y-83600000D02*
X76000000Y-84750000D01*
X76250000Y-88750000D02*
X78750000Y-88750000D01*
X78750000Y-88750000D02*
X80500000Y-90500000D01*
X80500000Y-90500000D02*
X80500000Y-90750000D01*
D43*
X80500000Y-95000000D02*
X81910000Y-95000000D01*
D45*
X92000000Y-81000000D02*
X93500000Y-79500000D01*
X92000000Y-90500000D02*
X92000000Y-81000000D01*
X87500000Y-95000000D02*
X92000000Y-90500000D01*
X87500000Y-95000000D02*
X81910000Y-95000000D01*
D46*
X80500000Y-95000000D02*
X80500000Y-98250000D01*
X80500000Y-98250000D02*
X80500000Y-99250000D01*
X99706928Y-76293072D02*
X97500000Y-78500000D01*
X97500000Y-78500000D02*
X94500000Y-78500000D01*
X94500000Y-78500000D02*
X93500000Y-79500000D01*
D44*
X99000000Y-73715534D02*
X97922233Y-72637767D01*
D45*
X93500000Y-79500000D02*
X99000000Y-74000000D01*
D44*
X99000000Y-74000000D02*
X99000000Y-73715534D01*
D46*
X100250000Y-95000000D02*
X103750000Y-95000000D01*
X103750000Y-90750000D02*
X103750000Y-91500000D01*
X103750000Y-91500000D02*
X100250000Y-95000000D01*
X100250000Y-95000000D02*
X103750000Y-98500000D01*
X103750000Y-98500000D02*
X102750000Y-97500000D01*
X102750000Y-97500000D02*
X103750000Y-97500000D01*
X100250000Y-95000000D02*
X97000000Y-95000000D01*
D45*
X92000000Y-107750000D02*
X92000000Y-108250000D01*
X97000000Y-95000000D02*
X92000000Y-100000000D01*
X92000000Y-100000000D02*
X92000000Y-107750000D01*
X100250000Y-95000000D02*
X97000000Y-95000000D01*
D42*
X73000000Y-108350000D02*
X73100000Y-108350000D01*
X73100000Y-108350000D02*
X75250000Y-110500000D01*
X75250000Y-110500000D02*
X89750000Y-110500000D01*
X89750000Y-110500000D02*
X92000000Y-108250000D01*
X73000000Y-108350000D02*
X73035000Y-108350000D01*
X99706928Y-113206928D02*
X99706928Y-113043072D01*
X99706928Y-113043072D02*
X101750000Y-111000000D01*
X101750000Y-111000000D02*
X104974998Y-111000000D01*
X104974998Y-111000000D02*
X105724998Y-111750000D01*
X105724998Y-111750000D02*
X105724998Y-112308311D01*
X105724998Y-112308311D02*
X105238837Y-112794472D01*
D41*
X99706928Y-113206928D02*
X99706928Y-113043072D01*
X99706928Y-113043072D02*
X101750000Y-111000000D01*
X101750000Y-111000000D02*
X105000000Y-111000000D01*
X105000000Y-111000000D02*
X105750000Y-111750000D01*
X105750000Y-111750000D02*
X105750000Y-112283309D01*
X105750000Y-112283309D02*
X105238837Y-112794472D01*
D46*
X99706928Y-113206928D02*
X98500000Y-112000000D01*
X98500000Y-112000000D02*
X95000000Y-112000000D01*
X95000000Y-112000000D02*
X94500000Y-111500000D01*
D43*
X97982233Y-116732233D02*
X97232233Y-116732233D01*
X97232233Y-116732233D02*
X94500000Y-114000000D01*
X94500000Y-114000000D02*
X94500000Y-111500000D01*
D45*
X92000000Y-108250000D02*
X92000000Y-109000000D01*
X92000000Y-109000000D02*
X94500000Y-111500000D01*
X94500000Y-111500000D02*
X98750000Y-115750000D01*
D46*
X103750000Y-90750000D02*
X103750000Y-95000000D01*
X103750000Y-95000000D02*
X103750000Y-97500000D01*
X103750000Y-97500000D02*
X103750000Y-99250000D01*
D45*
X46000000Y-120000000D02*
X46000000Y-102250000D01*
X46000000Y-70000000D02*
X46000000Y-87250000D01*
X87000000Y-113000000D02*
X87223693Y-113223693D01*
X66000000Y-113000000D02*
X87000000Y-113000000D01*
D46*
X87223693Y-113223693D02*
X66223693Y-113223693D01*
X66223693Y-113223693D02*
X66000000Y-113000000D01*
D43*
X144750000Y-74750000D02*
X145750000Y-73750000D01*
X137750000Y-74750000D02*
X144750000Y-74750000D01*
X134250000Y-78250000D02*
X135250000Y-77250000D01*
X135250000Y-77250000D02*
X137750000Y-74750000D01*
X117000000Y-108750000D02*
X117000000Y-108250000D01*
X117000000Y-119750000D02*
X116979900Y-119750000D01*
X116979900Y-119750000D02*
X117000000Y-119750000D01*
X117000000Y-119750000D02*
X116979900Y-119750000D01*
X117000000Y-108250000D02*
X117000000Y-106000000D01*
X117000000Y-106000000D02*
X121250000Y-101750000D01*
X122250000Y-100750000D02*
X121250000Y-101750000D01*
X122250000Y-93250000D02*
X122250000Y-100750000D01*
X123000000Y-92500000D02*
X122250000Y-93250000D01*
X124250000Y-92500000D02*
X123000000Y-92500000D01*
X117000000Y-110250000D02*
X117000000Y-108250000D01*
X116979900Y-133770100D02*
X116979900Y-119750000D01*
X116979900Y-119750000D02*
X116979900Y-118229900D01*
X115210000Y-135540000D02*
X116979900Y-133770100D01*
X113750000Y-135540000D02*
X115210000Y-135540000D01*
X134250000Y-88500000D02*
X134250000Y-89750000D01*
X134250000Y-89750000D02*
X134250000Y-91000000D01*
X134250000Y-91000000D02*
X132750000Y-92500000D01*
X132750000Y-92500000D02*
X131300002Y-92500000D01*
X125750000Y-92500000D02*
X124250000Y-92500000D01*
X147950000Y-64520000D02*
X147950000Y-71550000D01*
X147950000Y-71550000D02*
X145750000Y-73750000D01*
X158110000Y-65790000D02*
X161920000Y-65790000D01*
X161920000Y-65790000D02*
X163190000Y-64520000D01*
X158110000Y-58170000D02*
X161920000Y-58170000D01*
X161920000Y-58170000D02*
X163190000Y-59440000D01*
X118750000Y-108250000D02*
X118750000Y-106500000D01*
X118750000Y-106500000D02*
X121750000Y-103500000D01*
X122500000Y-132960000D02*
X120210000Y-132960000D01*
X120210000Y-132960000D02*
X118750000Y-131500000D01*
X118750000Y-131500000D02*
X118750000Y-118250000D01*
X118750000Y-118250000D02*
X118750000Y-116750000D01*
X133500000Y-94000000D02*
X136250000Y-94000000D01*
X136250000Y-94000000D02*
X147950000Y-82300000D01*
X133500000Y-94000000D02*
X132750000Y-94000000D01*
X132750000Y-94000000D02*
X131300002Y-94000000D01*
X125750000Y-94000000D02*
X124250000Y-94000000D01*
X124250000Y-94000000D02*
X123750000Y-94500000D01*
X123750000Y-94500000D02*
X123750000Y-101500000D01*
X123750000Y-101500000D02*
X121750000Y-103500000D01*
X158110000Y-83570000D02*
X161920000Y-83570000D01*
X161920000Y-83570000D02*
X163190000Y-82300000D01*
X158110000Y-75950000D02*
X161920000Y-75950000D01*
X161920000Y-75950000D02*
X163190000Y-77220000D01*
X128000000Y-137500000D02*
X120000000Y-137500000D01*
X120000000Y-137500000D02*
X115460000Y-142040000D01*
X115460000Y-142040000D02*
X113750000Y-142040000D01*
X128000000Y-137500000D02*
X129250000Y-136250000D01*
X133000000Y-132500000D02*
X134250000Y-131250000D01*
X134250000Y-131250000D02*
X134922500Y-130577500D01*
X134922500Y-130577500D02*
X137172500Y-130577500D01*
X137172500Y-130577500D02*
X146662500Y-130577500D01*
X146662500Y-130577500D02*
X147950000Y-129290000D01*
X147950000Y-129290000D02*
X147950000Y-120400000D01*
X158110000Y-121670000D02*
X161920000Y-121670000D01*
X161920000Y-121670000D02*
X163190000Y-120400000D01*
D44*
X158110000Y-121670000D02*
X161920000Y-121670000D01*
X161920000Y-121670000D02*
X163190000Y-120400000D01*
D43*
X158110000Y-114050000D02*
X161920000Y-114050000D01*
X161920000Y-114050000D02*
X163190000Y-115320000D01*
D44*
X158110000Y-114050000D02*
X161920000Y-114050000D01*
X161920000Y-114050000D02*
X163190000Y-115320000D01*
D42*
X127121142Y-61964645D02*
X127121142Y-60378858D01*
X130000000Y-59000000D02*
X130805000Y-58195000D01*
X128500000Y-59000000D02*
X130000000Y-59000000D01*
X127121142Y-60378858D02*
X128500000Y-59000000D01*
X130805000Y-58195000D02*
X130805000Y-56900000D01*
D43*
X122500000Y-139460000D02*
X125710000Y-139460000D01*
X125710000Y-139460000D02*
X129750000Y-143500000D01*
X147950000Y-138180000D02*
X147820000Y-138180000D01*
X147820000Y-138180000D02*
X142500000Y-143500000D01*
X142500000Y-143500000D02*
X130000000Y-143500000D01*
X130000000Y-143500000D02*
X129750000Y-143500000D01*
D42*
X122300000Y-75400000D02*
X122300000Y-73200000D01*
X111800000Y-87200000D02*
X121600000Y-87200000D01*
X121600000Y-87200000D02*
X122300000Y-86500000D01*
X122300000Y-86500000D02*
X122300000Y-75400000D01*
D41*
X97300000Y-85100000D02*
X109700000Y-85100000D01*
X95700000Y-90500000D02*
X94900000Y-89700000D01*
X94900000Y-89700000D02*
X94900000Y-85600000D01*
X94900000Y-85600000D02*
X95400000Y-85100000D01*
X95400000Y-85100000D02*
X97300000Y-85100000D01*
X90407898Y-96592102D02*
X92007898Y-96592102D01*
X95700000Y-92900000D02*
X95700000Y-91500000D01*
X92007898Y-96592102D02*
X95700000Y-92900000D01*
X95700000Y-91500000D02*
X95700000Y-90500000D01*
X109700000Y-85100000D02*
X109800000Y-85200000D01*
D42*
X109800000Y-85200000D02*
X111800000Y-87200000D01*
X124800000Y-70700000D02*
X124800000Y-57245000D01*
X122300000Y-73200000D02*
X124800000Y-70700000D01*
X124800000Y-57245000D02*
X124455000Y-56900000D01*
X121600000Y-75400000D02*
X121600000Y-72900000D01*
X110400002Y-84700000D02*
X112200002Y-86500000D01*
X112200002Y-86500000D02*
X121099998Y-86500000D01*
X121099998Y-86500000D02*
X121600000Y-85999998D01*
X121600000Y-85999998D02*
X121600000Y-75400000D01*
D41*
X107900000Y-84600000D02*
X110300000Y-84600000D01*
X110300000Y-84600000D02*
X110400000Y-84700000D01*
D42*
X110400000Y-84700000D02*
X110400002Y-84700000D01*
X124100000Y-60100000D02*
X121915000Y-57915000D01*
X124100000Y-70400000D02*
X124100000Y-60100000D01*
X121600000Y-72900000D02*
X124100000Y-70400000D01*
X121915000Y-57915000D02*
X121915000Y-56900000D01*
D41*
X94400000Y-85600000D02*
X94400000Y-85400000D01*
X95200000Y-84600000D02*
X107900000Y-84600000D01*
X94400000Y-85400000D02*
X95200000Y-84600000D01*
X94400000Y-91300000D02*
X94400000Y-85600000D01*
X94800000Y-91700000D02*
X94400000Y-91300000D01*
D43*
X158110000Y-139450000D02*
X161920000Y-139450000D01*
X161920000Y-139450000D02*
X163190000Y-138180000D01*
D44*
X158110000Y-139450000D02*
X161920000Y-139450000D01*
X161920000Y-139450000D02*
X163190000Y-138180000D01*
D43*
X158110000Y-131830000D02*
X161920000Y-131830000D01*
X161920000Y-131830000D02*
X163190000Y-133100000D01*
D44*
X158110000Y-131830000D02*
X161920000Y-131830000D01*
X161920000Y-131830000D02*
X163190000Y-133100000D01*
D42*
X132900000Y-66750000D02*
X130500000Y-66750000D01*
X126250000Y-68500000D02*
X126250000Y-69000000D01*
X128000000Y-66750000D02*
X126250000Y-68500000D01*
X126250000Y-69000000D02*
X126250000Y-69250000D01*
X125480000Y-80770000D02*
X123950000Y-80770000D01*
X126250000Y-80000000D02*
X125480000Y-80770000D01*
X126250000Y-69250000D02*
X126250000Y-80000000D01*
X132900000Y-84250000D02*
X131250000Y-84250000D01*
X125040000Y-82040000D02*
X123950000Y-82040000D01*
X127250000Y-84250000D02*
X125040000Y-82040000D01*
X127500000Y-98450000D02*
X127500000Y-99750000D01*
X127500000Y-99750000D02*
X126000000Y-101250000D01*
X127450000Y-122750000D02*
X126000000Y-121300000D01*
X126000000Y-121300000D02*
X126000000Y-112250000D01*
X132900000Y-122750000D02*
X131050000Y-122750000D01*
D41*
X126000000Y-121300000D02*
X126000000Y-112250000D01*
D42*
X125500000Y-84500000D02*
X127500000Y-86500000D01*
X127500000Y-86500000D02*
X127500000Y-98450000D01*
X123950000Y-83310000D02*
X125060000Y-83310000D01*
X125060000Y-83310000D02*
X125500000Y-83750000D01*
X125500000Y-83750000D02*
X125500000Y-84500000D01*
X125500000Y-73500000D02*
X125500000Y-65000000D01*
X128464645Y-62035355D02*
X128464645Y-60621142D01*
X125500000Y-65000000D02*
X128464645Y-62035355D01*
X123950000Y-79500000D02*
X125000000Y-79500000D01*
X125000000Y-79500000D02*
X125500000Y-79000000D01*
X125500000Y-79000000D02*
X125500000Y-73500000D01*
X126750000Y-97600000D02*
X126750000Y-99450000D01*
X125000000Y-101200000D02*
X125000000Y-102300000D01*
X126750000Y-99450000D02*
X125000000Y-101200000D01*
X125000000Y-115400000D02*
X125000000Y-112250000D01*
X130900000Y-139500000D02*
X130900000Y-136150000D01*
X130900000Y-136150000D02*
X125000000Y-130250000D01*
X125000000Y-130250000D02*
X125000000Y-115400000D01*
X126750000Y-86750000D02*
X124580000Y-84580000D01*
X126750000Y-97600000D02*
X126750000Y-86750000D01*
X124580000Y-84580000D02*
X123950000Y-84580000D01*
X84250000Y-101250000D02*
X76250000Y-101250000D01*
X113660000Y-98810000D02*
X113660000Y-98840000D01*
X113660000Y-98840000D02*
X111250000Y-101250000D01*
X111250000Y-101250000D02*
X99500000Y-101250000D01*
X71000000Y-101250000D02*
X65000000Y-101250000D01*
X65000000Y-101250000D02*
X62320000Y-103930000D01*
X62320000Y-103930000D02*
X61590000Y-103930000D01*
D43*
X158110000Y-61980000D02*
X160650000Y-61980000D01*
X158110000Y-79760000D02*
X160650000Y-79760000D01*
X158110000Y-117860000D02*
X160650000Y-117860000D01*
D44*
X158110000Y-117860000D02*
X160650000Y-117860000D01*
D43*
X160650000Y-135640000D02*
X158110000Y-135640000D01*
D44*
X158110000Y-135640000D02*
X160650000Y-135640000D01*
D42*
X137450000Y-64500000D02*
X137450000Y-68900000D01*
X137450000Y-68900000D02*
X135600000Y-70750000D01*
X140965000Y-64520000D02*
X137470000Y-64520000D01*
X137470000Y-64520000D02*
X137450000Y-64500000D01*
X135600000Y-70750000D02*
X135750000Y-70750000D01*
X137450000Y-82250000D02*
X137450000Y-84100000D01*
X137450000Y-84100000D02*
X138500000Y-85150000D01*
X140965000Y-82300000D02*
X138150000Y-82300000D01*
X138150000Y-82300000D02*
X137450000Y-82250000D01*
X137450000Y-121000000D02*
X137450000Y-125800000D01*
X137450000Y-125800000D02*
X136500000Y-126750000D01*
X136500000Y-126750000D02*
X135600000Y-126750000D01*
X140965000Y-120400000D02*
X138050000Y-120400000D01*
X138050000Y-120400000D02*
X137450000Y-121000000D01*
X140965000Y-138180000D02*
X138020000Y-138180000D01*
X138020000Y-138180000D02*
X137450000Y-138750000D01*
X137450000Y-138750000D02*
X137450000Y-140300000D01*
X137450000Y-140300000D02*
X138650000Y-141500000D01*
X135550000Y-64500000D02*
X135550000Y-66700000D01*
X135550000Y-66700000D02*
X135600000Y-66750000D01*
X135600000Y-66750000D02*
X135600000Y-68750000D01*
X135600000Y-66750000D02*
X135550000Y-66700000D01*
X135600000Y-84250000D02*
X135600000Y-86250000D01*
X135550000Y-82250000D02*
X135550000Y-84200000D01*
X135550000Y-84200000D02*
X135600000Y-84250000D01*
X135600000Y-124750000D02*
X135600000Y-122750000D01*
X135600000Y-122750000D02*
X135550000Y-122700000D01*
X135550000Y-122700000D02*
X135550000Y-121000000D01*
X135550000Y-138750000D02*
X134350000Y-138750000D01*
X134350000Y-138750000D02*
X133600000Y-139500000D01*
X133600000Y-139500000D02*
X133600000Y-141250000D01*
M02*
