G04 #@! TF.FileFunction,Soldermask,Bot*
%FSLAX46Y46*%
G04 Gerber Fmt 4.6, Leading zero omitted, Abs format (unit mm)*
G04 Created by KiCad (PCBNEW 4.0.7) date 02/11/18 01:39:45*
%MOMM*%
%LPD*%
G01*
G04 APERTURE LIST*
%ADD10C,0.100000*%
%ADD11C,3.400000*%
%ADD12R,3.400000X3.400000*%
%ADD13R,2.200000X2.200000*%
%ADD14O,2.200000X2.200000*%
%ADD15R,2.800000X2.800000*%
%ADD16C,2.800000*%
%ADD17R,2.400000X3.000000*%
%ADD18O,2.400000X3.000000*%
%ADD19C,1.920000*%
%ADD20C,2.000000*%
%ADD21O,2.000000X2.000000*%
%ADD22C,2.100000*%
%ADD23O,2.100000X2.100000*%
%ADD24R,3.000000X2.400000*%
%ADD25O,3.000000X2.400000*%
%ADD26C,3.600000*%
%ADD27R,2.000000X2.000000*%
%ADD28C,1.840000*%
%ADD29C,2.200000*%
%ADD30O,2.900000X4.400000*%
%ADD31C,4.464000*%
G04 APERTURE END LIST*
D10*
D11*
X116200000Y-49280000D03*
X121280000Y-49280000D03*
D12*
X111120000Y-49280000D03*
D11*
X126360000Y-49280000D03*
D13*
X147950000Y-138180000D03*
D14*
X147950000Y-135640000D03*
X147950000Y-133100000D03*
D13*
X147950000Y-82300000D03*
D14*
X147950000Y-79760000D03*
X147950000Y-77220000D03*
D15*
X160650000Y-91190000D03*
D16*
X160650000Y-96190000D03*
X160650000Y-101190000D03*
X160650000Y-106190000D03*
D13*
X147950000Y-120400000D03*
D14*
X147950000Y-117860000D03*
X147950000Y-115320000D03*
D13*
X67940000Y-98810000D03*
D14*
X70480000Y-98810000D03*
X73020000Y-98810000D03*
D13*
X73020000Y-91190000D03*
D14*
X70480000Y-91190000D03*
X67940000Y-91190000D03*
D13*
X111120000Y-98810000D03*
D14*
X113660000Y-98810000D03*
X116200000Y-98810000D03*
D13*
X116200000Y-91190000D03*
D14*
X113660000Y-91190000D03*
X111120000Y-91190000D03*
D17*
X115565000Y-56900000D03*
D18*
X113025000Y-56900000D03*
D19*
X92203949Y-94796051D03*
X90407898Y-96592102D03*
D10*
G36*
X92642355Y-93000000D02*
X94000000Y-91642355D01*
X95357645Y-93000000D01*
X94000000Y-94357645D01*
X92642355Y-93000000D01*
X92642355Y-93000000D01*
G37*
D20*
X155570000Y-135640000D03*
D21*
X158110000Y-135640000D03*
D20*
X155570000Y-139450000D03*
D21*
X158110000Y-139450000D03*
D20*
X155570000Y-131830000D03*
D21*
X158110000Y-131830000D03*
D20*
X155570000Y-117860000D03*
D21*
X158110000Y-117860000D03*
D20*
X155570000Y-121670000D03*
D21*
X158110000Y-121670000D03*
D20*
X155570000Y-114050000D03*
D21*
X158110000Y-114050000D03*
D20*
X155570000Y-79760000D03*
D21*
X158110000Y-79760000D03*
D20*
X155570000Y-83570000D03*
D21*
X158110000Y-83570000D03*
D20*
X155570000Y-75950000D03*
D21*
X158110000Y-75950000D03*
D20*
X155570000Y-61980000D03*
D21*
X158110000Y-61980000D03*
D20*
X155570000Y-65790000D03*
D21*
X158110000Y-65790000D03*
D20*
X155570000Y-58170000D03*
D21*
X158110000Y-58170000D03*
D13*
X140965000Y-133100000D03*
D14*
X140965000Y-135640000D03*
X140965000Y-138180000D03*
D13*
X140965000Y-115320000D03*
D14*
X140965000Y-117860000D03*
X140965000Y-120400000D03*
D13*
X140965000Y-77220000D03*
D14*
X140965000Y-79760000D03*
X140965000Y-82300000D03*
D13*
X140965000Y-59440000D03*
D14*
X140965000Y-61980000D03*
X140965000Y-64520000D03*
D22*
X160650000Y-135640000D03*
X163190000Y-138180000D03*
D23*
X163190000Y-135640000D03*
X163190000Y-133100000D03*
D17*
X124455000Y-56900000D03*
D18*
X121915000Y-56900000D03*
X119375000Y-56900000D03*
D24*
X122500000Y-142000000D03*
D25*
X122500000Y-139460000D03*
D22*
X160650000Y-117860000D03*
X163190000Y-120400000D03*
D23*
X163190000Y-117860000D03*
X163190000Y-115320000D03*
D24*
X113750000Y-139500000D03*
D25*
X113750000Y-142040000D03*
D22*
X160650000Y-79760000D03*
X163190000Y-82300000D03*
D23*
X163190000Y-79760000D03*
X163190000Y-77220000D03*
D24*
X122500000Y-135500000D03*
D25*
X122500000Y-132960000D03*
D22*
X160650000Y-61980000D03*
X163190000Y-64520000D03*
D23*
X163190000Y-61980000D03*
X163190000Y-59440000D03*
D15*
X46000000Y-87250000D03*
D16*
X46000000Y-92250000D03*
X46000000Y-97250000D03*
X46000000Y-102250000D03*
D24*
X113750000Y-133000000D03*
D25*
X113750000Y-135540000D03*
D10*
G36*
X68545584Y-77000000D02*
X66000000Y-79545584D01*
X63454416Y-77000000D01*
X66000000Y-74454416D01*
X68545584Y-77000000D01*
X68545584Y-77000000D01*
G37*
D26*
X55223693Y-66223693D02*
X55223693Y-66223693D01*
D27*
X96500000Y-103250000D03*
D20*
X96500000Y-106750000D03*
D27*
X87750000Y-103250000D03*
D20*
X87750000Y-106750000D03*
D27*
X104750000Y-86750000D03*
D20*
X104750000Y-83250000D03*
D27*
X87750000Y-86750000D03*
D20*
X87750000Y-83250000D03*
D28*
X68000000Y-103420000D03*
X70540000Y-105960000D03*
X68000000Y-108500000D03*
X67500000Y-80920000D03*
X70040000Y-83460000D03*
X67500000Y-86000000D03*
D27*
X104750000Y-103250000D03*
D20*
X104750000Y-106750000D03*
D27*
X79500000Y-103250000D03*
D20*
X79500000Y-106750000D03*
D27*
X96500000Y-86750000D03*
D20*
X96500000Y-83250000D03*
D27*
X79500000Y-86750000D03*
D20*
X79500000Y-83250000D03*
X103000000Y-54250000D03*
D21*
X103000000Y-61870000D03*
D20*
X103000000Y-128500000D03*
D21*
X103000000Y-136120000D03*
D13*
X103000000Y-143000000D03*
D29*
X103000000Y-140460000D03*
D30*
X46000000Y-142000000D03*
X46000000Y-120000000D03*
D10*
G36*
X66000000Y-110454416D02*
X68545584Y-113000000D01*
X66000000Y-115545584D01*
X63454416Y-113000000D01*
X66000000Y-110454416D01*
X66000000Y-110454416D01*
G37*
D26*
X55223693Y-123776307D02*
X55223693Y-123776307D01*
D10*
G36*
X68545584Y-142000000D02*
X66000000Y-144545584D01*
X63454416Y-142000000D01*
X66000000Y-139454416D01*
X68545584Y-142000000D01*
X68545584Y-142000000D01*
G37*
D26*
X55223693Y-131223693D02*
X55223693Y-131223693D01*
D10*
G36*
X100545584Y-124000000D02*
X98000000Y-126545584D01*
X95454416Y-124000000D01*
X98000000Y-121454416D01*
X100545584Y-124000000D01*
X100545584Y-124000000D01*
G37*
D26*
X87223693Y-113223693D02*
X87223693Y-113223693D01*
D10*
G36*
X98000000Y-128454416D02*
X100545584Y-131000000D01*
X98000000Y-133545584D01*
X95454416Y-131000000D01*
X98000000Y-128454416D01*
X98000000Y-128454416D01*
G37*
D26*
X87223693Y-141776307D02*
X87223693Y-141776307D01*
D15*
X85000000Y-124000000D03*
D16*
X85000000Y-131500000D03*
D15*
X68000000Y-124000000D03*
D16*
X68000000Y-131500000D03*
D30*
X46000000Y-48000000D03*
X46000000Y-70000000D03*
D10*
G36*
X66000000Y-45454416D02*
X68545584Y-48000000D01*
X66000000Y-50545584D01*
X63454416Y-48000000D01*
X66000000Y-45454416D01*
X66000000Y-45454416D01*
G37*
D26*
X55223693Y-58776307D02*
X55223693Y-58776307D01*
D10*
G36*
X100545584Y-59000000D02*
X98000000Y-61545584D01*
X95454416Y-59000000D01*
X98000000Y-56454416D01*
X100545584Y-59000000D01*
X100545584Y-59000000D01*
G37*
D26*
X87223693Y-48223693D02*
X87223693Y-48223693D01*
D15*
X85000000Y-66000000D03*
D16*
X85000000Y-58500000D03*
D15*
X68000000Y-66000000D03*
D16*
X68000000Y-58500000D03*
D10*
G36*
X98000000Y-63454416D02*
X100545584Y-66000000D01*
X98000000Y-68545584D01*
X95454416Y-66000000D01*
X98000000Y-63454416D01*
X98000000Y-63454416D01*
G37*
D26*
X87223693Y-76776307D02*
X87223693Y-76776307D01*
D13*
X103000000Y-47000000D03*
D29*
X103000000Y-49540000D03*
D13*
X147950000Y-64520000D03*
D14*
X147950000Y-61980000D03*
X147950000Y-59440000D03*
D11*
X139060000Y-49280000D03*
X144140000Y-49280000D03*
D12*
X133980000Y-49280000D03*
D11*
X149220000Y-49280000D03*
D31*
X140000000Y-127000000D03*
X52000000Y-116000000D03*
X52000000Y-74000000D03*
X140000000Y-71000000D03*
D17*
X133345000Y-56900000D03*
D18*
X130805000Y-56900000D03*
X128265000Y-56900000D03*
M02*
