G04 #@! TF.FileFunction,Copper,L2,Bot,Signal*
%FSLAX46Y46*%
G04 Gerber Fmt 4.6, Leading zero omitted, Abs format (unit mm)*
G04 Created by KiCad (PCBNEW 4.0.7) date 02/11/18 01:39:45*
%MOMM*%
%LPD*%
G01*
G04 APERTURE LIST*
%ADD10C,0.100000*%
%ADD11C,3.000000*%
%ADD12R,3.000000X3.000000*%
%ADD13R,1.800000X1.800000*%
%ADD14O,1.800000X1.800000*%
%ADD15R,2.400000X2.400000*%
%ADD16C,2.400000*%
%ADD17R,2.000000X2.600000*%
%ADD18O,2.000000X2.600000*%
%ADD19C,1.520000*%
%ADD20C,1.600000*%
%ADD21O,1.600000X1.600000*%
%ADD22C,1.700000*%
%ADD23O,1.700000X1.700000*%
%ADD24R,2.600000X2.000000*%
%ADD25O,2.600000X2.000000*%
%ADD26C,3.200000*%
%ADD27R,1.600000X1.600000*%
%ADD28C,1.440000*%
%ADD29C,1.800000*%
%ADD30O,2.500000X4.000000*%
%ADD31C,4.064000*%
%ADD32C,0.600000*%
%ADD33C,1.000000*%
%ADD34C,2.500000*%
%ADD35C,0.400000*%
%ADD36C,4.000000*%
%ADD37C,1.200000*%
%ADD38C,0.800000*%
%ADD39C,0.250000*%
%ADD40C,0.254000*%
G04 APERTURE END LIST*
D10*
D11*
X116200000Y-49280000D03*
X121280000Y-49280000D03*
D12*
X111120000Y-49280000D03*
D11*
X126360000Y-49280000D03*
D13*
X147950000Y-138180000D03*
D14*
X147950000Y-135640000D03*
X147950000Y-133100000D03*
D13*
X147950000Y-82300000D03*
D14*
X147950000Y-79760000D03*
X147950000Y-77220000D03*
D15*
X160650000Y-91190000D03*
D16*
X160650000Y-96190000D03*
X160650000Y-101190000D03*
X160650000Y-106190000D03*
D13*
X147950000Y-120400000D03*
D14*
X147950000Y-117860000D03*
X147950000Y-115320000D03*
D13*
X67940000Y-98810000D03*
D14*
X70480000Y-98810000D03*
X73020000Y-98810000D03*
D13*
X73020000Y-91190000D03*
D14*
X70480000Y-91190000D03*
X67940000Y-91190000D03*
D13*
X111120000Y-98810000D03*
D14*
X113660000Y-98810000D03*
X116200000Y-98810000D03*
D13*
X116200000Y-91190000D03*
D14*
X113660000Y-91190000D03*
X111120000Y-91190000D03*
D17*
X115565000Y-56900000D03*
D18*
X113025000Y-56900000D03*
D19*
X92203949Y-94796051D03*
X90407898Y-96592102D03*
D10*
G36*
X92925198Y-93000000D02*
X94000000Y-91925198D01*
X95074802Y-93000000D01*
X94000000Y-94074802D01*
X92925198Y-93000000D01*
X92925198Y-93000000D01*
G37*
D20*
X155570000Y-135640000D03*
D21*
X158110000Y-135640000D03*
D20*
X155570000Y-139450000D03*
D21*
X158110000Y-139450000D03*
D20*
X155570000Y-131830000D03*
D21*
X158110000Y-131830000D03*
D20*
X155570000Y-117860000D03*
D21*
X158110000Y-117860000D03*
D20*
X155570000Y-121670000D03*
D21*
X158110000Y-121670000D03*
D20*
X155570000Y-114050000D03*
D21*
X158110000Y-114050000D03*
D20*
X155570000Y-79760000D03*
D21*
X158110000Y-79760000D03*
D20*
X155570000Y-83570000D03*
D21*
X158110000Y-83570000D03*
D20*
X155570000Y-75950000D03*
D21*
X158110000Y-75950000D03*
D20*
X155570000Y-61980000D03*
D21*
X158110000Y-61980000D03*
D20*
X155570000Y-65790000D03*
D21*
X158110000Y-65790000D03*
D20*
X155570000Y-58170000D03*
D21*
X158110000Y-58170000D03*
D13*
X140965000Y-133100000D03*
D14*
X140965000Y-135640000D03*
X140965000Y-138180000D03*
D13*
X140965000Y-115320000D03*
D14*
X140965000Y-117860000D03*
X140965000Y-120400000D03*
D13*
X140965000Y-77220000D03*
D14*
X140965000Y-79760000D03*
X140965000Y-82300000D03*
D13*
X140965000Y-59440000D03*
D14*
X140965000Y-61980000D03*
X140965000Y-64520000D03*
D22*
X160650000Y-135640000D03*
X163190000Y-138180000D03*
D23*
X163190000Y-135640000D03*
X163190000Y-133100000D03*
D17*
X124455000Y-56900000D03*
D18*
X121915000Y-56900000D03*
X119375000Y-56900000D03*
D24*
X122500000Y-142000000D03*
D25*
X122500000Y-139460000D03*
D22*
X160650000Y-117860000D03*
X163190000Y-120400000D03*
D23*
X163190000Y-117860000D03*
X163190000Y-115320000D03*
D24*
X113750000Y-139500000D03*
D25*
X113750000Y-142040000D03*
D22*
X160650000Y-79760000D03*
X163190000Y-82300000D03*
D23*
X163190000Y-79760000D03*
X163190000Y-77220000D03*
D24*
X122500000Y-135500000D03*
D25*
X122500000Y-132960000D03*
D22*
X160650000Y-61980000D03*
X163190000Y-64520000D03*
D23*
X163190000Y-61980000D03*
X163190000Y-59440000D03*
D15*
X46000000Y-87250000D03*
D16*
X46000000Y-92250000D03*
X46000000Y-97250000D03*
X46000000Y-102250000D03*
D24*
X113750000Y-133000000D03*
D25*
X113750000Y-135540000D03*
D10*
G36*
X68262742Y-77000000D02*
X66000000Y-79262742D01*
X63737258Y-77000000D01*
X66000000Y-74737258D01*
X68262742Y-77000000D01*
X68262742Y-77000000D01*
G37*
D26*
X55223693Y-66223693D02*
X55223693Y-66223693D01*
D27*
X96500000Y-103250000D03*
D20*
X96500000Y-106750000D03*
D27*
X87750000Y-103250000D03*
D20*
X87750000Y-106750000D03*
D27*
X104750000Y-86750000D03*
D20*
X104750000Y-83250000D03*
D27*
X87750000Y-86750000D03*
D20*
X87750000Y-83250000D03*
D28*
X68000000Y-103420000D03*
X70540000Y-105960000D03*
X68000000Y-108500000D03*
X67500000Y-80920000D03*
X70040000Y-83460000D03*
X67500000Y-86000000D03*
D27*
X104750000Y-103250000D03*
D20*
X104750000Y-106750000D03*
D27*
X79500000Y-103250000D03*
D20*
X79500000Y-106750000D03*
D27*
X96500000Y-86750000D03*
D20*
X96500000Y-83250000D03*
D27*
X79500000Y-86750000D03*
D20*
X79500000Y-83250000D03*
X103000000Y-54250000D03*
D21*
X103000000Y-61870000D03*
D20*
X103000000Y-128500000D03*
D21*
X103000000Y-136120000D03*
D13*
X103000000Y-143000000D03*
D29*
X103000000Y-140460000D03*
D30*
X46000000Y-142000000D03*
X46000000Y-120000000D03*
D10*
G36*
X66000000Y-110737258D02*
X68262742Y-113000000D01*
X66000000Y-115262742D01*
X63737258Y-113000000D01*
X66000000Y-110737258D01*
X66000000Y-110737258D01*
G37*
D26*
X55223693Y-123776307D02*
X55223693Y-123776307D01*
D10*
G36*
X68262742Y-142000000D02*
X66000000Y-144262742D01*
X63737258Y-142000000D01*
X66000000Y-139737258D01*
X68262742Y-142000000D01*
X68262742Y-142000000D01*
G37*
D26*
X55223693Y-131223693D02*
X55223693Y-131223693D01*
D10*
G36*
X100262742Y-124000000D02*
X98000000Y-126262742D01*
X95737258Y-124000000D01*
X98000000Y-121737258D01*
X100262742Y-124000000D01*
X100262742Y-124000000D01*
G37*
D26*
X87223693Y-113223693D02*
X87223693Y-113223693D01*
D10*
G36*
X98000000Y-128737258D02*
X100262742Y-131000000D01*
X98000000Y-133262742D01*
X95737258Y-131000000D01*
X98000000Y-128737258D01*
X98000000Y-128737258D01*
G37*
D26*
X87223693Y-141776307D02*
X87223693Y-141776307D01*
D15*
X85000000Y-124000000D03*
D16*
X85000000Y-131500000D03*
D15*
X68000000Y-124000000D03*
D16*
X68000000Y-131500000D03*
D30*
X46000000Y-48000000D03*
X46000000Y-70000000D03*
D10*
G36*
X66000000Y-45737258D02*
X68262742Y-48000000D01*
X66000000Y-50262742D01*
X63737258Y-48000000D01*
X66000000Y-45737258D01*
X66000000Y-45737258D01*
G37*
D26*
X55223693Y-58776307D02*
X55223693Y-58776307D01*
D10*
G36*
X100262742Y-59000000D02*
X98000000Y-61262742D01*
X95737258Y-59000000D01*
X98000000Y-56737258D01*
X100262742Y-59000000D01*
X100262742Y-59000000D01*
G37*
D26*
X87223693Y-48223693D02*
X87223693Y-48223693D01*
D15*
X85000000Y-66000000D03*
D16*
X85000000Y-58500000D03*
D15*
X68000000Y-66000000D03*
D16*
X68000000Y-58500000D03*
D10*
G36*
X98000000Y-63737258D02*
X100262742Y-66000000D01*
X98000000Y-68262742D01*
X95737258Y-66000000D01*
X98000000Y-63737258D01*
X98000000Y-63737258D01*
G37*
D26*
X87223693Y-76776307D02*
X87223693Y-76776307D01*
D13*
X103000000Y-47000000D03*
D29*
X103000000Y-49540000D03*
D13*
X147950000Y-64520000D03*
D14*
X147950000Y-61980000D03*
X147950000Y-59440000D03*
D11*
X139060000Y-49280000D03*
X144140000Y-49280000D03*
D12*
X133980000Y-49280000D03*
D11*
X149220000Y-49280000D03*
D31*
X140000000Y-127000000D03*
X52000000Y-116000000D03*
X52000000Y-74000000D03*
X140000000Y-71000000D03*
D17*
X133345000Y-56900000D03*
D18*
X130805000Y-56900000D03*
X128265000Y-56900000D03*
D32*
X132900000Y-68750000D03*
X63750000Y-92250000D03*
X63750000Y-97750000D03*
X77250000Y-97750000D03*
X77250000Y-92250000D03*
X152250000Y-78000000D03*
X143500000Y-78750000D03*
X114550000Y-84580000D03*
X114550000Y-79500000D03*
X114550000Y-76960000D03*
X109383883Y-75133883D03*
X104750000Y-89000000D03*
X120250000Y-92250000D03*
X120250000Y-97750000D03*
X109000000Y-96250000D03*
X108116117Y-116133883D03*
X130900000Y-141250000D03*
X141350000Y-141500000D03*
X143500000Y-134750000D03*
X152250000Y-134000000D03*
X152250000Y-116000000D03*
X143500000Y-116750000D03*
X132900000Y-124750000D03*
X138500000Y-87850000D03*
X132250000Y-86250000D03*
X152250000Y-60250000D03*
X143500000Y-61000000D03*
X123050000Y-74400000D03*
X120800000Y-74400000D03*
X107805000Y-74945000D03*
X106750000Y-76000000D03*
X110300000Y-78200000D03*
X106400000Y-82800000D03*
X106200000Y-93600000D03*
X106200000Y-96400000D03*
X106200000Y-106000000D03*
X105250000Y-77500000D03*
X108250000Y-79250000D03*
X106600000Y-81800000D03*
X107800000Y-105200000D03*
X107800000Y-96400000D03*
X107800000Y-93600000D03*
X112750000Y-73250000D03*
X111000000Y-75500000D03*
X112700000Y-75700000D03*
X107000000Y-105500000D03*
X107000000Y-96400000D03*
X107000000Y-93600000D03*
X107000000Y-83800000D03*
D33*
X58250000Y-93750000D03*
X55500000Y-91000000D03*
X56950000Y-92450000D03*
D32*
X93500000Y-120000000D03*
X93500000Y-117500000D03*
X86750000Y-120000000D03*
X86750000Y-117500000D03*
D33*
X86750000Y-118750000D03*
X89000000Y-118750000D03*
X91250000Y-118750000D03*
X93500000Y-118750000D03*
D32*
X67000000Y-87750000D03*
X76000000Y-84750000D03*
X76250000Y-88750000D03*
D33*
X135250000Y-77250000D03*
X134250000Y-78250000D03*
X117000000Y-108750000D03*
X117000000Y-119750000D03*
X117000000Y-110250000D03*
X116979900Y-118229900D03*
X124250000Y-92500000D03*
X132750000Y-92500000D03*
X134250000Y-89750000D03*
X134250000Y-88500000D03*
X131300002Y-92500000D03*
X125750000Y-92500000D03*
X118750000Y-106500000D03*
X118750000Y-118250000D03*
X118750000Y-116750000D03*
X118750000Y-108250000D03*
X124250000Y-94000000D03*
X132750000Y-94000000D03*
X131300002Y-94000000D03*
X125750000Y-94000000D03*
X129250000Y-136250000D03*
X128000000Y-137500000D03*
X134250000Y-131250000D03*
X133000000Y-132500000D03*
D32*
X94800000Y-91700000D03*
X128000000Y-66750000D03*
X130500000Y-66750000D03*
X127250000Y-84250000D03*
X131250000Y-84250000D03*
X126000000Y-101250000D03*
X126000000Y-112250000D03*
X127450000Y-122750000D03*
X131050000Y-122750000D03*
X125000000Y-102300000D03*
X125000000Y-112250000D03*
X84250000Y-101250000D03*
X76250000Y-101250000D03*
X99500000Y-101250000D03*
X71000000Y-101250000D03*
D34*
X133345000Y-56900000D02*
X136520000Y-56900000D01*
X133345000Y-56900000D02*
X133345000Y-60075000D01*
X133345000Y-56900000D02*
X133345000Y-53725000D01*
D35*
X132900000Y-68750000D02*
X133000000Y-68750000D01*
X63750000Y-92250000D02*
X63750000Y-92000000D01*
X77250000Y-97750000D02*
X77000000Y-97750000D01*
D34*
X68000000Y-58500000D02*
X85000000Y-58500000D01*
X85000000Y-131500000D02*
X68000000Y-131500000D01*
D35*
X114550000Y-84580000D02*
X114500000Y-84630000D01*
X114500000Y-84630000D02*
X114500000Y-84750000D01*
X114550000Y-79500000D02*
X114500000Y-79500000D01*
X114550000Y-76960000D02*
X114510000Y-77000000D01*
X114510000Y-77000000D02*
X114500000Y-77000000D01*
X109383883Y-75133883D02*
X109267766Y-75250000D01*
X109267766Y-75250000D02*
X109250000Y-75250000D01*
X120250000Y-97750000D02*
X120250000Y-98000000D01*
X108116117Y-116133883D02*
X108000000Y-116017766D01*
X108000000Y-116017766D02*
X108000000Y-116000000D01*
X152050000Y-134000000D02*
X152000000Y-134000000D01*
X132900000Y-124750000D02*
X133000000Y-124750000D01*
X138500000Y-87850000D02*
X138500000Y-87750000D01*
D34*
X133980000Y-49280000D02*
X139060000Y-49280000D01*
X139060000Y-49280000D02*
X144140000Y-49280000D01*
X144140000Y-49280000D02*
X149220000Y-49280000D01*
D35*
X120800000Y-74400000D02*
X123050000Y-74400000D01*
X120800000Y-74400000D02*
X120800000Y-74420000D01*
X120800000Y-74420000D02*
X120800000Y-74400000D01*
X120800000Y-74400000D02*
X120800000Y-74420000D01*
X108100000Y-76000000D02*
X107800000Y-75700000D01*
X107800000Y-74950000D02*
X107800000Y-75700000D01*
X107800000Y-74950000D02*
X107805000Y-74945000D01*
X106750000Y-76000000D02*
X105250000Y-77500000D01*
X110300000Y-78200000D02*
X108100000Y-76000000D01*
X106400000Y-82800000D02*
X106200000Y-83000000D01*
X106200000Y-83000000D02*
X106200000Y-93600000D01*
X106200000Y-96400000D02*
X106200000Y-106000000D01*
X106600000Y-81800000D02*
X106600000Y-80900000D01*
X106600000Y-80900000D02*
X108250000Y-79250000D01*
X107800000Y-83800000D02*
X107800000Y-83000000D01*
X107800000Y-83000000D02*
X106600000Y-81800000D01*
X107800000Y-105200000D02*
X107800000Y-96400000D01*
X107800000Y-93600000D02*
X107800000Y-83800000D01*
X112700000Y-75700000D02*
X112700000Y-73300000D01*
X112700000Y-73300000D02*
X112750000Y-73250000D01*
X112700000Y-75700000D02*
X111200000Y-75700000D01*
X111200000Y-75700000D02*
X111000000Y-75500000D01*
X107000000Y-105500000D02*
X107000000Y-96400000D01*
X107000000Y-93600000D02*
X107000000Y-83800000D01*
D34*
X56950000Y-92450000D02*
X58250000Y-93750000D01*
X55500000Y-91000000D02*
X56950000Y-92450000D01*
X58250000Y-93750000D02*
X59500000Y-95000000D01*
X67940000Y-96940000D02*
X67940000Y-98810000D01*
X66000000Y-95000000D02*
X67940000Y-96940000D01*
X59500000Y-95000000D02*
X66000000Y-95000000D01*
D35*
X93500000Y-118750000D02*
X93500000Y-120000000D01*
X93500000Y-117500000D02*
X93500000Y-118750000D01*
X93500000Y-118750000D02*
X93500000Y-117500000D01*
X93500000Y-117500000D02*
X93500000Y-118750000D01*
X86750000Y-118750000D02*
X86750000Y-120000000D01*
X86750000Y-117500000D02*
X86750000Y-118750000D01*
X86750000Y-118750000D02*
X86750000Y-117500000D01*
X86750000Y-117500000D02*
X86750000Y-118750000D01*
D34*
X111120000Y-99130000D02*
X110500000Y-99750000D01*
D36*
X110500000Y-106500000D02*
X110500000Y-99750000D01*
X98250000Y-118750000D02*
X110500000Y-106500000D01*
X93500000Y-118750000D02*
X93500000Y-118750000D01*
X93500000Y-118750000D02*
X98250000Y-118750000D01*
D34*
X111120000Y-98810000D02*
X111120000Y-99130000D01*
D36*
X89000000Y-118750000D02*
X86750000Y-118750000D01*
X86750000Y-118750000D02*
X86750000Y-118750000D01*
X91250000Y-118750000D02*
X89000000Y-118750000D01*
X93500000Y-118750000D02*
X91250000Y-118750000D01*
X51000000Y-84250000D02*
X51000000Y-83750000D01*
X51000000Y-83750000D02*
X57750000Y-77000000D01*
X46000000Y-92250000D02*
X48750000Y-92250000D01*
X57750000Y-77000000D02*
X66000000Y-77000000D01*
X51000000Y-90000000D02*
X51000000Y-84250000D01*
X48750000Y-92250000D02*
X51000000Y-90000000D01*
D35*
X70480000Y-91190000D02*
X70440000Y-91190000D01*
X70440000Y-91190000D02*
X67000000Y-87750000D01*
X70480000Y-91190000D02*
X70440000Y-91190000D01*
X70480000Y-91190000D02*
X70480000Y-98810000D01*
X76000000Y-84750000D02*
X76250000Y-85000000D01*
X76250000Y-85000000D02*
X76250000Y-88750000D01*
D36*
X51000000Y-106250000D02*
X51000000Y-106500000D01*
X51000000Y-106500000D02*
X57500000Y-113000000D01*
X46000000Y-97250000D02*
X49250000Y-97250000D01*
X57500000Y-113000000D02*
X66000000Y-113000000D01*
X51000000Y-99000000D02*
X51000000Y-106250000D01*
X49250000Y-97250000D02*
X51000000Y-99000000D01*
D37*
X134250000Y-78250000D02*
X135250000Y-77250000D01*
X134250000Y-79750000D02*
X134250000Y-78250000D01*
X117000000Y-110250000D02*
X117000000Y-108750000D01*
X116979900Y-118229900D02*
X116979900Y-119729900D01*
X116979900Y-119729900D02*
X117000000Y-119750000D01*
X117000000Y-118209800D02*
X117000000Y-110250000D01*
X116979900Y-118229900D02*
X117000000Y-118209800D01*
X125750000Y-92500000D02*
X124250000Y-92500000D01*
X132750000Y-92500000D02*
X131300002Y-92500000D01*
X131300002Y-92500000D02*
X125750000Y-92500000D01*
X134250000Y-79750000D02*
X134250000Y-88500000D01*
X134250000Y-88500000D02*
X134250000Y-89750000D01*
X147950000Y-64520000D02*
X153030000Y-64520000D01*
X153030000Y-64520000D02*
X153665000Y-63885000D01*
X153665000Y-63885000D02*
X161285000Y-63885000D01*
X161285000Y-63885000D02*
X163190000Y-61980000D01*
X118750000Y-108250000D02*
X118750000Y-106500000D01*
X118750000Y-116750000D02*
X118750000Y-118250000D01*
X118750000Y-116750000D02*
X118750000Y-108250000D01*
X124250000Y-94000000D02*
X125750000Y-94000000D01*
X131300002Y-94000000D02*
X132750000Y-94000000D01*
X131300002Y-94000000D02*
X125750000Y-94000000D01*
X147950000Y-82300000D02*
X153030000Y-82300000D01*
X153030000Y-82300000D02*
X153665000Y-81665000D01*
X153665000Y-81665000D02*
X161285000Y-81665000D01*
X161285000Y-81665000D02*
X163190000Y-79760000D01*
X129250000Y-136250000D02*
X129500000Y-136000000D01*
X128000000Y-137500000D02*
X129500000Y-136000000D01*
X133000000Y-132500000D02*
X134250000Y-131250000D01*
X129500000Y-136000000D02*
X133000000Y-132500000D01*
X163190000Y-117860000D02*
X161285000Y-119765000D01*
X161285000Y-119765000D02*
X153665000Y-119765000D01*
X153665000Y-119765000D02*
X153030000Y-120400000D01*
X153030000Y-120400000D02*
X147950000Y-120400000D01*
D38*
X147950000Y-120400000D02*
X153030000Y-120400000D01*
X153030000Y-120400000D02*
X153665000Y-119765000D01*
X153665000Y-119765000D02*
X161285000Y-119765000D01*
X161285000Y-119765000D02*
X163190000Y-117860000D01*
D37*
X163190000Y-135640000D02*
X161285000Y-137545000D01*
X161285000Y-137545000D02*
X151760000Y-137545000D01*
X151760000Y-137545000D02*
X151125000Y-138180000D01*
X151125000Y-138180000D02*
X147950000Y-138180000D01*
D38*
X147950000Y-138180000D02*
X151125000Y-138180000D01*
X161285000Y-137545000D02*
X163190000Y-135640000D01*
X151760000Y-137545000D02*
X161285000Y-137545000D01*
X151125000Y-138180000D02*
X151760000Y-137545000D01*
D39*
X92203949Y-94796051D02*
X93803949Y-94796051D01*
X95500000Y-92400000D02*
X94800000Y-91700000D01*
X95500000Y-93100000D02*
X95500000Y-92400000D01*
X93803949Y-94796051D02*
X95500000Y-93100000D01*
D35*
X130500000Y-66750000D02*
X128000000Y-66750000D01*
X131250000Y-84250000D02*
X127250000Y-84250000D01*
X131050000Y-122750000D02*
X127450000Y-122750000D01*
X126000000Y-112250000D02*
X126000000Y-101250000D01*
X125000000Y-102300000D02*
X125000000Y-102250000D01*
X125000000Y-112250000D02*
X125000000Y-102250000D01*
X99500000Y-101250000D02*
X84250000Y-101250000D01*
X76250000Y-101250000D02*
X71000000Y-101250000D01*
X113660000Y-91190000D02*
X113660000Y-98810000D01*
D40*
G36*
X101561673Y-45740302D02*
X101465000Y-45973691D01*
X101465000Y-46714250D01*
X101623750Y-46873000D01*
X102873000Y-46873000D01*
X102873000Y-46853000D01*
X103127000Y-46853000D01*
X103127000Y-46873000D01*
X104376250Y-46873000D01*
X104535000Y-46714250D01*
X104535000Y-45973691D01*
X104438327Y-45740302D01*
X104408025Y-45710000D01*
X162430069Y-45710000D01*
X163179682Y-45859107D01*
X163755885Y-46244114D01*
X164140893Y-46820319D01*
X164290000Y-47569931D01*
X164290000Y-58421155D01*
X164269147Y-58389946D01*
X163787378Y-58068039D01*
X163219093Y-57955000D01*
X163160907Y-57955000D01*
X162592622Y-58068039D01*
X162110853Y-58389946D01*
X161788946Y-58871715D01*
X161675907Y-59440000D01*
X161788946Y-60008285D01*
X162110853Y-60490054D01*
X162440026Y-60710000D01*
X162110853Y-60929946D01*
X161932926Y-61196233D01*
X161909656Y-61139914D01*
X161492283Y-60721812D01*
X160946681Y-60495258D01*
X160355911Y-60494743D01*
X159809914Y-60720344D01*
X159391812Y-61137717D01*
X159344365Y-61251982D01*
X159152811Y-60965302D01*
X158687264Y-60654233D01*
X158138113Y-60545000D01*
X158081887Y-60545000D01*
X157532736Y-60654233D01*
X157067189Y-60965302D01*
X156842408Y-61301710D01*
X156787243Y-61168200D01*
X156383923Y-60764176D01*
X155856691Y-60545250D01*
X155285813Y-60544752D01*
X154758200Y-60762757D01*
X154354176Y-61166077D01*
X154135250Y-61693309D01*
X154134752Y-62264187D01*
X154294167Y-62650000D01*
X153665000Y-62650000D01*
X153192386Y-62744009D01*
X152791723Y-63011723D01*
X152518446Y-63285000D01*
X149389018Y-63285000D01*
X149314090Y-63168559D01*
X149101890Y-63023569D01*
X149085656Y-63020281D01*
X149368155Y-62597491D01*
X149485000Y-62010072D01*
X149485000Y-61949928D01*
X149368155Y-61362509D01*
X149035409Y-60864519D01*
X148804155Y-60710000D01*
X149035409Y-60555481D01*
X149368155Y-60057491D01*
X149485000Y-59470072D01*
X149485000Y-59409928D01*
X149368155Y-58822509D01*
X149122051Y-58454187D01*
X154134752Y-58454187D01*
X154352757Y-58981800D01*
X154756077Y-59385824D01*
X155283309Y-59604750D01*
X155854187Y-59605248D01*
X156381800Y-59387243D01*
X156785824Y-58983923D01*
X156842245Y-58848046D01*
X157067189Y-59184698D01*
X157532736Y-59495767D01*
X158081887Y-59605000D01*
X158138113Y-59605000D01*
X158687264Y-59495767D01*
X159152811Y-59184698D01*
X159463880Y-58719151D01*
X159573113Y-58170000D01*
X159463880Y-57620849D01*
X159152811Y-57155302D01*
X158687264Y-56844233D01*
X158138113Y-56735000D01*
X158081887Y-56735000D01*
X157532736Y-56844233D01*
X157067189Y-57155302D01*
X156842408Y-57491710D01*
X156787243Y-57358200D01*
X156383923Y-56954176D01*
X155856691Y-56735250D01*
X155285813Y-56734752D01*
X154758200Y-56952757D01*
X154354176Y-57356077D01*
X154135250Y-57883309D01*
X154134752Y-58454187D01*
X149122051Y-58454187D01*
X149035409Y-58324519D01*
X148537419Y-57991773D01*
X147950000Y-57874928D01*
X147362581Y-57991773D01*
X146864591Y-58324519D01*
X146531845Y-58822509D01*
X146415000Y-59409928D01*
X146415000Y-59470072D01*
X146531845Y-60057491D01*
X146864591Y-60555481D01*
X147095845Y-60710000D01*
X146864591Y-60864519D01*
X146531845Y-61362509D01*
X146415000Y-61949928D01*
X146415000Y-62010072D01*
X146531845Y-62597491D01*
X146812837Y-63018026D01*
X146598559Y-63155910D01*
X146453569Y-63368110D01*
X146402560Y-63620000D01*
X146402560Y-65420000D01*
X146446838Y-65655317D01*
X146585910Y-65871441D01*
X146798110Y-66016431D01*
X147050000Y-66067440D01*
X148850000Y-66067440D01*
X149085317Y-66023162D01*
X149301441Y-65884090D01*
X149389644Y-65755000D01*
X153030000Y-65755000D01*
X153502614Y-65660991D01*
X153903277Y-65393277D01*
X154176554Y-65120000D01*
X154294414Y-65120000D01*
X154135250Y-65503309D01*
X154134752Y-66074187D01*
X154352757Y-66601800D01*
X154756077Y-67005824D01*
X155283309Y-67224750D01*
X155854187Y-67225248D01*
X156381800Y-67007243D01*
X156785824Y-66603923D01*
X156842245Y-66468046D01*
X157067189Y-66804698D01*
X157532736Y-67115767D01*
X158081887Y-67225000D01*
X158138113Y-67225000D01*
X158687264Y-67115767D01*
X159152811Y-66804698D01*
X159463880Y-66339151D01*
X159573113Y-65790000D01*
X159463880Y-65240849D01*
X159383131Y-65120000D01*
X161285000Y-65120000D01*
X161757614Y-65025991D01*
X161784795Y-65007829D01*
X161930344Y-65360086D01*
X162347717Y-65778188D01*
X162893319Y-66004742D01*
X163484089Y-66005257D01*
X164030086Y-65779656D01*
X164290000Y-65520195D01*
X164290000Y-76201155D01*
X164269147Y-76169946D01*
X163787378Y-75848039D01*
X163219093Y-75735000D01*
X163160907Y-75735000D01*
X162592622Y-75848039D01*
X162110853Y-76169946D01*
X161788946Y-76651715D01*
X161675907Y-77220000D01*
X161788946Y-77788285D01*
X162110853Y-78270054D01*
X162440026Y-78490000D01*
X162110853Y-78709946D01*
X161932926Y-78976233D01*
X161909656Y-78919914D01*
X161492283Y-78501812D01*
X160946681Y-78275258D01*
X160355911Y-78274743D01*
X159809914Y-78500344D01*
X159391812Y-78917717D01*
X159344365Y-79031982D01*
X159152811Y-78745302D01*
X158687264Y-78434233D01*
X158138113Y-78325000D01*
X158081887Y-78325000D01*
X157532736Y-78434233D01*
X157067189Y-78745302D01*
X156842408Y-79081710D01*
X156787243Y-78948200D01*
X156383923Y-78544176D01*
X155856691Y-78325250D01*
X155285813Y-78324752D01*
X154758200Y-78542757D01*
X154354176Y-78946077D01*
X154135250Y-79473309D01*
X154134752Y-80044187D01*
X154294167Y-80430000D01*
X153665000Y-80430000D01*
X153192386Y-80524009D01*
X152791723Y-80791723D01*
X152518446Y-81065000D01*
X149389018Y-81065000D01*
X149314090Y-80948559D01*
X149101890Y-80803569D01*
X149085656Y-80800281D01*
X149368155Y-80377491D01*
X149485000Y-79790072D01*
X149485000Y-79729928D01*
X149368155Y-79142509D01*
X149035409Y-78644519D01*
X148804155Y-78490000D01*
X149035409Y-78335481D01*
X149368155Y-77837491D01*
X149485000Y-77250072D01*
X149485000Y-77189928D01*
X149368155Y-76602509D01*
X149122051Y-76234187D01*
X154134752Y-76234187D01*
X154352757Y-76761800D01*
X154756077Y-77165824D01*
X155283309Y-77384750D01*
X155854187Y-77385248D01*
X156381800Y-77167243D01*
X156785824Y-76763923D01*
X156842245Y-76628046D01*
X157067189Y-76964698D01*
X157532736Y-77275767D01*
X158081887Y-77385000D01*
X158138113Y-77385000D01*
X158687264Y-77275767D01*
X159152811Y-76964698D01*
X159463880Y-76499151D01*
X159573113Y-75950000D01*
X159463880Y-75400849D01*
X159152811Y-74935302D01*
X158687264Y-74624233D01*
X158138113Y-74515000D01*
X158081887Y-74515000D01*
X157532736Y-74624233D01*
X157067189Y-74935302D01*
X156842408Y-75271710D01*
X156787243Y-75138200D01*
X156383923Y-74734176D01*
X155856691Y-74515250D01*
X155285813Y-74514752D01*
X154758200Y-74732757D01*
X154354176Y-75136077D01*
X154135250Y-75663309D01*
X154134752Y-76234187D01*
X149122051Y-76234187D01*
X149035409Y-76104519D01*
X148537419Y-75771773D01*
X147950000Y-75654928D01*
X147362581Y-75771773D01*
X146864591Y-76104519D01*
X146531845Y-76602509D01*
X146415000Y-77189928D01*
X146415000Y-77250072D01*
X146531845Y-77837491D01*
X146864591Y-78335481D01*
X147095845Y-78490000D01*
X146864591Y-78644519D01*
X146531845Y-79142509D01*
X146415000Y-79729928D01*
X146415000Y-79790072D01*
X146531845Y-80377491D01*
X146812837Y-80798026D01*
X146598559Y-80935910D01*
X146453569Y-81148110D01*
X146402560Y-81400000D01*
X146402560Y-83200000D01*
X146446838Y-83435317D01*
X146585910Y-83651441D01*
X146798110Y-83796431D01*
X147050000Y-83847440D01*
X148850000Y-83847440D01*
X149085317Y-83803162D01*
X149301441Y-83664090D01*
X149389644Y-83535000D01*
X153030000Y-83535000D01*
X153502614Y-83440991D01*
X153903277Y-83173277D01*
X154176554Y-82900000D01*
X154294414Y-82900000D01*
X154135250Y-83283309D01*
X154134752Y-83854187D01*
X154352757Y-84381800D01*
X154756077Y-84785824D01*
X155283309Y-85004750D01*
X155854187Y-85005248D01*
X156381800Y-84787243D01*
X156785824Y-84383923D01*
X156842245Y-84248046D01*
X157067189Y-84584698D01*
X157532736Y-84895767D01*
X158081887Y-85005000D01*
X158138113Y-85005000D01*
X158687264Y-84895767D01*
X159152811Y-84584698D01*
X159463880Y-84119151D01*
X159573113Y-83570000D01*
X159463880Y-83020849D01*
X159383131Y-82900000D01*
X161285000Y-82900000D01*
X161757614Y-82805991D01*
X161784795Y-82787829D01*
X161930344Y-83140086D01*
X162347717Y-83558188D01*
X162893319Y-83784742D01*
X163484089Y-83785257D01*
X164030086Y-83559656D01*
X164290000Y-83300195D01*
X164290000Y-114301155D01*
X164269147Y-114269946D01*
X163787378Y-113948039D01*
X163219093Y-113835000D01*
X163160907Y-113835000D01*
X162592622Y-113948039D01*
X162110853Y-114269946D01*
X161788946Y-114751715D01*
X161675907Y-115320000D01*
X161788946Y-115888285D01*
X162110853Y-116370054D01*
X162440026Y-116590000D01*
X162110853Y-116809946D01*
X161932926Y-117076233D01*
X161909656Y-117019914D01*
X161492283Y-116601812D01*
X160946681Y-116375258D01*
X160355911Y-116374743D01*
X159809914Y-116600344D01*
X159391812Y-117017717D01*
X159344365Y-117131982D01*
X159152811Y-116845302D01*
X158687264Y-116534233D01*
X158138113Y-116425000D01*
X158081887Y-116425000D01*
X157532736Y-116534233D01*
X157067189Y-116845302D01*
X156842408Y-117181710D01*
X156787243Y-117048200D01*
X156383923Y-116644176D01*
X155856691Y-116425250D01*
X155285813Y-116424752D01*
X154758200Y-116642757D01*
X154354176Y-117046077D01*
X154135250Y-117573309D01*
X154134752Y-118144187D01*
X154294167Y-118530000D01*
X153665000Y-118530000D01*
X153192386Y-118624009D01*
X152791723Y-118891723D01*
X152518446Y-119165000D01*
X149389018Y-119165000D01*
X149314090Y-119048559D01*
X149101890Y-118903569D01*
X149085656Y-118900281D01*
X149368155Y-118477491D01*
X149485000Y-117890072D01*
X149485000Y-117829928D01*
X149368155Y-117242509D01*
X149035409Y-116744519D01*
X148804155Y-116590000D01*
X149035409Y-116435481D01*
X149368155Y-115937491D01*
X149485000Y-115350072D01*
X149485000Y-115289928D01*
X149368155Y-114702509D01*
X149122051Y-114334187D01*
X154134752Y-114334187D01*
X154352757Y-114861800D01*
X154756077Y-115265824D01*
X155283309Y-115484750D01*
X155854187Y-115485248D01*
X156381800Y-115267243D01*
X156785824Y-114863923D01*
X156842245Y-114728046D01*
X157067189Y-115064698D01*
X157532736Y-115375767D01*
X158081887Y-115485000D01*
X158138113Y-115485000D01*
X158687264Y-115375767D01*
X159152811Y-115064698D01*
X159463880Y-114599151D01*
X159573113Y-114050000D01*
X159463880Y-113500849D01*
X159152811Y-113035302D01*
X158687264Y-112724233D01*
X158138113Y-112615000D01*
X158081887Y-112615000D01*
X157532736Y-112724233D01*
X157067189Y-113035302D01*
X156842408Y-113371710D01*
X156787243Y-113238200D01*
X156383923Y-112834176D01*
X155856691Y-112615250D01*
X155285813Y-112614752D01*
X154758200Y-112832757D01*
X154354176Y-113236077D01*
X154135250Y-113763309D01*
X154134752Y-114334187D01*
X149122051Y-114334187D01*
X149035409Y-114204519D01*
X148537419Y-113871773D01*
X147950000Y-113754928D01*
X147362581Y-113871773D01*
X146864591Y-114204519D01*
X146531845Y-114702509D01*
X146415000Y-115289928D01*
X146415000Y-115350072D01*
X146531845Y-115937491D01*
X146864591Y-116435481D01*
X147095845Y-116590000D01*
X146864591Y-116744519D01*
X146531845Y-117242509D01*
X146415000Y-117829928D01*
X146415000Y-117890072D01*
X146531845Y-118477491D01*
X146812837Y-118898026D01*
X146598559Y-119035910D01*
X146453569Y-119248110D01*
X146402560Y-119500000D01*
X146402560Y-121300000D01*
X146446838Y-121535317D01*
X146585910Y-121751441D01*
X146798110Y-121896431D01*
X147050000Y-121947440D01*
X148850000Y-121947440D01*
X149085317Y-121903162D01*
X149301441Y-121764090D01*
X149389644Y-121635000D01*
X153030000Y-121635000D01*
X153502614Y-121540991D01*
X153903277Y-121273277D01*
X154176554Y-121000000D01*
X154294414Y-121000000D01*
X154135250Y-121383309D01*
X154134752Y-121954187D01*
X154352757Y-122481800D01*
X154756077Y-122885824D01*
X155283309Y-123104750D01*
X155854187Y-123105248D01*
X156381800Y-122887243D01*
X156785824Y-122483923D01*
X156842245Y-122348046D01*
X157067189Y-122684698D01*
X157532736Y-122995767D01*
X158081887Y-123105000D01*
X158138113Y-123105000D01*
X158687264Y-122995767D01*
X159152811Y-122684698D01*
X159463880Y-122219151D01*
X159573113Y-121670000D01*
X159463880Y-121120849D01*
X159383131Y-121000000D01*
X161285000Y-121000000D01*
X161757614Y-120905991D01*
X161784795Y-120887829D01*
X161930344Y-121240086D01*
X162347717Y-121658188D01*
X162893319Y-121884742D01*
X163484089Y-121885257D01*
X164030086Y-121659656D01*
X164290000Y-121400195D01*
X164290000Y-132081155D01*
X164269147Y-132049946D01*
X163787378Y-131728039D01*
X163219093Y-131615000D01*
X163160907Y-131615000D01*
X162592622Y-131728039D01*
X162110853Y-132049946D01*
X161788946Y-132531715D01*
X161675907Y-133100000D01*
X161788946Y-133668285D01*
X162110853Y-134150054D01*
X162440026Y-134370000D01*
X162110853Y-134589946D01*
X161932926Y-134856233D01*
X161909656Y-134799914D01*
X161492283Y-134381812D01*
X160946681Y-134155258D01*
X160355911Y-134154743D01*
X159809914Y-134380344D01*
X159391812Y-134797717D01*
X159344365Y-134911982D01*
X159152811Y-134625302D01*
X158687264Y-134314233D01*
X158138113Y-134205000D01*
X158081887Y-134205000D01*
X157532736Y-134314233D01*
X157067189Y-134625302D01*
X156842408Y-134961710D01*
X156787243Y-134828200D01*
X156383923Y-134424176D01*
X155856691Y-134205250D01*
X155285813Y-134204752D01*
X154758200Y-134422757D01*
X154354176Y-134826077D01*
X154135250Y-135353309D01*
X154134752Y-135924187D01*
X154294167Y-136310000D01*
X151760000Y-136310000D01*
X151287386Y-136404009D01*
X150886723Y-136671723D01*
X150613446Y-136945000D01*
X149389018Y-136945000D01*
X149314090Y-136828559D01*
X149101890Y-136683569D01*
X149085656Y-136680281D01*
X149368155Y-136257491D01*
X149485000Y-135670072D01*
X149485000Y-135609928D01*
X149368155Y-135022509D01*
X149035409Y-134524519D01*
X148804155Y-134370000D01*
X149035409Y-134215481D01*
X149368155Y-133717491D01*
X149485000Y-133130072D01*
X149485000Y-133069928D01*
X149368155Y-132482509D01*
X149122051Y-132114187D01*
X154134752Y-132114187D01*
X154352757Y-132641800D01*
X154756077Y-133045824D01*
X155283309Y-133264750D01*
X155854187Y-133265248D01*
X156381800Y-133047243D01*
X156785824Y-132643923D01*
X156842245Y-132508046D01*
X157067189Y-132844698D01*
X157532736Y-133155767D01*
X158081887Y-133265000D01*
X158138113Y-133265000D01*
X158687264Y-133155767D01*
X159152811Y-132844698D01*
X159463880Y-132379151D01*
X159573113Y-131830000D01*
X159463880Y-131280849D01*
X159152811Y-130815302D01*
X158687264Y-130504233D01*
X158138113Y-130395000D01*
X158081887Y-130395000D01*
X157532736Y-130504233D01*
X157067189Y-130815302D01*
X156842408Y-131151710D01*
X156787243Y-131018200D01*
X156383923Y-130614176D01*
X155856691Y-130395250D01*
X155285813Y-130394752D01*
X154758200Y-130612757D01*
X154354176Y-131016077D01*
X154135250Y-131543309D01*
X154134752Y-132114187D01*
X149122051Y-132114187D01*
X149035409Y-131984519D01*
X148537419Y-131651773D01*
X147950000Y-131534928D01*
X147362581Y-131651773D01*
X146864591Y-131984519D01*
X146531845Y-132482509D01*
X146415000Y-133069928D01*
X146415000Y-133130072D01*
X146531845Y-133717491D01*
X146864591Y-134215481D01*
X147095845Y-134370000D01*
X146864591Y-134524519D01*
X146531845Y-135022509D01*
X146415000Y-135609928D01*
X146415000Y-135670072D01*
X146531845Y-136257491D01*
X146812837Y-136678026D01*
X146598559Y-136815910D01*
X146453569Y-137028110D01*
X146402560Y-137280000D01*
X146402560Y-139080000D01*
X146446838Y-139315317D01*
X146585910Y-139531441D01*
X146798110Y-139676431D01*
X147050000Y-139727440D01*
X148850000Y-139727440D01*
X149085317Y-139683162D01*
X149301441Y-139544090D01*
X149389644Y-139415000D01*
X151125000Y-139415000D01*
X151597614Y-139320991D01*
X151998277Y-139053277D01*
X152271554Y-138780000D01*
X154294414Y-138780000D01*
X154135250Y-139163309D01*
X154134752Y-139734187D01*
X154352757Y-140261800D01*
X154756077Y-140665824D01*
X155283309Y-140884750D01*
X155854187Y-140885248D01*
X156381800Y-140667243D01*
X156785824Y-140263923D01*
X156842245Y-140128046D01*
X157067189Y-140464698D01*
X157532736Y-140775767D01*
X158081887Y-140885000D01*
X158138113Y-140885000D01*
X158687264Y-140775767D01*
X159152811Y-140464698D01*
X159463880Y-139999151D01*
X159573113Y-139450000D01*
X159463880Y-138900849D01*
X159383131Y-138780000D01*
X161285000Y-138780000D01*
X161757614Y-138685991D01*
X161784795Y-138667829D01*
X161930344Y-139020086D01*
X162347717Y-139438188D01*
X162893319Y-139664742D01*
X163484089Y-139665257D01*
X164030086Y-139439656D01*
X164290000Y-139180195D01*
X164290000Y-142430069D01*
X164140893Y-143179681D01*
X163755885Y-143755886D01*
X163179682Y-144140893D01*
X162430069Y-144290000D01*
X104408025Y-144290000D01*
X104438327Y-144259698D01*
X104535000Y-144026309D01*
X104535000Y-143285750D01*
X104376250Y-143127000D01*
X103127000Y-143127000D01*
X103127000Y-143147000D01*
X102873000Y-143147000D01*
X102873000Y-143127000D01*
X101623750Y-143127000D01*
X101465000Y-143285750D01*
X101465000Y-144026309D01*
X101561673Y-144259698D01*
X101591975Y-144290000D01*
X99469606Y-144290000D01*
X95943597Y-140763991D01*
X101464735Y-140763991D01*
X101697932Y-141328371D01*
X101875092Y-141505841D01*
X101740301Y-141561673D01*
X101561673Y-141740302D01*
X101465000Y-141973691D01*
X101465000Y-142714250D01*
X101623750Y-142873000D01*
X102873000Y-142873000D01*
X102873000Y-142853000D01*
X103127000Y-142853000D01*
X103127000Y-142873000D01*
X104376250Y-142873000D01*
X104535000Y-142714250D01*
X104535000Y-142040000D01*
X111777091Y-142040000D01*
X111901548Y-142665687D01*
X112255971Y-143196120D01*
X112786404Y-143550543D01*
X113412091Y-143675000D01*
X114087909Y-143675000D01*
X114713596Y-143550543D01*
X115244029Y-143196120D01*
X115598452Y-142665687D01*
X115674026Y-142285750D01*
X120565000Y-142285750D01*
X120565000Y-143126309D01*
X120661673Y-143359698D01*
X120840301Y-143538327D01*
X121073690Y-143635000D01*
X122214250Y-143635000D01*
X122373000Y-143476250D01*
X122373000Y-142127000D01*
X122627000Y-142127000D01*
X122627000Y-143476250D01*
X122785750Y-143635000D01*
X123926310Y-143635000D01*
X124159699Y-143538327D01*
X124338327Y-143359698D01*
X124435000Y-143126309D01*
X124435000Y-142285750D01*
X124276250Y-142127000D01*
X122627000Y-142127000D01*
X122373000Y-142127000D01*
X120723750Y-142127000D01*
X120565000Y-142285750D01*
X115674026Y-142285750D01*
X115722909Y-142040000D01*
X115598452Y-141414313D01*
X115360769Y-141058594D01*
X115409699Y-141038327D01*
X115588327Y-140859698D01*
X115685000Y-140626309D01*
X115685000Y-139785750D01*
X115526250Y-139627000D01*
X113877000Y-139627000D01*
X113877000Y-139647000D01*
X113623000Y-139647000D01*
X113623000Y-139627000D01*
X111973750Y-139627000D01*
X111815000Y-139785750D01*
X111815000Y-140626309D01*
X111911673Y-140859698D01*
X112090301Y-141038327D01*
X112139231Y-141058594D01*
X111901548Y-141414313D01*
X111777091Y-142040000D01*
X104535000Y-142040000D01*
X104535000Y-141973691D01*
X104438327Y-141740302D01*
X104259699Y-141561673D01*
X104125006Y-141505881D01*
X104300551Y-141330643D01*
X104534733Y-140766670D01*
X104535265Y-140156009D01*
X104302068Y-139591629D01*
X104170669Y-139460000D01*
X120527091Y-139460000D01*
X120651548Y-140085687D01*
X120889231Y-140441406D01*
X120840301Y-140461673D01*
X120661673Y-140640302D01*
X120565000Y-140873691D01*
X120565000Y-141714250D01*
X120723750Y-141873000D01*
X122373000Y-141873000D01*
X122373000Y-141853000D01*
X122627000Y-141853000D01*
X122627000Y-141873000D01*
X124276250Y-141873000D01*
X124435000Y-141714250D01*
X124435000Y-140873691D01*
X124338327Y-140640302D01*
X124159699Y-140461673D01*
X124110769Y-140441406D01*
X124348452Y-140085687D01*
X124472909Y-139460000D01*
X124348452Y-138834313D01*
X123994029Y-138303880D01*
X123463596Y-137949457D01*
X122837909Y-137825000D01*
X122162091Y-137825000D01*
X121536404Y-137949457D01*
X121005971Y-138303880D01*
X120651548Y-138834313D01*
X120527091Y-139460000D01*
X104170669Y-139460000D01*
X103870643Y-139159449D01*
X103306670Y-138925267D01*
X102696009Y-138924735D01*
X102131629Y-139157932D01*
X101699449Y-139589357D01*
X101465267Y-140153330D01*
X101464735Y-140763991D01*
X95943597Y-140763991D01*
X93553297Y-138373691D01*
X111815000Y-138373691D01*
X111815000Y-139214250D01*
X111973750Y-139373000D01*
X113623000Y-139373000D01*
X113623000Y-138023750D01*
X113877000Y-138023750D01*
X113877000Y-139373000D01*
X115526250Y-139373000D01*
X115685000Y-139214250D01*
X115685000Y-138373691D01*
X115588327Y-138140302D01*
X115409699Y-137961673D01*
X115176310Y-137865000D01*
X114035750Y-137865000D01*
X113877000Y-138023750D01*
X113623000Y-138023750D01*
X113464250Y-137865000D01*
X112323690Y-137865000D01*
X112090301Y-137961673D01*
X111911673Y-138140302D01*
X111815000Y-138373691D01*
X93553297Y-138373691D01*
X91271493Y-136091887D01*
X101565000Y-136091887D01*
X101565000Y-136148113D01*
X101674233Y-136697264D01*
X101985302Y-137162811D01*
X102450849Y-137473880D01*
X103000000Y-137583113D01*
X103417836Y-137500000D01*
X126765000Y-137500000D01*
X126859009Y-137972614D01*
X127126723Y-138373277D01*
X127527386Y-138640991D01*
X128000000Y-138735000D01*
X128472614Y-138640991D01*
X128873277Y-138373277D01*
X135046554Y-132200000D01*
X139417560Y-132200000D01*
X139417560Y-134000000D01*
X139461838Y-134235317D01*
X139600910Y-134451441D01*
X139813110Y-134596431D01*
X139829344Y-134599719D01*
X139546845Y-135022509D01*
X139430000Y-135609928D01*
X139430000Y-135670072D01*
X139546845Y-136257491D01*
X139879591Y-136755481D01*
X140110845Y-136910000D01*
X139879591Y-137064519D01*
X139546845Y-137562509D01*
X139430000Y-138149928D01*
X139430000Y-138210072D01*
X139546845Y-138797491D01*
X139879591Y-139295481D01*
X140377581Y-139628227D01*
X140965000Y-139745072D01*
X141552419Y-139628227D01*
X142050409Y-139295481D01*
X142383155Y-138797491D01*
X142500000Y-138210072D01*
X142500000Y-138149928D01*
X142383155Y-137562509D01*
X142050409Y-137064519D01*
X141819155Y-136910000D01*
X142050409Y-136755481D01*
X142383155Y-136257491D01*
X142500000Y-135670072D01*
X142500000Y-135609928D01*
X142383155Y-135022509D01*
X142102163Y-134601974D01*
X142316441Y-134464090D01*
X142461431Y-134251890D01*
X142512440Y-134000000D01*
X142512440Y-132200000D01*
X142468162Y-131964683D01*
X142329090Y-131748559D01*
X142116890Y-131603569D01*
X141865000Y-131552560D01*
X140065000Y-131552560D01*
X139829683Y-131596838D01*
X139613559Y-131735910D01*
X139468569Y-131948110D01*
X139417560Y-132200000D01*
X135046554Y-132200000D01*
X135123277Y-132123277D01*
X135390991Y-131722614D01*
X135485000Y-131250000D01*
X135390991Y-130777386D01*
X135123277Y-130376723D01*
X134722614Y-130109009D01*
X134250000Y-130015000D01*
X133777386Y-130109009D01*
X133376723Y-130376723D01*
X127126723Y-136626723D01*
X126859009Y-137027386D01*
X126765000Y-137500000D01*
X103417836Y-137500000D01*
X103549151Y-137473880D01*
X104014698Y-137162811D01*
X104325767Y-136697264D01*
X104435000Y-136148113D01*
X104435000Y-136091887D01*
X104325767Y-135542736D01*
X104323939Y-135540000D01*
X111777091Y-135540000D01*
X111901548Y-136165687D01*
X112255971Y-136696120D01*
X112786404Y-137050543D01*
X113412091Y-137175000D01*
X114087909Y-137175000D01*
X114713596Y-137050543D01*
X115244029Y-136696120D01*
X115598452Y-136165687D01*
X115674026Y-135785750D01*
X120565000Y-135785750D01*
X120565000Y-136626309D01*
X120661673Y-136859698D01*
X120840301Y-137038327D01*
X121073690Y-137135000D01*
X122214250Y-137135000D01*
X122373000Y-136976250D01*
X122373000Y-135627000D01*
X122627000Y-135627000D01*
X122627000Y-136976250D01*
X122785750Y-137135000D01*
X123926310Y-137135000D01*
X124159699Y-137038327D01*
X124338327Y-136859698D01*
X124435000Y-136626309D01*
X124435000Y-135785750D01*
X124276250Y-135627000D01*
X122627000Y-135627000D01*
X122373000Y-135627000D01*
X120723750Y-135627000D01*
X120565000Y-135785750D01*
X115674026Y-135785750D01*
X115722909Y-135540000D01*
X115598452Y-134914313D01*
X115360769Y-134558594D01*
X115409699Y-134538327D01*
X115588327Y-134359698D01*
X115685000Y-134126309D01*
X115685000Y-133285750D01*
X115526250Y-133127000D01*
X113877000Y-133127000D01*
X113877000Y-133147000D01*
X113623000Y-133147000D01*
X113623000Y-133127000D01*
X111973750Y-133127000D01*
X111815000Y-133285750D01*
X111815000Y-134126309D01*
X111911673Y-134359698D01*
X112090301Y-134538327D01*
X112139231Y-134558594D01*
X111901548Y-134914313D01*
X111777091Y-135540000D01*
X104323939Y-135540000D01*
X104014698Y-135077189D01*
X103549151Y-134766120D01*
X103000000Y-134656887D01*
X102450849Y-134766120D01*
X101985302Y-135077189D01*
X101674233Y-135542736D01*
X101565000Y-136091887D01*
X91271493Y-136091887D01*
X91089803Y-135910197D01*
X91047789Y-135882334D01*
X91000000Y-135873000D01*
X60127000Y-135873000D01*
X60127000Y-132797175D01*
X66882430Y-132797175D01*
X67005565Y-133084788D01*
X67687734Y-133344707D01*
X68417443Y-133323786D01*
X68994435Y-133084788D01*
X69117570Y-132797175D01*
X83882430Y-132797175D01*
X84005565Y-133084788D01*
X84687734Y-133344707D01*
X85417443Y-133323786D01*
X85994435Y-133084788D01*
X86117570Y-132797175D01*
X85000000Y-131679605D01*
X83882430Y-132797175D01*
X69117570Y-132797175D01*
X68000000Y-131679605D01*
X66882430Y-132797175D01*
X60127000Y-132797175D01*
X60127000Y-131187734D01*
X66155293Y-131187734D01*
X66176214Y-131917443D01*
X66415212Y-132494435D01*
X66702825Y-132617570D01*
X67820395Y-131500000D01*
X68179605Y-131500000D01*
X69297175Y-132617570D01*
X69584788Y-132494435D01*
X69844707Y-131812266D01*
X69826802Y-131187734D01*
X83155293Y-131187734D01*
X83176214Y-131917443D01*
X83415212Y-132494435D01*
X83702825Y-132617570D01*
X84820395Y-131500000D01*
X85179605Y-131500000D01*
X86297175Y-132617570D01*
X86584788Y-132494435D01*
X86844707Y-131812266D01*
X86823786Y-131082557D01*
X86785886Y-130991056D01*
X95089880Y-130991056D01*
X95137404Y-131243627D01*
X95279449Y-131457809D01*
X97542191Y-133720551D01*
X97739894Y-133855636D01*
X97991056Y-133910120D01*
X98243627Y-133862596D01*
X98457809Y-133720551D01*
X99218360Y-132960000D01*
X120527091Y-132960000D01*
X120651548Y-133585687D01*
X120889231Y-133941406D01*
X120840301Y-133961673D01*
X120661673Y-134140302D01*
X120565000Y-134373691D01*
X120565000Y-135214250D01*
X120723750Y-135373000D01*
X122373000Y-135373000D01*
X122373000Y-135353000D01*
X122627000Y-135353000D01*
X122627000Y-135373000D01*
X124276250Y-135373000D01*
X124435000Y-135214250D01*
X124435000Y-134373691D01*
X124338327Y-134140302D01*
X124159699Y-133961673D01*
X124110769Y-133941406D01*
X124348452Y-133585687D01*
X124472909Y-132960000D01*
X124348452Y-132334313D01*
X123994029Y-131803880D01*
X123463596Y-131449457D01*
X122837909Y-131325000D01*
X122162091Y-131325000D01*
X121536404Y-131449457D01*
X121005971Y-131803880D01*
X120651548Y-132334313D01*
X120527091Y-132960000D01*
X99218360Y-132960000D01*
X100304669Y-131873691D01*
X111815000Y-131873691D01*
X111815000Y-132714250D01*
X111973750Y-132873000D01*
X113623000Y-132873000D01*
X113623000Y-131523750D01*
X113877000Y-131523750D01*
X113877000Y-132873000D01*
X115526250Y-132873000D01*
X115685000Y-132714250D01*
X115685000Y-131873691D01*
X115588327Y-131640302D01*
X115409699Y-131461673D01*
X115176310Y-131365000D01*
X114035750Y-131365000D01*
X113877000Y-131523750D01*
X113623000Y-131523750D01*
X113464250Y-131365000D01*
X112323690Y-131365000D01*
X112090301Y-131461673D01*
X111911673Y-131640302D01*
X111815000Y-131873691D01*
X100304669Y-131873691D01*
X100720551Y-131457809D01*
X100855636Y-131260106D01*
X100910120Y-131008944D01*
X100862596Y-130756373D01*
X100720551Y-130542191D01*
X98962547Y-128784187D01*
X101564752Y-128784187D01*
X101782757Y-129311800D01*
X102186077Y-129715824D01*
X102713309Y-129934750D01*
X103284187Y-129935248D01*
X103811800Y-129717243D01*
X104215824Y-129313923D01*
X104434750Y-128786691D01*
X104435248Y-128215813D01*
X104217243Y-127688200D01*
X104057494Y-127528172D01*
X137332538Y-127528172D01*
X137737709Y-128508761D01*
X138487293Y-129259655D01*
X139467173Y-129666536D01*
X140528172Y-129667462D01*
X141508761Y-129262291D01*
X142259655Y-128512707D01*
X142666536Y-127532827D01*
X142667462Y-126471828D01*
X142262291Y-125491239D01*
X141512707Y-124740345D01*
X140532827Y-124333464D01*
X139471828Y-124332538D01*
X138491239Y-124737709D01*
X137740345Y-125487293D01*
X137333464Y-126467173D01*
X137332538Y-127528172D01*
X104057494Y-127528172D01*
X103813923Y-127284176D01*
X103286691Y-127065250D01*
X102715813Y-127064752D01*
X102188200Y-127282757D01*
X101784176Y-127686077D01*
X101565250Y-128213309D01*
X101564752Y-128784187D01*
X98962547Y-128784187D01*
X98457809Y-128279449D01*
X98260106Y-128144364D01*
X98008944Y-128089880D01*
X97756373Y-128137404D01*
X97542191Y-128279449D01*
X95279449Y-130542191D01*
X95144364Y-130739894D01*
X95089880Y-130991056D01*
X86785886Y-130991056D01*
X86584788Y-130505565D01*
X86297175Y-130382430D01*
X85179605Y-131500000D01*
X84820395Y-131500000D01*
X83702825Y-130382430D01*
X83415212Y-130505565D01*
X83155293Y-131187734D01*
X69826802Y-131187734D01*
X69823786Y-131082557D01*
X69584788Y-130505565D01*
X69297175Y-130382430D01*
X68179605Y-131500000D01*
X67820395Y-131500000D01*
X66702825Y-130382430D01*
X66415212Y-130505565D01*
X66155293Y-131187734D01*
X60127000Y-131187734D01*
X60127000Y-130202825D01*
X66882430Y-130202825D01*
X68000000Y-131320395D01*
X69117570Y-130202825D01*
X83882430Y-130202825D01*
X85000000Y-131320395D01*
X86117570Y-130202825D01*
X85994435Y-129915212D01*
X85312266Y-129655293D01*
X84582557Y-129676214D01*
X84005565Y-129915212D01*
X83882430Y-130202825D01*
X69117570Y-130202825D01*
X68994435Y-129915212D01*
X68312266Y-129655293D01*
X67582557Y-129676214D01*
X67005565Y-129915212D01*
X66882430Y-130202825D01*
X60127000Y-130202825D01*
X60127000Y-122800000D01*
X66152560Y-122800000D01*
X66152560Y-125200000D01*
X66196838Y-125435317D01*
X66335910Y-125651441D01*
X66548110Y-125796431D01*
X66800000Y-125847440D01*
X69200000Y-125847440D01*
X69435317Y-125803162D01*
X69651441Y-125664090D01*
X69796431Y-125451890D01*
X69847440Y-125200000D01*
X69847440Y-122800000D01*
X83152560Y-122800000D01*
X83152560Y-125200000D01*
X83196838Y-125435317D01*
X83335910Y-125651441D01*
X83548110Y-125796431D01*
X83800000Y-125847440D01*
X86200000Y-125847440D01*
X86435317Y-125803162D01*
X86651441Y-125664090D01*
X86796431Y-125451890D01*
X86847440Y-125200000D01*
X86847440Y-122800000D01*
X86803162Y-122564683D01*
X86664090Y-122348559D01*
X86451890Y-122203569D01*
X86200000Y-122152560D01*
X83800000Y-122152560D01*
X83564683Y-122196838D01*
X83348559Y-122335910D01*
X83203569Y-122548110D01*
X83152560Y-122800000D01*
X69847440Y-122800000D01*
X69803162Y-122564683D01*
X69664090Y-122348559D01*
X69451890Y-122203569D01*
X69200000Y-122152560D01*
X66800000Y-122152560D01*
X66564683Y-122196838D01*
X66348559Y-122335910D01*
X66203569Y-122548110D01*
X66152560Y-122800000D01*
X60127000Y-122800000D01*
X60127000Y-121127000D01*
X85655690Y-121127000D01*
X85741629Y-121184423D01*
X86750000Y-121385000D01*
X97436640Y-121385000D01*
X95279449Y-123542191D01*
X95144364Y-123739894D01*
X95089880Y-123991056D01*
X95137404Y-124243627D01*
X95279449Y-124457809D01*
X97542191Y-126720551D01*
X97739894Y-126855636D01*
X97991056Y-126910120D01*
X98243627Y-126862596D01*
X98457809Y-126720551D01*
X100720551Y-124457809D01*
X100855636Y-124260106D01*
X100910120Y-124008944D01*
X100862596Y-123756373D01*
X100720551Y-123542191D01*
X100113527Y-122935167D01*
X126514838Y-122935167D01*
X126656883Y-123278943D01*
X126919673Y-123542192D01*
X127263201Y-123684838D01*
X127635167Y-123685162D01*
X127877578Y-123585000D01*
X130622766Y-123585000D01*
X130863201Y-123684838D01*
X131235167Y-123685162D01*
X131578943Y-123543117D01*
X131842192Y-123280327D01*
X131984838Y-122936799D01*
X131985162Y-122564833D01*
X131843117Y-122221057D01*
X131580327Y-121957808D01*
X131236799Y-121815162D01*
X130864833Y-121814838D01*
X130622422Y-121915000D01*
X127877234Y-121915000D01*
X127636799Y-121815162D01*
X127264833Y-121814838D01*
X126921057Y-121956883D01*
X126657808Y-122219673D01*
X126515162Y-122563201D01*
X126514838Y-122935167D01*
X100113527Y-122935167D01*
X98511370Y-121333010D01*
X99258371Y-121184423D01*
X100113226Y-120613226D01*
X102496552Y-118229900D01*
X115744900Y-118229900D01*
X115744900Y-119729900D01*
X115838909Y-120202514D01*
X116106623Y-120603177D01*
X116126723Y-120623277D01*
X116527386Y-120890991D01*
X117000000Y-120985000D01*
X117472614Y-120890991D01*
X117873277Y-120623277D01*
X118140991Y-120222614D01*
X118235000Y-119750000D01*
X118214900Y-119648951D01*
X118214900Y-119349239D01*
X118277386Y-119390991D01*
X118750000Y-119485000D01*
X119222614Y-119390991D01*
X119623277Y-119123277D01*
X119890991Y-118722614D01*
X119985000Y-118250000D01*
X119985000Y-114420000D01*
X139417560Y-114420000D01*
X139417560Y-116220000D01*
X139461838Y-116455317D01*
X139600910Y-116671441D01*
X139813110Y-116816431D01*
X139829344Y-116819719D01*
X139546845Y-117242509D01*
X139430000Y-117829928D01*
X139430000Y-117890072D01*
X139546845Y-118477491D01*
X139879591Y-118975481D01*
X140110845Y-119130000D01*
X139879591Y-119284519D01*
X139546845Y-119782509D01*
X139430000Y-120369928D01*
X139430000Y-120430072D01*
X139546845Y-121017491D01*
X139879591Y-121515481D01*
X140377581Y-121848227D01*
X140965000Y-121965072D01*
X141552419Y-121848227D01*
X142050409Y-121515481D01*
X142383155Y-121017491D01*
X142500000Y-120430072D01*
X142500000Y-120369928D01*
X142383155Y-119782509D01*
X142050409Y-119284519D01*
X141819155Y-119130000D01*
X142050409Y-118975481D01*
X142383155Y-118477491D01*
X142500000Y-117890072D01*
X142500000Y-117829928D01*
X142383155Y-117242509D01*
X142102163Y-116821974D01*
X142316441Y-116684090D01*
X142461431Y-116471890D01*
X142512440Y-116220000D01*
X142512440Y-114420000D01*
X142468162Y-114184683D01*
X142329090Y-113968559D01*
X142116890Y-113823569D01*
X141865000Y-113772560D01*
X140065000Y-113772560D01*
X139829683Y-113816838D01*
X139613559Y-113955910D01*
X139468569Y-114168110D01*
X139417560Y-114420000D01*
X119985000Y-114420000D01*
X119985000Y-106500000D01*
X119890991Y-106027386D01*
X119623277Y-105626723D01*
X119222614Y-105359009D01*
X118750000Y-105265000D01*
X118277386Y-105359009D01*
X117876723Y-105626723D01*
X117609009Y-106027386D01*
X117515000Y-106500000D01*
X117515000Y-107637330D01*
X117472614Y-107609009D01*
X117000000Y-107515000D01*
X116527386Y-107609009D01*
X116126723Y-107876723D01*
X115859009Y-108277386D01*
X115765000Y-108750000D01*
X115765000Y-118128851D01*
X115744900Y-118229900D01*
X102496552Y-118229900D01*
X112363226Y-108363226D01*
X112934423Y-107508371D01*
X112990175Y-107228086D01*
X113135000Y-106500000D01*
X113135000Y-102485167D01*
X124064838Y-102485167D01*
X124165000Y-102727578D01*
X124165000Y-111822766D01*
X124065162Y-112063201D01*
X124064838Y-112435167D01*
X124206883Y-112778943D01*
X124469673Y-113042192D01*
X124813201Y-113184838D01*
X125185167Y-113185162D01*
X125500351Y-113054931D01*
X125813201Y-113184838D01*
X126185167Y-113185162D01*
X126528943Y-113043117D01*
X126792192Y-112780327D01*
X126934838Y-112436799D01*
X126935162Y-112064833D01*
X126835000Y-111822422D01*
X126835000Y-106553403D01*
X158814682Y-106553403D01*
X159093455Y-107228086D01*
X159609199Y-107744730D01*
X160283395Y-108024681D01*
X161013403Y-108025318D01*
X161688086Y-107746545D01*
X162204730Y-107230801D01*
X162484681Y-106556605D01*
X162485318Y-105826597D01*
X162206545Y-105151914D01*
X161690801Y-104635270D01*
X161016605Y-104355319D01*
X160286597Y-104354682D01*
X159611914Y-104633455D01*
X159095270Y-105149199D01*
X158815319Y-105823395D01*
X158814682Y-106553403D01*
X126835000Y-106553403D01*
X126835000Y-101677234D01*
X126886419Y-101553403D01*
X158814682Y-101553403D01*
X159093455Y-102228086D01*
X159609199Y-102744730D01*
X160283395Y-103024681D01*
X161013403Y-103025318D01*
X161688086Y-102746545D01*
X162204730Y-102230801D01*
X162484681Y-101556605D01*
X162485318Y-100826597D01*
X162206545Y-100151914D01*
X161690801Y-99635270D01*
X161016605Y-99355319D01*
X160286597Y-99354682D01*
X159611914Y-99633455D01*
X159095270Y-100149199D01*
X158815319Y-100823395D01*
X158814682Y-101553403D01*
X126886419Y-101553403D01*
X126934838Y-101436799D01*
X126935162Y-101064833D01*
X126793117Y-100721057D01*
X126530327Y-100457808D01*
X126186799Y-100315162D01*
X125814833Y-100314838D01*
X125471057Y-100456883D01*
X125207808Y-100719673D01*
X125065162Y-101063201D01*
X125064899Y-101365056D01*
X124814833Y-101364838D01*
X124471057Y-101506883D01*
X124207808Y-101769673D01*
X124065162Y-102113201D01*
X124064838Y-102485167D01*
X113135000Y-102485167D01*
X113135000Y-100246553D01*
X113629928Y-100345000D01*
X113690072Y-100345000D01*
X114277491Y-100228155D01*
X114775481Y-99895409D01*
X114930000Y-99664155D01*
X115084519Y-99895409D01*
X115582509Y-100228155D01*
X116169928Y-100345000D01*
X116230072Y-100345000D01*
X116817491Y-100228155D01*
X117315481Y-99895409D01*
X117648227Y-99397419D01*
X117765072Y-98810000D01*
X117648227Y-98222581D01*
X117315481Y-97724591D01*
X116817491Y-97391845D01*
X116230072Y-97275000D01*
X116169928Y-97275000D01*
X115582509Y-97391845D01*
X115084519Y-97724591D01*
X114930000Y-97955845D01*
X114775481Y-97724591D01*
X114495000Y-97537180D01*
X114495000Y-96553403D01*
X158814682Y-96553403D01*
X159093455Y-97228086D01*
X159609199Y-97744730D01*
X160283395Y-98024681D01*
X161013403Y-98025318D01*
X161688086Y-97746545D01*
X162204730Y-97230801D01*
X162484681Y-96556605D01*
X162485318Y-95826597D01*
X162206545Y-95151914D01*
X161690801Y-94635270D01*
X161016605Y-94355319D01*
X160286597Y-94354682D01*
X159611914Y-94633455D01*
X159095270Y-95149199D01*
X158815319Y-95823395D01*
X158814682Y-96553403D01*
X114495000Y-96553403D01*
X114495000Y-92462820D01*
X114698026Y-92327163D01*
X114835910Y-92541441D01*
X115048110Y-92686431D01*
X115300000Y-92737440D01*
X117100000Y-92737440D01*
X117335317Y-92693162D01*
X117551441Y-92554090D01*
X117588399Y-92500000D01*
X123015000Y-92500000D01*
X123109009Y-92972614D01*
X123294352Y-93250000D01*
X123109009Y-93527386D01*
X123015000Y-94000000D01*
X123109009Y-94472614D01*
X123376723Y-94873277D01*
X123777386Y-95140991D01*
X124250000Y-95235000D01*
X132750000Y-95235000D01*
X133222614Y-95140991D01*
X133623277Y-94873277D01*
X133890991Y-94472614D01*
X133985000Y-94000000D01*
X133890991Y-93527386D01*
X133705648Y-93250000D01*
X133890991Y-92972614D01*
X133985000Y-92500000D01*
X133890991Y-92027386D01*
X133623277Y-91626723D01*
X133222614Y-91359009D01*
X132750000Y-91265000D01*
X124250000Y-91265000D01*
X123777386Y-91359009D01*
X123376723Y-91626723D01*
X123109009Y-92027386D01*
X123015000Y-92500000D01*
X117588399Y-92500000D01*
X117696431Y-92341890D01*
X117747440Y-92090000D01*
X117747440Y-90290000D01*
X117703162Y-90054683D01*
X117564090Y-89838559D01*
X117351890Y-89693569D01*
X117100000Y-89642560D01*
X115300000Y-89642560D01*
X115064683Y-89686838D01*
X114848559Y-89825910D01*
X114703569Y-90038110D01*
X114700281Y-90054344D01*
X114277491Y-89771845D01*
X113690072Y-89655000D01*
X113629928Y-89655000D01*
X113042509Y-89771845D01*
X112544519Y-90104591D01*
X112390000Y-90335845D01*
X112235481Y-90104591D01*
X111737491Y-89771845D01*
X111150072Y-89655000D01*
X111089928Y-89655000D01*
X110502509Y-89771845D01*
X110004519Y-90104591D01*
X109671773Y-90602581D01*
X109554928Y-91190000D01*
X109671773Y-91777419D01*
X110004519Y-92275409D01*
X110502509Y-92608155D01*
X111089928Y-92725000D01*
X111150072Y-92725000D01*
X111737491Y-92608155D01*
X112235481Y-92275409D01*
X112390000Y-92044155D01*
X112544519Y-92275409D01*
X112825000Y-92462820D01*
X112825000Y-97537180D01*
X112621974Y-97672837D01*
X112484090Y-97458559D01*
X112271890Y-97313569D01*
X112180430Y-97295048D01*
X111841358Y-97068487D01*
X111120000Y-96925000D01*
X110398642Y-97068487D01*
X110256560Y-97163423D01*
X109491629Y-97315577D01*
X108636774Y-97886774D01*
X108635000Y-97889429D01*
X108635000Y-96827234D01*
X108734838Y-96586799D01*
X108735162Y-96214833D01*
X108593117Y-95871057D01*
X108330327Y-95607808D01*
X107986799Y-95465162D01*
X107614833Y-95464838D01*
X107399896Y-95553648D01*
X107186799Y-95465162D01*
X106814833Y-95464838D01*
X106599896Y-95553648D01*
X106386799Y-95465162D01*
X106014833Y-95464838D01*
X105671057Y-95606883D01*
X105407808Y-95869673D01*
X105265162Y-96213201D01*
X105264838Y-96585167D01*
X105365000Y-96827578D01*
X105365000Y-101802560D01*
X103950000Y-101802560D01*
X103714683Y-101846838D01*
X103498559Y-101985910D01*
X103353569Y-102198110D01*
X103302560Y-102450000D01*
X103302560Y-104050000D01*
X103346838Y-104285317D01*
X103485910Y-104501441D01*
X103698110Y-104646431D01*
X103950000Y-104697440D01*
X105365000Y-104697440D01*
X105365000Y-105446172D01*
X104966777Y-105303035D01*
X104396546Y-105330222D01*
X103995995Y-105496136D01*
X103921861Y-105742255D01*
X104750000Y-106570395D01*
X104764142Y-106556252D01*
X104943748Y-106735858D01*
X104929605Y-106750000D01*
X104943748Y-106764142D01*
X104764142Y-106943748D01*
X104750000Y-106929605D01*
X103921861Y-107757745D01*
X103995995Y-108003864D01*
X104533223Y-108196965D01*
X105103454Y-108169778D01*
X105103993Y-108169555D01*
X97158548Y-116115000D01*
X90127000Y-116115000D01*
X90127000Y-111000000D01*
X90116994Y-110950590D01*
X90088553Y-110908965D01*
X90046159Y-110881685D01*
X90000000Y-110873000D01*
X67468461Y-110873000D01*
X67008371Y-110565577D01*
X66678277Y-110499917D01*
X66457809Y-110279449D01*
X66260106Y-110144364D01*
X66008944Y-110089880D01*
X65756373Y-110137404D01*
X65542191Y-110279449D01*
X65456640Y-110365000D01*
X59127000Y-110365000D01*
X59127000Y-109449774D01*
X67229831Y-109449774D01*
X67294131Y-109687611D01*
X67802342Y-109867333D01*
X68340644Y-109838892D01*
X68705869Y-109687611D01*
X68770169Y-109449774D01*
X68000000Y-108679605D01*
X67229831Y-109449774D01*
X59127000Y-109449774D01*
X59127000Y-108302342D01*
X66632667Y-108302342D01*
X66661108Y-108840644D01*
X66812389Y-109205869D01*
X67050226Y-109270169D01*
X67820395Y-108500000D01*
X68179605Y-108500000D01*
X68949774Y-109270169D01*
X69187611Y-109205869D01*
X69367333Y-108697658D01*
X69338892Y-108159356D01*
X69187611Y-107794131D01*
X69053025Y-107757745D01*
X78671861Y-107757745D01*
X78745995Y-108003864D01*
X79283223Y-108196965D01*
X79853454Y-108169778D01*
X80254005Y-108003864D01*
X80328139Y-107757745D01*
X86921861Y-107757745D01*
X86995995Y-108003864D01*
X87533223Y-108196965D01*
X88103454Y-108169778D01*
X88504005Y-108003864D01*
X88578139Y-107757745D01*
X95671861Y-107757745D01*
X95745995Y-108003864D01*
X96283223Y-108196965D01*
X96853454Y-108169778D01*
X97254005Y-108003864D01*
X97328139Y-107757745D01*
X96500000Y-106929605D01*
X95671861Y-107757745D01*
X88578139Y-107757745D01*
X87750000Y-106929605D01*
X86921861Y-107757745D01*
X80328139Y-107757745D01*
X79500000Y-106929605D01*
X78671861Y-107757745D01*
X69053025Y-107757745D01*
X68949774Y-107729831D01*
X68179605Y-108500000D01*
X67820395Y-108500000D01*
X67050226Y-107729831D01*
X66812389Y-107794131D01*
X66632667Y-108302342D01*
X59127000Y-108302342D01*
X59127000Y-107550226D01*
X67229831Y-107550226D01*
X68000000Y-108320395D01*
X68770169Y-107550226D01*
X68705869Y-107312389D01*
X68197658Y-107132667D01*
X67659356Y-107161108D01*
X67294131Y-107312389D01*
X67229831Y-107550226D01*
X59127000Y-107550226D01*
X59127000Y-106228344D01*
X69184765Y-106228344D01*
X69390617Y-106726543D01*
X69771452Y-107108043D01*
X70269291Y-107314764D01*
X70808344Y-107315235D01*
X71306543Y-107109383D01*
X71688043Y-106728548D01*
X71769149Y-106533223D01*
X78053035Y-106533223D01*
X78080222Y-107103454D01*
X78246136Y-107504005D01*
X78492255Y-107578139D01*
X79320395Y-106750000D01*
X79679605Y-106750000D01*
X80507745Y-107578139D01*
X80753864Y-107504005D01*
X80946965Y-106966777D01*
X80926295Y-106533223D01*
X86303035Y-106533223D01*
X86330222Y-107103454D01*
X86496136Y-107504005D01*
X86742255Y-107578139D01*
X87570395Y-106750000D01*
X87929605Y-106750000D01*
X88757745Y-107578139D01*
X89003864Y-107504005D01*
X89196965Y-106966777D01*
X89176295Y-106533223D01*
X95053035Y-106533223D01*
X95080222Y-107103454D01*
X95246136Y-107504005D01*
X95492255Y-107578139D01*
X96320395Y-106750000D01*
X96679605Y-106750000D01*
X97507745Y-107578139D01*
X97753864Y-107504005D01*
X97946965Y-106966777D01*
X97926295Y-106533223D01*
X103303035Y-106533223D01*
X103330222Y-107103454D01*
X103496136Y-107504005D01*
X103742255Y-107578139D01*
X104570395Y-106750000D01*
X103742255Y-105921861D01*
X103496136Y-105995995D01*
X103303035Y-106533223D01*
X97926295Y-106533223D01*
X97919778Y-106396546D01*
X97753864Y-105995995D01*
X97507745Y-105921861D01*
X96679605Y-106750000D01*
X96320395Y-106750000D01*
X95492255Y-105921861D01*
X95246136Y-105995995D01*
X95053035Y-106533223D01*
X89176295Y-106533223D01*
X89169778Y-106396546D01*
X89003864Y-105995995D01*
X88757745Y-105921861D01*
X87929605Y-106750000D01*
X87570395Y-106750000D01*
X86742255Y-105921861D01*
X86496136Y-105995995D01*
X86303035Y-106533223D01*
X80926295Y-106533223D01*
X80919778Y-106396546D01*
X80753864Y-105995995D01*
X80507745Y-105921861D01*
X79679605Y-106750000D01*
X79320395Y-106750000D01*
X78492255Y-105921861D01*
X78246136Y-105995995D01*
X78053035Y-106533223D01*
X71769149Y-106533223D01*
X71894764Y-106230709D01*
X71895190Y-105742255D01*
X78671861Y-105742255D01*
X79500000Y-106570395D01*
X80328139Y-105742255D01*
X86921861Y-105742255D01*
X87750000Y-106570395D01*
X88578139Y-105742255D01*
X95671861Y-105742255D01*
X96500000Y-106570395D01*
X97328139Y-105742255D01*
X97254005Y-105496136D01*
X96716777Y-105303035D01*
X96146546Y-105330222D01*
X95745995Y-105496136D01*
X95671861Y-105742255D01*
X88578139Y-105742255D01*
X88504005Y-105496136D01*
X87966777Y-105303035D01*
X87396546Y-105330222D01*
X86995995Y-105496136D01*
X86921861Y-105742255D01*
X80328139Y-105742255D01*
X80254005Y-105496136D01*
X79716777Y-105303035D01*
X79146546Y-105330222D01*
X78745995Y-105496136D01*
X78671861Y-105742255D01*
X71895190Y-105742255D01*
X71895235Y-105691656D01*
X71689383Y-105193457D01*
X71308548Y-104811957D01*
X70810709Y-104605236D01*
X70271656Y-104604765D01*
X69773457Y-104810617D01*
X69391957Y-105191452D01*
X69185236Y-105689291D01*
X69184765Y-106228344D01*
X59127000Y-106228344D01*
X59127000Y-103688344D01*
X66644765Y-103688344D01*
X66850617Y-104186543D01*
X67231452Y-104568043D01*
X67729291Y-104774764D01*
X68268344Y-104775235D01*
X68766543Y-104569383D01*
X69148043Y-104188548D01*
X69354764Y-103690709D01*
X69355235Y-103151656D01*
X69149383Y-102653457D01*
X68946281Y-102450000D01*
X78052560Y-102450000D01*
X78052560Y-104050000D01*
X78096838Y-104285317D01*
X78235910Y-104501441D01*
X78448110Y-104646431D01*
X78700000Y-104697440D01*
X80300000Y-104697440D01*
X80535317Y-104653162D01*
X80751441Y-104514090D01*
X80896431Y-104301890D01*
X80947440Y-104050000D01*
X80947440Y-102450000D01*
X80903162Y-102214683D01*
X80764090Y-101998559D01*
X80551890Y-101853569D01*
X80300000Y-101802560D01*
X78700000Y-101802560D01*
X78464683Y-101846838D01*
X78248559Y-101985910D01*
X78103569Y-102198110D01*
X78052560Y-102450000D01*
X68946281Y-102450000D01*
X68768548Y-102271957D01*
X68270709Y-102065236D01*
X67731656Y-102064765D01*
X67233457Y-102270617D01*
X66851957Y-102651452D01*
X66645236Y-103149291D01*
X66644765Y-103688344D01*
X59127000Y-103688344D01*
X59127000Y-101435167D01*
X70064838Y-101435167D01*
X70206883Y-101778943D01*
X70469673Y-102042192D01*
X70813201Y-102184838D01*
X71185167Y-102185162D01*
X71427578Y-102085000D01*
X75822766Y-102085000D01*
X76063201Y-102184838D01*
X76435167Y-102185162D01*
X76778943Y-102043117D01*
X77042192Y-101780327D01*
X77184838Y-101436799D01*
X77184839Y-101435167D01*
X83314838Y-101435167D01*
X83456883Y-101778943D01*
X83719673Y-102042192D01*
X84063201Y-102184838D01*
X84435167Y-102185162D01*
X84677578Y-102085000D01*
X86430854Y-102085000D01*
X86353569Y-102198110D01*
X86302560Y-102450000D01*
X86302560Y-104050000D01*
X86346838Y-104285317D01*
X86485910Y-104501441D01*
X86698110Y-104646431D01*
X86950000Y-104697440D01*
X88550000Y-104697440D01*
X88785317Y-104653162D01*
X89001441Y-104514090D01*
X89146431Y-104301890D01*
X89197440Y-104050000D01*
X89197440Y-102450000D01*
X89153162Y-102214683D01*
X89069713Y-102085000D01*
X95180854Y-102085000D01*
X95103569Y-102198110D01*
X95052560Y-102450000D01*
X95052560Y-104050000D01*
X95096838Y-104285317D01*
X95235910Y-104501441D01*
X95448110Y-104646431D01*
X95700000Y-104697440D01*
X97300000Y-104697440D01*
X97535317Y-104653162D01*
X97751441Y-104514090D01*
X97896431Y-104301890D01*
X97947440Y-104050000D01*
X97947440Y-102450000D01*
X97903162Y-102214683D01*
X97819713Y-102085000D01*
X99072766Y-102085000D01*
X99313201Y-102184838D01*
X99685167Y-102185162D01*
X100028943Y-102043117D01*
X100292192Y-101780327D01*
X100434838Y-101436799D01*
X100435162Y-101064833D01*
X100293117Y-100721057D01*
X100030327Y-100457808D01*
X99686799Y-100315162D01*
X99314833Y-100314838D01*
X99072422Y-100415000D01*
X84677234Y-100415000D01*
X84436799Y-100315162D01*
X84064833Y-100314838D01*
X83721057Y-100456883D01*
X83457808Y-100719673D01*
X83315162Y-101063201D01*
X83314838Y-101435167D01*
X77184839Y-101435167D01*
X77185162Y-101064833D01*
X77043117Y-100721057D01*
X76780327Y-100457808D01*
X76436799Y-100315162D01*
X76064833Y-100314838D01*
X75822422Y-100415000D01*
X71427234Y-100415000D01*
X71186799Y-100315162D01*
X70814833Y-100314838D01*
X70471057Y-100456883D01*
X70207808Y-100719673D01*
X70065162Y-101063201D01*
X70064838Y-101435167D01*
X59127000Y-101435167D01*
X59127000Y-96810806D01*
X59500000Y-96885000D01*
X65219208Y-96885000D01*
X66055000Y-97720793D01*
X66055000Y-98810000D01*
X66198487Y-99531358D01*
X66421845Y-99865637D01*
X66436838Y-99945317D01*
X66575910Y-100161441D01*
X66788110Y-100306431D01*
X66879570Y-100324952D01*
X67218642Y-100551513D01*
X67940000Y-100695000D01*
X68661358Y-100551513D01*
X68995637Y-100328155D01*
X69075317Y-100313162D01*
X69291441Y-100174090D01*
X69436431Y-99961890D01*
X69439719Y-99945656D01*
X69862509Y-100228155D01*
X70449928Y-100345000D01*
X70510072Y-100345000D01*
X71097491Y-100228155D01*
X71595481Y-99895409D01*
X71750000Y-99664155D01*
X71904519Y-99895409D01*
X72402509Y-100228155D01*
X72989928Y-100345000D01*
X73050072Y-100345000D01*
X73637491Y-100228155D01*
X74135481Y-99895409D01*
X74468227Y-99397419D01*
X74585072Y-98810000D01*
X74468227Y-98222581D01*
X74135481Y-97724591D01*
X73637491Y-97391845D01*
X73050072Y-97275000D01*
X72989928Y-97275000D01*
X72402509Y-97391845D01*
X71904519Y-97724591D01*
X71750000Y-97955845D01*
X71595481Y-97724591D01*
X71315000Y-97537180D01*
X71315000Y-96868367D01*
X89012656Y-96868367D01*
X89224585Y-97381274D01*
X89616662Y-97774036D01*
X90129198Y-97986860D01*
X90684163Y-97987344D01*
X91197070Y-97775415D01*
X91589832Y-97383338D01*
X91802656Y-96870802D01*
X91803140Y-96315837D01*
X91715491Y-96103710D01*
X91925249Y-96190809D01*
X92480214Y-96191293D01*
X92993121Y-95979364D01*
X93385883Y-95587287D01*
X93398853Y-95556051D01*
X93803949Y-95556051D01*
X94094788Y-95498199D01*
X94341350Y-95333452D01*
X96037401Y-93637401D01*
X96202148Y-93390840D01*
X96260000Y-93100000D01*
X96260000Y-92400000D01*
X96202148Y-92109161D01*
X96123088Y-91990839D01*
X96037401Y-91862598D01*
X95735122Y-91560320D01*
X95735162Y-91514833D01*
X95593117Y-91171057D01*
X95330327Y-90907808D01*
X94986799Y-90765162D01*
X94614833Y-90764838D01*
X94271057Y-90906883D01*
X94007808Y-91169673D01*
X93957762Y-91290197D01*
X93640302Y-91386870D01*
X93215642Y-91811530D01*
X93215642Y-92036037D01*
X94000000Y-92820395D01*
X94014143Y-92806253D01*
X94193748Y-92985858D01*
X94179605Y-93000000D01*
X94193748Y-93014143D01*
X94014143Y-93193748D01*
X94000000Y-93179605D01*
X93985858Y-93193748D01*
X93806253Y-93014143D01*
X93820395Y-93000000D01*
X93036037Y-92215642D01*
X92811530Y-92215642D01*
X92386870Y-92640302D01*
X92290197Y-92873691D01*
X92290198Y-93126310D01*
X92386871Y-93359699D01*
X92428418Y-93401246D01*
X91927684Y-93400809D01*
X91414777Y-93612738D01*
X91022015Y-94004815D01*
X90809191Y-94517351D01*
X90808707Y-95072316D01*
X90896356Y-95284443D01*
X90686598Y-95197344D01*
X90131633Y-95196860D01*
X89618726Y-95408789D01*
X89225964Y-95800866D01*
X89013140Y-96313402D01*
X89012656Y-96868367D01*
X71315000Y-96868367D01*
X71315000Y-92462820D01*
X71518026Y-92327163D01*
X71655910Y-92541441D01*
X71868110Y-92686431D01*
X72120000Y-92737440D01*
X73920000Y-92737440D01*
X74155317Y-92693162D01*
X74371441Y-92554090D01*
X74516431Y-92341890D01*
X74567440Y-92090000D01*
X74567440Y-90290000D01*
X74523162Y-90054683D01*
X74384090Y-89838559D01*
X74171890Y-89693569D01*
X73920000Y-89642560D01*
X72120000Y-89642560D01*
X71884683Y-89686838D01*
X71668559Y-89825910D01*
X71523569Y-90038110D01*
X71520281Y-90054344D01*
X71097491Y-89771845D01*
X70510072Y-89655000D01*
X70449928Y-89655000D01*
X70146269Y-89715401D01*
X67892535Y-87461667D01*
X67841636Y-87338481D01*
X68205869Y-87187611D01*
X68270169Y-86949774D01*
X67500000Y-86179605D01*
X67485858Y-86193748D01*
X67306253Y-86014143D01*
X67320395Y-86000000D01*
X67679605Y-86000000D01*
X68449774Y-86770169D01*
X68687611Y-86705869D01*
X68867333Y-86197658D01*
X68838892Y-85659356D01*
X68687611Y-85294131D01*
X68449774Y-85229831D01*
X67679605Y-86000000D01*
X67320395Y-86000000D01*
X66550226Y-85229831D01*
X66312389Y-85294131D01*
X66132667Y-85802342D01*
X66161108Y-86340644D01*
X66312389Y-86705869D01*
X66550224Y-86770168D01*
X66435055Y-86885337D01*
X66496209Y-86946491D01*
X66471057Y-86956883D01*
X66207808Y-87219673D01*
X66065162Y-87563201D01*
X66064838Y-87935167D01*
X66206883Y-88278943D01*
X66469673Y-88542192D01*
X66711910Y-88642778D01*
X67754958Y-89685826D01*
X67322509Y-89771845D01*
X66824519Y-90104591D01*
X66491773Y-90602581D01*
X66374928Y-91190000D01*
X66491773Y-91777419D01*
X66824519Y-92275409D01*
X67322509Y-92608155D01*
X67909928Y-92725000D01*
X67970072Y-92725000D01*
X68557491Y-92608155D01*
X69055481Y-92275409D01*
X69210000Y-92044155D01*
X69364519Y-92275409D01*
X69645000Y-92462820D01*
X69645000Y-96163995D01*
X69272896Y-95607103D01*
X67332896Y-93667104D01*
X66721359Y-93258487D01*
X66000000Y-93115000D01*
X60280792Y-93115000D01*
X59582899Y-92417107D01*
X59582897Y-92417104D01*
X59127000Y-91961207D01*
X59127000Y-85050226D01*
X66729831Y-85050226D01*
X67500000Y-85820395D01*
X68270169Y-85050226D01*
X68239063Y-84935167D01*
X75064838Y-84935167D01*
X75206883Y-85278943D01*
X75415000Y-85487424D01*
X75415000Y-88322766D01*
X75315162Y-88563201D01*
X75314838Y-88935167D01*
X75456883Y-89278943D01*
X75719673Y-89542192D01*
X76063201Y-89684838D01*
X76435167Y-89685162D01*
X76778943Y-89543117D01*
X77042192Y-89280327D01*
X77184838Y-88936799D01*
X77185162Y-88564833D01*
X77085000Y-88322422D01*
X77085000Y-85950000D01*
X78052560Y-85950000D01*
X78052560Y-87550000D01*
X78096838Y-87785317D01*
X78235910Y-88001441D01*
X78448110Y-88146431D01*
X78700000Y-88197440D01*
X80300000Y-88197440D01*
X80535317Y-88153162D01*
X80751441Y-88014090D01*
X80896431Y-87801890D01*
X80947440Y-87550000D01*
X80947440Y-85950000D01*
X86302560Y-85950000D01*
X86302560Y-87550000D01*
X86346838Y-87785317D01*
X86485910Y-88001441D01*
X86698110Y-88146431D01*
X86950000Y-88197440D01*
X88550000Y-88197440D01*
X88785317Y-88153162D01*
X89001441Y-88014090D01*
X89146431Y-87801890D01*
X89197440Y-87550000D01*
X89197440Y-85950000D01*
X95052560Y-85950000D01*
X95052560Y-87550000D01*
X95096838Y-87785317D01*
X95235910Y-88001441D01*
X95448110Y-88146431D01*
X95700000Y-88197440D01*
X97300000Y-88197440D01*
X97535317Y-88153162D01*
X97751441Y-88014090D01*
X97896431Y-87801890D01*
X97947440Y-87550000D01*
X97947440Y-85950000D01*
X103302560Y-85950000D01*
X103302560Y-87550000D01*
X103346838Y-87785317D01*
X103485910Y-88001441D01*
X103698110Y-88146431D01*
X103950000Y-88197440D01*
X105365000Y-88197440D01*
X105365000Y-93172766D01*
X105265162Y-93413201D01*
X105264838Y-93785167D01*
X105406883Y-94128943D01*
X105669673Y-94392192D01*
X106013201Y-94534838D01*
X106385167Y-94535162D01*
X106600104Y-94446352D01*
X106813201Y-94534838D01*
X107185167Y-94535162D01*
X107400104Y-94446352D01*
X107613201Y-94534838D01*
X107985167Y-94535162D01*
X108328943Y-94393117D01*
X108592192Y-94130327D01*
X108734838Y-93786799D01*
X108735162Y-93414833D01*
X108635000Y-93172422D01*
X108635000Y-84435167D01*
X126314838Y-84435167D01*
X126456883Y-84778943D01*
X126719673Y-85042192D01*
X127063201Y-85184838D01*
X127435167Y-85185162D01*
X127677578Y-85085000D01*
X130822766Y-85085000D01*
X131063201Y-85184838D01*
X131435167Y-85185162D01*
X131778943Y-85043117D01*
X132042192Y-84780327D01*
X132184838Y-84436799D01*
X132185162Y-84064833D01*
X132043117Y-83721057D01*
X131780327Y-83457808D01*
X131436799Y-83315162D01*
X131064833Y-83314838D01*
X130822422Y-83415000D01*
X127677234Y-83415000D01*
X127436799Y-83315162D01*
X127064833Y-83314838D01*
X126721057Y-83456883D01*
X126457808Y-83719673D01*
X126315162Y-84063201D01*
X126314838Y-84435167D01*
X108635000Y-84435167D01*
X108635000Y-83000000D01*
X108571439Y-82680459D01*
X108390434Y-82409566D01*
X107492535Y-81511667D01*
X107435000Y-81372422D01*
X107435000Y-81245868D01*
X108538333Y-80142535D01*
X108778943Y-80043117D01*
X109042192Y-79780327D01*
X109184838Y-79436799D01*
X109185162Y-79064833D01*
X109043117Y-78721057D01*
X108780327Y-78457808D01*
X108436799Y-78315162D01*
X108064833Y-78314838D01*
X107721057Y-78456883D01*
X107457808Y-78719673D01*
X107357222Y-78961910D01*
X106009566Y-80309566D01*
X105828561Y-80580459D01*
X105765000Y-80900000D01*
X105765000Y-81372766D01*
X105665162Y-81613201D01*
X105664838Y-81985167D01*
X105731411Y-82146286D01*
X105721658Y-82156022D01*
X105693014Y-82127378D01*
X105578139Y-82242253D01*
X105504005Y-81996136D01*
X104966777Y-81803035D01*
X104396546Y-81830222D01*
X103995995Y-81996136D01*
X103921861Y-82242255D01*
X104750000Y-83070395D01*
X104764142Y-83056252D01*
X104943748Y-83235858D01*
X104929605Y-83250000D01*
X104943748Y-83264142D01*
X104764142Y-83443748D01*
X104750000Y-83429605D01*
X103921861Y-84257745D01*
X103995995Y-84503864D01*
X104533223Y-84696965D01*
X105103454Y-84669778D01*
X105365000Y-84561442D01*
X105365000Y-85302560D01*
X103950000Y-85302560D01*
X103714683Y-85346838D01*
X103498559Y-85485910D01*
X103353569Y-85698110D01*
X103302560Y-85950000D01*
X97947440Y-85950000D01*
X97903162Y-85714683D01*
X97764090Y-85498559D01*
X97551890Y-85353569D01*
X97300000Y-85302560D01*
X95700000Y-85302560D01*
X95464683Y-85346838D01*
X95248559Y-85485910D01*
X95103569Y-85698110D01*
X95052560Y-85950000D01*
X89197440Y-85950000D01*
X89153162Y-85714683D01*
X89014090Y-85498559D01*
X88801890Y-85353569D01*
X88550000Y-85302560D01*
X86950000Y-85302560D01*
X86714683Y-85346838D01*
X86498559Y-85485910D01*
X86353569Y-85698110D01*
X86302560Y-85950000D01*
X80947440Y-85950000D01*
X80903162Y-85714683D01*
X80764090Y-85498559D01*
X80551890Y-85353569D01*
X80300000Y-85302560D01*
X78700000Y-85302560D01*
X78464683Y-85346838D01*
X78248559Y-85485910D01*
X78103569Y-85698110D01*
X78052560Y-85950000D01*
X77085000Y-85950000D01*
X77085000Y-85000000D01*
X77021439Y-84680459D01*
X76920549Y-84529466D01*
X76808277Y-84257745D01*
X78671861Y-84257745D01*
X78745995Y-84503864D01*
X79283223Y-84696965D01*
X79853454Y-84669778D01*
X80254005Y-84503864D01*
X80328139Y-84257745D01*
X86921861Y-84257745D01*
X86995995Y-84503864D01*
X87533223Y-84696965D01*
X88103454Y-84669778D01*
X88504005Y-84503864D01*
X88578139Y-84257745D01*
X95671861Y-84257745D01*
X95745995Y-84503864D01*
X96283223Y-84696965D01*
X96853454Y-84669778D01*
X97254005Y-84503864D01*
X97328139Y-84257745D01*
X96500000Y-83429605D01*
X95671861Y-84257745D01*
X88578139Y-84257745D01*
X87750000Y-83429605D01*
X86921861Y-84257745D01*
X80328139Y-84257745D01*
X79500000Y-83429605D01*
X78671861Y-84257745D01*
X76808277Y-84257745D01*
X76793117Y-84221057D01*
X76530327Y-83957808D01*
X76186799Y-83815162D01*
X75814833Y-83814838D01*
X75471057Y-83956883D01*
X75207808Y-84219673D01*
X75065162Y-84563201D01*
X75064838Y-84935167D01*
X68239063Y-84935167D01*
X68205869Y-84812389D01*
X67697658Y-84632667D01*
X67159356Y-84661108D01*
X66794131Y-84812389D01*
X66729831Y-85050226D01*
X59127000Y-85050226D01*
X59127000Y-83728344D01*
X68684765Y-83728344D01*
X68890617Y-84226543D01*
X69271452Y-84608043D01*
X69769291Y-84814764D01*
X70308344Y-84815235D01*
X70806543Y-84609383D01*
X71188043Y-84228548D01*
X71394764Y-83730709D01*
X71395235Y-83191656D01*
X71329772Y-83033223D01*
X78053035Y-83033223D01*
X78080222Y-83603454D01*
X78246136Y-84004005D01*
X78492255Y-84078139D01*
X79320395Y-83250000D01*
X79679605Y-83250000D01*
X80507745Y-84078139D01*
X80753864Y-84004005D01*
X80946965Y-83466777D01*
X80926295Y-83033223D01*
X86303035Y-83033223D01*
X86330222Y-83603454D01*
X86496136Y-84004005D01*
X86742255Y-84078139D01*
X87570395Y-83250000D01*
X87929605Y-83250000D01*
X88757745Y-84078139D01*
X89003864Y-84004005D01*
X89196965Y-83466777D01*
X89176295Y-83033223D01*
X95053035Y-83033223D01*
X95080222Y-83603454D01*
X95246136Y-84004005D01*
X95492255Y-84078139D01*
X96320395Y-83250000D01*
X96679605Y-83250000D01*
X97507745Y-84078139D01*
X97753864Y-84004005D01*
X97946965Y-83466777D01*
X97926295Y-83033223D01*
X103303035Y-83033223D01*
X103330222Y-83603454D01*
X103496136Y-84004005D01*
X103742255Y-84078139D01*
X104570395Y-83250000D01*
X103742255Y-82421861D01*
X103496136Y-82495995D01*
X103303035Y-83033223D01*
X97926295Y-83033223D01*
X97919778Y-82896546D01*
X97753864Y-82495995D01*
X97507745Y-82421861D01*
X96679605Y-83250000D01*
X96320395Y-83250000D01*
X95492255Y-82421861D01*
X95246136Y-82495995D01*
X95053035Y-83033223D01*
X89176295Y-83033223D01*
X89169778Y-82896546D01*
X89003864Y-82495995D01*
X88757745Y-82421861D01*
X87929605Y-83250000D01*
X87570395Y-83250000D01*
X86742255Y-82421861D01*
X86496136Y-82495995D01*
X86303035Y-83033223D01*
X80926295Y-83033223D01*
X80919778Y-82896546D01*
X80753864Y-82495995D01*
X80507745Y-82421861D01*
X79679605Y-83250000D01*
X79320395Y-83250000D01*
X78492255Y-82421861D01*
X78246136Y-82495995D01*
X78053035Y-83033223D01*
X71329772Y-83033223D01*
X71189383Y-82693457D01*
X70808548Y-82311957D01*
X70640688Y-82242255D01*
X78671861Y-82242255D01*
X79500000Y-83070395D01*
X80328139Y-82242255D01*
X86921861Y-82242255D01*
X87750000Y-83070395D01*
X88578139Y-82242255D01*
X95671861Y-82242255D01*
X96500000Y-83070395D01*
X97328139Y-82242255D01*
X97254005Y-81996136D01*
X96716777Y-81803035D01*
X96146546Y-81830222D01*
X95745995Y-81996136D01*
X95671861Y-82242255D01*
X88578139Y-82242255D01*
X88504005Y-81996136D01*
X87966777Y-81803035D01*
X87396546Y-81830222D01*
X86995995Y-81996136D01*
X86921861Y-82242255D01*
X80328139Y-82242255D01*
X80254005Y-81996136D01*
X79716777Y-81803035D01*
X79146546Y-81830222D01*
X78745995Y-81996136D01*
X78671861Y-82242255D01*
X70640688Y-82242255D01*
X70310709Y-82105236D01*
X69771656Y-82104765D01*
X69273457Y-82310617D01*
X68891957Y-82691452D01*
X68685236Y-83189291D01*
X68684765Y-83728344D01*
X59127000Y-83728344D01*
X59127000Y-81188344D01*
X66144765Y-81188344D01*
X66350617Y-81686543D01*
X66731452Y-82068043D01*
X67229291Y-82274764D01*
X67768344Y-82275235D01*
X68266543Y-82069383D01*
X68648043Y-81688548D01*
X68854764Y-81190709D01*
X68855235Y-80651656D01*
X68649383Y-80153457D01*
X68268548Y-79771957D01*
X67770709Y-79565236D01*
X67231656Y-79564765D01*
X66733457Y-79770617D01*
X66351957Y-80151452D01*
X66145236Y-80649291D01*
X66144765Y-81188344D01*
X59127000Y-81188344D01*
X59127000Y-79635000D01*
X65456640Y-79635000D01*
X65542191Y-79720551D01*
X65739894Y-79855636D01*
X65991056Y-79910120D01*
X66243627Y-79862596D01*
X66457809Y-79720551D01*
X66678277Y-79500083D01*
X67008371Y-79434423D01*
X67468461Y-79127000D01*
X90000000Y-79127000D01*
X90049410Y-79116994D01*
X90091035Y-79088553D01*
X90118315Y-79046159D01*
X90127000Y-79000000D01*
X90127000Y-77685167D01*
X104314838Y-77685167D01*
X104456883Y-78028943D01*
X104719673Y-78292192D01*
X105063201Y-78434838D01*
X105435167Y-78435162D01*
X105778943Y-78293117D01*
X106042192Y-78030327D01*
X106142778Y-77788090D01*
X107038333Y-76892535D01*
X107278943Y-76793117D01*
X107495785Y-76576653D01*
X109407465Y-78488333D01*
X109506883Y-78728943D01*
X109769673Y-78992192D01*
X110113201Y-79134838D01*
X110485167Y-79135162D01*
X110828943Y-78993117D01*
X111092192Y-78730327D01*
X111234838Y-78386799D01*
X111234957Y-78250000D01*
X133015000Y-78250000D01*
X133015000Y-89750000D01*
X133109009Y-90222614D01*
X133376723Y-90623277D01*
X133777386Y-90890991D01*
X134250000Y-90985000D01*
X134722614Y-90890991D01*
X135123277Y-90623277D01*
X135390991Y-90222614D01*
X135437260Y-89990000D01*
X158802560Y-89990000D01*
X158802560Y-92390000D01*
X158846838Y-92625317D01*
X158985910Y-92841441D01*
X159198110Y-92986431D01*
X159450000Y-93037440D01*
X161850000Y-93037440D01*
X162085317Y-92993162D01*
X162301441Y-92854090D01*
X162446431Y-92641890D01*
X162497440Y-92390000D01*
X162497440Y-89990000D01*
X162453162Y-89754683D01*
X162314090Y-89538559D01*
X162101890Y-89393569D01*
X161850000Y-89342560D01*
X159450000Y-89342560D01*
X159214683Y-89386838D01*
X158998559Y-89525910D01*
X158853569Y-89738110D01*
X158802560Y-89990000D01*
X135437260Y-89990000D01*
X135485000Y-89750000D01*
X135485000Y-78761554D01*
X136123277Y-78123277D01*
X136390991Y-77722614D01*
X136485000Y-77250000D01*
X136390991Y-76777386D01*
X136123277Y-76376723D01*
X136038385Y-76320000D01*
X139417560Y-76320000D01*
X139417560Y-78120000D01*
X139461838Y-78355317D01*
X139600910Y-78571441D01*
X139813110Y-78716431D01*
X139829344Y-78719719D01*
X139546845Y-79142509D01*
X139430000Y-79729928D01*
X139430000Y-79790072D01*
X139546845Y-80377491D01*
X139879591Y-80875481D01*
X140110845Y-81030000D01*
X139879591Y-81184519D01*
X139546845Y-81682509D01*
X139430000Y-82269928D01*
X139430000Y-82330072D01*
X139546845Y-82917491D01*
X139879591Y-83415481D01*
X140377581Y-83748227D01*
X140965000Y-83865072D01*
X141552419Y-83748227D01*
X142050409Y-83415481D01*
X142383155Y-82917491D01*
X142500000Y-82330072D01*
X142500000Y-82269928D01*
X142383155Y-81682509D01*
X142050409Y-81184519D01*
X141819155Y-81030000D01*
X142050409Y-80875481D01*
X142383155Y-80377491D01*
X142500000Y-79790072D01*
X142500000Y-79729928D01*
X142383155Y-79142509D01*
X142102163Y-78721974D01*
X142316441Y-78584090D01*
X142461431Y-78371890D01*
X142512440Y-78120000D01*
X142512440Y-76320000D01*
X142468162Y-76084683D01*
X142329090Y-75868559D01*
X142116890Y-75723569D01*
X141865000Y-75672560D01*
X140065000Y-75672560D01*
X139829683Y-75716838D01*
X139613559Y-75855910D01*
X139468569Y-76068110D01*
X139417560Y-76320000D01*
X136038385Y-76320000D01*
X135722614Y-76109009D01*
X135250000Y-76015000D01*
X134777386Y-76109009D01*
X134376723Y-76376723D01*
X133376723Y-77376723D01*
X133109009Y-77777386D01*
X133015000Y-78250000D01*
X111234957Y-78250000D01*
X111235162Y-78014833D01*
X111093117Y-77671057D01*
X110830327Y-77407808D01*
X110588090Y-77307222D01*
X108966035Y-75685167D01*
X110064838Y-75685167D01*
X110206883Y-76028943D01*
X110469673Y-76292192D01*
X110813201Y-76434838D01*
X110825698Y-76434849D01*
X110880460Y-76471440D01*
X111200000Y-76535000D01*
X112272766Y-76535000D01*
X112513201Y-76634838D01*
X112885167Y-76635162D01*
X113228943Y-76493117D01*
X113492192Y-76230327D01*
X113634838Y-75886799D01*
X113635162Y-75514833D01*
X113535000Y-75272422D01*
X113535000Y-74585167D01*
X119864838Y-74585167D01*
X120006883Y-74928943D01*
X120269673Y-75192192D01*
X120613201Y-75334838D01*
X120985167Y-75335162D01*
X121227578Y-75235000D01*
X122622766Y-75235000D01*
X122863201Y-75334838D01*
X123235167Y-75335162D01*
X123578943Y-75193117D01*
X123842192Y-74930327D01*
X123984838Y-74586799D01*
X123985162Y-74214833D01*
X123843117Y-73871057D01*
X123580327Y-73607808D01*
X123236799Y-73465162D01*
X122864833Y-73464838D01*
X122622422Y-73565000D01*
X121227234Y-73565000D01*
X120986799Y-73465162D01*
X120614833Y-73464838D01*
X120271057Y-73606883D01*
X120007808Y-73869673D01*
X119865162Y-74213201D01*
X119864838Y-74585167D01*
X113535000Y-74585167D01*
X113535000Y-73787506D01*
X113542192Y-73780327D01*
X113684838Y-73436799D01*
X113685162Y-73064833D01*
X113543117Y-72721057D01*
X113280327Y-72457808D01*
X112936799Y-72315162D01*
X112564833Y-72314838D01*
X112221057Y-72456883D01*
X111957808Y-72719673D01*
X111815162Y-73063201D01*
X111814838Y-73435167D01*
X111865000Y-73556569D01*
X111865000Y-74865000D01*
X111687245Y-74865000D01*
X111530327Y-74707808D01*
X111186799Y-74565162D01*
X110814833Y-74564838D01*
X110471057Y-74706883D01*
X110207808Y-74969673D01*
X110065162Y-75313201D01*
X110064838Y-75685167D01*
X108966035Y-75685167D01*
X108643844Y-75362976D01*
X108739838Y-75131799D01*
X108740162Y-74759833D01*
X108598117Y-74416057D01*
X108335327Y-74152808D01*
X107991799Y-74010162D01*
X107619833Y-74009838D01*
X107276057Y-74151883D01*
X107012808Y-74414673D01*
X106870162Y-74758201D01*
X106869895Y-75065104D01*
X106564833Y-75064838D01*
X106221057Y-75206883D01*
X105957808Y-75469673D01*
X105857222Y-75711910D01*
X104961667Y-76607465D01*
X104721057Y-76706883D01*
X104457808Y-76969673D01*
X104315162Y-77313201D01*
X104314838Y-77685167D01*
X90127000Y-77685167D01*
X90127000Y-71528172D01*
X137332538Y-71528172D01*
X137737709Y-72508761D01*
X138487293Y-73259655D01*
X139467173Y-73666536D01*
X140528172Y-73667462D01*
X141508761Y-73262291D01*
X142259655Y-72512707D01*
X142666536Y-71532827D01*
X142667462Y-70471828D01*
X142262291Y-69491239D01*
X141512707Y-68740345D01*
X140532827Y-68333464D01*
X139471828Y-68332538D01*
X138491239Y-68737709D01*
X137740345Y-69487293D01*
X137333464Y-70467173D01*
X137332538Y-71528172D01*
X90127000Y-71528172D01*
X90127000Y-69000000D01*
X90116994Y-68950590D01*
X90088553Y-68908965D01*
X90046159Y-68881685D01*
X90000000Y-68873000D01*
X60127000Y-68873000D01*
X60127000Y-64800000D01*
X66152560Y-64800000D01*
X66152560Y-67200000D01*
X66196838Y-67435317D01*
X66335910Y-67651441D01*
X66548110Y-67796431D01*
X66800000Y-67847440D01*
X69200000Y-67847440D01*
X69435317Y-67803162D01*
X69651441Y-67664090D01*
X69796431Y-67451890D01*
X69847440Y-67200000D01*
X69847440Y-64800000D01*
X83152560Y-64800000D01*
X83152560Y-67200000D01*
X83196838Y-67435317D01*
X83335910Y-67651441D01*
X83548110Y-67796431D01*
X83800000Y-67847440D01*
X86200000Y-67847440D01*
X86435317Y-67803162D01*
X86651441Y-67664090D01*
X86796431Y-67451890D01*
X86847440Y-67200000D01*
X86847440Y-65991056D01*
X95089880Y-65991056D01*
X95137404Y-66243627D01*
X95279449Y-66457809D01*
X97542191Y-68720551D01*
X97739894Y-68855636D01*
X97991056Y-68910120D01*
X98243627Y-68862596D01*
X98457809Y-68720551D01*
X100243193Y-66935167D01*
X127064838Y-66935167D01*
X127206883Y-67278943D01*
X127469673Y-67542192D01*
X127813201Y-67684838D01*
X128185167Y-67685162D01*
X128427578Y-67585000D01*
X130072766Y-67585000D01*
X130313201Y-67684838D01*
X130685167Y-67685162D01*
X131028943Y-67543117D01*
X131292192Y-67280327D01*
X131434838Y-66936799D01*
X131435162Y-66564833D01*
X131293117Y-66221057D01*
X131030327Y-65957808D01*
X130686799Y-65815162D01*
X130314833Y-65814838D01*
X130072422Y-65915000D01*
X128427234Y-65915000D01*
X128186799Y-65815162D01*
X127814833Y-65814838D01*
X127471057Y-65956883D01*
X127207808Y-66219673D01*
X127065162Y-66563201D01*
X127064838Y-66935167D01*
X100243193Y-66935167D01*
X100720551Y-66457809D01*
X100855636Y-66260106D01*
X100910120Y-66008944D01*
X100862596Y-65756373D01*
X100720551Y-65542191D01*
X98457809Y-63279449D01*
X98260106Y-63144364D01*
X98008944Y-63089880D01*
X97756373Y-63137404D01*
X97542191Y-63279449D01*
X95279449Y-65542191D01*
X95144364Y-65739894D01*
X95089880Y-65991056D01*
X86847440Y-65991056D01*
X86847440Y-64800000D01*
X86803162Y-64564683D01*
X86664090Y-64348559D01*
X86451890Y-64203569D01*
X86200000Y-64152560D01*
X83800000Y-64152560D01*
X83564683Y-64196838D01*
X83348559Y-64335910D01*
X83203569Y-64548110D01*
X83152560Y-64800000D01*
X69847440Y-64800000D01*
X69803162Y-64564683D01*
X69664090Y-64348559D01*
X69451890Y-64203569D01*
X69200000Y-64152560D01*
X66800000Y-64152560D01*
X66564683Y-64196838D01*
X66348559Y-64335910D01*
X66203569Y-64548110D01*
X66152560Y-64800000D01*
X60127000Y-64800000D01*
X60127000Y-59797175D01*
X66882430Y-59797175D01*
X67005565Y-60084788D01*
X67687734Y-60344707D01*
X68417443Y-60323786D01*
X68994435Y-60084788D01*
X69117570Y-59797175D01*
X83882430Y-59797175D01*
X84005565Y-60084788D01*
X84687734Y-60344707D01*
X85417443Y-60323786D01*
X85994435Y-60084788D01*
X86117570Y-59797175D01*
X85000000Y-58679605D01*
X83882430Y-59797175D01*
X69117570Y-59797175D01*
X68000000Y-58679605D01*
X66882430Y-59797175D01*
X60127000Y-59797175D01*
X60127000Y-58187734D01*
X66155293Y-58187734D01*
X66176214Y-58917443D01*
X66415212Y-59494435D01*
X66702825Y-59617570D01*
X67820395Y-58500000D01*
X68179605Y-58500000D01*
X69297175Y-59617570D01*
X69584788Y-59494435D01*
X69844707Y-58812266D01*
X69826802Y-58187734D01*
X83155293Y-58187734D01*
X83176214Y-58917443D01*
X83415212Y-59494435D01*
X83702825Y-59617570D01*
X84820395Y-58500000D01*
X85179605Y-58500000D01*
X86297175Y-59617570D01*
X86584788Y-59494435D01*
X86776584Y-58991056D01*
X95089880Y-58991056D01*
X95137404Y-59243627D01*
X95279449Y-59457809D01*
X97542191Y-61720551D01*
X97739894Y-61855636D01*
X97991056Y-61910120D01*
X98243627Y-61862596D01*
X98274852Y-61841887D01*
X101565000Y-61841887D01*
X101565000Y-61898113D01*
X101674233Y-62447264D01*
X101985302Y-62912811D01*
X102450849Y-63223880D01*
X103000000Y-63333113D01*
X103549151Y-63223880D01*
X104014698Y-62912811D01*
X104325767Y-62447264D01*
X104435000Y-61898113D01*
X104435000Y-61841887D01*
X104325767Y-61292736D01*
X104014698Y-60827189D01*
X103549151Y-60516120D01*
X103000000Y-60406887D01*
X102450849Y-60516120D01*
X101985302Y-60827189D01*
X101674233Y-61292736D01*
X101565000Y-61841887D01*
X98274852Y-61841887D01*
X98457809Y-61720551D01*
X100720551Y-59457809D01*
X100855636Y-59260106D01*
X100910120Y-59008944D01*
X100862596Y-58756373D01*
X100720551Y-58542191D01*
X98740451Y-56562091D01*
X111390000Y-56562091D01*
X111390000Y-57237909D01*
X111514457Y-57863596D01*
X111868880Y-58394029D01*
X112399313Y-58748452D01*
X113025000Y-58872909D01*
X113650687Y-58748452D01*
X114009192Y-58508907D01*
X114100910Y-58651441D01*
X114313110Y-58796431D01*
X114565000Y-58847440D01*
X116565000Y-58847440D01*
X116800317Y-58803162D01*
X117016441Y-58664090D01*
X117161431Y-58451890D01*
X117212440Y-58200000D01*
X117212440Y-57027000D01*
X117740000Y-57027000D01*
X117740000Y-57327000D01*
X117913058Y-57943020D01*
X118308683Y-58445922D01*
X118866645Y-58759144D01*
X118994566Y-58790124D01*
X119248000Y-58670777D01*
X119248000Y-57027000D01*
X117740000Y-57027000D01*
X117212440Y-57027000D01*
X117212440Y-56473000D01*
X117740000Y-56473000D01*
X117740000Y-56773000D01*
X119248000Y-56773000D01*
X119248000Y-55129223D01*
X119502000Y-55129223D01*
X119502000Y-56773000D01*
X119522000Y-56773000D01*
X119522000Y-57027000D01*
X119502000Y-57027000D01*
X119502000Y-58670777D01*
X119755434Y-58790124D01*
X119883355Y-58759144D01*
X120441317Y-58445922D01*
X120631781Y-58203812D01*
X120758880Y-58394029D01*
X121289313Y-58748452D01*
X121915000Y-58872909D01*
X122540687Y-58748452D01*
X122899192Y-58508907D01*
X122990910Y-58651441D01*
X123203110Y-58796431D01*
X123455000Y-58847440D01*
X125455000Y-58847440D01*
X125690317Y-58803162D01*
X125906441Y-58664090D01*
X126051431Y-58451890D01*
X126102440Y-58200000D01*
X126102440Y-56562091D01*
X126630000Y-56562091D01*
X126630000Y-57237909D01*
X126754457Y-57863596D01*
X127108880Y-58394029D01*
X127639313Y-58748452D01*
X128265000Y-58872909D01*
X128890687Y-58748452D01*
X129421120Y-58394029D01*
X129535000Y-58223595D01*
X129648880Y-58394029D01*
X130179313Y-58748452D01*
X130805000Y-58872909D01*
X131430687Y-58748452D01*
X131786406Y-58510769D01*
X131806673Y-58559699D01*
X131985302Y-58738327D01*
X132218691Y-58835000D01*
X133059250Y-58835000D01*
X133218000Y-58676250D01*
X133218000Y-57027000D01*
X133472000Y-57027000D01*
X133472000Y-58676250D01*
X133630750Y-58835000D01*
X134471309Y-58835000D01*
X134704698Y-58738327D01*
X134883327Y-58559699D01*
X134891486Y-58540000D01*
X139417560Y-58540000D01*
X139417560Y-60340000D01*
X139461838Y-60575317D01*
X139600910Y-60791441D01*
X139813110Y-60936431D01*
X139829344Y-60939719D01*
X139546845Y-61362509D01*
X139430000Y-61949928D01*
X139430000Y-62010072D01*
X139546845Y-62597491D01*
X139879591Y-63095481D01*
X140110845Y-63250000D01*
X139879591Y-63404519D01*
X139546845Y-63902509D01*
X139430000Y-64489928D01*
X139430000Y-64550072D01*
X139546845Y-65137491D01*
X139879591Y-65635481D01*
X140377581Y-65968227D01*
X140965000Y-66085072D01*
X141552419Y-65968227D01*
X142050409Y-65635481D01*
X142383155Y-65137491D01*
X142500000Y-64550072D01*
X142500000Y-64489928D01*
X142383155Y-63902509D01*
X142050409Y-63404519D01*
X141819155Y-63250000D01*
X142050409Y-63095481D01*
X142383155Y-62597491D01*
X142500000Y-62010072D01*
X142500000Y-61949928D01*
X142383155Y-61362509D01*
X142102163Y-60941974D01*
X142316441Y-60804090D01*
X142461431Y-60591890D01*
X142512440Y-60340000D01*
X142512440Y-58540000D01*
X142468162Y-58304683D01*
X142329090Y-58088559D01*
X142116890Y-57943569D01*
X141865000Y-57892560D01*
X140065000Y-57892560D01*
X139829683Y-57936838D01*
X139613559Y-58075910D01*
X139468569Y-58288110D01*
X139417560Y-58540000D01*
X134891486Y-58540000D01*
X134980000Y-58326310D01*
X134980000Y-57185750D01*
X134821250Y-57027000D01*
X133472000Y-57027000D01*
X133218000Y-57027000D01*
X133198000Y-57027000D01*
X133198000Y-56773000D01*
X133218000Y-56773000D01*
X133218000Y-55123750D01*
X133472000Y-55123750D01*
X133472000Y-56773000D01*
X134821250Y-56773000D01*
X134980000Y-56614250D01*
X134980000Y-55473690D01*
X134883327Y-55240301D01*
X134704698Y-55061673D01*
X134471309Y-54965000D01*
X133630750Y-54965000D01*
X133472000Y-55123750D01*
X133218000Y-55123750D01*
X133059250Y-54965000D01*
X132218691Y-54965000D01*
X131985302Y-55061673D01*
X131806673Y-55240301D01*
X131786406Y-55289231D01*
X131430687Y-55051548D01*
X130805000Y-54927091D01*
X130179313Y-55051548D01*
X129648880Y-55405971D01*
X129535000Y-55576405D01*
X129421120Y-55405971D01*
X128890687Y-55051548D01*
X128265000Y-54927091D01*
X127639313Y-55051548D01*
X127108880Y-55405971D01*
X126754457Y-55936404D01*
X126630000Y-56562091D01*
X126102440Y-56562091D01*
X126102440Y-55600000D01*
X126058162Y-55364683D01*
X125919090Y-55148559D01*
X125706890Y-55003569D01*
X125455000Y-54952560D01*
X123455000Y-54952560D01*
X123219683Y-54996838D01*
X123003559Y-55135910D01*
X122898049Y-55290329D01*
X122540687Y-55051548D01*
X121915000Y-54927091D01*
X121289313Y-55051548D01*
X120758880Y-55405971D01*
X120631781Y-55596188D01*
X120441317Y-55354078D01*
X119883355Y-55040856D01*
X119755434Y-55009876D01*
X119502000Y-55129223D01*
X119248000Y-55129223D01*
X118994566Y-55009876D01*
X118866645Y-55040856D01*
X118308683Y-55354078D01*
X117913058Y-55856980D01*
X117740000Y-56473000D01*
X117212440Y-56473000D01*
X117212440Y-55600000D01*
X117168162Y-55364683D01*
X117029090Y-55148559D01*
X116816890Y-55003569D01*
X116565000Y-54952560D01*
X114565000Y-54952560D01*
X114329683Y-54996838D01*
X114113559Y-55135910D01*
X114008049Y-55290329D01*
X113650687Y-55051548D01*
X113025000Y-54927091D01*
X112399313Y-55051548D01*
X111868880Y-55405971D01*
X111514457Y-55936404D01*
X111390000Y-56562091D01*
X98740451Y-56562091D01*
X98457809Y-56279449D01*
X98260106Y-56144364D01*
X98008944Y-56089880D01*
X97756373Y-56137404D01*
X97542191Y-56279449D01*
X95279449Y-58542191D01*
X95144364Y-58739894D01*
X95089880Y-58991056D01*
X86776584Y-58991056D01*
X86844707Y-58812266D01*
X86823786Y-58082557D01*
X86584788Y-57505565D01*
X86297175Y-57382430D01*
X85179605Y-58500000D01*
X84820395Y-58500000D01*
X83702825Y-57382430D01*
X83415212Y-57505565D01*
X83155293Y-58187734D01*
X69826802Y-58187734D01*
X69823786Y-58082557D01*
X69584788Y-57505565D01*
X69297175Y-57382430D01*
X68179605Y-58500000D01*
X67820395Y-58500000D01*
X66702825Y-57382430D01*
X66415212Y-57505565D01*
X66155293Y-58187734D01*
X60127000Y-58187734D01*
X60127000Y-57202825D01*
X66882430Y-57202825D01*
X68000000Y-58320395D01*
X69117570Y-57202825D01*
X83882430Y-57202825D01*
X85000000Y-58320395D01*
X86117570Y-57202825D01*
X85994435Y-56915212D01*
X85312266Y-56655293D01*
X84582557Y-56676214D01*
X84005565Y-56915212D01*
X83882430Y-57202825D01*
X69117570Y-57202825D01*
X68994435Y-56915212D01*
X68312266Y-56655293D01*
X67582557Y-56676214D01*
X67005565Y-56915212D01*
X66882430Y-57202825D01*
X60127000Y-57202825D01*
X60127000Y-54534187D01*
X101564752Y-54534187D01*
X101782757Y-55061800D01*
X102186077Y-55465824D01*
X102713309Y-55684750D01*
X103284187Y-55685248D01*
X103811800Y-55467243D01*
X104215824Y-55063923D01*
X104434750Y-54536691D01*
X104435248Y-53965813D01*
X104217243Y-53438200D01*
X103813923Y-53034176D01*
X103286691Y-52815250D01*
X102715813Y-52814752D01*
X102188200Y-53032757D01*
X101784176Y-53436077D01*
X101565250Y-53963309D01*
X101564752Y-54534187D01*
X60127000Y-54534187D01*
X60127000Y-54127000D01*
X90000000Y-54127000D01*
X90049410Y-54116994D01*
X90089803Y-54089803D01*
X94335615Y-49843991D01*
X101464735Y-49843991D01*
X101697932Y-50408371D01*
X102129357Y-50840551D01*
X102693330Y-51074733D01*
X103303991Y-51075265D01*
X103868371Y-50842068D01*
X104300551Y-50410643D01*
X104534733Y-49846670D01*
X104535265Y-49236009D01*
X104302068Y-48671629D01*
X104124908Y-48494159D01*
X104259699Y-48438327D01*
X104438327Y-48259698D01*
X104535000Y-48026309D01*
X104535000Y-47780000D01*
X108972560Y-47780000D01*
X108972560Y-50780000D01*
X109016838Y-51015317D01*
X109155910Y-51231441D01*
X109368110Y-51376431D01*
X109620000Y-51427440D01*
X112620000Y-51427440D01*
X112855317Y-51383162D01*
X113071441Y-51244090D01*
X113216431Y-51031890D01*
X113267440Y-50780000D01*
X113267440Y-49702815D01*
X114064630Y-49702815D01*
X114388980Y-50487800D01*
X114989041Y-51088909D01*
X115773459Y-51414628D01*
X116622815Y-51415370D01*
X117407800Y-51091020D01*
X118008909Y-50490959D01*
X118334628Y-49706541D01*
X118334631Y-49702815D01*
X119144630Y-49702815D01*
X119468980Y-50487800D01*
X120069041Y-51088909D01*
X120853459Y-51414628D01*
X121702815Y-51415370D01*
X122487800Y-51091020D01*
X123088909Y-50490959D01*
X123414628Y-49706541D01*
X123414631Y-49702815D01*
X124224630Y-49702815D01*
X124548980Y-50487800D01*
X125149041Y-51088909D01*
X125933459Y-51414628D01*
X126782815Y-51415370D01*
X127567800Y-51091020D01*
X128168909Y-50490959D01*
X128494628Y-49706541D01*
X128494750Y-49565750D01*
X131845000Y-49565750D01*
X131845000Y-50906310D01*
X131941673Y-51139699D01*
X132120302Y-51318327D01*
X132353691Y-51415000D01*
X133694250Y-51415000D01*
X133853000Y-51256250D01*
X133853000Y-49407000D01*
X134107000Y-49407000D01*
X134107000Y-51256250D01*
X134265750Y-51415000D01*
X135606309Y-51415000D01*
X135839698Y-51318327D01*
X136018327Y-51139699D01*
X136115000Y-50906310D01*
X136115000Y-50793970D01*
X137725635Y-50793970D01*
X137885418Y-51112739D01*
X138676187Y-51422723D01*
X139525387Y-51406497D01*
X140234582Y-51112739D01*
X140394365Y-50793970D01*
X142805635Y-50793970D01*
X142965418Y-51112739D01*
X143756187Y-51422723D01*
X144605387Y-51406497D01*
X145314582Y-51112739D01*
X145474365Y-50793970D01*
X147885635Y-50793970D01*
X148045418Y-51112739D01*
X148836187Y-51422723D01*
X149685387Y-51406497D01*
X150394582Y-51112739D01*
X150554365Y-50793970D01*
X149220000Y-49459605D01*
X147885635Y-50793970D01*
X145474365Y-50793970D01*
X144140000Y-49459605D01*
X142805635Y-50793970D01*
X140394365Y-50793970D01*
X139060000Y-49459605D01*
X137725635Y-50793970D01*
X136115000Y-50793970D01*
X136115000Y-49565750D01*
X135956250Y-49407000D01*
X134107000Y-49407000D01*
X133853000Y-49407000D01*
X132003750Y-49407000D01*
X131845000Y-49565750D01*
X128494750Y-49565750D01*
X128495370Y-48857185D01*
X128171020Y-48072200D01*
X127753240Y-47653690D01*
X131845000Y-47653690D01*
X131845000Y-48994250D01*
X132003750Y-49153000D01*
X133853000Y-49153000D01*
X133853000Y-47303750D01*
X134107000Y-47303750D01*
X134107000Y-49153000D01*
X135956250Y-49153000D01*
X136115000Y-48994250D01*
X136115000Y-48896187D01*
X136917277Y-48896187D01*
X136933503Y-49745387D01*
X137227261Y-50454582D01*
X137546030Y-50614365D01*
X138880395Y-49280000D01*
X139239605Y-49280000D01*
X140573970Y-50614365D01*
X140892739Y-50454582D01*
X141202723Y-49663813D01*
X141188056Y-48896187D01*
X141997277Y-48896187D01*
X142013503Y-49745387D01*
X142307261Y-50454582D01*
X142626030Y-50614365D01*
X143960395Y-49280000D01*
X144319605Y-49280000D01*
X145653970Y-50614365D01*
X145972739Y-50454582D01*
X146282723Y-49663813D01*
X146268056Y-48896187D01*
X147077277Y-48896187D01*
X147093503Y-49745387D01*
X147387261Y-50454582D01*
X147706030Y-50614365D01*
X149040395Y-49280000D01*
X149399605Y-49280000D01*
X150733970Y-50614365D01*
X151052739Y-50454582D01*
X151362723Y-49663813D01*
X151346497Y-48814613D01*
X151052739Y-48105418D01*
X150733970Y-47945635D01*
X149399605Y-49280000D01*
X149040395Y-49280000D01*
X147706030Y-47945635D01*
X147387261Y-48105418D01*
X147077277Y-48896187D01*
X146268056Y-48896187D01*
X146266497Y-48814613D01*
X145972739Y-48105418D01*
X145653970Y-47945635D01*
X144319605Y-49280000D01*
X143960395Y-49280000D01*
X142626030Y-47945635D01*
X142307261Y-48105418D01*
X141997277Y-48896187D01*
X141188056Y-48896187D01*
X141186497Y-48814613D01*
X140892739Y-48105418D01*
X140573970Y-47945635D01*
X139239605Y-49280000D01*
X138880395Y-49280000D01*
X137546030Y-47945635D01*
X137227261Y-48105418D01*
X136917277Y-48896187D01*
X136115000Y-48896187D01*
X136115000Y-47766030D01*
X137725635Y-47766030D01*
X139060000Y-49100395D01*
X140394365Y-47766030D01*
X142805635Y-47766030D01*
X144140000Y-49100395D01*
X145474365Y-47766030D01*
X147885635Y-47766030D01*
X149220000Y-49100395D01*
X150554365Y-47766030D01*
X150394582Y-47447261D01*
X149603813Y-47137277D01*
X148754613Y-47153503D01*
X148045418Y-47447261D01*
X147885635Y-47766030D01*
X145474365Y-47766030D01*
X145314582Y-47447261D01*
X144523813Y-47137277D01*
X143674613Y-47153503D01*
X142965418Y-47447261D01*
X142805635Y-47766030D01*
X140394365Y-47766030D01*
X140234582Y-47447261D01*
X139443813Y-47137277D01*
X138594613Y-47153503D01*
X137885418Y-47447261D01*
X137725635Y-47766030D01*
X136115000Y-47766030D01*
X136115000Y-47653690D01*
X136018327Y-47420301D01*
X135839698Y-47241673D01*
X135606309Y-47145000D01*
X134265750Y-47145000D01*
X134107000Y-47303750D01*
X133853000Y-47303750D01*
X133694250Y-47145000D01*
X132353691Y-47145000D01*
X132120302Y-47241673D01*
X131941673Y-47420301D01*
X131845000Y-47653690D01*
X127753240Y-47653690D01*
X127570959Y-47471091D01*
X126786541Y-47145372D01*
X125937185Y-47144630D01*
X125152200Y-47468980D01*
X124551091Y-48069041D01*
X124225372Y-48853459D01*
X124224630Y-49702815D01*
X123414631Y-49702815D01*
X123415370Y-48857185D01*
X123091020Y-48072200D01*
X122490959Y-47471091D01*
X121706541Y-47145372D01*
X120857185Y-47144630D01*
X120072200Y-47468980D01*
X119471091Y-48069041D01*
X119145372Y-48853459D01*
X119144630Y-49702815D01*
X118334631Y-49702815D01*
X118335370Y-48857185D01*
X118011020Y-48072200D01*
X117410959Y-47471091D01*
X116626541Y-47145372D01*
X115777185Y-47144630D01*
X114992200Y-47468980D01*
X114391091Y-48069041D01*
X114065372Y-48853459D01*
X114064630Y-49702815D01*
X113267440Y-49702815D01*
X113267440Y-47780000D01*
X113223162Y-47544683D01*
X113084090Y-47328559D01*
X112871890Y-47183569D01*
X112620000Y-47132560D01*
X109620000Y-47132560D01*
X109384683Y-47176838D01*
X109168559Y-47315910D01*
X109023569Y-47528110D01*
X108972560Y-47780000D01*
X104535000Y-47780000D01*
X104535000Y-47285750D01*
X104376250Y-47127000D01*
X103127000Y-47127000D01*
X103127000Y-47147000D01*
X102873000Y-47147000D01*
X102873000Y-47127000D01*
X101623750Y-47127000D01*
X101465000Y-47285750D01*
X101465000Y-48026309D01*
X101561673Y-48259698D01*
X101740301Y-48438327D01*
X101874994Y-48494119D01*
X101699449Y-48669357D01*
X101465267Y-49233330D01*
X101464735Y-49843991D01*
X94335615Y-49843991D01*
X98469606Y-45710000D01*
X101591975Y-45710000D01*
X101561673Y-45740302D01*
X101561673Y-45740302D01*
G37*
X101561673Y-45740302D02*
X101465000Y-45973691D01*
X101465000Y-46714250D01*
X101623750Y-46873000D01*
X102873000Y-46873000D01*
X102873000Y-46853000D01*
X103127000Y-46853000D01*
X103127000Y-46873000D01*
X104376250Y-46873000D01*
X104535000Y-46714250D01*
X104535000Y-45973691D01*
X104438327Y-45740302D01*
X104408025Y-45710000D01*
X162430069Y-45710000D01*
X163179682Y-45859107D01*
X163755885Y-46244114D01*
X164140893Y-46820319D01*
X164290000Y-47569931D01*
X164290000Y-58421155D01*
X164269147Y-58389946D01*
X163787378Y-58068039D01*
X163219093Y-57955000D01*
X163160907Y-57955000D01*
X162592622Y-58068039D01*
X162110853Y-58389946D01*
X161788946Y-58871715D01*
X161675907Y-59440000D01*
X161788946Y-60008285D01*
X162110853Y-60490054D01*
X162440026Y-60710000D01*
X162110853Y-60929946D01*
X161932926Y-61196233D01*
X161909656Y-61139914D01*
X161492283Y-60721812D01*
X160946681Y-60495258D01*
X160355911Y-60494743D01*
X159809914Y-60720344D01*
X159391812Y-61137717D01*
X159344365Y-61251982D01*
X159152811Y-60965302D01*
X158687264Y-60654233D01*
X158138113Y-60545000D01*
X158081887Y-60545000D01*
X157532736Y-60654233D01*
X157067189Y-60965302D01*
X156842408Y-61301710D01*
X156787243Y-61168200D01*
X156383923Y-60764176D01*
X155856691Y-60545250D01*
X155285813Y-60544752D01*
X154758200Y-60762757D01*
X154354176Y-61166077D01*
X154135250Y-61693309D01*
X154134752Y-62264187D01*
X154294167Y-62650000D01*
X153665000Y-62650000D01*
X153192386Y-62744009D01*
X152791723Y-63011723D01*
X152518446Y-63285000D01*
X149389018Y-63285000D01*
X149314090Y-63168559D01*
X149101890Y-63023569D01*
X149085656Y-63020281D01*
X149368155Y-62597491D01*
X149485000Y-62010072D01*
X149485000Y-61949928D01*
X149368155Y-61362509D01*
X149035409Y-60864519D01*
X148804155Y-60710000D01*
X149035409Y-60555481D01*
X149368155Y-60057491D01*
X149485000Y-59470072D01*
X149485000Y-59409928D01*
X149368155Y-58822509D01*
X149122051Y-58454187D01*
X154134752Y-58454187D01*
X154352757Y-58981800D01*
X154756077Y-59385824D01*
X155283309Y-59604750D01*
X155854187Y-59605248D01*
X156381800Y-59387243D01*
X156785824Y-58983923D01*
X156842245Y-58848046D01*
X157067189Y-59184698D01*
X157532736Y-59495767D01*
X158081887Y-59605000D01*
X158138113Y-59605000D01*
X158687264Y-59495767D01*
X159152811Y-59184698D01*
X159463880Y-58719151D01*
X159573113Y-58170000D01*
X159463880Y-57620849D01*
X159152811Y-57155302D01*
X158687264Y-56844233D01*
X158138113Y-56735000D01*
X158081887Y-56735000D01*
X157532736Y-56844233D01*
X157067189Y-57155302D01*
X156842408Y-57491710D01*
X156787243Y-57358200D01*
X156383923Y-56954176D01*
X155856691Y-56735250D01*
X155285813Y-56734752D01*
X154758200Y-56952757D01*
X154354176Y-57356077D01*
X154135250Y-57883309D01*
X154134752Y-58454187D01*
X149122051Y-58454187D01*
X149035409Y-58324519D01*
X148537419Y-57991773D01*
X147950000Y-57874928D01*
X147362581Y-57991773D01*
X146864591Y-58324519D01*
X146531845Y-58822509D01*
X146415000Y-59409928D01*
X146415000Y-59470072D01*
X146531845Y-60057491D01*
X146864591Y-60555481D01*
X147095845Y-60710000D01*
X146864591Y-60864519D01*
X146531845Y-61362509D01*
X146415000Y-61949928D01*
X146415000Y-62010072D01*
X146531845Y-62597491D01*
X146812837Y-63018026D01*
X146598559Y-63155910D01*
X146453569Y-63368110D01*
X146402560Y-63620000D01*
X146402560Y-65420000D01*
X146446838Y-65655317D01*
X146585910Y-65871441D01*
X146798110Y-66016431D01*
X147050000Y-66067440D01*
X148850000Y-66067440D01*
X149085317Y-66023162D01*
X149301441Y-65884090D01*
X149389644Y-65755000D01*
X153030000Y-65755000D01*
X153502614Y-65660991D01*
X153903277Y-65393277D01*
X154176554Y-65120000D01*
X154294414Y-65120000D01*
X154135250Y-65503309D01*
X154134752Y-66074187D01*
X154352757Y-66601800D01*
X154756077Y-67005824D01*
X155283309Y-67224750D01*
X155854187Y-67225248D01*
X156381800Y-67007243D01*
X156785824Y-66603923D01*
X156842245Y-66468046D01*
X157067189Y-66804698D01*
X157532736Y-67115767D01*
X158081887Y-67225000D01*
X158138113Y-67225000D01*
X158687264Y-67115767D01*
X159152811Y-66804698D01*
X159463880Y-66339151D01*
X159573113Y-65790000D01*
X159463880Y-65240849D01*
X159383131Y-65120000D01*
X161285000Y-65120000D01*
X161757614Y-65025991D01*
X161784795Y-65007829D01*
X161930344Y-65360086D01*
X162347717Y-65778188D01*
X162893319Y-66004742D01*
X163484089Y-66005257D01*
X164030086Y-65779656D01*
X164290000Y-65520195D01*
X164290000Y-76201155D01*
X164269147Y-76169946D01*
X163787378Y-75848039D01*
X163219093Y-75735000D01*
X163160907Y-75735000D01*
X162592622Y-75848039D01*
X162110853Y-76169946D01*
X161788946Y-76651715D01*
X161675907Y-77220000D01*
X161788946Y-77788285D01*
X162110853Y-78270054D01*
X162440026Y-78490000D01*
X162110853Y-78709946D01*
X161932926Y-78976233D01*
X161909656Y-78919914D01*
X161492283Y-78501812D01*
X160946681Y-78275258D01*
X160355911Y-78274743D01*
X159809914Y-78500344D01*
X159391812Y-78917717D01*
X159344365Y-79031982D01*
X159152811Y-78745302D01*
X158687264Y-78434233D01*
X158138113Y-78325000D01*
X158081887Y-78325000D01*
X157532736Y-78434233D01*
X157067189Y-78745302D01*
X156842408Y-79081710D01*
X156787243Y-78948200D01*
X156383923Y-78544176D01*
X155856691Y-78325250D01*
X155285813Y-78324752D01*
X154758200Y-78542757D01*
X154354176Y-78946077D01*
X154135250Y-79473309D01*
X154134752Y-80044187D01*
X154294167Y-80430000D01*
X153665000Y-80430000D01*
X153192386Y-80524009D01*
X152791723Y-80791723D01*
X152518446Y-81065000D01*
X149389018Y-81065000D01*
X149314090Y-80948559D01*
X149101890Y-80803569D01*
X149085656Y-80800281D01*
X149368155Y-80377491D01*
X149485000Y-79790072D01*
X149485000Y-79729928D01*
X149368155Y-79142509D01*
X149035409Y-78644519D01*
X148804155Y-78490000D01*
X149035409Y-78335481D01*
X149368155Y-77837491D01*
X149485000Y-77250072D01*
X149485000Y-77189928D01*
X149368155Y-76602509D01*
X149122051Y-76234187D01*
X154134752Y-76234187D01*
X154352757Y-76761800D01*
X154756077Y-77165824D01*
X155283309Y-77384750D01*
X155854187Y-77385248D01*
X156381800Y-77167243D01*
X156785824Y-76763923D01*
X156842245Y-76628046D01*
X157067189Y-76964698D01*
X157532736Y-77275767D01*
X158081887Y-77385000D01*
X158138113Y-77385000D01*
X158687264Y-77275767D01*
X159152811Y-76964698D01*
X159463880Y-76499151D01*
X159573113Y-75950000D01*
X159463880Y-75400849D01*
X159152811Y-74935302D01*
X158687264Y-74624233D01*
X158138113Y-74515000D01*
X158081887Y-74515000D01*
X157532736Y-74624233D01*
X157067189Y-74935302D01*
X156842408Y-75271710D01*
X156787243Y-75138200D01*
X156383923Y-74734176D01*
X155856691Y-74515250D01*
X155285813Y-74514752D01*
X154758200Y-74732757D01*
X154354176Y-75136077D01*
X154135250Y-75663309D01*
X154134752Y-76234187D01*
X149122051Y-76234187D01*
X149035409Y-76104519D01*
X148537419Y-75771773D01*
X147950000Y-75654928D01*
X147362581Y-75771773D01*
X146864591Y-76104519D01*
X146531845Y-76602509D01*
X146415000Y-77189928D01*
X146415000Y-77250072D01*
X146531845Y-77837491D01*
X146864591Y-78335481D01*
X147095845Y-78490000D01*
X146864591Y-78644519D01*
X146531845Y-79142509D01*
X146415000Y-79729928D01*
X146415000Y-79790072D01*
X146531845Y-80377491D01*
X146812837Y-80798026D01*
X146598559Y-80935910D01*
X146453569Y-81148110D01*
X146402560Y-81400000D01*
X146402560Y-83200000D01*
X146446838Y-83435317D01*
X146585910Y-83651441D01*
X146798110Y-83796431D01*
X147050000Y-83847440D01*
X148850000Y-83847440D01*
X149085317Y-83803162D01*
X149301441Y-83664090D01*
X149389644Y-83535000D01*
X153030000Y-83535000D01*
X153502614Y-83440991D01*
X153903277Y-83173277D01*
X154176554Y-82900000D01*
X154294414Y-82900000D01*
X154135250Y-83283309D01*
X154134752Y-83854187D01*
X154352757Y-84381800D01*
X154756077Y-84785824D01*
X155283309Y-85004750D01*
X155854187Y-85005248D01*
X156381800Y-84787243D01*
X156785824Y-84383923D01*
X156842245Y-84248046D01*
X157067189Y-84584698D01*
X157532736Y-84895767D01*
X158081887Y-85005000D01*
X158138113Y-85005000D01*
X158687264Y-84895767D01*
X159152811Y-84584698D01*
X159463880Y-84119151D01*
X159573113Y-83570000D01*
X159463880Y-83020849D01*
X159383131Y-82900000D01*
X161285000Y-82900000D01*
X161757614Y-82805991D01*
X161784795Y-82787829D01*
X161930344Y-83140086D01*
X162347717Y-83558188D01*
X162893319Y-83784742D01*
X163484089Y-83785257D01*
X164030086Y-83559656D01*
X164290000Y-83300195D01*
X164290000Y-114301155D01*
X164269147Y-114269946D01*
X163787378Y-113948039D01*
X163219093Y-113835000D01*
X163160907Y-113835000D01*
X162592622Y-113948039D01*
X162110853Y-114269946D01*
X161788946Y-114751715D01*
X161675907Y-115320000D01*
X161788946Y-115888285D01*
X162110853Y-116370054D01*
X162440026Y-116590000D01*
X162110853Y-116809946D01*
X161932926Y-117076233D01*
X161909656Y-117019914D01*
X161492283Y-116601812D01*
X160946681Y-116375258D01*
X160355911Y-116374743D01*
X159809914Y-116600344D01*
X159391812Y-117017717D01*
X159344365Y-117131982D01*
X159152811Y-116845302D01*
X158687264Y-116534233D01*
X158138113Y-116425000D01*
X158081887Y-116425000D01*
X157532736Y-116534233D01*
X157067189Y-116845302D01*
X156842408Y-117181710D01*
X156787243Y-117048200D01*
X156383923Y-116644176D01*
X155856691Y-116425250D01*
X155285813Y-116424752D01*
X154758200Y-116642757D01*
X154354176Y-117046077D01*
X154135250Y-117573309D01*
X154134752Y-118144187D01*
X154294167Y-118530000D01*
X153665000Y-118530000D01*
X153192386Y-118624009D01*
X152791723Y-118891723D01*
X152518446Y-119165000D01*
X149389018Y-119165000D01*
X149314090Y-119048559D01*
X149101890Y-118903569D01*
X149085656Y-118900281D01*
X149368155Y-118477491D01*
X149485000Y-117890072D01*
X149485000Y-117829928D01*
X149368155Y-117242509D01*
X149035409Y-116744519D01*
X148804155Y-116590000D01*
X149035409Y-116435481D01*
X149368155Y-115937491D01*
X149485000Y-115350072D01*
X149485000Y-115289928D01*
X149368155Y-114702509D01*
X149122051Y-114334187D01*
X154134752Y-114334187D01*
X154352757Y-114861800D01*
X154756077Y-115265824D01*
X155283309Y-115484750D01*
X155854187Y-115485248D01*
X156381800Y-115267243D01*
X156785824Y-114863923D01*
X156842245Y-114728046D01*
X157067189Y-115064698D01*
X157532736Y-115375767D01*
X158081887Y-115485000D01*
X158138113Y-115485000D01*
X158687264Y-115375767D01*
X159152811Y-115064698D01*
X159463880Y-114599151D01*
X159573113Y-114050000D01*
X159463880Y-113500849D01*
X159152811Y-113035302D01*
X158687264Y-112724233D01*
X158138113Y-112615000D01*
X158081887Y-112615000D01*
X157532736Y-112724233D01*
X157067189Y-113035302D01*
X156842408Y-113371710D01*
X156787243Y-113238200D01*
X156383923Y-112834176D01*
X155856691Y-112615250D01*
X155285813Y-112614752D01*
X154758200Y-112832757D01*
X154354176Y-113236077D01*
X154135250Y-113763309D01*
X154134752Y-114334187D01*
X149122051Y-114334187D01*
X149035409Y-114204519D01*
X148537419Y-113871773D01*
X147950000Y-113754928D01*
X147362581Y-113871773D01*
X146864591Y-114204519D01*
X146531845Y-114702509D01*
X146415000Y-115289928D01*
X146415000Y-115350072D01*
X146531845Y-115937491D01*
X146864591Y-116435481D01*
X147095845Y-116590000D01*
X146864591Y-116744519D01*
X146531845Y-117242509D01*
X146415000Y-117829928D01*
X146415000Y-117890072D01*
X146531845Y-118477491D01*
X146812837Y-118898026D01*
X146598559Y-119035910D01*
X146453569Y-119248110D01*
X146402560Y-119500000D01*
X146402560Y-121300000D01*
X146446838Y-121535317D01*
X146585910Y-121751441D01*
X146798110Y-121896431D01*
X147050000Y-121947440D01*
X148850000Y-121947440D01*
X149085317Y-121903162D01*
X149301441Y-121764090D01*
X149389644Y-121635000D01*
X153030000Y-121635000D01*
X153502614Y-121540991D01*
X153903277Y-121273277D01*
X154176554Y-121000000D01*
X154294414Y-121000000D01*
X154135250Y-121383309D01*
X154134752Y-121954187D01*
X154352757Y-122481800D01*
X154756077Y-122885824D01*
X155283309Y-123104750D01*
X155854187Y-123105248D01*
X156381800Y-122887243D01*
X156785824Y-122483923D01*
X156842245Y-122348046D01*
X157067189Y-122684698D01*
X157532736Y-122995767D01*
X158081887Y-123105000D01*
X158138113Y-123105000D01*
X158687264Y-122995767D01*
X159152811Y-122684698D01*
X159463880Y-122219151D01*
X159573113Y-121670000D01*
X159463880Y-121120849D01*
X159383131Y-121000000D01*
X161285000Y-121000000D01*
X161757614Y-120905991D01*
X161784795Y-120887829D01*
X161930344Y-121240086D01*
X162347717Y-121658188D01*
X162893319Y-121884742D01*
X163484089Y-121885257D01*
X164030086Y-121659656D01*
X164290000Y-121400195D01*
X164290000Y-132081155D01*
X164269147Y-132049946D01*
X163787378Y-131728039D01*
X163219093Y-131615000D01*
X163160907Y-131615000D01*
X162592622Y-131728039D01*
X162110853Y-132049946D01*
X161788946Y-132531715D01*
X161675907Y-133100000D01*
X161788946Y-133668285D01*
X162110853Y-134150054D01*
X162440026Y-134370000D01*
X162110853Y-134589946D01*
X161932926Y-134856233D01*
X161909656Y-134799914D01*
X161492283Y-134381812D01*
X160946681Y-134155258D01*
X160355911Y-134154743D01*
X159809914Y-134380344D01*
X159391812Y-134797717D01*
X159344365Y-134911982D01*
X159152811Y-134625302D01*
X158687264Y-134314233D01*
X158138113Y-134205000D01*
X158081887Y-134205000D01*
X157532736Y-134314233D01*
X157067189Y-134625302D01*
X156842408Y-134961710D01*
X156787243Y-134828200D01*
X156383923Y-134424176D01*
X155856691Y-134205250D01*
X155285813Y-134204752D01*
X154758200Y-134422757D01*
X154354176Y-134826077D01*
X154135250Y-135353309D01*
X154134752Y-135924187D01*
X154294167Y-136310000D01*
X151760000Y-136310000D01*
X151287386Y-136404009D01*
X150886723Y-136671723D01*
X150613446Y-136945000D01*
X149389018Y-136945000D01*
X149314090Y-136828559D01*
X149101890Y-136683569D01*
X149085656Y-136680281D01*
X149368155Y-136257491D01*
X149485000Y-135670072D01*
X149485000Y-135609928D01*
X149368155Y-135022509D01*
X149035409Y-134524519D01*
X148804155Y-134370000D01*
X149035409Y-134215481D01*
X149368155Y-133717491D01*
X149485000Y-133130072D01*
X149485000Y-133069928D01*
X149368155Y-132482509D01*
X149122051Y-132114187D01*
X154134752Y-132114187D01*
X154352757Y-132641800D01*
X154756077Y-133045824D01*
X155283309Y-133264750D01*
X155854187Y-133265248D01*
X156381800Y-133047243D01*
X156785824Y-132643923D01*
X156842245Y-132508046D01*
X157067189Y-132844698D01*
X157532736Y-133155767D01*
X158081887Y-133265000D01*
X158138113Y-133265000D01*
X158687264Y-133155767D01*
X159152811Y-132844698D01*
X159463880Y-132379151D01*
X159573113Y-131830000D01*
X159463880Y-131280849D01*
X159152811Y-130815302D01*
X158687264Y-130504233D01*
X158138113Y-130395000D01*
X158081887Y-130395000D01*
X157532736Y-130504233D01*
X157067189Y-130815302D01*
X156842408Y-131151710D01*
X156787243Y-131018200D01*
X156383923Y-130614176D01*
X155856691Y-130395250D01*
X155285813Y-130394752D01*
X154758200Y-130612757D01*
X154354176Y-131016077D01*
X154135250Y-131543309D01*
X154134752Y-132114187D01*
X149122051Y-132114187D01*
X149035409Y-131984519D01*
X148537419Y-131651773D01*
X147950000Y-131534928D01*
X147362581Y-131651773D01*
X146864591Y-131984519D01*
X146531845Y-132482509D01*
X146415000Y-133069928D01*
X146415000Y-133130072D01*
X146531845Y-133717491D01*
X146864591Y-134215481D01*
X147095845Y-134370000D01*
X146864591Y-134524519D01*
X146531845Y-135022509D01*
X146415000Y-135609928D01*
X146415000Y-135670072D01*
X146531845Y-136257491D01*
X146812837Y-136678026D01*
X146598559Y-136815910D01*
X146453569Y-137028110D01*
X146402560Y-137280000D01*
X146402560Y-139080000D01*
X146446838Y-139315317D01*
X146585910Y-139531441D01*
X146798110Y-139676431D01*
X147050000Y-139727440D01*
X148850000Y-139727440D01*
X149085317Y-139683162D01*
X149301441Y-139544090D01*
X149389644Y-139415000D01*
X151125000Y-139415000D01*
X151597614Y-139320991D01*
X151998277Y-139053277D01*
X152271554Y-138780000D01*
X154294414Y-138780000D01*
X154135250Y-139163309D01*
X154134752Y-139734187D01*
X154352757Y-140261800D01*
X154756077Y-140665824D01*
X155283309Y-140884750D01*
X155854187Y-140885248D01*
X156381800Y-140667243D01*
X156785824Y-140263923D01*
X156842245Y-140128046D01*
X157067189Y-140464698D01*
X157532736Y-140775767D01*
X158081887Y-140885000D01*
X158138113Y-140885000D01*
X158687264Y-140775767D01*
X159152811Y-140464698D01*
X159463880Y-139999151D01*
X159573113Y-139450000D01*
X159463880Y-138900849D01*
X159383131Y-138780000D01*
X161285000Y-138780000D01*
X161757614Y-138685991D01*
X161784795Y-138667829D01*
X161930344Y-139020086D01*
X162347717Y-139438188D01*
X162893319Y-139664742D01*
X163484089Y-139665257D01*
X164030086Y-139439656D01*
X164290000Y-139180195D01*
X164290000Y-142430069D01*
X164140893Y-143179681D01*
X163755885Y-143755886D01*
X163179682Y-144140893D01*
X162430069Y-144290000D01*
X104408025Y-144290000D01*
X104438327Y-144259698D01*
X104535000Y-144026309D01*
X104535000Y-143285750D01*
X104376250Y-143127000D01*
X103127000Y-143127000D01*
X103127000Y-143147000D01*
X102873000Y-143147000D01*
X102873000Y-143127000D01*
X101623750Y-143127000D01*
X101465000Y-143285750D01*
X101465000Y-144026309D01*
X101561673Y-144259698D01*
X101591975Y-144290000D01*
X99469606Y-144290000D01*
X95943597Y-140763991D01*
X101464735Y-140763991D01*
X101697932Y-141328371D01*
X101875092Y-141505841D01*
X101740301Y-141561673D01*
X101561673Y-141740302D01*
X101465000Y-141973691D01*
X101465000Y-142714250D01*
X101623750Y-142873000D01*
X102873000Y-142873000D01*
X102873000Y-142853000D01*
X103127000Y-142853000D01*
X103127000Y-142873000D01*
X104376250Y-142873000D01*
X104535000Y-142714250D01*
X104535000Y-142040000D01*
X111777091Y-142040000D01*
X111901548Y-142665687D01*
X112255971Y-143196120D01*
X112786404Y-143550543D01*
X113412091Y-143675000D01*
X114087909Y-143675000D01*
X114713596Y-143550543D01*
X115244029Y-143196120D01*
X115598452Y-142665687D01*
X115674026Y-142285750D01*
X120565000Y-142285750D01*
X120565000Y-143126309D01*
X120661673Y-143359698D01*
X120840301Y-143538327D01*
X121073690Y-143635000D01*
X122214250Y-143635000D01*
X122373000Y-143476250D01*
X122373000Y-142127000D01*
X122627000Y-142127000D01*
X122627000Y-143476250D01*
X122785750Y-143635000D01*
X123926310Y-143635000D01*
X124159699Y-143538327D01*
X124338327Y-143359698D01*
X124435000Y-143126309D01*
X124435000Y-142285750D01*
X124276250Y-142127000D01*
X122627000Y-142127000D01*
X122373000Y-142127000D01*
X120723750Y-142127000D01*
X120565000Y-142285750D01*
X115674026Y-142285750D01*
X115722909Y-142040000D01*
X115598452Y-141414313D01*
X115360769Y-141058594D01*
X115409699Y-141038327D01*
X115588327Y-140859698D01*
X115685000Y-140626309D01*
X115685000Y-139785750D01*
X115526250Y-139627000D01*
X113877000Y-139627000D01*
X113877000Y-139647000D01*
X113623000Y-139647000D01*
X113623000Y-139627000D01*
X111973750Y-139627000D01*
X111815000Y-139785750D01*
X111815000Y-140626309D01*
X111911673Y-140859698D01*
X112090301Y-141038327D01*
X112139231Y-141058594D01*
X111901548Y-141414313D01*
X111777091Y-142040000D01*
X104535000Y-142040000D01*
X104535000Y-141973691D01*
X104438327Y-141740302D01*
X104259699Y-141561673D01*
X104125006Y-141505881D01*
X104300551Y-141330643D01*
X104534733Y-140766670D01*
X104535265Y-140156009D01*
X104302068Y-139591629D01*
X104170669Y-139460000D01*
X120527091Y-139460000D01*
X120651548Y-140085687D01*
X120889231Y-140441406D01*
X120840301Y-140461673D01*
X120661673Y-140640302D01*
X120565000Y-140873691D01*
X120565000Y-141714250D01*
X120723750Y-141873000D01*
X122373000Y-141873000D01*
X122373000Y-141853000D01*
X122627000Y-141853000D01*
X122627000Y-141873000D01*
X124276250Y-141873000D01*
X124435000Y-141714250D01*
X124435000Y-140873691D01*
X124338327Y-140640302D01*
X124159699Y-140461673D01*
X124110769Y-140441406D01*
X124348452Y-140085687D01*
X124472909Y-139460000D01*
X124348452Y-138834313D01*
X123994029Y-138303880D01*
X123463596Y-137949457D01*
X122837909Y-137825000D01*
X122162091Y-137825000D01*
X121536404Y-137949457D01*
X121005971Y-138303880D01*
X120651548Y-138834313D01*
X120527091Y-139460000D01*
X104170669Y-139460000D01*
X103870643Y-139159449D01*
X103306670Y-138925267D01*
X102696009Y-138924735D01*
X102131629Y-139157932D01*
X101699449Y-139589357D01*
X101465267Y-140153330D01*
X101464735Y-140763991D01*
X95943597Y-140763991D01*
X93553297Y-138373691D01*
X111815000Y-138373691D01*
X111815000Y-139214250D01*
X111973750Y-139373000D01*
X113623000Y-139373000D01*
X113623000Y-138023750D01*
X113877000Y-138023750D01*
X113877000Y-139373000D01*
X115526250Y-139373000D01*
X115685000Y-139214250D01*
X115685000Y-138373691D01*
X115588327Y-138140302D01*
X115409699Y-137961673D01*
X115176310Y-137865000D01*
X114035750Y-137865000D01*
X113877000Y-138023750D01*
X113623000Y-138023750D01*
X113464250Y-137865000D01*
X112323690Y-137865000D01*
X112090301Y-137961673D01*
X111911673Y-138140302D01*
X111815000Y-138373691D01*
X93553297Y-138373691D01*
X91271493Y-136091887D01*
X101565000Y-136091887D01*
X101565000Y-136148113D01*
X101674233Y-136697264D01*
X101985302Y-137162811D01*
X102450849Y-137473880D01*
X103000000Y-137583113D01*
X103417836Y-137500000D01*
X126765000Y-137500000D01*
X126859009Y-137972614D01*
X127126723Y-138373277D01*
X127527386Y-138640991D01*
X128000000Y-138735000D01*
X128472614Y-138640991D01*
X128873277Y-138373277D01*
X135046554Y-132200000D01*
X139417560Y-132200000D01*
X139417560Y-134000000D01*
X139461838Y-134235317D01*
X139600910Y-134451441D01*
X139813110Y-134596431D01*
X139829344Y-134599719D01*
X139546845Y-135022509D01*
X139430000Y-135609928D01*
X139430000Y-135670072D01*
X139546845Y-136257491D01*
X139879591Y-136755481D01*
X140110845Y-136910000D01*
X139879591Y-137064519D01*
X139546845Y-137562509D01*
X139430000Y-138149928D01*
X139430000Y-138210072D01*
X139546845Y-138797491D01*
X139879591Y-139295481D01*
X140377581Y-139628227D01*
X140965000Y-139745072D01*
X141552419Y-139628227D01*
X142050409Y-139295481D01*
X142383155Y-138797491D01*
X142500000Y-138210072D01*
X142500000Y-138149928D01*
X142383155Y-137562509D01*
X142050409Y-137064519D01*
X141819155Y-136910000D01*
X142050409Y-136755481D01*
X142383155Y-136257491D01*
X142500000Y-135670072D01*
X142500000Y-135609928D01*
X142383155Y-135022509D01*
X142102163Y-134601974D01*
X142316441Y-134464090D01*
X142461431Y-134251890D01*
X142512440Y-134000000D01*
X142512440Y-132200000D01*
X142468162Y-131964683D01*
X142329090Y-131748559D01*
X142116890Y-131603569D01*
X141865000Y-131552560D01*
X140065000Y-131552560D01*
X139829683Y-131596838D01*
X139613559Y-131735910D01*
X139468569Y-131948110D01*
X139417560Y-132200000D01*
X135046554Y-132200000D01*
X135123277Y-132123277D01*
X135390991Y-131722614D01*
X135485000Y-131250000D01*
X135390991Y-130777386D01*
X135123277Y-130376723D01*
X134722614Y-130109009D01*
X134250000Y-130015000D01*
X133777386Y-130109009D01*
X133376723Y-130376723D01*
X127126723Y-136626723D01*
X126859009Y-137027386D01*
X126765000Y-137500000D01*
X103417836Y-137500000D01*
X103549151Y-137473880D01*
X104014698Y-137162811D01*
X104325767Y-136697264D01*
X104435000Y-136148113D01*
X104435000Y-136091887D01*
X104325767Y-135542736D01*
X104323939Y-135540000D01*
X111777091Y-135540000D01*
X111901548Y-136165687D01*
X112255971Y-136696120D01*
X112786404Y-137050543D01*
X113412091Y-137175000D01*
X114087909Y-137175000D01*
X114713596Y-137050543D01*
X115244029Y-136696120D01*
X115598452Y-136165687D01*
X115674026Y-135785750D01*
X120565000Y-135785750D01*
X120565000Y-136626309D01*
X120661673Y-136859698D01*
X120840301Y-137038327D01*
X121073690Y-137135000D01*
X122214250Y-137135000D01*
X122373000Y-136976250D01*
X122373000Y-135627000D01*
X122627000Y-135627000D01*
X122627000Y-136976250D01*
X122785750Y-137135000D01*
X123926310Y-137135000D01*
X124159699Y-137038327D01*
X124338327Y-136859698D01*
X124435000Y-136626309D01*
X124435000Y-135785750D01*
X124276250Y-135627000D01*
X122627000Y-135627000D01*
X122373000Y-135627000D01*
X120723750Y-135627000D01*
X120565000Y-135785750D01*
X115674026Y-135785750D01*
X115722909Y-135540000D01*
X115598452Y-134914313D01*
X115360769Y-134558594D01*
X115409699Y-134538327D01*
X115588327Y-134359698D01*
X115685000Y-134126309D01*
X115685000Y-133285750D01*
X115526250Y-133127000D01*
X113877000Y-133127000D01*
X113877000Y-133147000D01*
X113623000Y-133147000D01*
X113623000Y-133127000D01*
X111973750Y-133127000D01*
X111815000Y-133285750D01*
X111815000Y-134126309D01*
X111911673Y-134359698D01*
X112090301Y-134538327D01*
X112139231Y-134558594D01*
X111901548Y-134914313D01*
X111777091Y-135540000D01*
X104323939Y-135540000D01*
X104014698Y-135077189D01*
X103549151Y-134766120D01*
X103000000Y-134656887D01*
X102450849Y-134766120D01*
X101985302Y-135077189D01*
X101674233Y-135542736D01*
X101565000Y-136091887D01*
X91271493Y-136091887D01*
X91089803Y-135910197D01*
X91047789Y-135882334D01*
X91000000Y-135873000D01*
X60127000Y-135873000D01*
X60127000Y-132797175D01*
X66882430Y-132797175D01*
X67005565Y-133084788D01*
X67687734Y-133344707D01*
X68417443Y-133323786D01*
X68994435Y-133084788D01*
X69117570Y-132797175D01*
X83882430Y-132797175D01*
X84005565Y-133084788D01*
X84687734Y-133344707D01*
X85417443Y-133323786D01*
X85994435Y-133084788D01*
X86117570Y-132797175D01*
X85000000Y-131679605D01*
X83882430Y-132797175D01*
X69117570Y-132797175D01*
X68000000Y-131679605D01*
X66882430Y-132797175D01*
X60127000Y-132797175D01*
X60127000Y-131187734D01*
X66155293Y-131187734D01*
X66176214Y-131917443D01*
X66415212Y-132494435D01*
X66702825Y-132617570D01*
X67820395Y-131500000D01*
X68179605Y-131500000D01*
X69297175Y-132617570D01*
X69584788Y-132494435D01*
X69844707Y-131812266D01*
X69826802Y-131187734D01*
X83155293Y-131187734D01*
X83176214Y-131917443D01*
X83415212Y-132494435D01*
X83702825Y-132617570D01*
X84820395Y-131500000D01*
X85179605Y-131500000D01*
X86297175Y-132617570D01*
X86584788Y-132494435D01*
X86844707Y-131812266D01*
X86823786Y-131082557D01*
X86785886Y-130991056D01*
X95089880Y-130991056D01*
X95137404Y-131243627D01*
X95279449Y-131457809D01*
X97542191Y-133720551D01*
X97739894Y-133855636D01*
X97991056Y-133910120D01*
X98243627Y-133862596D01*
X98457809Y-133720551D01*
X99218360Y-132960000D01*
X120527091Y-132960000D01*
X120651548Y-133585687D01*
X120889231Y-133941406D01*
X120840301Y-133961673D01*
X120661673Y-134140302D01*
X120565000Y-134373691D01*
X120565000Y-135214250D01*
X120723750Y-135373000D01*
X122373000Y-135373000D01*
X122373000Y-135353000D01*
X122627000Y-135353000D01*
X122627000Y-135373000D01*
X124276250Y-135373000D01*
X124435000Y-135214250D01*
X124435000Y-134373691D01*
X124338327Y-134140302D01*
X124159699Y-133961673D01*
X124110769Y-133941406D01*
X124348452Y-133585687D01*
X124472909Y-132960000D01*
X124348452Y-132334313D01*
X123994029Y-131803880D01*
X123463596Y-131449457D01*
X122837909Y-131325000D01*
X122162091Y-131325000D01*
X121536404Y-131449457D01*
X121005971Y-131803880D01*
X120651548Y-132334313D01*
X120527091Y-132960000D01*
X99218360Y-132960000D01*
X100304669Y-131873691D01*
X111815000Y-131873691D01*
X111815000Y-132714250D01*
X111973750Y-132873000D01*
X113623000Y-132873000D01*
X113623000Y-131523750D01*
X113877000Y-131523750D01*
X113877000Y-132873000D01*
X115526250Y-132873000D01*
X115685000Y-132714250D01*
X115685000Y-131873691D01*
X115588327Y-131640302D01*
X115409699Y-131461673D01*
X115176310Y-131365000D01*
X114035750Y-131365000D01*
X113877000Y-131523750D01*
X113623000Y-131523750D01*
X113464250Y-131365000D01*
X112323690Y-131365000D01*
X112090301Y-131461673D01*
X111911673Y-131640302D01*
X111815000Y-131873691D01*
X100304669Y-131873691D01*
X100720551Y-131457809D01*
X100855636Y-131260106D01*
X100910120Y-131008944D01*
X100862596Y-130756373D01*
X100720551Y-130542191D01*
X98962547Y-128784187D01*
X101564752Y-128784187D01*
X101782757Y-129311800D01*
X102186077Y-129715824D01*
X102713309Y-129934750D01*
X103284187Y-129935248D01*
X103811800Y-129717243D01*
X104215824Y-129313923D01*
X104434750Y-128786691D01*
X104435248Y-128215813D01*
X104217243Y-127688200D01*
X104057494Y-127528172D01*
X137332538Y-127528172D01*
X137737709Y-128508761D01*
X138487293Y-129259655D01*
X139467173Y-129666536D01*
X140528172Y-129667462D01*
X141508761Y-129262291D01*
X142259655Y-128512707D01*
X142666536Y-127532827D01*
X142667462Y-126471828D01*
X142262291Y-125491239D01*
X141512707Y-124740345D01*
X140532827Y-124333464D01*
X139471828Y-124332538D01*
X138491239Y-124737709D01*
X137740345Y-125487293D01*
X137333464Y-126467173D01*
X137332538Y-127528172D01*
X104057494Y-127528172D01*
X103813923Y-127284176D01*
X103286691Y-127065250D01*
X102715813Y-127064752D01*
X102188200Y-127282757D01*
X101784176Y-127686077D01*
X101565250Y-128213309D01*
X101564752Y-128784187D01*
X98962547Y-128784187D01*
X98457809Y-128279449D01*
X98260106Y-128144364D01*
X98008944Y-128089880D01*
X97756373Y-128137404D01*
X97542191Y-128279449D01*
X95279449Y-130542191D01*
X95144364Y-130739894D01*
X95089880Y-130991056D01*
X86785886Y-130991056D01*
X86584788Y-130505565D01*
X86297175Y-130382430D01*
X85179605Y-131500000D01*
X84820395Y-131500000D01*
X83702825Y-130382430D01*
X83415212Y-130505565D01*
X83155293Y-131187734D01*
X69826802Y-131187734D01*
X69823786Y-131082557D01*
X69584788Y-130505565D01*
X69297175Y-130382430D01*
X68179605Y-131500000D01*
X67820395Y-131500000D01*
X66702825Y-130382430D01*
X66415212Y-130505565D01*
X66155293Y-131187734D01*
X60127000Y-131187734D01*
X60127000Y-130202825D01*
X66882430Y-130202825D01*
X68000000Y-131320395D01*
X69117570Y-130202825D01*
X83882430Y-130202825D01*
X85000000Y-131320395D01*
X86117570Y-130202825D01*
X85994435Y-129915212D01*
X85312266Y-129655293D01*
X84582557Y-129676214D01*
X84005565Y-129915212D01*
X83882430Y-130202825D01*
X69117570Y-130202825D01*
X68994435Y-129915212D01*
X68312266Y-129655293D01*
X67582557Y-129676214D01*
X67005565Y-129915212D01*
X66882430Y-130202825D01*
X60127000Y-130202825D01*
X60127000Y-122800000D01*
X66152560Y-122800000D01*
X66152560Y-125200000D01*
X66196838Y-125435317D01*
X66335910Y-125651441D01*
X66548110Y-125796431D01*
X66800000Y-125847440D01*
X69200000Y-125847440D01*
X69435317Y-125803162D01*
X69651441Y-125664090D01*
X69796431Y-125451890D01*
X69847440Y-125200000D01*
X69847440Y-122800000D01*
X83152560Y-122800000D01*
X83152560Y-125200000D01*
X83196838Y-125435317D01*
X83335910Y-125651441D01*
X83548110Y-125796431D01*
X83800000Y-125847440D01*
X86200000Y-125847440D01*
X86435317Y-125803162D01*
X86651441Y-125664090D01*
X86796431Y-125451890D01*
X86847440Y-125200000D01*
X86847440Y-122800000D01*
X86803162Y-122564683D01*
X86664090Y-122348559D01*
X86451890Y-122203569D01*
X86200000Y-122152560D01*
X83800000Y-122152560D01*
X83564683Y-122196838D01*
X83348559Y-122335910D01*
X83203569Y-122548110D01*
X83152560Y-122800000D01*
X69847440Y-122800000D01*
X69803162Y-122564683D01*
X69664090Y-122348559D01*
X69451890Y-122203569D01*
X69200000Y-122152560D01*
X66800000Y-122152560D01*
X66564683Y-122196838D01*
X66348559Y-122335910D01*
X66203569Y-122548110D01*
X66152560Y-122800000D01*
X60127000Y-122800000D01*
X60127000Y-121127000D01*
X85655690Y-121127000D01*
X85741629Y-121184423D01*
X86750000Y-121385000D01*
X97436640Y-121385000D01*
X95279449Y-123542191D01*
X95144364Y-123739894D01*
X95089880Y-123991056D01*
X95137404Y-124243627D01*
X95279449Y-124457809D01*
X97542191Y-126720551D01*
X97739894Y-126855636D01*
X97991056Y-126910120D01*
X98243627Y-126862596D01*
X98457809Y-126720551D01*
X100720551Y-124457809D01*
X100855636Y-124260106D01*
X100910120Y-124008944D01*
X100862596Y-123756373D01*
X100720551Y-123542191D01*
X100113527Y-122935167D01*
X126514838Y-122935167D01*
X126656883Y-123278943D01*
X126919673Y-123542192D01*
X127263201Y-123684838D01*
X127635167Y-123685162D01*
X127877578Y-123585000D01*
X130622766Y-123585000D01*
X130863201Y-123684838D01*
X131235167Y-123685162D01*
X131578943Y-123543117D01*
X131842192Y-123280327D01*
X131984838Y-122936799D01*
X131985162Y-122564833D01*
X131843117Y-122221057D01*
X131580327Y-121957808D01*
X131236799Y-121815162D01*
X130864833Y-121814838D01*
X130622422Y-121915000D01*
X127877234Y-121915000D01*
X127636799Y-121815162D01*
X127264833Y-121814838D01*
X126921057Y-121956883D01*
X126657808Y-122219673D01*
X126515162Y-122563201D01*
X126514838Y-122935167D01*
X100113527Y-122935167D01*
X98511370Y-121333010D01*
X99258371Y-121184423D01*
X100113226Y-120613226D01*
X102496552Y-118229900D01*
X115744900Y-118229900D01*
X115744900Y-119729900D01*
X115838909Y-120202514D01*
X116106623Y-120603177D01*
X116126723Y-120623277D01*
X116527386Y-120890991D01*
X117000000Y-120985000D01*
X117472614Y-120890991D01*
X117873277Y-120623277D01*
X118140991Y-120222614D01*
X118235000Y-119750000D01*
X118214900Y-119648951D01*
X118214900Y-119349239D01*
X118277386Y-119390991D01*
X118750000Y-119485000D01*
X119222614Y-119390991D01*
X119623277Y-119123277D01*
X119890991Y-118722614D01*
X119985000Y-118250000D01*
X119985000Y-114420000D01*
X139417560Y-114420000D01*
X139417560Y-116220000D01*
X139461838Y-116455317D01*
X139600910Y-116671441D01*
X139813110Y-116816431D01*
X139829344Y-116819719D01*
X139546845Y-117242509D01*
X139430000Y-117829928D01*
X139430000Y-117890072D01*
X139546845Y-118477491D01*
X139879591Y-118975481D01*
X140110845Y-119130000D01*
X139879591Y-119284519D01*
X139546845Y-119782509D01*
X139430000Y-120369928D01*
X139430000Y-120430072D01*
X139546845Y-121017491D01*
X139879591Y-121515481D01*
X140377581Y-121848227D01*
X140965000Y-121965072D01*
X141552419Y-121848227D01*
X142050409Y-121515481D01*
X142383155Y-121017491D01*
X142500000Y-120430072D01*
X142500000Y-120369928D01*
X142383155Y-119782509D01*
X142050409Y-119284519D01*
X141819155Y-119130000D01*
X142050409Y-118975481D01*
X142383155Y-118477491D01*
X142500000Y-117890072D01*
X142500000Y-117829928D01*
X142383155Y-117242509D01*
X142102163Y-116821974D01*
X142316441Y-116684090D01*
X142461431Y-116471890D01*
X142512440Y-116220000D01*
X142512440Y-114420000D01*
X142468162Y-114184683D01*
X142329090Y-113968559D01*
X142116890Y-113823569D01*
X141865000Y-113772560D01*
X140065000Y-113772560D01*
X139829683Y-113816838D01*
X139613559Y-113955910D01*
X139468569Y-114168110D01*
X139417560Y-114420000D01*
X119985000Y-114420000D01*
X119985000Y-106500000D01*
X119890991Y-106027386D01*
X119623277Y-105626723D01*
X119222614Y-105359009D01*
X118750000Y-105265000D01*
X118277386Y-105359009D01*
X117876723Y-105626723D01*
X117609009Y-106027386D01*
X117515000Y-106500000D01*
X117515000Y-107637330D01*
X117472614Y-107609009D01*
X117000000Y-107515000D01*
X116527386Y-107609009D01*
X116126723Y-107876723D01*
X115859009Y-108277386D01*
X115765000Y-108750000D01*
X115765000Y-118128851D01*
X115744900Y-118229900D01*
X102496552Y-118229900D01*
X112363226Y-108363226D01*
X112934423Y-107508371D01*
X112990175Y-107228086D01*
X113135000Y-106500000D01*
X113135000Y-102485167D01*
X124064838Y-102485167D01*
X124165000Y-102727578D01*
X124165000Y-111822766D01*
X124065162Y-112063201D01*
X124064838Y-112435167D01*
X124206883Y-112778943D01*
X124469673Y-113042192D01*
X124813201Y-113184838D01*
X125185167Y-113185162D01*
X125500351Y-113054931D01*
X125813201Y-113184838D01*
X126185167Y-113185162D01*
X126528943Y-113043117D01*
X126792192Y-112780327D01*
X126934838Y-112436799D01*
X126935162Y-112064833D01*
X126835000Y-111822422D01*
X126835000Y-106553403D01*
X158814682Y-106553403D01*
X159093455Y-107228086D01*
X159609199Y-107744730D01*
X160283395Y-108024681D01*
X161013403Y-108025318D01*
X161688086Y-107746545D01*
X162204730Y-107230801D01*
X162484681Y-106556605D01*
X162485318Y-105826597D01*
X162206545Y-105151914D01*
X161690801Y-104635270D01*
X161016605Y-104355319D01*
X160286597Y-104354682D01*
X159611914Y-104633455D01*
X159095270Y-105149199D01*
X158815319Y-105823395D01*
X158814682Y-106553403D01*
X126835000Y-106553403D01*
X126835000Y-101677234D01*
X126886419Y-101553403D01*
X158814682Y-101553403D01*
X159093455Y-102228086D01*
X159609199Y-102744730D01*
X160283395Y-103024681D01*
X161013403Y-103025318D01*
X161688086Y-102746545D01*
X162204730Y-102230801D01*
X162484681Y-101556605D01*
X162485318Y-100826597D01*
X162206545Y-100151914D01*
X161690801Y-99635270D01*
X161016605Y-99355319D01*
X160286597Y-99354682D01*
X159611914Y-99633455D01*
X159095270Y-100149199D01*
X158815319Y-100823395D01*
X158814682Y-101553403D01*
X126886419Y-101553403D01*
X126934838Y-101436799D01*
X126935162Y-101064833D01*
X126793117Y-100721057D01*
X126530327Y-100457808D01*
X126186799Y-100315162D01*
X125814833Y-100314838D01*
X125471057Y-100456883D01*
X125207808Y-100719673D01*
X125065162Y-101063201D01*
X125064899Y-101365056D01*
X124814833Y-101364838D01*
X124471057Y-101506883D01*
X124207808Y-101769673D01*
X124065162Y-102113201D01*
X124064838Y-102485167D01*
X113135000Y-102485167D01*
X113135000Y-100246553D01*
X113629928Y-100345000D01*
X113690072Y-100345000D01*
X114277491Y-100228155D01*
X114775481Y-99895409D01*
X114930000Y-99664155D01*
X115084519Y-99895409D01*
X115582509Y-100228155D01*
X116169928Y-100345000D01*
X116230072Y-100345000D01*
X116817491Y-100228155D01*
X117315481Y-99895409D01*
X117648227Y-99397419D01*
X117765072Y-98810000D01*
X117648227Y-98222581D01*
X117315481Y-97724591D01*
X116817491Y-97391845D01*
X116230072Y-97275000D01*
X116169928Y-97275000D01*
X115582509Y-97391845D01*
X115084519Y-97724591D01*
X114930000Y-97955845D01*
X114775481Y-97724591D01*
X114495000Y-97537180D01*
X114495000Y-96553403D01*
X158814682Y-96553403D01*
X159093455Y-97228086D01*
X159609199Y-97744730D01*
X160283395Y-98024681D01*
X161013403Y-98025318D01*
X161688086Y-97746545D01*
X162204730Y-97230801D01*
X162484681Y-96556605D01*
X162485318Y-95826597D01*
X162206545Y-95151914D01*
X161690801Y-94635270D01*
X161016605Y-94355319D01*
X160286597Y-94354682D01*
X159611914Y-94633455D01*
X159095270Y-95149199D01*
X158815319Y-95823395D01*
X158814682Y-96553403D01*
X114495000Y-96553403D01*
X114495000Y-92462820D01*
X114698026Y-92327163D01*
X114835910Y-92541441D01*
X115048110Y-92686431D01*
X115300000Y-92737440D01*
X117100000Y-92737440D01*
X117335317Y-92693162D01*
X117551441Y-92554090D01*
X117588399Y-92500000D01*
X123015000Y-92500000D01*
X123109009Y-92972614D01*
X123294352Y-93250000D01*
X123109009Y-93527386D01*
X123015000Y-94000000D01*
X123109009Y-94472614D01*
X123376723Y-94873277D01*
X123777386Y-95140991D01*
X124250000Y-95235000D01*
X132750000Y-95235000D01*
X133222614Y-95140991D01*
X133623277Y-94873277D01*
X133890991Y-94472614D01*
X133985000Y-94000000D01*
X133890991Y-93527386D01*
X133705648Y-93250000D01*
X133890991Y-92972614D01*
X133985000Y-92500000D01*
X133890991Y-92027386D01*
X133623277Y-91626723D01*
X133222614Y-91359009D01*
X132750000Y-91265000D01*
X124250000Y-91265000D01*
X123777386Y-91359009D01*
X123376723Y-91626723D01*
X123109009Y-92027386D01*
X123015000Y-92500000D01*
X117588399Y-92500000D01*
X117696431Y-92341890D01*
X117747440Y-92090000D01*
X117747440Y-90290000D01*
X117703162Y-90054683D01*
X117564090Y-89838559D01*
X117351890Y-89693569D01*
X117100000Y-89642560D01*
X115300000Y-89642560D01*
X115064683Y-89686838D01*
X114848559Y-89825910D01*
X114703569Y-90038110D01*
X114700281Y-90054344D01*
X114277491Y-89771845D01*
X113690072Y-89655000D01*
X113629928Y-89655000D01*
X113042509Y-89771845D01*
X112544519Y-90104591D01*
X112390000Y-90335845D01*
X112235481Y-90104591D01*
X111737491Y-89771845D01*
X111150072Y-89655000D01*
X111089928Y-89655000D01*
X110502509Y-89771845D01*
X110004519Y-90104591D01*
X109671773Y-90602581D01*
X109554928Y-91190000D01*
X109671773Y-91777419D01*
X110004519Y-92275409D01*
X110502509Y-92608155D01*
X111089928Y-92725000D01*
X111150072Y-92725000D01*
X111737491Y-92608155D01*
X112235481Y-92275409D01*
X112390000Y-92044155D01*
X112544519Y-92275409D01*
X112825000Y-92462820D01*
X112825000Y-97537180D01*
X112621974Y-97672837D01*
X112484090Y-97458559D01*
X112271890Y-97313569D01*
X112180430Y-97295048D01*
X111841358Y-97068487D01*
X111120000Y-96925000D01*
X110398642Y-97068487D01*
X110256560Y-97163423D01*
X109491629Y-97315577D01*
X108636774Y-97886774D01*
X108635000Y-97889429D01*
X108635000Y-96827234D01*
X108734838Y-96586799D01*
X108735162Y-96214833D01*
X108593117Y-95871057D01*
X108330327Y-95607808D01*
X107986799Y-95465162D01*
X107614833Y-95464838D01*
X107399896Y-95553648D01*
X107186799Y-95465162D01*
X106814833Y-95464838D01*
X106599896Y-95553648D01*
X106386799Y-95465162D01*
X106014833Y-95464838D01*
X105671057Y-95606883D01*
X105407808Y-95869673D01*
X105265162Y-96213201D01*
X105264838Y-96585167D01*
X105365000Y-96827578D01*
X105365000Y-101802560D01*
X103950000Y-101802560D01*
X103714683Y-101846838D01*
X103498559Y-101985910D01*
X103353569Y-102198110D01*
X103302560Y-102450000D01*
X103302560Y-104050000D01*
X103346838Y-104285317D01*
X103485910Y-104501441D01*
X103698110Y-104646431D01*
X103950000Y-104697440D01*
X105365000Y-104697440D01*
X105365000Y-105446172D01*
X104966777Y-105303035D01*
X104396546Y-105330222D01*
X103995995Y-105496136D01*
X103921861Y-105742255D01*
X104750000Y-106570395D01*
X104764142Y-106556252D01*
X104943748Y-106735858D01*
X104929605Y-106750000D01*
X104943748Y-106764142D01*
X104764142Y-106943748D01*
X104750000Y-106929605D01*
X103921861Y-107757745D01*
X103995995Y-108003864D01*
X104533223Y-108196965D01*
X105103454Y-108169778D01*
X105103993Y-108169555D01*
X97158548Y-116115000D01*
X90127000Y-116115000D01*
X90127000Y-111000000D01*
X90116994Y-110950590D01*
X90088553Y-110908965D01*
X90046159Y-110881685D01*
X90000000Y-110873000D01*
X67468461Y-110873000D01*
X67008371Y-110565577D01*
X66678277Y-110499917D01*
X66457809Y-110279449D01*
X66260106Y-110144364D01*
X66008944Y-110089880D01*
X65756373Y-110137404D01*
X65542191Y-110279449D01*
X65456640Y-110365000D01*
X59127000Y-110365000D01*
X59127000Y-109449774D01*
X67229831Y-109449774D01*
X67294131Y-109687611D01*
X67802342Y-109867333D01*
X68340644Y-109838892D01*
X68705869Y-109687611D01*
X68770169Y-109449774D01*
X68000000Y-108679605D01*
X67229831Y-109449774D01*
X59127000Y-109449774D01*
X59127000Y-108302342D01*
X66632667Y-108302342D01*
X66661108Y-108840644D01*
X66812389Y-109205869D01*
X67050226Y-109270169D01*
X67820395Y-108500000D01*
X68179605Y-108500000D01*
X68949774Y-109270169D01*
X69187611Y-109205869D01*
X69367333Y-108697658D01*
X69338892Y-108159356D01*
X69187611Y-107794131D01*
X69053025Y-107757745D01*
X78671861Y-107757745D01*
X78745995Y-108003864D01*
X79283223Y-108196965D01*
X79853454Y-108169778D01*
X80254005Y-108003864D01*
X80328139Y-107757745D01*
X86921861Y-107757745D01*
X86995995Y-108003864D01*
X87533223Y-108196965D01*
X88103454Y-108169778D01*
X88504005Y-108003864D01*
X88578139Y-107757745D01*
X95671861Y-107757745D01*
X95745995Y-108003864D01*
X96283223Y-108196965D01*
X96853454Y-108169778D01*
X97254005Y-108003864D01*
X97328139Y-107757745D01*
X96500000Y-106929605D01*
X95671861Y-107757745D01*
X88578139Y-107757745D01*
X87750000Y-106929605D01*
X86921861Y-107757745D01*
X80328139Y-107757745D01*
X79500000Y-106929605D01*
X78671861Y-107757745D01*
X69053025Y-107757745D01*
X68949774Y-107729831D01*
X68179605Y-108500000D01*
X67820395Y-108500000D01*
X67050226Y-107729831D01*
X66812389Y-107794131D01*
X66632667Y-108302342D01*
X59127000Y-108302342D01*
X59127000Y-107550226D01*
X67229831Y-107550226D01*
X68000000Y-108320395D01*
X68770169Y-107550226D01*
X68705869Y-107312389D01*
X68197658Y-107132667D01*
X67659356Y-107161108D01*
X67294131Y-107312389D01*
X67229831Y-107550226D01*
X59127000Y-107550226D01*
X59127000Y-106228344D01*
X69184765Y-106228344D01*
X69390617Y-106726543D01*
X69771452Y-107108043D01*
X70269291Y-107314764D01*
X70808344Y-107315235D01*
X71306543Y-107109383D01*
X71688043Y-106728548D01*
X71769149Y-106533223D01*
X78053035Y-106533223D01*
X78080222Y-107103454D01*
X78246136Y-107504005D01*
X78492255Y-107578139D01*
X79320395Y-106750000D01*
X79679605Y-106750000D01*
X80507745Y-107578139D01*
X80753864Y-107504005D01*
X80946965Y-106966777D01*
X80926295Y-106533223D01*
X86303035Y-106533223D01*
X86330222Y-107103454D01*
X86496136Y-107504005D01*
X86742255Y-107578139D01*
X87570395Y-106750000D01*
X87929605Y-106750000D01*
X88757745Y-107578139D01*
X89003864Y-107504005D01*
X89196965Y-106966777D01*
X89176295Y-106533223D01*
X95053035Y-106533223D01*
X95080222Y-107103454D01*
X95246136Y-107504005D01*
X95492255Y-107578139D01*
X96320395Y-106750000D01*
X96679605Y-106750000D01*
X97507745Y-107578139D01*
X97753864Y-107504005D01*
X97946965Y-106966777D01*
X97926295Y-106533223D01*
X103303035Y-106533223D01*
X103330222Y-107103454D01*
X103496136Y-107504005D01*
X103742255Y-107578139D01*
X104570395Y-106750000D01*
X103742255Y-105921861D01*
X103496136Y-105995995D01*
X103303035Y-106533223D01*
X97926295Y-106533223D01*
X97919778Y-106396546D01*
X97753864Y-105995995D01*
X97507745Y-105921861D01*
X96679605Y-106750000D01*
X96320395Y-106750000D01*
X95492255Y-105921861D01*
X95246136Y-105995995D01*
X95053035Y-106533223D01*
X89176295Y-106533223D01*
X89169778Y-106396546D01*
X89003864Y-105995995D01*
X88757745Y-105921861D01*
X87929605Y-106750000D01*
X87570395Y-106750000D01*
X86742255Y-105921861D01*
X86496136Y-105995995D01*
X86303035Y-106533223D01*
X80926295Y-106533223D01*
X80919778Y-106396546D01*
X80753864Y-105995995D01*
X80507745Y-105921861D01*
X79679605Y-106750000D01*
X79320395Y-106750000D01*
X78492255Y-105921861D01*
X78246136Y-105995995D01*
X78053035Y-106533223D01*
X71769149Y-106533223D01*
X71894764Y-106230709D01*
X71895190Y-105742255D01*
X78671861Y-105742255D01*
X79500000Y-106570395D01*
X80328139Y-105742255D01*
X86921861Y-105742255D01*
X87750000Y-106570395D01*
X88578139Y-105742255D01*
X95671861Y-105742255D01*
X96500000Y-106570395D01*
X97328139Y-105742255D01*
X97254005Y-105496136D01*
X96716777Y-105303035D01*
X96146546Y-105330222D01*
X95745995Y-105496136D01*
X95671861Y-105742255D01*
X88578139Y-105742255D01*
X88504005Y-105496136D01*
X87966777Y-105303035D01*
X87396546Y-105330222D01*
X86995995Y-105496136D01*
X86921861Y-105742255D01*
X80328139Y-105742255D01*
X80254005Y-105496136D01*
X79716777Y-105303035D01*
X79146546Y-105330222D01*
X78745995Y-105496136D01*
X78671861Y-105742255D01*
X71895190Y-105742255D01*
X71895235Y-105691656D01*
X71689383Y-105193457D01*
X71308548Y-104811957D01*
X70810709Y-104605236D01*
X70271656Y-104604765D01*
X69773457Y-104810617D01*
X69391957Y-105191452D01*
X69185236Y-105689291D01*
X69184765Y-106228344D01*
X59127000Y-106228344D01*
X59127000Y-103688344D01*
X66644765Y-103688344D01*
X66850617Y-104186543D01*
X67231452Y-104568043D01*
X67729291Y-104774764D01*
X68268344Y-104775235D01*
X68766543Y-104569383D01*
X69148043Y-104188548D01*
X69354764Y-103690709D01*
X69355235Y-103151656D01*
X69149383Y-102653457D01*
X68946281Y-102450000D01*
X78052560Y-102450000D01*
X78052560Y-104050000D01*
X78096838Y-104285317D01*
X78235910Y-104501441D01*
X78448110Y-104646431D01*
X78700000Y-104697440D01*
X80300000Y-104697440D01*
X80535317Y-104653162D01*
X80751441Y-104514090D01*
X80896431Y-104301890D01*
X80947440Y-104050000D01*
X80947440Y-102450000D01*
X80903162Y-102214683D01*
X80764090Y-101998559D01*
X80551890Y-101853569D01*
X80300000Y-101802560D01*
X78700000Y-101802560D01*
X78464683Y-101846838D01*
X78248559Y-101985910D01*
X78103569Y-102198110D01*
X78052560Y-102450000D01*
X68946281Y-102450000D01*
X68768548Y-102271957D01*
X68270709Y-102065236D01*
X67731656Y-102064765D01*
X67233457Y-102270617D01*
X66851957Y-102651452D01*
X66645236Y-103149291D01*
X66644765Y-103688344D01*
X59127000Y-103688344D01*
X59127000Y-101435167D01*
X70064838Y-101435167D01*
X70206883Y-101778943D01*
X70469673Y-102042192D01*
X70813201Y-102184838D01*
X71185167Y-102185162D01*
X71427578Y-102085000D01*
X75822766Y-102085000D01*
X76063201Y-102184838D01*
X76435167Y-102185162D01*
X76778943Y-102043117D01*
X77042192Y-101780327D01*
X77184838Y-101436799D01*
X77184839Y-101435167D01*
X83314838Y-101435167D01*
X83456883Y-101778943D01*
X83719673Y-102042192D01*
X84063201Y-102184838D01*
X84435167Y-102185162D01*
X84677578Y-102085000D01*
X86430854Y-102085000D01*
X86353569Y-102198110D01*
X86302560Y-102450000D01*
X86302560Y-104050000D01*
X86346838Y-104285317D01*
X86485910Y-104501441D01*
X86698110Y-104646431D01*
X86950000Y-104697440D01*
X88550000Y-104697440D01*
X88785317Y-104653162D01*
X89001441Y-104514090D01*
X89146431Y-104301890D01*
X89197440Y-104050000D01*
X89197440Y-102450000D01*
X89153162Y-102214683D01*
X89069713Y-102085000D01*
X95180854Y-102085000D01*
X95103569Y-102198110D01*
X95052560Y-102450000D01*
X95052560Y-104050000D01*
X95096838Y-104285317D01*
X95235910Y-104501441D01*
X95448110Y-104646431D01*
X95700000Y-104697440D01*
X97300000Y-104697440D01*
X97535317Y-104653162D01*
X97751441Y-104514090D01*
X97896431Y-104301890D01*
X97947440Y-104050000D01*
X97947440Y-102450000D01*
X97903162Y-102214683D01*
X97819713Y-102085000D01*
X99072766Y-102085000D01*
X99313201Y-102184838D01*
X99685167Y-102185162D01*
X100028943Y-102043117D01*
X100292192Y-101780327D01*
X100434838Y-101436799D01*
X100435162Y-101064833D01*
X100293117Y-100721057D01*
X100030327Y-100457808D01*
X99686799Y-100315162D01*
X99314833Y-100314838D01*
X99072422Y-100415000D01*
X84677234Y-100415000D01*
X84436799Y-100315162D01*
X84064833Y-100314838D01*
X83721057Y-100456883D01*
X83457808Y-100719673D01*
X83315162Y-101063201D01*
X83314838Y-101435167D01*
X77184839Y-101435167D01*
X77185162Y-101064833D01*
X77043117Y-100721057D01*
X76780327Y-100457808D01*
X76436799Y-100315162D01*
X76064833Y-100314838D01*
X75822422Y-100415000D01*
X71427234Y-100415000D01*
X71186799Y-100315162D01*
X70814833Y-100314838D01*
X70471057Y-100456883D01*
X70207808Y-100719673D01*
X70065162Y-101063201D01*
X70064838Y-101435167D01*
X59127000Y-101435167D01*
X59127000Y-96810806D01*
X59500000Y-96885000D01*
X65219208Y-96885000D01*
X66055000Y-97720793D01*
X66055000Y-98810000D01*
X66198487Y-99531358D01*
X66421845Y-99865637D01*
X66436838Y-99945317D01*
X66575910Y-100161441D01*
X66788110Y-100306431D01*
X66879570Y-100324952D01*
X67218642Y-100551513D01*
X67940000Y-100695000D01*
X68661358Y-100551513D01*
X68995637Y-100328155D01*
X69075317Y-100313162D01*
X69291441Y-100174090D01*
X69436431Y-99961890D01*
X69439719Y-99945656D01*
X69862509Y-100228155D01*
X70449928Y-100345000D01*
X70510072Y-100345000D01*
X71097491Y-100228155D01*
X71595481Y-99895409D01*
X71750000Y-99664155D01*
X71904519Y-99895409D01*
X72402509Y-100228155D01*
X72989928Y-100345000D01*
X73050072Y-100345000D01*
X73637491Y-100228155D01*
X74135481Y-99895409D01*
X74468227Y-99397419D01*
X74585072Y-98810000D01*
X74468227Y-98222581D01*
X74135481Y-97724591D01*
X73637491Y-97391845D01*
X73050072Y-97275000D01*
X72989928Y-97275000D01*
X72402509Y-97391845D01*
X71904519Y-97724591D01*
X71750000Y-97955845D01*
X71595481Y-97724591D01*
X71315000Y-97537180D01*
X71315000Y-96868367D01*
X89012656Y-96868367D01*
X89224585Y-97381274D01*
X89616662Y-97774036D01*
X90129198Y-97986860D01*
X90684163Y-97987344D01*
X91197070Y-97775415D01*
X91589832Y-97383338D01*
X91802656Y-96870802D01*
X91803140Y-96315837D01*
X91715491Y-96103710D01*
X91925249Y-96190809D01*
X92480214Y-96191293D01*
X92993121Y-95979364D01*
X93385883Y-95587287D01*
X93398853Y-95556051D01*
X93803949Y-95556051D01*
X94094788Y-95498199D01*
X94341350Y-95333452D01*
X96037401Y-93637401D01*
X96202148Y-93390840D01*
X96260000Y-93100000D01*
X96260000Y-92400000D01*
X96202148Y-92109161D01*
X96123088Y-91990839D01*
X96037401Y-91862598D01*
X95735122Y-91560320D01*
X95735162Y-91514833D01*
X95593117Y-91171057D01*
X95330327Y-90907808D01*
X94986799Y-90765162D01*
X94614833Y-90764838D01*
X94271057Y-90906883D01*
X94007808Y-91169673D01*
X93957762Y-91290197D01*
X93640302Y-91386870D01*
X93215642Y-91811530D01*
X93215642Y-92036037D01*
X94000000Y-92820395D01*
X94014143Y-92806253D01*
X94193748Y-92985858D01*
X94179605Y-93000000D01*
X94193748Y-93014143D01*
X94014143Y-93193748D01*
X94000000Y-93179605D01*
X93985858Y-93193748D01*
X93806253Y-93014143D01*
X93820395Y-93000000D01*
X93036037Y-92215642D01*
X92811530Y-92215642D01*
X92386870Y-92640302D01*
X92290197Y-92873691D01*
X92290198Y-93126310D01*
X92386871Y-93359699D01*
X92428418Y-93401246D01*
X91927684Y-93400809D01*
X91414777Y-93612738D01*
X91022015Y-94004815D01*
X90809191Y-94517351D01*
X90808707Y-95072316D01*
X90896356Y-95284443D01*
X90686598Y-95197344D01*
X90131633Y-95196860D01*
X89618726Y-95408789D01*
X89225964Y-95800866D01*
X89013140Y-96313402D01*
X89012656Y-96868367D01*
X71315000Y-96868367D01*
X71315000Y-92462820D01*
X71518026Y-92327163D01*
X71655910Y-92541441D01*
X71868110Y-92686431D01*
X72120000Y-92737440D01*
X73920000Y-92737440D01*
X74155317Y-92693162D01*
X74371441Y-92554090D01*
X74516431Y-92341890D01*
X74567440Y-92090000D01*
X74567440Y-90290000D01*
X74523162Y-90054683D01*
X74384090Y-89838559D01*
X74171890Y-89693569D01*
X73920000Y-89642560D01*
X72120000Y-89642560D01*
X71884683Y-89686838D01*
X71668559Y-89825910D01*
X71523569Y-90038110D01*
X71520281Y-90054344D01*
X71097491Y-89771845D01*
X70510072Y-89655000D01*
X70449928Y-89655000D01*
X70146269Y-89715401D01*
X67892535Y-87461667D01*
X67841636Y-87338481D01*
X68205869Y-87187611D01*
X68270169Y-86949774D01*
X67500000Y-86179605D01*
X67485858Y-86193748D01*
X67306253Y-86014143D01*
X67320395Y-86000000D01*
X67679605Y-86000000D01*
X68449774Y-86770169D01*
X68687611Y-86705869D01*
X68867333Y-86197658D01*
X68838892Y-85659356D01*
X68687611Y-85294131D01*
X68449774Y-85229831D01*
X67679605Y-86000000D01*
X67320395Y-86000000D01*
X66550226Y-85229831D01*
X66312389Y-85294131D01*
X66132667Y-85802342D01*
X66161108Y-86340644D01*
X66312389Y-86705869D01*
X66550224Y-86770168D01*
X66435055Y-86885337D01*
X66496209Y-86946491D01*
X66471057Y-86956883D01*
X66207808Y-87219673D01*
X66065162Y-87563201D01*
X66064838Y-87935167D01*
X66206883Y-88278943D01*
X66469673Y-88542192D01*
X66711910Y-88642778D01*
X67754958Y-89685826D01*
X67322509Y-89771845D01*
X66824519Y-90104591D01*
X66491773Y-90602581D01*
X66374928Y-91190000D01*
X66491773Y-91777419D01*
X66824519Y-92275409D01*
X67322509Y-92608155D01*
X67909928Y-92725000D01*
X67970072Y-92725000D01*
X68557491Y-92608155D01*
X69055481Y-92275409D01*
X69210000Y-92044155D01*
X69364519Y-92275409D01*
X69645000Y-92462820D01*
X69645000Y-96163995D01*
X69272896Y-95607103D01*
X67332896Y-93667104D01*
X66721359Y-93258487D01*
X66000000Y-93115000D01*
X60280792Y-93115000D01*
X59582899Y-92417107D01*
X59582897Y-92417104D01*
X59127000Y-91961207D01*
X59127000Y-85050226D01*
X66729831Y-85050226D01*
X67500000Y-85820395D01*
X68270169Y-85050226D01*
X68239063Y-84935167D01*
X75064838Y-84935167D01*
X75206883Y-85278943D01*
X75415000Y-85487424D01*
X75415000Y-88322766D01*
X75315162Y-88563201D01*
X75314838Y-88935167D01*
X75456883Y-89278943D01*
X75719673Y-89542192D01*
X76063201Y-89684838D01*
X76435167Y-89685162D01*
X76778943Y-89543117D01*
X77042192Y-89280327D01*
X77184838Y-88936799D01*
X77185162Y-88564833D01*
X77085000Y-88322422D01*
X77085000Y-85950000D01*
X78052560Y-85950000D01*
X78052560Y-87550000D01*
X78096838Y-87785317D01*
X78235910Y-88001441D01*
X78448110Y-88146431D01*
X78700000Y-88197440D01*
X80300000Y-88197440D01*
X80535317Y-88153162D01*
X80751441Y-88014090D01*
X80896431Y-87801890D01*
X80947440Y-87550000D01*
X80947440Y-85950000D01*
X86302560Y-85950000D01*
X86302560Y-87550000D01*
X86346838Y-87785317D01*
X86485910Y-88001441D01*
X86698110Y-88146431D01*
X86950000Y-88197440D01*
X88550000Y-88197440D01*
X88785317Y-88153162D01*
X89001441Y-88014090D01*
X89146431Y-87801890D01*
X89197440Y-87550000D01*
X89197440Y-85950000D01*
X95052560Y-85950000D01*
X95052560Y-87550000D01*
X95096838Y-87785317D01*
X95235910Y-88001441D01*
X95448110Y-88146431D01*
X95700000Y-88197440D01*
X97300000Y-88197440D01*
X97535317Y-88153162D01*
X97751441Y-88014090D01*
X97896431Y-87801890D01*
X97947440Y-87550000D01*
X97947440Y-85950000D01*
X103302560Y-85950000D01*
X103302560Y-87550000D01*
X103346838Y-87785317D01*
X103485910Y-88001441D01*
X103698110Y-88146431D01*
X103950000Y-88197440D01*
X105365000Y-88197440D01*
X105365000Y-93172766D01*
X105265162Y-93413201D01*
X105264838Y-93785167D01*
X105406883Y-94128943D01*
X105669673Y-94392192D01*
X106013201Y-94534838D01*
X106385167Y-94535162D01*
X106600104Y-94446352D01*
X106813201Y-94534838D01*
X107185167Y-94535162D01*
X107400104Y-94446352D01*
X107613201Y-94534838D01*
X107985167Y-94535162D01*
X108328943Y-94393117D01*
X108592192Y-94130327D01*
X108734838Y-93786799D01*
X108735162Y-93414833D01*
X108635000Y-93172422D01*
X108635000Y-84435167D01*
X126314838Y-84435167D01*
X126456883Y-84778943D01*
X126719673Y-85042192D01*
X127063201Y-85184838D01*
X127435167Y-85185162D01*
X127677578Y-85085000D01*
X130822766Y-85085000D01*
X131063201Y-85184838D01*
X131435167Y-85185162D01*
X131778943Y-85043117D01*
X132042192Y-84780327D01*
X132184838Y-84436799D01*
X132185162Y-84064833D01*
X132043117Y-83721057D01*
X131780327Y-83457808D01*
X131436799Y-83315162D01*
X131064833Y-83314838D01*
X130822422Y-83415000D01*
X127677234Y-83415000D01*
X127436799Y-83315162D01*
X127064833Y-83314838D01*
X126721057Y-83456883D01*
X126457808Y-83719673D01*
X126315162Y-84063201D01*
X126314838Y-84435167D01*
X108635000Y-84435167D01*
X108635000Y-83000000D01*
X108571439Y-82680459D01*
X108390434Y-82409566D01*
X107492535Y-81511667D01*
X107435000Y-81372422D01*
X107435000Y-81245868D01*
X108538333Y-80142535D01*
X108778943Y-80043117D01*
X109042192Y-79780327D01*
X109184838Y-79436799D01*
X109185162Y-79064833D01*
X109043117Y-78721057D01*
X108780327Y-78457808D01*
X108436799Y-78315162D01*
X108064833Y-78314838D01*
X107721057Y-78456883D01*
X107457808Y-78719673D01*
X107357222Y-78961910D01*
X106009566Y-80309566D01*
X105828561Y-80580459D01*
X105765000Y-80900000D01*
X105765000Y-81372766D01*
X105665162Y-81613201D01*
X105664838Y-81985167D01*
X105731411Y-82146286D01*
X105721658Y-82156022D01*
X105693014Y-82127378D01*
X105578139Y-82242253D01*
X105504005Y-81996136D01*
X104966777Y-81803035D01*
X104396546Y-81830222D01*
X103995995Y-81996136D01*
X103921861Y-82242255D01*
X104750000Y-83070395D01*
X104764142Y-83056252D01*
X104943748Y-83235858D01*
X104929605Y-83250000D01*
X104943748Y-83264142D01*
X104764142Y-83443748D01*
X104750000Y-83429605D01*
X103921861Y-84257745D01*
X103995995Y-84503864D01*
X104533223Y-84696965D01*
X105103454Y-84669778D01*
X105365000Y-84561442D01*
X105365000Y-85302560D01*
X103950000Y-85302560D01*
X103714683Y-85346838D01*
X103498559Y-85485910D01*
X103353569Y-85698110D01*
X103302560Y-85950000D01*
X97947440Y-85950000D01*
X97903162Y-85714683D01*
X97764090Y-85498559D01*
X97551890Y-85353569D01*
X97300000Y-85302560D01*
X95700000Y-85302560D01*
X95464683Y-85346838D01*
X95248559Y-85485910D01*
X95103569Y-85698110D01*
X95052560Y-85950000D01*
X89197440Y-85950000D01*
X89153162Y-85714683D01*
X89014090Y-85498559D01*
X88801890Y-85353569D01*
X88550000Y-85302560D01*
X86950000Y-85302560D01*
X86714683Y-85346838D01*
X86498559Y-85485910D01*
X86353569Y-85698110D01*
X86302560Y-85950000D01*
X80947440Y-85950000D01*
X80903162Y-85714683D01*
X80764090Y-85498559D01*
X80551890Y-85353569D01*
X80300000Y-85302560D01*
X78700000Y-85302560D01*
X78464683Y-85346838D01*
X78248559Y-85485910D01*
X78103569Y-85698110D01*
X78052560Y-85950000D01*
X77085000Y-85950000D01*
X77085000Y-85000000D01*
X77021439Y-84680459D01*
X76920549Y-84529466D01*
X76808277Y-84257745D01*
X78671861Y-84257745D01*
X78745995Y-84503864D01*
X79283223Y-84696965D01*
X79853454Y-84669778D01*
X80254005Y-84503864D01*
X80328139Y-84257745D01*
X86921861Y-84257745D01*
X86995995Y-84503864D01*
X87533223Y-84696965D01*
X88103454Y-84669778D01*
X88504005Y-84503864D01*
X88578139Y-84257745D01*
X95671861Y-84257745D01*
X95745995Y-84503864D01*
X96283223Y-84696965D01*
X96853454Y-84669778D01*
X97254005Y-84503864D01*
X97328139Y-84257745D01*
X96500000Y-83429605D01*
X95671861Y-84257745D01*
X88578139Y-84257745D01*
X87750000Y-83429605D01*
X86921861Y-84257745D01*
X80328139Y-84257745D01*
X79500000Y-83429605D01*
X78671861Y-84257745D01*
X76808277Y-84257745D01*
X76793117Y-84221057D01*
X76530327Y-83957808D01*
X76186799Y-83815162D01*
X75814833Y-83814838D01*
X75471057Y-83956883D01*
X75207808Y-84219673D01*
X75065162Y-84563201D01*
X75064838Y-84935167D01*
X68239063Y-84935167D01*
X68205869Y-84812389D01*
X67697658Y-84632667D01*
X67159356Y-84661108D01*
X66794131Y-84812389D01*
X66729831Y-85050226D01*
X59127000Y-85050226D01*
X59127000Y-83728344D01*
X68684765Y-83728344D01*
X68890617Y-84226543D01*
X69271452Y-84608043D01*
X69769291Y-84814764D01*
X70308344Y-84815235D01*
X70806543Y-84609383D01*
X71188043Y-84228548D01*
X71394764Y-83730709D01*
X71395235Y-83191656D01*
X71329772Y-83033223D01*
X78053035Y-83033223D01*
X78080222Y-83603454D01*
X78246136Y-84004005D01*
X78492255Y-84078139D01*
X79320395Y-83250000D01*
X79679605Y-83250000D01*
X80507745Y-84078139D01*
X80753864Y-84004005D01*
X80946965Y-83466777D01*
X80926295Y-83033223D01*
X86303035Y-83033223D01*
X86330222Y-83603454D01*
X86496136Y-84004005D01*
X86742255Y-84078139D01*
X87570395Y-83250000D01*
X87929605Y-83250000D01*
X88757745Y-84078139D01*
X89003864Y-84004005D01*
X89196965Y-83466777D01*
X89176295Y-83033223D01*
X95053035Y-83033223D01*
X95080222Y-83603454D01*
X95246136Y-84004005D01*
X95492255Y-84078139D01*
X96320395Y-83250000D01*
X96679605Y-83250000D01*
X97507745Y-84078139D01*
X97753864Y-84004005D01*
X97946965Y-83466777D01*
X97926295Y-83033223D01*
X103303035Y-83033223D01*
X103330222Y-83603454D01*
X103496136Y-84004005D01*
X103742255Y-84078139D01*
X104570395Y-83250000D01*
X103742255Y-82421861D01*
X103496136Y-82495995D01*
X103303035Y-83033223D01*
X97926295Y-83033223D01*
X97919778Y-82896546D01*
X97753864Y-82495995D01*
X97507745Y-82421861D01*
X96679605Y-83250000D01*
X96320395Y-83250000D01*
X95492255Y-82421861D01*
X95246136Y-82495995D01*
X95053035Y-83033223D01*
X89176295Y-83033223D01*
X89169778Y-82896546D01*
X89003864Y-82495995D01*
X88757745Y-82421861D01*
X87929605Y-83250000D01*
X87570395Y-83250000D01*
X86742255Y-82421861D01*
X86496136Y-82495995D01*
X86303035Y-83033223D01*
X80926295Y-83033223D01*
X80919778Y-82896546D01*
X80753864Y-82495995D01*
X80507745Y-82421861D01*
X79679605Y-83250000D01*
X79320395Y-83250000D01*
X78492255Y-82421861D01*
X78246136Y-82495995D01*
X78053035Y-83033223D01*
X71329772Y-83033223D01*
X71189383Y-82693457D01*
X70808548Y-82311957D01*
X70640688Y-82242255D01*
X78671861Y-82242255D01*
X79500000Y-83070395D01*
X80328139Y-82242255D01*
X86921861Y-82242255D01*
X87750000Y-83070395D01*
X88578139Y-82242255D01*
X95671861Y-82242255D01*
X96500000Y-83070395D01*
X97328139Y-82242255D01*
X97254005Y-81996136D01*
X96716777Y-81803035D01*
X96146546Y-81830222D01*
X95745995Y-81996136D01*
X95671861Y-82242255D01*
X88578139Y-82242255D01*
X88504005Y-81996136D01*
X87966777Y-81803035D01*
X87396546Y-81830222D01*
X86995995Y-81996136D01*
X86921861Y-82242255D01*
X80328139Y-82242255D01*
X80254005Y-81996136D01*
X79716777Y-81803035D01*
X79146546Y-81830222D01*
X78745995Y-81996136D01*
X78671861Y-82242255D01*
X70640688Y-82242255D01*
X70310709Y-82105236D01*
X69771656Y-82104765D01*
X69273457Y-82310617D01*
X68891957Y-82691452D01*
X68685236Y-83189291D01*
X68684765Y-83728344D01*
X59127000Y-83728344D01*
X59127000Y-81188344D01*
X66144765Y-81188344D01*
X66350617Y-81686543D01*
X66731452Y-82068043D01*
X67229291Y-82274764D01*
X67768344Y-82275235D01*
X68266543Y-82069383D01*
X68648043Y-81688548D01*
X68854764Y-81190709D01*
X68855235Y-80651656D01*
X68649383Y-80153457D01*
X68268548Y-79771957D01*
X67770709Y-79565236D01*
X67231656Y-79564765D01*
X66733457Y-79770617D01*
X66351957Y-80151452D01*
X66145236Y-80649291D01*
X66144765Y-81188344D01*
X59127000Y-81188344D01*
X59127000Y-79635000D01*
X65456640Y-79635000D01*
X65542191Y-79720551D01*
X65739894Y-79855636D01*
X65991056Y-79910120D01*
X66243627Y-79862596D01*
X66457809Y-79720551D01*
X66678277Y-79500083D01*
X67008371Y-79434423D01*
X67468461Y-79127000D01*
X90000000Y-79127000D01*
X90049410Y-79116994D01*
X90091035Y-79088553D01*
X90118315Y-79046159D01*
X90127000Y-79000000D01*
X90127000Y-77685167D01*
X104314838Y-77685167D01*
X104456883Y-78028943D01*
X104719673Y-78292192D01*
X105063201Y-78434838D01*
X105435167Y-78435162D01*
X105778943Y-78293117D01*
X106042192Y-78030327D01*
X106142778Y-77788090D01*
X107038333Y-76892535D01*
X107278943Y-76793117D01*
X107495785Y-76576653D01*
X109407465Y-78488333D01*
X109506883Y-78728943D01*
X109769673Y-78992192D01*
X110113201Y-79134838D01*
X110485167Y-79135162D01*
X110828943Y-78993117D01*
X111092192Y-78730327D01*
X111234838Y-78386799D01*
X111234957Y-78250000D01*
X133015000Y-78250000D01*
X133015000Y-89750000D01*
X133109009Y-90222614D01*
X133376723Y-90623277D01*
X133777386Y-90890991D01*
X134250000Y-90985000D01*
X134722614Y-90890991D01*
X135123277Y-90623277D01*
X135390991Y-90222614D01*
X135437260Y-89990000D01*
X158802560Y-89990000D01*
X158802560Y-92390000D01*
X158846838Y-92625317D01*
X158985910Y-92841441D01*
X159198110Y-92986431D01*
X159450000Y-93037440D01*
X161850000Y-93037440D01*
X162085317Y-92993162D01*
X162301441Y-92854090D01*
X162446431Y-92641890D01*
X162497440Y-92390000D01*
X162497440Y-89990000D01*
X162453162Y-89754683D01*
X162314090Y-89538559D01*
X162101890Y-89393569D01*
X161850000Y-89342560D01*
X159450000Y-89342560D01*
X159214683Y-89386838D01*
X158998559Y-89525910D01*
X158853569Y-89738110D01*
X158802560Y-89990000D01*
X135437260Y-89990000D01*
X135485000Y-89750000D01*
X135485000Y-78761554D01*
X136123277Y-78123277D01*
X136390991Y-77722614D01*
X136485000Y-77250000D01*
X136390991Y-76777386D01*
X136123277Y-76376723D01*
X136038385Y-76320000D01*
X139417560Y-76320000D01*
X139417560Y-78120000D01*
X139461838Y-78355317D01*
X139600910Y-78571441D01*
X139813110Y-78716431D01*
X139829344Y-78719719D01*
X139546845Y-79142509D01*
X139430000Y-79729928D01*
X139430000Y-79790072D01*
X139546845Y-80377491D01*
X139879591Y-80875481D01*
X140110845Y-81030000D01*
X139879591Y-81184519D01*
X139546845Y-81682509D01*
X139430000Y-82269928D01*
X139430000Y-82330072D01*
X139546845Y-82917491D01*
X139879591Y-83415481D01*
X140377581Y-83748227D01*
X140965000Y-83865072D01*
X141552419Y-83748227D01*
X142050409Y-83415481D01*
X142383155Y-82917491D01*
X142500000Y-82330072D01*
X142500000Y-82269928D01*
X142383155Y-81682509D01*
X142050409Y-81184519D01*
X141819155Y-81030000D01*
X142050409Y-80875481D01*
X142383155Y-80377491D01*
X142500000Y-79790072D01*
X142500000Y-79729928D01*
X142383155Y-79142509D01*
X142102163Y-78721974D01*
X142316441Y-78584090D01*
X142461431Y-78371890D01*
X142512440Y-78120000D01*
X142512440Y-76320000D01*
X142468162Y-76084683D01*
X142329090Y-75868559D01*
X142116890Y-75723569D01*
X141865000Y-75672560D01*
X140065000Y-75672560D01*
X139829683Y-75716838D01*
X139613559Y-75855910D01*
X139468569Y-76068110D01*
X139417560Y-76320000D01*
X136038385Y-76320000D01*
X135722614Y-76109009D01*
X135250000Y-76015000D01*
X134777386Y-76109009D01*
X134376723Y-76376723D01*
X133376723Y-77376723D01*
X133109009Y-77777386D01*
X133015000Y-78250000D01*
X111234957Y-78250000D01*
X111235162Y-78014833D01*
X111093117Y-77671057D01*
X110830327Y-77407808D01*
X110588090Y-77307222D01*
X108966035Y-75685167D01*
X110064838Y-75685167D01*
X110206883Y-76028943D01*
X110469673Y-76292192D01*
X110813201Y-76434838D01*
X110825698Y-76434849D01*
X110880460Y-76471440D01*
X111200000Y-76535000D01*
X112272766Y-76535000D01*
X112513201Y-76634838D01*
X112885167Y-76635162D01*
X113228943Y-76493117D01*
X113492192Y-76230327D01*
X113634838Y-75886799D01*
X113635162Y-75514833D01*
X113535000Y-75272422D01*
X113535000Y-74585167D01*
X119864838Y-74585167D01*
X120006883Y-74928943D01*
X120269673Y-75192192D01*
X120613201Y-75334838D01*
X120985167Y-75335162D01*
X121227578Y-75235000D01*
X122622766Y-75235000D01*
X122863201Y-75334838D01*
X123235167Y-75335162D01*
X123578943Y-75193117D01*
X123842192Y-74930327D01*
X123984838Y-74586799D01*
X123985162Y-74214833D01*
X123843117Y-73871057D01*
X123580327Y-73607808D01*
X123236799Y-73465162D01*
X122864833Y-73464838D01*
X122622422Y-73565000D01*
X121227234Y-73565000D01*
X120986799Y-73465162D01*
X120614833Y-73464838D01*
X120271057Y-73606883D01*
X120007808Y-73869673D01*
X119865162Y-74213201D01*
X119864838Y-74585167D01*
X113535000Y-74585167D01*
X113535000Y-73787506D01*
X113542192Y-73780327D01*
X113684838Y-73436799D01*
X113685162Y-73064833D01*
X113543117Y-72721057D01*
X113280327Y-72457808D01*
X112936799Y-72315162D01*
X112564833Y-72314838D01*
X112221057Y-72456883D01*
X111957808Y-72719673D01*
X111815162Y-73063201D01*
X111814838Y-73435167D01*
X111865000Y-73556569D01*
X111865000Y-74865000D01*
X111687245Y-74865000D01*
X111530327Y-74707808D01*
X111186799Y-74565162D01*
X110814833Y-74564838D01*
X110471057Y-74706883D01*
X110207808Y-74969673D01*
X110065162Y-75313201D01*
X110064838Y-75685167D01*
X108966035Y-75685167D01*
X108643844Y-75362976D01*
X108739838Y-75131799D01*
X108740162Y-74759833D01*
X108598117Y-74416057D01*
X108335327Y-74152808D01*
X107991799Y-74010162D01*
X107619833Y-74009838D01*
X107276057Y-74151883D01*
X107012808Y-74414673D01*
X106870162Y-74758201D01*
X106869895Y-75065104D01*
X106564833Y-75064838D01*
X106221057Y-75206883D01*
X105957808Y-75469673D01*
X105857222Y-75711910D01*
X104961667Y-76607465D01*
X104721057Y-76706883D01*
X104457808Y-76969673D01*
X104315162Y-77313201D01*
X104314838Y-77685167D01*
X90127000Y-77685167D01*
X90127000Y-71528172D01*
X137332538Y-71528172D01*
X137737709Y-72508761D01*
X138487293Y-73259655D01*
X139467173Y-73666536D01*
X140528172Y-73667462D01*
X141508761Y-73262291D01*
X142259655Y-72512707D01*
X142666536Y-71532827D01*
X142667462Y-70471828D01*
X142262291Y-69491239D01*
X141512707Y-68740345D01*
X140532827Y-68333464D01*
X139471828Y-68332538D01*
X138491239Y-68737709D01*
X137740345Y-69487293D01*
X137333464Y-70467173D01*
X137332538Y-71528172D01*
X90127000Y-71528172D01*
X90127000Y-69000000D01*
X90116994Y-68950590D01*
X90088553Y-68908965D01*
X90046159Y-68881685D01*
X90000000Y-68873000D01*
X60127000Y-68873000D01*
X60127000Y-64800000D01*
X66152560Y-64800000D01*
X66152560Y-67200000D01*
X66196838Y-67435317D01*
X66335910Y-67651441D01*
X66548110Y-67796431D01*
X66800000Y-67847440D01*
X69200000Y-67847440D01*
X69435317Y-67803162D01*
X69651441Y-67664090D01*
X69796431Y-67451890D01*
X69847440Y-67200000D01*
X69847440Y-64800000D01*
X83152560Y-64800000D01*
X83152560Y-67200000D01*
X83196838Y-67435317D01*
X83335910Y-67651441D01*
X83548110Y-67796431D01*
X83800000Y-67847440D01*
X86200000Y-67847440D01*
X86435317Y-67803162D01*
X86651441Y-67664090D01*
X86796431Y-67451890D01*
X86847440Y-67200000D01*
X86847440Y-65991056D01*
X95089880Y-65991056D01*
X95137404Y-66243627D01*
X95279449Y-66457809D01*
X97542191Y-68720551D01*
X97739894Y-68855636D01*
X97991056Y-68910120D01*
X98243627Y-68862596D01*
X98457809Y-68720551D01*
X100243193Y-66935167D01*
X127064838Y-66935167D01*
X127206883Y-67278943D01*
X127469673Y-67542192D01*
X127813201Y-67684838D01*
X128185167Y-67685162D01*
X128427578Y-67585000D01*
X130072766Y-67585000D01*
X130313201Y-67684838D01*
X130685167Y-67685162D01*
X131028943Y-67543117D01*
X131292192Y-67280327D01*
X131434838Y-66936799D01*
X131435162Y-66564833D01*
X131293117Y-66221057D01*
X131030327Y-65957808D01*
X130686799Y-65815162D01*
X130314833Y-65814838D01*
X130072422Y-65915000D01*
X128427234Y-65915000D01*
X128186799Y-65815162D01*
X127814833Y-65814838D01*
X127471057Y-65956883D01*
X127207808Y-66219673D01*
X127065162Y-66563201D01*
X127064838Y-66935167D01*
X100243193Y-66935167D01*
X100720551Y-66457809D01*
X100855636Y-66260106D01*
X100910120Y-66008944D01*
X100862596Y-65756373D01*
X100720551Y-65542191D01*
X98457809Y-63279449D01*
X98260106Y-63144364D01*
X98008944Y-63089880D01*
X97756373Y-63137404D01*
X97542191Y-63279449D01*
X95279449Y-65542191D01*
X95144364Y-65739894D01*
X95089880Y-65991056D01*
X86847440Y-65991056D01*
X86847440Y-64800000D01*
X86803162Y-64564683D01*
X86664090Y-64348559D01*
X86451890Y-64203569D01*
X86200000Y-64152560D01*
X83800000Y-64152560D01*
X83564683Y-64196838D01*
X83348559Y-64335910D01*
X83203569Y-64548110D01*
X83152560Y-64800000D01*
X69847440Y-64800000D01*
X69803162Y-64564683D01*
X69664090Y-64348559D01*
X69451890Y-64203569D01*
X69200000Y-64152560D01*
X66800000Y-64152560D01*
X66564683Y-64196838D01*
X66348559Y-64335910D01*
X66203569Y-64548110D01*
X66152560Y-64800000D01*
X60127000Y-64800000D01*
X60127000Y-59797175D01*
X66882430Y-59797175D01*
X67005565Y-60084788D01*
X67687734Y-60344707D01*
X68417443Y-60323786D01*
X68994435Y-60084788D01*
X69117570Y-59797175D01*
X83882430Y-59797175D01*
X84005565Y-60084788D01*
X84687734Y-60344707D01*
X85417443Y-60323786D01*
X85994435Y-60084788D01*
X86117570Y-59797175D01*
X85000000Y-58679605D01*
X83882430Y-59797175D01*
X69117570Y-59797175D01*
X68000000Y-58679605D01*
X66882430Y-59797175D01*
X60127000Y-59797175D01*
X60127000Y-58187734D01*
X66155293Y-58187734D01*
X66176214Y-58917443D01*
X66415212Y-59494435D01*
X66702825Y-59617570D01*
X67820395Y-58500000D01*
X68179605Y-58500000D01*
X69297175Y-59617570D01*
X69584788Y-59494435D01*
X69844707Y-58812266D01*
X69826802Y-58187734D01*
X83155293Y-58187734D01*
X83176214Y-58917443D01*
X83415212Y-59494435D01*
X83702825Y-59617570D01*
X84820395Y-58500000D01*
X85179605Y-58500000D01*
X86297175Y-59617570D01*
X86584788Y-59494435D01*
X86776584Y-58991056D01*
X95089880Y-58991056D01*
X95137404Y-59243627D01*
X95279449Y-59457809D01*
X97542191Y-61720551D01*
X97739894Y-61855636D01*
X97991056Y-61910120D01*
X98243627Y-61862596D01*
X98274852Y-61841887D01*
X101565000Y-61841887D01*
X101565000Y-61898113D01*
X101674233Y-62447264D01*
X101985302Y-62912811D01*
X102450849Y-63223880D01*
X103000000Y-63333113D01*
X103549151Y-63223880D01*
X104014698Y-62912811D01*
X104325767Y-62447264D01*
X104435000Y-61898113D01*
X104435000Y-61841887D01*
X104325767Y-61292736D01*
X104014698Y-60827189D01*
X103549151Y-60516120D01*
X103000000Y-60406887D01*
X102450849Y-60516120D01*
X101985302Y-60827189D01*
X101674233Y-61292736D01*
X101565000Y-61841887D01*
X98274852Y-61841887D01*
X98457809Y-61720551D01*
X100720551Y-59457809D01*
X100855636Y-59260106D01*
X100910120Y-59008944D01*
X100862596Y-58756373D01*
X100720551Y-58542191D01*
X98740451Y-56562091D01*
X111390000Y-56562091D01*
X111390000Y-57237909D01*
X111514457Y-57863596D01*
X111868880Y-58394029D01*
X112399313Y-58748452D01*
X113025000Y-58872909D01*
X113650687Y-58748452D01*
X114009192Y-58508907D01*
X114100910Y-58651441D01*
X114313110Y-58796431D01*
X114565000Y-58847440D01*
X116565000Y-58847440D01*
X116800317Y-58803162D01*
X117016441Y-58664090D01*
X117161431Y-58451890D01*
X117212440Y-58200000D01*
X117212440Y-57027000D01*
X117740000Y-57027000D01*
X117740000Y-57327000D01*
X117913058Y-57943020D01*
X118308683Y-58445922D01*
X118866645Y-58759144D01*
X118994566Y-58790124D01*
X119248000Y-58670777D01*
X119248000Y-57027000D01*
X117740000Y-57027000D01*
X117212440Y-57027000D01*
X117212440Y-56473000D01*
X117740000Y-56473000D01*
X117740000Y-56773000D01*
X119248000Y-56773000D01*
X119248000Y-55129223D01*
X119502000Y-55129223D01*
X119502000Y-56773000D01*
X119522000Y-56773000D01*
X119522000Y-57027000D01*
X119502000Y-57027000D01*
X119502000Y-58670777D01*
X119755434Y-58790124D01*
X119883355Y-58759144D01*
X120441317Y-58445922D01*
X120631781Y-58203812D01*
X120758880Y-58394029D01*
X121289313Y-58748452D01*
X121915000Y-58872909D01*
X122540687Y-58748452D01*
X122899192Y-58508907D01*
X122990910Y-58651441D01*
X123203110Y-58796431D01*
X123455000Y-58847440D01*
X125455000Y-58847440D01*
X125690317Y-58803162D01*
X125906441Y-58664090D01*
X126051431Y-58451890D01*
X126102440Y-58200000D01*
X126102440Y-56562091D01*
X126630000Y-56562091D01*
X126630000Y-57237909D01*
X126754457Y-57863596D01*
X127108880Y-58394029D01*
X127639313Y-58748452D01*
X128265000Y-58872909D01*
X128890687Y-58748452D01*
X129421120Y-58394029D01*
X129535000Y-58223595D01*
X129648880Y-58394029D01*
X130179313Y-58748452D01*
X130805000Y-58872909D01*
X131430687Y-58748452D01*
X131786406Y-58510769D01*
X131806673Y-58559699D01*
X131985302Y-58738327D01*
X132218691Y-58835000D01*
X133059250Y-58835000D01*
X133218000Y-58676250D01*
X133218000Y-57027000D01*
X133472000Y-57027000D01*
X133472000Y-58676250D01*
X133630750Y-58835000D01*
X134471309Y-58835000D01*
X134704698Y-58738327D01*
X134883327Y-58559699D01*
X134891486Y-58540000D01*
X139417560Y-58540000D01*
X139417560Y-60340000D01*
X139461838Y-60575317D01*
X139600910Y-60791441D01*
X139813110Y-60936431D01*
X139829344Y-60939719D01*
X139546845Y-61362509D01*
X139430000Y-61949928D01*
X139430000Y-62010072D01*
X139546845Y-62597491D01*
X139879591Y-63095481D01*
X140110845Y-63250000D01*
X139879591Y-63404519D01*
X139546845Y-63902509D01*
X139430000Y-64489928D01*
X139430000Y-64550072D01*
X139546845Y-65137491D01*
X139879591Y-65635481D01*
X140377581Y-65968227D01*
X140965000Y-66085072D01*
X141552419Y-65968227D01*
X142050409Y-65635481D01*
X142383155Y-65137491D01*
X142500000Y-64550072D01*
X142500000Y-64489928D01*
X142383155Y-63902509D01*
X142050409Y-63404519D01*
X141819155Y-63250000D01*
X142050409Y-63095481D01*
X142383155Y-62597491D01*
X142500000Y-62010072D01*
X142500000Y-61949928D01*
X142383155Y-61362509D01*
X142102163Y-60941974D01*
X142316441Y-60804090D01*
X142461431Y-60591890D01*
X142512440Y-60340000D01*
X142512440Y-58540000D01*
X142468162Y-58304683D01*
X142329090Y-58088559D01*
X142116890Y-57943569D01*
X141865000Y-57892560D01*
X140065000Y-57892560D01*
X139829683Y-57936838D01*
X139613559Y-58075910D01*
X139468569Y-58288110D01*
X139417560Y-58540000D01*
X134891486Y-58540000D01*
X134980000Y-58326310D01*
X134980000Y-57185750D01*
X134821250Y-57027000D01*
X133472000Y-57027000D01*
X133218000Y-57027000D01*
X133198000Y-57027000D01*
X133198000Y-56773000D01*
X133218000Y-56773000D01*
X133218000Y-55123750D01*
X133472000Y-55123750D01*
X133472000Y-56773000D01*
X134821250Y-56773000D01*
X134980000Y-56614250D01*
X134980000Y-55473690D01*
X134883327Y-55240301D01*
X134704698Y-55061673D01*
X134471309Y-54965000D01*
X133630750Y-54965000D01*
X133472000Y-55123750D01*
X133218000Y-55123750D01*
X133059250Y-54965000D01*
X132218691Y-54965000D01*
X131985302Y-55061673D01*
X131806673Y-55240301D01*
X131786406Y-55289231D01*
X131430687Y-55051548D01*
X130805000Y-54927091D01*
X130179313Y-55051548D01*
X129648880Y-55405971D01*
X129535000Y-55576405D01*
X129421120Y-55405971D01*
X128890687Y-55051548D01*
X128265000Y-54927091D01*
X127639313Y-55051548D01*
X127108880Y-55405971D01*
X126754457Y-55936404D01*
X126630000Y-56562091D01*
X126102440Y-56562091D01*
X126102440Y-55600000D01*
X126058162Y-55364683D01*
X125919090Y-55148559D01*
X125706890Y-55003569D01*
X125455000Y-54952560D01*
X123455000Y-54952560D01*
X123219683Y-54996838D01*
X123003559Y-55135910D01*
X122898049Y-55290329D01*
X122540687Y-55051548D01*
X121915000Y-54927091D01*
X121289313Y-55051548D01*
X120758880Y-55405971D01*
X120631781Y-55596188D01*
X120441317Y-55354078D01*
X119883355Y-55040856D01*
X119755434Y-55009876D01*
X119502000Y-55129223D01*
X119248000Y-55129223D01*
X118994566Y-55009876D01*
X118866645Y-55040856D01*
X118308683Y-55354078D01*
X117913058Y-55856980D01*
X117740000Y-56473000D01*
X117212440Y-56473000D01*
X117212440Y-55600000D01*
X117168162Y-55364683D01*
X117029090Y-55148559D01*
X116816890Y-55003569D01*
X116565000Y-54952560D01*
X114565000Y-54952560D01*
X114329683Y-54996838D01*
X114113559Y-55135910D01*
X114008049Y-55290329D01*
X113650687Y-55051548D01*
X113025000Y-54927091D01*
X112399313Y-55051548D01*
X111868880Y-55405971D01*
X111514457Y-55936404D01*
X111390000Y-56562091D01*
X98740451Y-56562091D01*
X98457809Y-56279449D01*
X98260106Y-56144364D01*
X98008944Y-56089880D01*
X97756373Y-56137404D01*
X97542191Y-56279449D01*
X95279449Y-58542191D01*
X95144364Y-58739894D01*
X95089880Y-58991056D01*
X86776584Y-58991056D01*
X86844707Y-58812266D01*
X86823786Y-58082557D01*
X86584788Y-57505565D01*
X86297175Y-57382430D01*
X85179605Y-58500000D01*
X84820395Y-58500000D01*
X83702825Y-57382430D01*
X83415212Y-57505565D01*
X83155293Y-58187734D01*
X69826802Y-58187734D01*
X69823786Y-58082557D01*
X69584788Y-57505565D01*
X69297175Y-57382430D01*
X68179605Y-58500000D01*
X67820395Y-58500000D01*
X66702825Y-57382430D01*
X66415212Y-57505565D01*
X66155293Y-58187734D01*
X60127000Y-58187734D01*
X60127000Y-57202825D01*
X66882430Y-57202825D01*
X68000000Y-58320395D01*
X69117570Y-57202825D01*
X83882430Y-57202825D01*
X85000000Y-58320395D01*
X86117570Y-57202825D01*
X85994435Y-56915212D01*
X85312266Y-56655293D01*
X84582557Y-56676214D01*
X84005565Y-56915212D01*
X83882430Y-57202825D01*
X69117570Y-57202825D01*
X68994435Y-56915212D01*
X68312266Y-56655293D01*
X67582557Y-56676214D01*
X67005565Y-56915212D01*
X66882430Y-57202825D01*
X60127000Y-57202825D01*
X60127000Y-54534187D01*
X101564752Y-54534187D01*
X101782757Y-55061800D01*
X102186077Y-55465824D01*
X102713309Y-55684750D01*
X103284187Y-55685248D01*
X103811800Y-55467243D01*
X104215824Y-55063923D01*
X104434750Y-54536691D01*
X104435248Y-53965813D01*
X104217243Y-53438200D01*
X103813923Y-53034176D01*
X103286691Y-52815250D01*
X102715813Y-52814752D01*
X102188200Y-53032757D01*
X101784176Y-53436077D01*
X101565250Y-53963309D01*
X101564752Y-54534187D01*
X60127000Y-54534187D01*
X60127000Y-54127000D01*
X90000000Y-54127000D01*
X90049410Y-54116994D01*
X90089803Y-54089803D01*
X94335615Y-49843991D01*
X101464735Y-49843991D01*
X101697932Y-50408371D01*
X102129357Y-50840551D01*
X102693330Y-51074733D01*
X103303991Y-51075265D01*
X103868371Y-50842068D01*
X104300551Y-50410643D01*
X104534733Y-49846670D01*
X104535265Y-49236009D01*
X104302068Y-48671629D01*
X104124908Y-48494159D01*
X104259699Y-48438327D01*
X104438327Y-48259698D01*
X104535000Y-48026309D01*
X104535000Y-47780000D01*
X108972560Y-47780000D01*
X108972560Y-50780000D01*
X109016838Y-51015317D01*
X109155910Y-51231441D01*
X109368110Y-51376431D01*
X109620000Y-51427440D01*
X112620000Y-51427440D01*
X112855317Y-51383162D01*
X113071441Y-51244090D01*
X113216431Y-51031890D01*
X113267440Y-50780000D01*
X113267440Y-49702815D01*
X114064630Y-49702815D01*
X114388980Y-50487800D01*
X114989041Y-51088909D01*
X115773459Y-51414628D01*
X116622815Y-51415370D01*
X117407800Y-51091020D01*
X118008909Y-50490959D01*
X118334628Y-49706541D01*
X118334631Y-49702815D01*
X119144630Y-49702815D01*
X119468980Y-50487800D01*
X120069041Y-51088909D01*
X120853459Y-51414628D01*
X121702815Y-51415370D01*
X122487800Y-51091020D01*
X123088909Y-50490959D01*
X123414628Y-49706541D01*
X123414631Y-49702815D01*
X124224630Y-49702815D01*
X124548980Y-50487800D01*
X125149041Y-51088909D01*
X125933459Y-51414628D01*
X126782815Y-51415370D01*
X127567800Y-51091020D01*
X128168909Y-50490959D01*
X128494628Y-49706541D01*
X128494750Y-49565750D01*
X131845000Y-49565750D01*
X131845000Y-50906310D01*
X131941673Y-51139699D01*
X132120302Y-51318327D01*
X132353691Y-51415000D01*
X133694250Y-51415000D01*
X133853000Y-51256250D01*
X133853000Y-49407000D01*
X134107000Y-49407000D01*
X134107000Y-51256250D01*
X134265750Y-51415000D01*
X135606309Y-51415000D01*
X135839698Y-51318327D01*
X136018327Y-51139699D01*
X136115000Y-50906310D01*
X136115000Y-50793970D01*
X137725635Y-50793970D01*
X137885418Y-51112739D01*
X138676187Y-51422723D01*
X139525387Y-51406497D01*
X140234582Y-51112739D01*
X140394365Y-50793970D01*
X142805635Y-50793970D01*
X142965418Y-51112739D01*
X143756187Y-51422723D01*
X144605387Y-51406497D01*
X145314582Y-51112739D01*
X145474365Y-50793970D01*
X147885635Y-50793970D01*
X148045418Y-51112739D01*
X148836187Y-51422723D01*
X149685387Y-51406497D01*
X150394582Y-51112739D01*
X150554365Y-50793970D01*
X149220000Y-49459605D01*
X147885635Y-50793970D01*
X145474365Y-50793970D01*
X144140000Y-49459605D01*
X142805635Y-50793970D01*
X140394365Y-50793970D01*
X139060000Y-49459605D01*
X137725635Y-50793970D01*
X136115000Y-50793970D01*
X136115000Y-49565750D01*
X135956250Y-49407000D01*
X134107000Y-49407000D01*
X133853000Y-49407000D01*
X132003750Y-49407000D01*
X131845000Y-49565750D01*
X128494750Y-49565750D01*
X128495370Y-48857185D01*
X128171020Y-48072200D01*
X127753240Y-47653690D01*
X131845000Y-47653690D01*
X131845000Y-48994250D01*
X132003750Y-49153000D01*
X133853000Y-49153000D01*
X133853000Y-47303750D01*
X134107000Y-47303750D01*
X134107000Y-49153000D01*
X135956250Y-49153000D01*
X136115000Y-48994250D01*
X136115000Y-48896187D01*
X136917277Y-48896187D01*
X136933503Y-49745387D01*
X137227261Y-50454582D01*
X137546030Y-50614365D01*
X138880395Y-49280000D01*
X139239605Y-49280000D01*
X140573970Y-50614365D01*
X140892739Y-50454582D01*
X141202723Y-49663813D01*
X141188056Y-48896187D01*
X141997277Y-48896187D01*
X142013503Y-49745387D01*
X142307261Y-50454582D01*
X142626030Y-50614365D01*
X143960395Y-49280000D01*
X144319605Y-49280000D01*
X145653970Y-50614365D01*
X145972739Y-50454582D01*
X146282723Y-49663813D01*
X146268056Y-48896187D01*
X147077277Y-48896187D01*
X147093503Y-49745387D01*
X147387261Y-50454582D01*
X147706030Y-50614365D01*
X149040395Y-49280000D01*
X149399605Y-49280000D01*
X150733970Y-50614365D01*
X151052739Y-50454582D01*
X151362723Y-49663813D01*
X151346497Y-48814613D01*
X151052739Y-48105418D01*
X150733970Y-47945635D01*
X149399605Y-49280000D01*
X149040395Y-49280000D01*
X147706030Y-47945635D01*
X147387261Y-48105418D01*
X147077277Y-48896187D01*
X146268056Y-48896187D01*
X146266497Y-48814613D01*
X145972739Y-48105418D01*
X145653970Y-47945635D01*
X144319605Y-49280000D01*
X143960395Y-49280000D01*
X142626030Y-47945635D01*
X142307261Y-48105418D01*
X141997277Y-48896187D01*
X141188056Y-48896187D01*
X141186497Y-48814613D01*
X140892739Y-48105418D01*
X140573970Y-47945635D01*
X139239605Y-49280000D01*
X138880395Y-49280000D01*
X137546030Y-47945635D01*
X137227261Y-48105418D01*
X136917277Y-48896187D01*
X136115000Y-48896187D01*
X136115000Y-47766030D01*
X137725635Y-47766030D01*
X139060000Y-49100395D01*
X140394365Y-47766030D01*
X142805635Y-47766030D01*
X144140000Y-49100395D01*
X145474365Y-47766030D01*
X147885635Y-47766030D01*
X149220000Y-49100395D01*
X150554365Y-47766030D01*
X150394582Y-47447261D01*
X149603813Y-47137277D01*
X148754613Y-47153503D01*
X148045418Y-47447261D01*
X147885635Y-47766030D01*
X145474365Y-47766030D01*
X145314582Y-47447261D01*
X144523813Y-47137277D01*
X143674613Y-47153503D01*
X142965418Y-47447261D01*
X142805635Y-47766030D01*
X140394365Y-47766030D01*
X140234582Y-47447261D01*
X139443813Y-47137277D01*
X138594613Y-47153503D01*
X137885418Y-47447261D01*
X137725635Y-47766030D01*
X136115000Y-47766030D01*
X136115000Y-47653690D01*
X136018327Y-47420301D01*
X135839698Y-47241673D01*
X135606309Y-47145000D01*
X134265750Y-47145000D01*
X134107000Y-47303750D01*
X133853000Y-47303750D01*
X133694250Y-47145000D01*
X132353691Y-47145000D01*
X132120302Y-47241673D01*
X131941673Y-47420301D01*
X131845000Y-47653690D01*
X127753240Y-47653690D01*
X127570959Y-47471091D01*
X126786541Y-47145372D01*
X125937185Y-47144630D01*
X125152200Y-47468980D01*
X124551091Y-48069041D01*
X124225372Y-48853459D01*
X124224630Y-49702815D01*
X123414631Y-49702815D01*
X123415370Y-48857185D01*
X123091020Y-48072200D01*
X122490959Y-47471091D01*
X121706541Y-47145372D01*
X120857185Y-47144630D01*
X120072200Y-47468980D01*
X119471091Y-48069041D01*
X119145372Y-48853459D01*
X119144630Y-49702815D01*
X118334631Y-49702815D01*
X118335370Y-48857185D01*
X118011020Y-48072200D01*
X117410959Y-47471091D01*
X116626541Y-47145372D01*
X115777185Y-47144630D01*
X114992200Y-47468980D01*
X114391091Y-48069041D01*
X114065372Y-48853459D01*
X114064630Y-49702815D01*
X113267440Y-49702815D01*
X113267440Y-47780000D01*
X113223162Y-47544683D01*
X113084090Y-47328559D01*
X112871890Y-47183569D01*
X112620000Y-47132560D01*
X109620000Y-47132560D01*
X109384683Y-47176838D01*
X109168559Y-47315910D01*
X109023569Y-47528110D01*
X108972560Y-47780000D01*
X104535000Y-47780000D01*
X104535000Y-47285750D01*
X104376250Y-47127000D01*
X103127000Y-47127000D01*
X103127000Y-47147000D01*
X102873000Y-47147000D01*
X102873000Y-47127000D01*
X101623750Y-47127000D01*
X101465000Y-47285750D01*
X101465000Y-48026309D01*
X101561673Y-48259698D01*
X101740301Y-48438327D01*
X101874994Y-48494119D01*
X101699449Y-48669357D01*
X101465267Y-49233330D01*
X101464735Y-49843991D01*
X94335615Y-49843991D01*
X98469606Y-45710000D01*
X101591975Y-45710000D01*
X101561673Y-45740302D01*
M02*
