G04 #@! TF.FileFunction,Soldermask,Top*
%FSLAX46Y46*%
G04 Gerber Fmt 4.6, Leading zero omitted, Abs format (unit mm)*
G04 Created by KiCad (PCBNEW 4.0.7) date 02/11/18 01:39:45*
%MOMM*%
%LPD*%
G01*
G04 APERTURE LIST*
%ADD10C,0.100000*%
%ADD11C,3.400000*%
%ADD12R,3.400000X3.400000*%
%ADD13R,1.900000X1.650000*%
%ADD14R,2.200000X2.200000*%
%ADD15O,2.200000X2.200000*%
%ADD16R,2.800000X2.800000*%
%ADD17C,2.800000*%
%ADD18R,2.400000X3.000000*%
%ADD19O,2.400000X3.000000*%
%ADD20C,1.920000*%
%ADD21C,2.000000*%
%ADD22O,2.000000X2.000000*%
%ADD23C,2.100000*%
%ADD24O,2.100000X2.100000*%
%ADD25R,3.000000X2.400000*%
%ADD26O,3.000000X2.400000*%
%ADD27C,3.600000*%
%ADD28R,2.000000X2.000000*%
%ADD29C,1.840000*%
%ADD30R,1.700000X1.900000*%
%ADD31C,2.200000*%
%ADD32O,2.900000X4.400000*%
%ADD33R,3.900000X2.200000*%
%ADD34R,2.200000X3.900000*%
%ADD35R,1.200000X1.300000*%
%ADD36R,1.900000X1.700000*%
%ADD37R,2.400000X1.000000*%
%ADD38C,4.464000*%
G04 APERTURE END LIST*
D10*
D11*
X116200000Y-49280000D03*
X121280000Y-49280000D03*
D12*
X111120000Y-49280000D03*
D11*
X126360000Y-49280000D03*
D13*
X146000000Y-134750000D03*
X143500000Y-134750000D03*
D14*
X147950000Y-138180000D03*
D15*
X147950000Y-135640000D03*
X147950000Y-133100000D03*
D14*
X147950000Y-82300000D03*
D15*
X147950000Y-79760000D03*
X147950000Y-77220000D03*
D16*
X160650000Y-91190000D03*
D17*
X160650000Y-96190000D03*
X160650000Y-101190000D03*
X160650000Y-106190000D03*
D14*
X147950000Y-120400000D03*
D15*
X147950000Y-117860000D03*
X147950000Y-115320000D03*
D14*
X67940000Y-98810000D03*
D15*
X70480000Y-98810000D03*
X73020000Y-98810000D03*
D14*
X73020000Y-91190000D03*
D15*
X70480000Y-91190000D03*
X67940000Y-91190000D03*
D14*
X111120000Y-98810000D03*
D15*
X113660000Y-98810000D03*
X116200000Y-98810000D03*
D14*
X116200000Y-91190000D03*
D15*
X113660000Y-91190000D03*
X111120000Y-91190000D03*
D10*
G36*
X111477386Y-72025305D02*
X110275305Y-73227386D01*
X108931802Y-71883883D01*
X110133883Y-70681802D01*
X111477386Y-72025305D01*
X111477386Y-72025305D01*
G37*
G36*
X109568198Y-70116117D02*
X108366117Y-71318198D01*
X107022614Y-69974695D01*
X108224695Y-68772614D01*
X109568198Y-70116117D01*
X109568198Y-70116117D01*
G37*
G36*
X108522614Y-68474695D02*
X109724695Y-67272614D01*
X111068198Y-68616117D01*
X109866117Y-69818198D01*
X108522614Y-68474695D01*
X108522614Y-68474695D01*
G37*
G36*
X110431802Y-70383883D02*
X111633883Y-69181802D01*
X112977386Y-70525305D01*
X111775305Y-71727386D01*
X110431802Y-70383883D01*
X110431802Y-70383883D01*
G37*
D18*
X115565000Y-56900000D03*
D19*
X113025000Y-56900000D03*
D20*
X92203949Y-94796051D03*
X90407898Y-96592102D03*
D10*
G36*
X92642355Y-93000000D02*
X94000000Y-91642355D01*
X95357645Y-93000000D01*
X94000000Y-94357645D01*
X92642355Y-93000000D01*
X92642355Y-93000000D01*
G37*
D21*
X155570000Y-135640000D03*
D22*
X158110000Y-135640000D03*
D21*
X155570000Y-139450000D03*
D22*
X158110000Y-139450000D03*
D21*
X155570000Y-131830000D03*
D22*
X158110000Y-131830000D03*
D21*
X155570000Y-117860000D03*
D22*
X158110000Y-117860000D03*
D21*
X155570000Y-121670000D03*
D22*
X158110000Y-121670000D03*
D21*
X155570000Y-114050000D03*
D22*
X158110000Y-114050000D03*
D21*
X155570000Y-79760000D03*
D22*
X158110000Y-79760000D03*
D21*
X155570000Y-83570000D03*
D22*
X158110000Y-83570000D03*
D21*
X155570000Y-75950000D03*
D22*
X158110000Y-75950000D03*
D21*
X155570000Y-61980000D03*
D22*
X158110000Y-61980000D03*
D21*
X155570000Y-65790000D03*
D22*
X158110000Y-65790000D03*
D21*
X155570000Y-58170000D03*
D22*
X158110000Y-58170000D03*
D14*
X140965000Y-133100000D03*
D15*
X140965000Y-135640000D03*
X140965000Y-138180000D03*
D10*
G36*
X127580762Y-60585787D02*
X128429290Y-59737259D01*
X129348528Y-60656497D01*
X128500000Y-61505025D01*
X127580762Y-60585787D01*
X127580762Y-60585787D01*
G37*
G36*
X126237259Y-61929290D02*
X127085787Y-61080762D01*
X128005025Y-62000000D01*
X127156497Y-62848528D01*
X126237259Y-61929290D01*
X126237259Y-61929290D01*
G37*
G36*
X128323224Y-62671752D02*
X129171752Y-61823224D01*
X130090990Y-62742462D01*
X129242462Y-63590990D01*
X128323224Y-62671752D01*
X128323224Y-62671752D01*
G37*
D14*
X140965000Y-115320000D03*
D15*
X140965000Y-117860000D03*
X140965000Y-120400000D03*
D14*
X140965000Y-77220000D03*
D15*
X140965000Y-79760000D03*
X140965000Y-82300000D03*
D14*
X140965000Y-59440000D03*
D15*
X140965000Y-61980000D03*
X140965000Y-64520000D03*
D23*
X160650000Y-135640000D03*
X163190000Y-138180000D03*
D24*
X163190000Y-135640000D03*
X163190000Y-133100000D03*
D18*
X124455000Y-56900000D03*
D19*
X121915000Y-56900000D03*
X119375000Y-56900000D03*
D25*
X122500000Y-142000000D03*
D26*
X122500000Y-139460000D03*
D23*
X160650000Y-117860000D03*
X163190000Y-120400000D03*
D24*
X163190000Y-117860000D03*
X163190000Y-115320000D03*
D25*
X113750000Y-139500000D03*
D26*
X113750000Y-142040000D03*
D23*
X160650000Y-79760000D03*
X163190000Y-82300000D03*
D24*
X163190000Y-79760000D03*
X163190000Y-77220000D03*
D25*
X122500000Y-135500000D03*
D26*
X122500000Y-132960000D03*
D23*
X160650000Y-61980000D03*
X163190000Y-64520000D03*
D24*
X163190000Y-61980000D03*
X163190000Y-59440000D03*
D16*
X46000000Y-87250000D03*
D17*
X46000000Y-92250000D03*
X46000000Y-97250000D03*
X46000000Y-102250000D03*
D25*
X113750000Y-133000000D03*
D26*
X113750000Y-135540000D03*
D13*
X146000000Y-136250000D03*
X143500000Y-136250000D03*
X149750000Y-132250000D03*
X152250000Y-132250000D03*
X149750000Y-134000000D03*
X152250000Y-134000000D03*
X146000000Y-118250000D03*
X143500000Y-118250000D03*
X146000000Y-116750000D03*
X143500000Y-116750000D03*
X149750000Y-116000000D03*
X152250000Y-116000000D03*
X149750000Y-114500000D03*
X152250000Y-114500000D03*
X146000000Y-78750000D03*
X143500000Y-78750000D03*
X146000000Y-80250000D03*
X143500000Y-80250000D03*
X149750000Y-76500000D03*
X152250000Y-76500000D03*
X149750000Y-78000000D03*
X152250000Y-78000000D03*
X146000000Y-61000000D03*
X143500000Y-61000000D03*
X146000000Y-62500000D03*
X143500000Y-62500000D03*
X149750000Y-58750000D03*
X152250000Y-58750000D03*
X149750000Y-60250000D03*
X152250000Y-60250000D03*
D10*
G36*
X68545584Y-77000000D02*
X66000000Y-79545584D01*
X63454416Y-77000000D01*
X66000000Y-74454416D01*
X68545584Y-77000000D01*
X68545584Y-77000000D01*
G37*
D27*
X55223693Y-66223693D02*
X55223693Y-66223693D01*
D28*
X96500000Y-103250000D03*
D21*
X96500000Y-106750000D03*
D28*
X87750000Y-103250000D03*
D21*
X87750000Y-106750000D03*
D28*
X104750000Y-86750000D03*
D21*
X104750000Y-83250000D03*
D28*
X87750000Y-86750000D03*
D21*
X87750000Y-83250000D03*
D29*
X68000000Y-103420000D03*
X70540000Y-105960000D03*
X68000000Y-108500000D03*
X67500000Y-80920000D03*
X70040000Y-83460000D03*
X67500000Y-86000000D03*
D13*
X107000000Y-97750000D03*
X109500000Y-97750000D03*
X120250000Y-97750000D03*
X117750000Y-97750000D03*
X120250000Y-99750000D03*
X117750000Y-99750000D03*
X77250000Y-97750000D03*
X74750000Y-97750000D03*
X77250000Y-99750000D03*
X74750000Y-99750000D03*
X107000000Y-92250000D03*
X109500000Y-92250000D03*
X107000000Y-90250000D03*
X109500000Y-90250000D03*
X63750000Y-90250000D03*
X66250000Y-90250000D03*
X63750000Y-92250000D03*
X66250000Y-92250000D03*
D30*
X73000000Y-108350000D03*
X73000000Y-105650000D03*
X72250000Y-83600000D03*
X72250000Y-80900000D03*
D10*
G36*
X97338120Y-113383705D02*
X99883705Y-110838120D01*
X102075736Y-113030151D01*
X99530151Y-115575736D01*
X97338120Y-113383705D01*
X97338120Y-113383705D01*
G37*
G36*
X102924264Y-118969849D02*
X105469849Y-116424264D01*
X107661880Y-118616295D01*
X105116295Y-121161880D01*
X102924264Y-118969849D01*
X102924264Y-118969849D01*
G37*
G36*
X99883705Y-78661880D02*
X97338120Y-76116295D01*
X99530151Y-73924264D01*
X102075736Y-76469849D01*
X99883705Y-78661880D01*
X99883705Y-78661880D01*
G37*
G36*
X105469849Y-73075736D02*
X102924264Y-70530151D01*
X105116295Y-68338120D01*
X107661880Y-70883705D01*
X105469849Y-73075736D01*
X105469849Y-73075736D01*
G37*
D28*
X104750000Y-103250000D03*
D21*
X104750000Y-106750000D03*
D28*
X79500000Y-103250000D03*
D21*
X79500000Y-106750000D03*
D13*
X63750000Y-97750000D03*
X66250000Y-97750000D03*
X107000000Y-99750000D03*
X109500000Y-99750000D03*
X63750000Y-99750000D03*
X66250000Y-99750000D03*
D28*
X96500000Y-86750000D03*
D21*
X96500000Y-83250000D03*
D13*
X120250000Y-92250000D03*
X117750000Y-92250000D03*
X120250000Y-90250000D03*
X117750000Y-90250000D03*
X77250000Y-92250000D03*
X74750000Y-92250000D03*
X77250000Y-90250000D03*
X74750000Y-90250000D03*
D28*
X79500000Y-86750000D03*
D21*
X79500000Y-83250000D03*
X103000000Y-54250000D03*
D22*
X103000000Y-61870000D03*
D21*
X103000000Y-128500000D03*
D22*
X103000000Y-136120000D03*
D14*
X103000000Y-143000000D03*
D31*
X103000000Y-140460000D03*
D10*
G36*
X102058808Y-66945557D02*
X103614443Y-68501192D01*
X100856726Y-71258909D01*
X99301091Y-69703274D01*
X102058808Y-66945557D01*
X102058808Y-66945557D01*
G37*
G36*
X98523274Y-70481091D02*
X100078909Y-72036726D01*
X97321192Y-74794443D01*
X95765557Y-73238808D01*
X98523274Y-70481091D01*
X98523274Y-70481091D01*
G37*
G36*
X103674443Y-120868808D02*
X102118808Y-122424443D01*
X99361091Y-119666726D01*
X100916726Y-118111091D01*
X103674443Y-120868808D01*
X103674443Y-120868808D01*
G37*
G36*
X100138909Y-117333274D02*
X98583274Y-118888909D01*
X95825557Y-116131192D01*
X97381192Y-114575557D01*
X100138909Y-117333274D01*
X100138909Y-117333274D01*
G37*
D32*
X46000000Y-142000000D03*
X46000000Y-120000000D03*
D33*
X103750000Y-99250000D03*
X98750000Y-99250000D03*
X80500000Y-99250000D03*
X85500000Y-99250000D03*
D10*
G36*
X66000000Y-110454416D02*
X68545584Y-113000000D01*
X66000000Y-115545584D01*
X63454416Y-113000000D01*
X66000000Y-110454416D01*
X66000000Y-110454416D01*
G37*
D27*
X55223693Y-123776307D02*
X55223693Y-123776307D01*
D10*
G36*
X68545584Y-142000000D02*
X66000000Y-144545584D01*
X63454416Y-142000000D01*
X66000000Y-139454416D01*
X68545584Y-142000000D01*
X68545584Y-142000000D01*
G37*
D27*
X55223693Y-131223693D02*
X55223693Y-131223693D01*
D10*
G36*
X100545584Y-124000000D02*
X98000000Y-126545584D01*
X95454416Y-124000000D01*
X98000000Y-121454416D01*
X100545584Y-124000000D01*
X100545584Y-124000000D01*
G37*
D27*
X87223693Y-113223693D02*
X87223693Y-113223693D01*
D10*
G36*
X98000000Y-128454416D02*
X100545584Y-131000000D01*
X98000000Y-133545584D01*
X95454416Y-131000000D01*
X98000000Y-128454416D01*
X98000000Y-128454416D01*
G37*
D27*
X87223693Y-141776307D02*
X87223693Y-141776307D01*
D10*
G36*
X109972271Y-113111002D02*
X111138998Y-114277729D01*
X109795495Y-115621232D01*
X108628768Y-114454505D01*
X109972271Y-113111002D01*
X109972271Y-113111002D01*
G37*
G36*
X108204505Y-114878768D02*
X109371232Y-116045495D01*
X108027729Y-117388998D01*
X106861002Y-116222271D01*
X108204505Y-114878768D01*
X108204505Y-114878768D01*
G37*
G36*
X110638998Y-75222271D02*
X109472271Y-76388998D01*
X108128768Y-75045495D01*
X109295495Y-73878768D01*
X110638998Y-75222271D01*
X110638998Y-75222271D01*
G37*
G36*
X108871232Y-73454505D02*
X107704505Y-74621232D01*
X106361002Y-73277729D01*
X107527729Y-72111002D01*
X108871232Y-73454505D01*
X108871232Y-73454505D01*
G37*
D16*
X85000000Y-124000000D03*
D17*
X85000000Y-131500000D03*
D16*
X68000000Y-124000000D03*
D17*
X68000000Y-131500000D03*
D32*
X46000000Y-48000000D03*
X46000000Y-70000000D03*
D10*
G36*
X66000000Y-45454416D02*
X68545584Y-48000000D01*
X66000000Y-50545584D01*
X63454416Y-48000000D01*
X66000000Y-45454416D01*
X66000000Y-45454416D01*
G37*
D27*
X55223693Y-58776307D02*
X55223693Y-58776307D01*
D10*
G36*
X100545584Y-59000000D02*
X98000000Y-61545584D01*
X95454416Y-59000000D01*
X98000000Y-56454416D01*
X100545584Y-59000000D01*
X100545584Y-59000000D01*
G37*
D27*
X87223693Y-48223693D02*
X87223693Y-48223693D01*
D16*
X85000000Y-66000000D03*
D17*
X85000000Y-58500000D03*
D16*
X68000000Y-66000000D03*
D17*
X68000000Y-58500000D03*
D10*
G36*
X98000000Y-63454416D02*
X100545584Y-66000000D01*
X98000000Y-68545584D01*
X95454416Y-66000000D01*
X98000000Y-63454416D01*
X98000000Y-63454416D01*
G37*
D27*
X87223693Y-76776307D02*
X87223693Y-76776307D01*
D33*
X103750000Y-90750000D03*
X98750000Y-90750000D03*
X80500000Y-90750000D03*
X85500000Y-90750000D03*
D34*
X61590000Y-108930000D03*
X61590000Y-103930000D03*
X61590000Y-81070000D03*
X61590000Y-86070000D03*
D14*
X103000000Y-47000000D03*
D31*
X103000000Y-49540000D03*
D14*
X147950000Y-64520000D03*
D15*
X147950000Y-61980000D03*
X147950000Y-59440000D03*
D10*
G36*
X104545873Y-113133884D02*
X103980187Y-112568198D01*
X105012563Y-111535822D01*
X105578249Y-112101508D01*
X104545873Y-113133884D01*
X104545873Y-113133884D01*
G37*
G36*
X105005492Y-113593503D02*
X104439806Y-113027817D01*
X105472182Y-111995441D01*
X106037868Y-112561127D01*
X105005492Y-113593503D01*
X105005492Y-113593503D01*
G37*
G36*
X105472183Y-114060194D02*
X104906497Y-113494508D01*
X105938873Y-112462132D01*
X106504559Y-113027818D01*
X105472183Y-114060194D01*
X105472183Y-114060194D01*
G37*
G36*
X105931802Y-114519813D02*
X105366116Y-113954127D01*
X106398492Y-112921751D01*
X106964178Y-113487437D01*
X105931802Y-114519813D01*
X105931802Y-114519813D01*
G37*
G36*
X107487437Y-112964178D02*
X106921751Y-112398492D01*
X107954127Y-111366116D01*
X108519813Y-111931802D01*
X107487437Y-112964178D01*
X107487437Y-112964178D01*
G37*
G36*
X107027818Y-112504559D02*
X106462132Y-111938873D01*
X107494508Y-110906497D01*
X108060194Y-111472183D01*
X107027818Y-112504559D01*
X107027818Y-112504559D01*
G37*
G36*
X106561127Y-112037868D02*
X105995441Y-111472182D01*
X107027817Y-110439806D01*
X107593503Y-111005492D01*
X106561127Y-112037868D01*
X106561127Y-112037868D01*
G37*
G36*
X106101508Y-111578249D02*
X105535822Y-111012563D01*
X106568198Y-109980187D01*
X107133884Y-110545873D01*
X106101508Y-111578249D01*
X106101508Y-111578249D01*
G37*
G36*
X105116116Y-75045873D02*
X105681802Y-74480187D01*
X106714178Y-75512563D01*
X106148492Y-76078249D01*
X105116116Y-75045873D01*
X105116116Y-75045873D01*
G37*
G36*
X104656497Y-75505492D02*
X105222183Y-74939806D01*
X106254559Y-75972182D01*
X105688873Y-76537868D01*
X104656497Y-75505492D01*
X104656497Y-75505492D01*
G37*
G36*
X104189806Y-75972183D02*
X104755492Y-75406497D01*
X105787868Y-76438873D01*
X105222182Y-77004559D01*
X104189806Y-75972183D01*
X104189806Y-75972183D01*
G37*
G36*
X103730187Y-76431802D02*
X104295873Y-75866116D01*
X105328249Y-76898492D01*
X104762563Y-77464178D01*
X103730187Y-76431802D01*
X103730187Y-76431802D01*
G37*
G36*
X105285822Y-77987437D02*
X105851508Y-77421751D01*
X106883884Y-78454127D01*
X106318198Y-79019813D01*
X105285822Y-77987437D01*
X105285822Y-77987437D01*
G37*
G36*
X105745441Y-77527818D02*
X106311127Y-76962132D01*
X107343503Y-77994508D01*
X106777817Y-78560194D01*
X105745441Y-77527818D01*
X105745441Y-77527818D01*
G37*
G36*
X106212132Y-77061127D02*
X106777818Y-76495441D01*
X107810194Y-77527817D01*
X107244508Y-78093503D01*
X106212132Y-77061127D01*
X106212132Y-77061127D01*
G37*
G36*
X106671751Y-76601508D02*
X107237437Y-76035822D01*
X108269813Y-77068198D01*
X107704127Y-77633884D01*
X106671751Y-76601508D01*
X106671751Y-76601508D01*
G37*
D11*
X139060000Y-49280000D03*
X144140000Y-49280000D03*
D12*
X133980000Y-49280000D03*
D11*
X149220000Y-49280000D03*
D35*
X135550000Y-64500000D03*
X137450000Y-64500000D03*
X136500000Y-62500000D03*
X135550000Y-82250000D03*
X137450000Y-82250000D03*
X136500000Y-80250000D03*
X135550000Y-121000000D03*
X137450000Y-121000000D03*
X136500000Y-119000000D03*
X135550000Y-138750000D03*
X137450000Y-138750000D03*
X136500000Y-136750000D03*
D36*
X132900000Y-70750000D03*
X135600000Y-70750000D03*
X132900000Y-68750000D03*
X135600000Y-68750000D03*
X132900000Y-66750000D03*
X135600000Y-66750000D03*
D30*
X138500000Y-87850000D03*
X138500000Y-85150000D03*
D36*
X132900000Y-86250000D03*
X135600000Y-86250000D03*
X132900000Y-84250000D03*
X135600000Y-84250000D03*
X132900000Y-126750000D03*
X135600000Y-126750000D03*
X132900000Y-124750000D03*
X135600000Y-124750000D03*
X132900000Y-122750000D03*
X135600000Y-122750000D03*
X141350000Y-141500000D03*
X138650000Y-141500000D03*
X130900000Y-141250000D03*
X133600000Y-141250000D03*
X130900000Y-139500000D03*
X133600000Y-139500000D03*
D37*
X114550000Y-74420000D03*
X114550000Y-75690000D03*
X114550000Y-76960000D03*
X114550000Y-78230000D03*
X114550000Y-79500000D03*
X114550000Y-80770000D03*
X114550000Y-82040000D03*
X114550000Y-83310000D03*
X114550000Y-84580000D03*
X123950000Y-84580000D03*
X123950000Y-83310000D03*
X123950000Y-82040000D03*
X123950000Y-80770000D03*
X123950000Y-79500000D03*
X123950000Y-78230000D03*
X123950000Y-76960000D03*
X123950000Y-75690000D03*
X123950000Y-74420000D03*
D38*
X140000000Y-127000000D03*
X52000000Y-116000000D03*
X52000000Y-74000000D03*
X140000000Y-71000000D03*
D18*
X133345000Y-56900000D03*
D19*
X130805000Y-56900000D03*
X128265000Y-56900000D03*
M02*
