M48
;DRILL file {KiCad 4.0.7} date 02/11/18 01:40:00
;FORMAT={-:-/ absolute / metric / decimal}
FMAT,2
METRIC,TZ
T1C0.400
T2C0.700
T3C0.800
T4C0.900
T5C1.000
T6C1.200
T7C1.470
T8C1.500
T9C1.520
T10C1.600
T11C3.048
%
G90
G05
M71
T1
X63.75Y-92.25
X63.75Y-97.75
X67.Y-87.75
X71.Y-101.25
X76.Y-84.75
X76.25Y-88.75
X76.25Y-101.25
X77.25Y-92.25
X77.25Y-97.75
X84.25Y-101.25
X86.75Y-117.5
X86.75Y-120.
X93.5Y-117.5
X93.5Y-120.
X94.8Y-91.7
X99.5Y-101.25
X104.75Y-89.
X105.25Y-77.5
X106.2Y-93.6
X106.2Y-96.4
X106.2Y-106.
X106.4Y-82.8
X106.6Y-81.8
X106.75Y-76.
X107.Y-83.8
X107.Y-93.6
X107.Y-96.4
X107.Y-105.5
X107.8Y-93.6
X107.8Y-96.4
X107.8Y-105.2
X107.805Y-74.945
X108.116Y-116.134
X108.25Y-79.25
X109.Y-96.25
X109.384Y-75.134
X110.3Y-78.2
X111.Y-75.5
X112.7Y-75.7
X112.75Y-73.25
X114.55Y-76.96
X114.55Y-79.5
X114.55Y-84.58
X120.25Y-92.25
X120.25Y-97.75
X120.8Y-74.4
X123.05Y-74.4
X125.Y-102.3
X125.Y-112.25
X126.Y-101.25
X126.Y-112.25
X127.25Y-84.25
X127.45Y-122.75
X128.Y-66.75
X130.5Y-66.75
X130.9Y-141.25
X131.05Y-122.75
X131.25Y-84.25
X132.25Y-86.25
X132.9Y-68.75
X132.9Y-124.75
X138.5Y-87.85
X141.35Y-141.5
X143.5Y-61.
X143.5Y-78.75
X143.5Y-116.75
X143.5Y-134.75
X152.25Y-60.25
X152.25Y-78.
X152.25Y-116.
X152.25Y-134.
T2
X55.5Y-91.
X56.95Y-92.45
X58.25Y-93.75
X86.75Y-118.75
X89.Y-118.75
X91.25Y-118.75
X93.5Y-118.75
X116.98Y-118.23
X117.Y-108.75
X117.Y-110.25
X117.Y-119.75
X118.75Y-106.5
X118.75Y-108.25
X118.75Y-116.75
X118.75Y-118.25
X124.25Y-92.5
X124.25Y-94.
X125.75Y-92.5
X125.75Y-94.
X128.Y-137.5
X129.25Y-136.25
X131.3Y-92.5
X131.3Y-94.
X132.75Y-92.5
X132.75Y-94.
X133.Y-132.5
X134.25Y-78.25
X134.25Y-88.5
X134.25Y-89.75
X134.25Y-131.25
X135.25Y-77.25
T3
X67.5Y-80.92
X67.5Y-86.
X68.Y-103.42
X68.Y-108.5
X70.04Y-83.46
X70.54Y-105.96
X79.5Y-83.25
X79.5Y-86.75
X79.5Y-103.25
X79.5Y-106.75
X87.75Y-83.25
X87.75Y-86.75
X87.75Y-103.25
X87.75Y-106.75
X90.408Y-96.592
X92.204Y-94.796
X94.Y-93.
X96.5Y-83.25
X96.5Y-86.75
X96.5Y-103.25
X96.5Y-106.75
X103.Y-54.25
X103.Y-61.87
X103.Y-128.5
X103.Y-136.12
X104.75Y-83.25
X104.75Y-86.75
X104.75Y-103.25
X104.75Y-106.75
X155.57Y-58.17
X155.57Y-61.98
X155.57Y-65.79
X155.57Y-75.95
X155.57Y-79.76
X155.57Y-83.57
X155.57Y-114.05
X155.57Y-117.86
X155.57Y-121.67
X155.57Y-131.83
X155.57Y-135.64
X155.57Y-139.45
X158.11Y-58.17
X158.11Y-61.98
X158.11Y-65.79
X158.11Y-75.95
X158.11Y-79.76
X158.11Y-83.57
X158.11Y-114.05
X158.11Y-117.86
X158.11Y-121.67
X158.11Y-131.83
X158.11Y-135.64
X158.11Y-139.45
T4
X103.Y-47.
X103.Y-49.54
X103.Y-140.46
X103.Y-143.
T5
X67.94Y-91.19
X67.94Y-98.81
X70.48Y-91.19
X70.48Y-98.81
X73.02Y-91.19
X73.02Y-98.81
X111.12Y-91.19
X111.12Y-98.81
X113.66Y-91.19
X113.66Y-98.81
X116.2Y-91.19
X116.2Y-98.81
X140.965Y-59.44
X140.965Y-61.98
X140.965Y-64.52
X140.965Y-77.22
X140.965Y-79.76
X140.965Y-82.3
X140.965Y-115.32
X140.965Y-117.86
X140.965Y-120.4
X140.965Y-133.1
X140.965Y-135.64
X140.965Y-138.18
X147.95Y-59.44
X147.95Y-61.98
X147.95Y-64.52
X147.95Y-77.22
X147.95Y-79.76
X147.95Y-82.3
X147.95Y-115.32
X147.95Y-117.86
X147.95Y-120.4
X147.95Y-133.1
X147.95Y-135.64
X147.95Y-138.18
X160.65Y-61.98
X160.65Y-79.76
X160.65Y-117.86
X160.65Y-135.64
X163.19Y-59.44
X163.19Y-61.98
X163.19Y-64.52
X163.19Y-77.22
X163.19Y-79.76
X163.19Y-82.3
X163.19Y-115.32
X163.19Y-117.86
X163.19Y-120.4
X163.19Y-133.1
X163.19Y-135.64
X163.19Y-138.18
T6
X68.Y-58.5
X68.Y-66.
X68.Y-124.
X68.Y-131.5
X85.Y-58.5
X85.Y-66.
X85.Y-124.
X85.Y-131.5
X113.025Y-56.9
X113.75Y-133.
X113.75Y-135.54
X113.75Y-139.5
X113.75Y-142.04
X115.565Y-56.9
X119.375Y-56.9
X121.915Y-56.9
X122.5Y-132.96
X122.5Y-135.5
X122.5Y-139.46
X122.5Y-142.
X124.455Y-56.9
X128.265Y-56.9
X130.805Y-56.9
X133.345Y-56.9
T7
X46.Y-87.25
X46.Y-92.25
X46.Y-97.25
X46.Y-102.25
X160.65Y-91.19
X160.65Y-96.19
X160.65Y-101.19
X160.65Y-106.19
T8
X46.Y-48.
X46.Y-70.
X46.Y-120.
X46.Y-142.
T9
X111.12Y-49.28
X116.2Y-49.28
X121.28Y-49.28
X126.36Y-49.28
X133.98Y-49.28
X139.06Y-49.28
X144.14Y-49.28
X149.22Y-49.28
T10
X55.224Y-58.776
X55.224Y-66.224
X55.224Y-123.776
X55.224Y-131.224
X66.Y-48.
X66.Y-77.
X66.Y-113.
X66.Y-142.
X87.224Y-48.224
X87.224Y-76.776
X87.224Y-113.224
X87.224Y-141.776
X98.Y-59.
X98.Y-66.
X98.Y-124.
X98.Y-131.
T11
X52.Y-74.
X52.Y-116.
X140.Y-71.
X140.Y-127.
T0
M30
