G04 #@! TF.FileFunction,Soldermask,Bot*
%FSLAX46Y46*%
G04 Gerber Fmt 4.6, Leading zero omitted, Abs format (unit mm)*
G04 Created by KiCad (PCBNEW 4.0.4-stable) date 06/24/17 02:30:33*
%MOMM*%
%LPD*%
G01*
G04 APERTURE LIST*
%ADD10C,0.100000*%
%ADD11R,3.000000X2.400000*%
%ADD12O,3.000000X2.400000*%
%ADD13R,2.200000X2.200000*%
%ADD14O,2.200000X2.200000*%
%ADD15C,4.464000*%
%ADD16R,1.700000X1.900000*%
%ADD17R,2.400000X1.000000*%
%ADD18R,2.000000X2.000000*%
%ADD19O,2.000000X2.000000*%
%ADD20R,1.000000X2.400000*%
%ADD21C,1.797000*%
%ADD22R,2.400000X3.000000*%
%ADD23O,2.400000X3.000000*%
%ADD24R,2.100000X2.100000*%
%ADD25O,2.100000X2.100000*%
%ADD26C,1.840000*%
%ADD27O,1.900000X1.300000*%
%ADD28R,1.900000X1.300000*%
%ADD29O,1.300000X1.900000*%
%ADD30R,1.300000X1.900000*%
%ADD31R,1.650000X1.900000*%
%ADD32R,2.150000X0.850000*%
G04 APERTURE END LIST*
D10*
D11*
X67700000Y-90530000D03*
D12*
X67700000Y-87990000D03*
D11*
X59950000Y-70780000D03*
D12*
X59950000Y-73320000D03*
X59950000Y-75860000D03*
D13*
X102325000Y-117155000D03*
D14*
X104865000Y-117155000D03*
X107405000Y-117155000D03*
D13*
X82325000Y-117155000D03*
D14*
X84865000Y-117155000D03*
X87405000Y-117155000D03*
D13*
X102200000Y-102780000D03*
D14*
X102200000Y-100240000D03*
X102200000Y-97700000D03*
D13*
X62450000Y-117530000D03*
D14*
X64990000Y-117530000D03*
X67530000Y-117530000D03*
D13*
X42450000Y-117280000D03*
D14*
X44990000Y-117280000D03*
X47530000Y-117280000D03*
D13*
X22450000Y-117280000D03*
D14*
X24990000Y-117280000D03*
X27530000Y-117280000D03*
D13*
X102200000Y-87530000D03*
D14*
X102200000Y-84990000D03*
X102200000Y-82450000D03*
D15*
X93950000Y-44280000D03*
D16*
X65950000Y-34180000D03*
X65950000Y-36880000D03*
X62950000Y-34180000D03*
X62950000Y-36880000D03*
X59950000Y-34180000D03*
X59950000Y-36880000D03*
D15*
X93950000Y-91780000D03*
D17*
X73650000Y-46275000D03*
X73650000Y-47545000D03*
X73650000Y-48815000D03*
X73650000Y-50085000D03*
X73650000Y-51355000D03*
X73650000Y-52625000D03*
X73650000Y-53895000D03*
X73650000Y-55165000D03*
X73650000Y-56435000D03*
X73650000Y-57705000D03*
X73650000Y-58975000D03*
X73650000Y-60245000D03*
X73650000Y-61515000D03*
X73650000Y-62785000D03*
X64250000Y-62785000D03*
X64250000Y-61515000D03*
X64250000Y-60245000D03*
X64250000Y-58975000D03*
X64250000Y-57705000D03*
X64250000Y-56435000D03*
X64250000Y-55165000D03*
X64250000Y-53895000D03*
X64250000Y-52625000D03*
X64250000Y-51355000D03*
X64250000Y-50085000D03*
X64250000Y-48815000D03*
X64250000Y-47545000D03*
X64250000Y-46275000D03*
D16*
X47950000Y-34180000D03*
X47950000Y-36880000D03*
X50950000Y-34180000D03*
X50950000Y-36880000D03*
X53950000Y-34180000D03*
X53950000Y-36880000D03*
X56950000Y-34180000D03*
X56950000Y-36880000D03*
X68950000Y-34180000D03*
X68950000Y-36880000D03*
X71950000Y-34180000D03*
X71950000Y-36880000D03*
X77700000Y-34180000D03*
X77700000Y-36880000D03*
X74700000Y-34180000D03*
X74700000Y-36880000D03*
D15*
X21450000Y-33780000D03*
D18*
X88950000Y-65780000D03*
D19*
X81330000Y-48000000D03*
X88950000Y-63240000D03*
X81330000Y-50540000D03*
X88950000Y-60700000D03*
X81330000Y-53080000D03*
X88950000Y-58160000D03*
X81330000Y-55620000D03*
X88950000Y-55620000D03*
X81330000Y-58160000D03*
X88950000Y-53080000D03*
X81330000Y-60700000D03*
X88950000Y-50540000D03*
X81330000Y-63240000D03*
X88950000Y-48000000D03*
X81330000Y-65780000D03*
D20*
X42955000Y-55730000D03*
X41685000Y-55730000D03*
X40415000Y-55730000D03*
X39145000Y-55730000D03*
X37875000Y-55730000D03*
X36605000Y-55730000D03*
X35335000Y-55730000D03*
X34065000Y-55730000D03*
X32795000Y-55730000D03*
X31525000Y-55730000D03*
X30255000Y-55730000D03*
X28985000Y-55730000D03*
X27715000Y-55730000D03*
X26445000Y-55730000D03*
X26445000Y-46330000D03*
X27715000Y-46330000D03*
X28985000Y-46330000D03*
X30255000Y-46330000D03*
X31525000Y-46330000D03*
X32795000Y-46330000D03*
X34065000Y-46330000D03*
X35335000Y-46330000D03*
X36605000Y-46330000D03*
X37875000Y-46330000D03*
X39145000Y-46330000D03*
X40415000Y-46330000D03*
X41685000Y-46330000D03*
X42955000Y-46330000D03*
D21*
X39890000Y-67320000D03*
X39890000Y-62240000D03*
X47510000Y-67320000D03*
X47510000Y-62240000D03*
X28390000Y-67320000D03*
X28390000Y-62240000D03*
X36010000Y-67320000D03*
X36010000Y-62240000D03*
D16*
X26950000Y-34180000D03*
X26950000Y-36880000D03*
X29950000Y-34180000D03*
X29950000Y-36880000D03*
X32950000Y-34180000D03*
X32950000Y-36880000D03*
X35950000Y-34180000D03*
X35950000Y-36880000D03*
X38950000Y-34180000D03*
X38950000Y-36880000D03*
X41950000Y-34180000D03*
X41950000Y-36880000D03*
X44950000Y-34180000D03*
X44950000Y-36880000D03*
D11*
X52200000Y-90530000D03*
D12*
X52200000Y-87990000D03*
D22*
X70950000Y-109030000D03*
D23*
X73490000Y-109030000D03*
D22*
X61450000Y-109030000D03*
D23*
X63990000Y-109030000D03*
D22*
X51950000Y-109030000D03*
D23*
X54490000Y-109030000D03*
D22*
X42450000Y-109030000D03*
D23*
X44990000Y-109030000D03*
D22*
X32950000Y-109030000D03*
D23*
X35490000Y-109030000D03*
D11*
X28950000Y-93030000D03*
D12*
X28950000Y-90490000D03*
X28950000Y-87950000D03*
D11*
X36700000Y-93030000D03*
D12*
X36700000Y-90490000D03*
X36700000Y-87950000D03*
D11*
X44450000Y-93030000D03*
D12*
X44450000Y-90490000D03*
X44450000Y-87950000D03*
D22*
X92075000Y-35905000D03*
D23*
X94615000Y-35905000D03*
D11*
X108950000Y-33530000D03*
D12*
X108950000Y-36070000D03*
D11*
X108950000Y-40780000D03*
D12*
X108950000Y-43320000D03*
D11*
X108950000Y-48030000D03*
D12*
X108950000Y-50570000D03*
D11*
X108950000Y-55280000D03*
D12*
X108950000Y-57820000D03*
D11*
X108950000Y-62530000D03*
D12*
X108950000Y-65070000D03*
D11*
X108950000Y-69780000D03*
D12*
X108950000Y-72320000D03*
D22*
X44950000Y-101530000D03*
D23*
X42410000Y-101530000D03*
D22*
X84200000Y-36030000D03*
D23*
X86740000Y-36030000D03*
D24*
X58350000Y-52030000D03*
D25*
X58350000Y-54570000D03*
X55810000Y-52030000D03*
X55810000Y-54570000D03*
X53270000Y-52030000D03*
X53270000Y-54570000D03*
X50730000Y-52030000D03*
X50730000Y-54570000D03*
X48190000Y-52030000D03*
X48190000Y-54570000D03*
D22*
X89950000Y-109030000D03*
D23*
X92490000Y-109030000D03*
D22*
X80450000Y-109030000D03*
D23*
X82990000Y-109030000D03*
D22*
X19450000Y-109030000D03*
D23*
X21990000Y-109030000D03*
X24530000Y-109030000D03*
X27070000Y-109030000D03*
D22*
X26950000Y-101530000D03*
D23*
X24410000Y-101530000D03*
X21870000Y-101530000D03*
X19330000Y-101530000D03*
D26*
X50070000Y-62230000D03*
X52610000Y-59690000D03*
X55150000Y-62230000D03*
D27*
X101825000Y-123425000D03*
X101825000Y-124695000D03*
D28*
X101825000Y-122155000D03*
D27*
X81825000Y-123425000D03*
X81825000Y-124695000D03*
D28*
X81825000Y-122155000D03*
D27*
X61950000Y-124050000D03*
X61950000Y-125320000D03*
D28*
X61950000Y-122780000D03*
D27*
X41950000Y-123800000D03*
X41950000Y-125070000D03*
D28*
X41950000Y-122530000D03*
D27*
X21950000Y-123800000D03*
X21950000Y-125070000D03*
D28*
X21950000Y-122530000D03*
D29*
X108720000Y-88030000D03*
X109990000Y-88030000D03*
D30*
X107450000Y-88030000D03*
D29*
X108970000Y-103280000D03*
X110240000Y-103280000D03*
D30*
X107700000Y-103280000D03*
D24*
X22700000Y-87030000D03*
D25*
X20160000Y-87030000D03*
X22700000Y-84490000D03*
X20160000Y-84490000D03*
X22700000Y-81950000D03*
X20160000Y-81950000D03*
X22700000Y-79410000D03*
X20160000Y-79410000D03*
X22700000Y-76870000D03*
X20160000Y-76870000D03*
X22700000Y-74330000D03*
X20160000Y-74330000D03*
X22700000Y-71790000D03*
X20160000Y-71790000D03*
X22700000Y-69250000D03*
X20160000Y-69250000D03*
X22700000Y-66710000D03*
X20160000Y-66710000D03*
X22700000Y-64170000D03*
X20160000Y-64170000D03*
X22700000Y-61630000D03*
X20160000Y-61630000D03*
X22700000Y-59090000D03*
X20160000Y-59090000D03*
X22700000Y-56550000D03*
X20160000Y-56550000D03*
X22700000Y-54010000D03*
X20160000Y-54010000D03*
X22700000Y-51470000D03*
X20160000Y-51470000D03*
X22700000Y-48930000D03*
X20160000Y-48930000D03*
X22700000Y-46390000D03*
X20160000Y-46390000D03*
X22700000Y-43850000D03*
X20160000Y-43850000D03*
X22700000Y-41310000D03*
X20160000Y-41310000D03*
X22700000Y-38770000D03*
X20160000Y-38770000D03*
D18*
X67950000Y-95780000D03*
D19*
X50170000Y-103400000D03*
X65410000Y-95780000D03*
X52710000Y-103400000D03*
X62870000Y-95780000D03*
X55250000Y-103400000D03*
X60330000Y-95780000D03*
X57790000Y-103400000D03*
X57790000Y-95780000D03*
X60330000Y-103400000D03*
X55250000Y-95780000D03*
X62870000Y-103400000D03*
X52710000Y-95780000D03*
X65410000Y-103400000D03*
X50170000Y-95780000D03*
X67950000Y-103400000D03*
D15*
X21450000Y-91780000D03*
D31*
X32950000Y-89180000D03*
X32950000Y-86680000D03*
X40650000Y-86780000D03*
X40650000Y-89280000D03*
D32*
X33600000Y-84205000D03*
X33600000Y-83555000D03*
X33600000Y-82905000D03*
X33600000Y-82255000D03*
X33600000Y-81605000D03*
X33600000Y-80955000D03*
X33600000Y-80305000D03*
X33600000Y-79655000D03*
X33600000Y-79005000D03*
X33600000Y-78355000D03*
X40800000Y-78355000D03*
X40800000Y-79005000D03*
X40800000Y-79655000D03*
X40800000Y-80305000D03*
X40800000Y-80955000D03*
X40800000Y-81605000D03*
X40800000Y-82255000D03*
X40800000Y-82905000D03*
X40800000Y-83555000D03*
X40800000Y-84205000D03*
D22*
X35450000Y-101530000D03*
D23*
X32910000Y-101530000D03*
D11*
X28950000Y-70780000D03*
D12*
X28950000Y-73320000D03*
X28950000Y-75860000D03*
D11*
X36700000Y-70780000D03*
D12*
X36700000Y-73320000D03*
X36700000Y-75860000D03*
D11*
X44450000Y-70780000D03*
D12*
X44450000Y-73320000D03*
X44450000Y-75860000D03*
D11*
X52200000Y-70780000D03*
D12*
X52200000Y-73320000D03*
X52200000Y-75860000D03*
M02*
