M48
;DRILL file {KiCad 4.0.4-stable} date 08/02/17 01:26:43
;FORMAT={-:-/ absolute / metric / decimal}
FMAT,2
METRIC,TZ
T1C0.400
T2C0.600
T3C0.800
T4C0.813
T5C1.000
T6C1.200
T7C3.048
%
G90
G05
M71
T1
X24.001Y-83.212
X24.729Y-78.595
X25.085Y-80.703
X25.45Y-69.28
X25.872Y-68.308
X26.2Y-85.03
X26.95Y-34.43
X26.95Y-61.03
X27.45Y-51.78
X28.95Y-38.28
X29.05Y-125.53
X29.95Y-34.43
X30.2Y-48.28
X30.45Y-52.78
X30.8Y-85.005
X31.925Y-83.555
X32.7Y-52.53
X32.75Y-57.78
X32.8Y-48.18
X32.8Y-49.93
X32.95Y-34.43
X32.95Y-86.68
X33.2Y-72.28
X33.2Y-74.28
X34.Y-61.03
X34.05Y-53.73
X34.2Y-72.28
X34.2Y-74.28
X35.35Y-53.73
X35.95Y-34.43
X36.6Y-53.73
X37.2Y-78.53
X37.7Y-81.53
X37.85Y-53.73
X38.8Y-80.33
X38.95Y-34.43
X39.15Y-53.73
X39.2Y-84.28
X39.45Y-57.78
X40.4Y-53.73
X40.65Y-86.78
X40.7Y-84.53
X41.2Y-61.03
X41.95Y-34.43
X42.2Y-57.78
X42.2Y-91.53
X42.7Y-114.03
X44.2Y-47.78
X44.45Y-83.03
X44.45Y-84.03
X44.95Y-34.43
X46.7Y-79.28
X46.95Y-38.28
X47.95Y-34.43
X48.3Y-81.53
X48.95Y-59.53
X49.05Y-125.53
X49.45Y-51.03
X50.95Y-34.43
X52.1Y-79.28
X52.45Y-38.28
X53.75Y-48.88
X53.95Y-34.43
X54.2Y-59.03
X54.325Y-82.905
X54.775Y-100.88
X56.8Y-89.78
X56.8Y-94.43
X56.95Y-34.43
X58.2Y-38.28
X59.8Y-85.78
X59.85Y-79.28
X59.95Y-34.43
X60.2Y-67.03
X61.2Y-67.03
X61.45Y-50.78
X62.2Y-58.28
X62.2Y-67.03
X62.45Y-55.03
X62.95Y-34.43
X63.2Y-114.78
X64.2Y-81.53
X65.95Y-34.43
X65.95Y-52.03
X65.95Y-54.28
X65.95Y-101.03
X68.45Y-50.78
X68.95Y-34.43
X69.05Y-125.53
X69.2Y-55.03
X69.95Y-54.28
X70.2Y-59.28
X70.45Y-68.28
X70.45Y-75.03
X71.45Y-68.28
X71.45Y-71.03
X71.45Y-72.03
X71.475Y-67.28
X71.95Y-34.43
X71.95Y-56.53
X74.45Y-77.53
X74.45Y-85.28
X74.45Y-100.03
X74.7Y-34.43
X74.85Y-68.23
X75.45Y-56.53
X75.45Y-57.78
X75.7Y-77.53
X75.7Y-85.28
X75.95Y-38.28
X76.2Y-50.78
X76.45Y-54.28
X76.7Y-47.53
X76.7Y-66.53
X76.7Y-67.53
X76.7Y-85.28
X77.7Y-34.43
X77.7Y-115.03
X77.95Y-60.53
X78.2Y-101.78
X78.275Y-73.58
X78.275Y-88.83
X78.7Y-57.53
X78.7Y-102.53
X79.2Y-103.28
X82.95Y-90.53
X83.45Y-91.28
X83.95Y-92.03
X84.45Y-92.78
X84.95Y-93.53
X85.45Y-94.28
X86.45Y-42.03
X86.45Y-47.28
X87.95Y-103.53
X88.925Y-125.28
X88.95Y-113.53
X91.45Y-65.78
X92.45Y-52.53
X92.45Y-53.53
X92.45Y-54.53
X92.45Y-60.03
X92.45Y-63.28
X97.7Y-105.03
X97.95Y-95.78
X100.2Y-95.78
X100.7Y-38.28
X100.7Y-68.03
X100.7Y-108.03
X100.95Y-60.78
X101.45Y-42.03
X101.45Y-49.28
X101.45Y-56.53
X108.925Y-125.28
X110.45Y-80.93
X110.85Y-96.18
T2
X21.95Y-122.53
X21.95Y-123.8
X21.95Y-125.07
X41.95Y-122.53
X41.95Y-123.8
X41.95Y-125.07
X61.95Y-122.78
X61.95Y-124.05
X61.95Y-125.32
X81.825Y-122.155
X81.825Y-123.425
X81.825Y-124.695
X101.825Y-122.155
X101.825Y-123.425
X101.825Y-124.695
X107.45Y-88.03
X107.7Y-103.28
X108.72Y-88.03
X108.97Y-103.28
X109.99Y-88.03
X110.24Y-103.28
T3
X50.07Y-62.23
X50.17Y-95.78
X50.17Y-103.4
X52.61Y-59.69
X52.71Y-95.78
X52.71Y-103.4
X55.15Y-62.23
X55.25Y-95.78
X55.25Y-103.4
X57.79Y-95.78
X57.79Y-103.4
X60.33Y-95.78
X60.33Y-103.4
X62.87Y-95.78
X62.87Y-103.4
X65.41Y-95.78
X65.41Y-103.4
X67.95Y-95.78
X67.95Y-103.4
X81.33Y-48.
X81.33Y-50.54
X81.33Y-53.08
X81.33Y-55.62
X81.33Y-58.16
X81.33Y-60.7
X81.33Y-63.24
X81.33Y-65.78
X88.95Y-48.
X88.95Y-50.54
X88.95Y-53.08
X88.95Y-55.62
X88.95Y-58.16
X88.95Y-60.7
X88.95Y-63.24
X88.95Y-65.78
T4
X28.39Y-62.24
X28.39Y-67.32
X36.01Y-62.24
X36.01Y-67.32
X39.89Y-62.24
X39.89Y-67.32
X47.51Y-62.24
X47.51Y-67.32
T5
X20.16Y-38.77
X20.16Y-41.31
X20.16Y-43.85
X20.16Y-46.39
X20.16Y-48.93
X20.16Y-51.47
X20.16Y-54.01
X20.16Y-56.55
X20.16Y-59.09
X20.16Y-61.63
X20.16Y-64.17
X20.16Y-66.71
X20.16Y-69.25
X20.16Y-71.79
X20.16Y-74.33
X20.16Y-76.87
X20.16Y-79.41
X20.16Y-81.95
X20.16Y-84.49
X20.16Y-87.03
X22.45Y-117.28
X22.7Y-38.77
X22.7Y-41.31
X22.7Y-43.85
X22.7Y-46.39
X22.7Y-48.93
X22.7Y-51.47
X22.7Y-54.01
X22.7Y-56.55
X22.7Y-59.09
X22.7Y-61.63
X22.7Y-64.17
X22.7Y-66.71
X22.7Y-69.25
X22.7Y-71.79
X22.7Y-74.33
X22.7Y-76.87
X22.7Y-79.41
X22.7Y-81.95
X22.7Y-84.49
X22.7Y-87.03
X24.99Y-117.28
X27.53Y-117.28
X42.45Y-117.28
X44.99Y-117.28
X47.53Y-117.28
X48.19Y-52.03
X48.19Y-54.57
X50.73Y-52.03
X50.73Y-54.57
X53.27Y-52.03
X53.27Y-54.57
X55.81Y-52.03
X55.81Y-54.57
X58.35Y-52.03
X58.35Y-54.57
X62.45Y-117.53
X64.99Y-117.53
X67.53Y-117.53
X82.325Y-117.155
X84.865Y-117.155
X87.405Y-117.155
X102.2Y-82.45
X102.2Y-84.99
X102.2Y-87.53
X102.2Y-97.7
X102.2Y-100.24
X102.2Y-102.78
X102.325Y-117.155
X104.865Y-117.155
X107.405Y-117.155
T6
X19.33Y-101.53
X19.45Y-109.03
X21.87Y-101.53
X21.99Y-109.03
X24.41Y-101.53
X24.53Y-109.03
X26.95Y-101.53
X27.07Y-109.03
X28.95Y-70.78
X28.95Y-73.32
X28.95Y-75.86
X28.95Y-87.95
X28.95Y-90.49
X28.95Y-93.03
X32.91Y-101.53
X32.95Y-109.03
X35.45Y-101.53
X35.49Y-109.03
X36.7Y-70.78
X36.7Y-73.32
X36.7Y-75.86
X36.7Y-87.95
X36.7Y-90.49
X36.7Y-93.03
X42.41Y-101.53
X42.45Y-109.03
X44.45Y-70.78
X44.45Y-73.32
X44.45Y-75.86
X44.45Y-87.95
X44.45Y-90.49
X44.45Y-93.03
X44.95Y-101.53
X44.99Y-109.03
X51.95Y-109.03
X52.2Y-70.78
X52.2Y-73.32
X52.2Y-75.86
X52.2Y-87.99
X52.2Y-90.53
X54.49Y-109.03
X59.95Y-70.78
X59.95Y-73.32
X59.95Y-75.86
X61.45Y-109.03
X63.99Y-109.03
X67.7Y-87.99
X67.7Y-90.53
X70.95Y-109.03
X73.49Y-109.03
X80.45Y-109.03
X82.99Y-109.03
X84.2Y-36.03
X86.74Y-36.03
X89.95Y-109.03
X92.075Y-35.905
X92.49Y-109.03
X94.615Y-35.905
X108.95Y-33.53
X108.95Y-36.07
X108.95Y-40.78
X108.95Y-43.32
X108.95Y-48.03
X108.95Y-50.57
X108.95Y-55.28
X108.95Y-57.82
X108.95Y-62.53
X108.95Y-65.07
X108.95Y-69.78
X108.95Y-72.32
T7
X21.45Y-33.78
X21.45Y-91.78
X93.95Y-44.28
X93.95Y-91.78
T0
M30
