G04 #@! TF.FileFunction,Legend,Bot*
%FSLAX46Y46*%
G04 Gerber Fmt 4.6, Leading zero omitted, Abs format (unit mm)*
G04 Created by KiCad (PCBNEW 4.0.4-stable) date 06/24/17 02:30:33*
%MOMM*%
%LPD*%
G01*
G04 APERTURE LIST*
%ADD10C,0.100000*%
%ADD11C,0.120000*%
%ADD12C,0.150000*%
G04 APERTURE END LIST*
D10*
D11*
X66830000Y-36130000D02*
X66830000Y-34930000D01*
X65070000Y-34930000D02*
X65070000Y-36130000D01*
X63830000Y-36130000D02*
X63830000Y-34930000D01*
X62070000Y-34930000D02*
X62070000Y-36130000D01*
X60830000Y-36130000D02*
X60830000Y-34930000D01*
X59070000Y-34930000D02*
X59070000Y-36130000D01*
D12*
X72825000Y-45405000D02*
X72825000Y-45655000D01*
X65075000Y-45405000D02*
X65075000Y-45750000D01*
X65075000Y-63655000D02*
X65075000Y-63310000D01*
X72825000Y-63655000D02*
X72825000Y-63310000D01*
X72825000Y-45405000D02*
X65075000Y-45405000D01*
X72825000Y-63655000D02*
X65075000Y-63655000D01*
X72825000Y-45655000D02*
X74650000Y-45655000D01*
D11*
X48830000Y-36130000D02*
X48830000Y-34930000D01*
X47070000Y-34930000D02*
X47070000Y-36130000D01*
X51830000Y-36130000D02*
X51830000Y-34930000D01*
X50070000Y-34930000D02*
X50070000Y-36130000D01*
X54830000Y-36130000D02*
X54830000Y-34930000D01*
X53070000Y-34930000D02*
X53070000Y-36130000D01*
X57830000Y-36130000D02*
X57830000Y-34930000D01*
X56070000Y-34930000D02*
X56070000Y-36130000D01*
X69830000Y-36130000D02*
X69830000Y-34930000D01*
X68070000Y-34930000D02*
X68070000Y-36130000D01*
X72830000Y-36130000D02*
X72830000Y-34930000D01*
X71070000Y-34930000D02*
X71070000Y-36130000D01*
X78580000Y-36130000D02*
X78580000Y-34930000D01*
X76820000Y-34930000D02*
X76820000Y-36130000D01*
X75580000Y-36130000D02*
X75580000Y-34930000D01*
X73820000Y-34930000D02*
X73820000Y-36130000D01*
D12*
X43825000Y-54905000D02*
X43575000Y-54905000D01*
X43825000Y-47155000D02*
X43480000Y-47155000D01*
X25575000Y-47155000D02*
X25920000Y-47155000D01*
X25575000Y-54905000D02*
X25920000Y-54905000D01*
X43825000Y-54905000D02*
X43825000Y-47155000D01*
X25575000Y-54905000D02*
X25575000Y-47155000D01*
X43575000Y-54905000D02*
X43575000Y-56730000D01*
D11*
X27830000Y-36130000D02*
X27830000Y-34930000D01*
X26070000Y-34930000D02*
X26070000Y-36130000D01*
X30830000Y-36130000D02*
X30830000Y-34930000D01*
X29070000Y-34930000D02*
X29070000Y-36130000D01*
X33830000Y-36130000D02*
X33830000Y-34930000D01*
X32070000Y-34930000D02*
X32070000Y-36130000D01*
X36830000Y-36130000D02*
X36830000Y-34930000D01*
X35070000Y-34930000D02*
X35070000Y-36130000D01*
X39830000Y-36130000D02*
X39830000Y-34930000D01*
X38070000Y-34930000D02*
X38070000Y-36130000D01*
X42830000Y-36130000D02*
X42830000Y-34930000D01*
X41070000Y-34930000D02*
X41070000Y-36130000D01*
X45830000Y-36130000D02*
X45830000Y-34930000D01*
X44070000Y-34930000D02*
X44070000Y-36130000D01*
X33800000Y-87430000D02*
X33800000Y-88430000D01*
X32100000Y-88430000D02*
X32100000Y-87430000D01*
X39800000Y-88530000D02*
X39800000Y-87530000D01*
X41500000Y-87530000D02*
X41500000Y-88530000D01*
D12*
X34325000Y-85105000D02*
X34325000Y-84755000D01*
X40075000Y-85105000D02*
X40075000Y-84655000D01*
X40075000Y-77455000D02*
X40075000Y-77905000D01*
X34325000Y-77455000D02*
X34325000Y-77905000D01*
X34325000Y-85105000D02*
X40075000Y-85105000D01*
X34325000Y-77455000D02*
X40075000Y-77455000D01*
X34325000Y-84755000D02*
X32725000Y-84755000D01*
X64702381Y-34887143D02*
X64226190Y-34553809D01*
X64702381Y-34315714D02*
X63702381Y-34315714D01*
X63702381Y-34696667D01*
X63750000Y-34791905D01*
X63797619Y-34839524D01*
X63892857Y-34887143D01*
X64035714Y-34887143D01*
X64130952Y-34839524D01*
X64178571Y-34791905D01*
X64226190Y-34696667D01*
X64226190Y-34315714D01*
X64130952Y-35458571D02*
X64083333Y-35363333D01*
X64035714Y-35315714D01*
X63940476Y-35268095D01*
X63892857Y-35268095D01*
X63797619Y-35315714D01*
X63750000Y-35363333D01*
X63702381Y-35458571D01*
X63702381Y-35649048D01*
X63750000Y-35744286D01*
X63797619Y-35791905D01*
X63892857Y-35839524D01*
X63940476Y-35839524D01*
X64035714Y-35791905D01*
X64083333Y-35744286D01*
X64130952Y-35649048D01*
X64130952Y-35458571D01*
X64178571Y-35363333D01*
X64226190Y-35315714D01*
X64321429Y-35268095D01*
X64511905Y-35268095D01*
X64607143Y-35315714D01*
X64654762Y-35363333D01*
X64702381Y-35458571D01*
X64702381Y-35649048D01*
X64654762Y-35744286D01*
X64607143Y-35791905D01*
X64511905Y-35839524D01*
X64321429Y-35839524D01*
X64226190Y-35791905D01*
X64178571Y-35744286D01*
X64130952Y-35649048D01*
X63702381Y-36744286D02*
X63702381Y-36268095D01*
X64178571Y-36220476D01*
X64130952Y-36268095D01*
X64083333Y-36363333D01*
X64083333Y-36601429D01*
X64130952Y-36696667D01*
X64178571Y-36744286D01*
X64273810Y-36791905D01*
X64511905Y-36791905D01*
X64607143Y-36744286D01*
X64654762Y-36696667D01*
X64702381Y-36601429D01*
X64702381Y-36363333D01*
X64654762Y-36268095D01*
X64607143Y-36220476D01*
X61702381Y-34887143D02*
X61226190Y-34553809D01*
X61702381Y-34315714D02*
X60702381Y-34315714D01*
X60702381Y-34696667D01*
X60750000Y-34791905D01*
X60797619Y-34839524D01*
X60892857Y-34887143D01*
X61035714Y-34887143D01*
X61130952Y-34839524D01*
X61178571Y-34791905D01*
X61226190Y-34696667D01*
X61226190Y-34315714D01*
X61130952Y-35458571D02*
X61083333Y-35363333D01*
X61035714Y-35315714D01*
X60940476Y-35268095D01*
X60892857Y-35268095D01*
X60797619Y-35315714D01*
X60750000Y-35363333D01*
X60702381Y-35458571D01*
X60702381Y-35649048D01*
X60750000Y-35744286D01*
X60797619Y-35791905D01*
X60892857Y-35839524D01*
X60940476Y-35839524D01*
X61035714Y-35791905D01*
X61083333Y-35744286D01*
X61130952Y-35649048D01*
X61130952Y-35458571D01*
X61178571Y-35363333D01*
X61226190Y-35315714D01*
X61321429Y-35268095D01*
X61511905Y-35268095D01*
X61607143Y-35315714D01*
X61654762Y-35363333D01*
X61702381Y-35458571D01*
X61702381Y-35649048D01*
X61654762Y-35744286D01*
X61607143Y-35791905D01*
X61511905Y-35839524D01*
X61321429Y-35839524D01*
X61226190Y-35791905D01*
X61178571Y-35744286D01*
X61130952Y-35649048D01*
X61035714Y-36696667D02*
X61702381Y-36696667D01*
X60654762Y-36458571D02*
X61369048Y-36220476D01*
X61369048Y-36839524D01*
X58702381Y-34887143D02*
X58226190Y-34553809D01*
X58702381Y-34315714D02*
X57702381Y-34315714D01*
X57702381Y-34696667D01*
X57750000Y-34791905D01*
X57797619Y-34839524D01*
X57892857Y-34887143D01*
X58035714Y-34887143D01*
X58130952Y-34839524D01*
X58178571Y-34791905D01*
X58226190Y-34696667D01*
X58226190Y-34315714D01*
X58130952Y-35458571D02*
X58083333Y-35363333D01*
X58035714Y-35315714D01*
X57940476Y-35268095D01*
X57892857Y-35268095D01*
X57797619Y-35315714D01*
X57750000Y-35363333D01*
X57702381Y-35458571D01*
X57702381Y-35649048D01*
X57750000Y-35744286D01*
X57797619Y-35791905D01*
X57892857Y-35839524D01*
X57940476Y-35839524D01*
X58035714Y-35791905D01*
X58083333Y-35744286D01*
X58130952Y-35649048D01*
X58130952Y-35458571D01*
X58178571Y-35363333D01*
X58226190Y-35315714D01*
X58321429Y-35268095D01*
X58511905Y-35268095D01*
X58607143Y-35315714D01*
X58654762Y-35363333D01*
X58702381Y-35458571D01*
X58702381Y-35649048D01*
X58654762Y-35744286D01*
X58607143Y-35791905D01*
X58511905Y-35839524D01*
X58321429Y-35839524D01*
X58226190Y-35791905D01*
X58178571Y-35744286D01*
X58130952Y-35649048D01*
X57702381Y-36172857D02*
X57702381Y-36791905D01*
X58083333Y-36458571D01*
X58083333Y-36601429D01*
X58130952Y-36696667D01*
X58178571Y-36744286D01*
X58273810Y-36791905D01*
X58511905Y-36791905D01*
X58607143Y-36744286D01*
X58654762Y-36696667D01*
X58702381Y-36601429D01*
X58702381Y-36315714D01*
X58654762Y-36220476D01*
X58607143Y-36172857D01*
X69711905Y-43932381D02*
X69711905Y-44741905D01*
X69664286Y-44837143D01*
X69616667Y-44884762D01*
X69521429Y-44932381D01*
X69330952Y-44932381D01*
X69235714Y-44884762D01*
X69188095Y-44837143D01*
X69140476Y-44741905D01*
X69140476Y-43932381D01*
X68235714Y-43932381D02*
X68426191Y-43932381D01*
X68521429Y-43980000D01*
X68569048Y-44027619D01*
X68664286Y-44170476D01*
X68711905Y-44360952D01*
X68711905Y-44741905D01*
X68664286Y-44837143D01*
X68616667Y-44884762D01*
X68521429Y-44932381D01*
X68330952Y-44932381D01*
X68235714Y-44884762D01*
X68188095Y-44837143D01*
X68140476Y-44741905D01*
X68140476Y-44503810D01*
X68188095Y-44408571D01*
X68235714Y-44360952D01*
X68330952Y-44313333D01*
X68521429Y-44313333D01*
X68616667Y-44360952D01*
X68664286Y-44408571D01*
X68711905Y-44503810D01*
X46702381Y-34887143D02*
X46226190Y-34553809D01*
X46702381Y-34315714D02*
X45702381Y-34315714D01*
X45702381Y-34696667D01*
X45750000Y-34791905D01*
X45797619Y-34839524D01*
X45892857Y-34887143D01*
X46035714Y-34887143D01*
X46130952Y-34839524D01*
X46178571Y-34791905D01*
X46226190Y-34696667D01*
X46226190Y-34315714D01*
X45702381Y-35220476D02*
X45702381Y-35887143D01*
X46702381Y-35458571D01*
X46130952Y-36410952D02*
X46083333Y-36315714D01*
X46035714Y-36268095D01*
X45940476Y-36220476D01*
X45892857Y-36220476D01*
X45797619Y-36268095D01*
X45750000Y-36315714D01*
X45702381Y-36410952D01*
X45702381Y-36601429D01*
X45750000Y-36696667D01*
X45797619Y-36744286D01*
X45892857Y-36791905D01*
X45940476Y-36791905D01*
X46035714Y-36744286D01*
X46083333Y-36696667D01*
X46130952Y-36601429D01*
X46130952Y-36410952D01*
X46178571Y-36315714D01*
X46226190Y-36268095D01*
X46321429Y-36220476D01*
X46511905Y-36220476D01*
X46607143Y-36268095D01*
X46654762Y-36315714D01*
X46702381Y-36410952D01*
X46702381Y-36601429D01*
X46654762Y-36696667D01*
X46607143Y-36744286D01*
X46511905Y-36791905D01*
X46321429Y-36791905D01*
X46226190Y-36744286D01*
X46178571Y-36696667D01*
X46130952Y-36601429D01*
X49702381Y-34887143D02*
X49226190Y-34553809D01*
X49702381Y-34315714D02*
X48702381Y-34315714D01*
X48702381Y-34696667D01*
X48750000Y-34791905D01*
X48797619Y-34839524D01*
X48892857Y-34887143D01*
X49035714Y-34887143D01*
X49130952Y-34839524D01*
X49178571Y-34791905D01*
X49226190Y-34696667D01*
X49226190Y-34315714D01*
X48702381Y-35220476D02*
X48702381Y-35887143D01*
X49702381Y-35458571D01*
X48702381Y-36172857D02*
X48702381Y-36839524D01*
X49702381Y-36410952D01*
X52702381Y-34887143D02*
X52226190Y-34553809D01*
X52702381Y-34315714D02*
X51702381Y-34315714D01*
X51702381Y-34696667D01*
X51750000Y-34791905D01*
X51797619Y-34839524D01*
X51892857Y-34887143D01*
X52035714Y-34887143D01*
X52130952Y-34839524D01*
X52178571Y-34791905D01*
X52226190Y-34696667D01*
X52226190Y-34315714D01*
X51702381Y-35220476D02*
X51702381Y-35887143D01*
X52702381Y-35458571D01*
X51702381Y-36696667D02*
X51702381Y-36506190D01*
X51750000Y-36410952D01*
X51797619Y-36363333D01*
X51940476Y-36268095D01*
X52130952Y-36220476D01*
X52511905Y-36220476D01*
X52607143Y-36268095D01*
X52654762Y-36315714D01*
X52702381Y-36410952D01*
X52702381Y-36601429D01*
X52654762Y-36696667D01*
X52607143Y-36744286D01*
X52511905Y-36791905D01*
X52273810Y-36791905D01*
X52178571Y-36744286D01*
X52130952Y-36696667D01*
X52083333Y-36601429D01*
X52083333Y-36410952D01*
X52130952Y-36315714D01*
X52178571Y-36268095D01*
X52273810Y-36220476D01*
X55702381Y-34887143D02*
X55226190Y-34553809D01*
X55702381Y-34315714D02*
X54702381Y-34315714D01*
X54702381Y-34696667D01*
X54750000Y-34791905D01*
X54797619Y-34839524D01*
X54892857Y-34887143D01*
X55035714Y-34887143D01*
X55130952Y-34839524D01*
X55178571Y-34791905D01*
X55226190Y-34696667D01*
X55226190Y-34315714D01*
X54702381Y-35220476D02*
X54702381Y-35887143D01*
X55702381Y-35458571D01*
X54702381Y-36744286D02*
X54702381Y-36268095D01*
X55178571Y-36220476D01*
X55130952Y-36268095D01*
X55083333Y-36363333D01*
X55083333Y-36601429D01*
X55130952Y-36696667D01*
X55178571Y-36744286D01*
X55273810Y-36791905D01*
X55511905Y-36791905D01*
X55607143Y-36744286D01*
X55654762Y-36696667D01*
X55702381Y-36601429D01*
X55702381Y-36363333D01*
X55654762Y-36268095D01*
X55607143Y-36220476D01*
X67702381Y-34887143D02*
X67226190Y-34553809D01*
X67702381Y-34315714D02*
X66702381Y-34315714D01*
X66702381Y-34696667D01*
X66750000Y-34791905D01*
X66797619Y-34839524D01*
X66892857Y-34887143D01*
X67035714Y-34887143D01*
X67130952Y-34839524D01*
X67178571Y-34791905D01*
X67226190Y-34696667D01*
X67226190Y-34315714D01*
X66702381Y-35220476D02*
X66702381Y-35887143D01*
X67702381Y-35458571D01*
X66702381Y-36458571D02*
X66702381Y-36553810D01*
X66750000Y-36649048D01*
X66797619Y-36696667D01*
X66892857Y-36744286D01*
X67083333Y-36791905D01*
X67321429Y-36791905D01*
X67511905Y-36744286D01*
X67607143Y-36696667D01*
X67654762Y-36649048D01*
X67702381Y-36553810D01*
X67702381Y-36458571D01*
X67654762Y-36363333D01*
X67607143Y-36315714D01*
X67511905Y-36268095D01*
X67321429Y-36220476D01*
X67083333Y-36220476D01*
X66892857Y-36268095D01*
X66797619Y-36315714D01*
X66750000Y-36363333D01*
X66702381Y-36458571D01*
X70702381Y-34887143D02*
X70226190Y-34553809D01*
X70702381Y-34315714D02*
X69702381Y-34315714D01*
X69702381Y-34696667D01*
X69750000Y-34791905D01*
X69797619Y-34839524D01*
X69892857Y-34887143D01*
X70035714Y-34887143D01*
X70130952Y-34839524D01*
X70178571Y-34791905D01*
X70226190Y-34696667D01*
X70226190Y-34315714D01*
X69702381Y-35744286D02*
X69702381Y-35553809D01*
X69750000Y-35458571D01*
X69797619Y-35410952D01*
X69940476Y-35315714D01*
X70130952Y-35268095D01*
X70511905Y-35268095D01*
X70607143Y-35315714D01*
X70654762Y-35363333D01*
X70702381Y-35458571D01*
X70702381Y-35649048D01*
X70654762Y-35744286D01*
X70607143Y-35791905D01*
X70511905Y-35839524D01*
X70273810Y-35839524D01*
X70178571Y-35791905D01*
X70130952Y-35744286D01*
X70083333Y-35649048D01*
X70083333Y-35458571D01*
X70130952Y-35363333D01*
X70178571Y-35315714D01*
X70273810Y-35268095D01*
X70702381Y-36315714D02*
X70702381Y-36506190D01*
X70654762Y-36601429D01*
X70607143Y-36649048D01*
X70464286Y-36744286D01*
X70273810Y-36791905D01*
X69892857Y-36791905D01*
X69797619Y-36744286D01*
X69750000Y-36696667D01*
X69702381Y-36601429D01*
X69702381Y-36410952D01*
X69750000Y-36315714D01*
X69797619Y-36268095D01*
X69892857Y-36220476D01*
X70130952Y-36220476D01*
X70226190Y-36268095D01*
X70273810Y-36315714D01*
X70321429Y-36410952D01*
X70321429Y-36601429D01*
X70273810Y-36696667D01*
X70226190Y-36744286D01*
X70130952Y-36791905D01*
X76452381Y-34887143D02*
X75976190Y-34553809D01*
X76452381Y-34315714D02*
X75452381Y-34315714D01*
X75452381Y-34696667D01*
X75500000Y-34791905D01*
X75547619Y-34839524D01*
X75642857Y-34887143D01*
X75785714Y-34887143D01*
X75880952Y-34839524D01*
X75928571Y-34791905D01*
X75976190Y-34696667D01*
X75976190Y-34315714D01*
X75452381Y-35744286D02*
X75452381Y-35553809D01*
X75500000Y-35458571D01*
X75547619Y-35410952D01*
X75690476Y-35315714D01*
X75880952Y-35268095D01*
X76261905Y-35268095D01*
X76357143Y-35315714D01*
X76404762Y-35363333D01*
X76452381Y-35458571D01*
X76452381Y-35649048D01*
X76404762Y-35744286D01*
X76357143Y-35791905D01*
X76261905Y-35839524D01*
X76023810Y-35839524D01*
X75928571Y-35791905D01*
X75880952Y-35744286D01*
X75833333Y-35649048D01*
X75833333Y-35458571D01*
X75880952Y-35363333D01*
X75928571Y-35315714D01*
X76023810Y-35268095D01*
X75880952Y-36410952D02*
X75833333Y-36315714D01*
X75785714Y-36268095D01*
X75690476Y-36220476D01*
X75642857Y-36220476D01*
X75547619Y-36268095D01*
X75500000Y-36315714D01*
X75452381Y-36410952D01*
X75452381Y-36601429D01*
X75500000Y-36696667D01*
X75547619Y-36744286D01*
X75642857Y-36791905D01*
X75690476Y-36791905D01*
X75785714Y-36744286D01*
X75833333Y-36696667D01*
X75880952Y-36601429D01*
X75880952Y-36410952D01*
X75928571Y-36315714D01*
X75976190Y-36268095D01*
X76071429Y-36220476D01*
X76261905Y-36220476D01*
X76357143Y-36268095D01*
X76404762Y-36315714D01*
X76452381Y-36410952D01*
X76452381Y-36601429D01*
X76404762Y-36696667D01*
X76357143Y-36744286D01*
X76261905Y-36791905D01*
X76071429Y-36791905D01*
X75976190Y-36744286D01*
X75928571Y-36696667D01*
X75880952Y-36601429D01*
X73452381Y-34887143D02*
X72976190Y-34553809D01*
X73452381Y-34315714D02*
X72452381Y-34315714D01*
X72452381Y-34696667D01*
X72500000Y-34791905D01*
X72547619Y-34839524D01*
X72642857Y-34887143D01*
X72785714Y-34887143D01*
X72880952Y-34839524D01*
X72928571Y-34791905D01*
X72976190Y-34696667D01*
X72976190Y-34315714D01*
X72452381Y-35744286D02*
X72452381Y-35553809D01*
X72500000Y-35458571D01*
X72547619Y-35410952D01*
X72690476Y-35315714D01*
X72880952Y-35268095D01*
X73261905Y-35268095D01*
X73357143Y-35315714D01*
X73404762Y-35363333D01*
X73452381Y-35458571D01*
X73452381Y-35649048D01*
X73404762Y-35744286D01*
X73357143Y-35791905D01*
X73261905Y-35839524D01*
X73023810Y-35839524D01*
X72928571Y-35791905D01*
X72880952Y-35744286D01*
X72833333Y-35649048D01*
X72833333Y-35458571D01*
X72880952Y-35363333D01*
X72928571Y-35315714D01*
X73023810Y-35268095D01*
X72452381Y-36172857D02*
X72452381Y-36839524D01*
X73452381Y-36410952D01*
X44202381Y-50268095D02*
X45011905Y-50268095D01*
X45107143Y-50315714D01*
X45154762Y-50363333D01*
X45202381Y-50458571D01*
X45202381Y-50649048D01*
X45154762Y-50744286D01*
X45107143Y-50791905D01*
X45011905Y-50839524D01*
X44202381Y-50839524D01*
X44202381Y-51791905D02*
X44202381Y-51315714D01*
X44678571Y-51268095D01*
X44630952Y-51315714D01*
X44583333Y-51410952D01*
X44583333Y-51649048D01*
X44630952Y-51744286D01*
X44678571Y-51791905D01*
X44773810Y-51839524D01*
X45011905Y-51839524D01*
X45107143Y-51791905D01*
X45154762Y-51744286D01*
X45202381Y-51649048D01*
X45202381Y-51410952D01*
X45154762Y-51315714D01*
X45107143Y-51268095D01*
X25902381Y-34887143D02*
X25426190Y-34553809D01*
X25902381Y-34315714D02*
X24902381Y-34315714D01*
X24902381Y-34696667D01*
X24950000Y-34791905D01*
X24997619Y-34839524D01*
X25092857Y-34887143D01*
X25235714Y-34887143D01*
X25330952Y-34839524D01*
X25378571Y-34791905D01*
X25426190Y-34696667D01*
X25426190Y-34315714D01*
X24902381Y-35791905D02*
X24902381Y-35315714D01*
X25378571Y-35268095D01*
X25330952Y-35315714D01*
X25283333Y-35410952D01*
X25283333Y-35649048D01*
X25330952Y-35744286D01*
X25378571Y-35791905D01*
X25473810Y-35839524D01*
X25711905Y-35839524D01*
X25807143Y-35791905D01*
X25854762Y-35744286D01*
X25902381Y-35649048D01*
X25902381Y-35410952D01*
X25854762Y-35315714D01*
X25807143Y-35268095D01*
X24902381Y-36696667D02*
X24902381Y-36506190D01*
X24950000Y-36410952D01*
X24997619Y-36363333D01*
X25140476Y-36268095D01*
X25330952Y-36220476D01*
X25711905Y-36220476D01*
X25807143Y-36268095D01*
X25854762Y-36315714D01*
X25902381Y-36410952D01*
X25902381Y-36601429D01*
X25854762Y-36696667D01*
X25807143Y-36744286D01*
X25711905Y-36791905D01*
X25473810Y-36791905D01*
X25378571Y-36744286D01*
X25330952Y-36696667D01*
X25283333Y-36601429D01*
X25283333Y-36410952D01*
X25330952Y-36315714D01*
X25378571Y-36268095D01*
X25473810Y-36220476D01*
X28902381Y-34887143D02*
X28426190Y-34553809D01*
X28902381Y-34315714D02*
X27902381Y-34315714D01*
X27902381Y-34696667D01*
X27950000Y-34791905D01*
X27997619Y-34839524D01*
X28092857Y-34887143D01*
X28235714Y-34887143D01*
X28330952Y-34839524D01*
X28378571Y-34791905D01*
X28426190Y-34696667D01*
X28426190Y-34315714D01*
X27902381Y-35791905D02*
X27902381Y-35315714D01*
X28378571Y-35268095D01*
X28330952Y-35315714D01*
X28283333Y-35410952D01*
X28283333Y-35649048D01*
X28330952Y-35744286D01*
X28378571Y-35791905D01*
X28473810Y-35839524D01*
X28711905Y-35839524D01*
X28807143Y-35791905D01*
X28854762Y-35744286D01*
X28902381Y-35649048D01*
X28902381Y-35410952D01*
X28854762Y-35315714D01*
X28807143Y-35268095D01*
X27902381Y-36744286D02*
X27902381Y-36268095D01*
X28378571Y-36220476D01*
X28330952Y-36268095D01*
X28283333Y-36363333D01*
X28283333Y-36601429D01*
X28330952Y-36696667D01*
X28378571Y-36744286D01*
X28473810Y-36791905D01*
X28711905Y-36791905D01*
X28807143Y-36744286D01*
X28854762Y-36696667D01*
X28902381Y-36601429D01*
X28902381Y-36363333D01*
X28854762Y-36268095D01*
X28807143Y-36220476D01*
X31902381Y-34887143D02*
X31426190Y-34553809D01*
X31902381Y-34315714D02*
X30902381Y-34315714D01*
X30902381Y-34696667D01*
X30950000Y-34791905D01*
X30997619Y-34839524D01*
X31092857Y-34887143D01*
X31235714Y-34887143D01*
X31330952Y-34839524D01*
X31378571Y-34791905D01*
X31426190Y-34696667D01*
X31426190Y-34315714D01*
X30902381Y-35791905D02*
X30902381Y-35315714D01*
X31378571Y-35268095D01*
X31330952Y-35315714D01*
X31283333Y-35410952D01*
X31283333Y-35649048D01*
X31330952Y-35744286D01*
X31378571Y-35791905D01*
X31473810Y-35839524D01*
X31711905Y-35839524D01*
X31807143Y-35791905D01*
X31854762Y-35744286D01*
X31902381Y-35649048D01*
X31902381Y-35410952D01*
X31854762Y-35315714D01*
X31807143Y-35268095D01*
X31235714Y-36696667D02*
X31902381Y-36696667D01*
X30854762Y-36458571D02*
X31569048Y-36220476D01*
X31569048Y-36839524D01*
X34702381Y-34887143D02*
X34226190Y-34553809D01*
X34702381Y-34315714D02*
X33702381Y-34315714D01*
X33702381Y-34696667D01*
X33750000Y-34791905D01*
X33797619Y-34839524D01*
X33892857Y-34887143D01*
X34035714Y-34887143D01*
X34130952Y-34839524D01*
X34178571Y-34791905D01*
X34226190Y-34696667D01*
X34226190Y-34315714D01*
X33702381Y-35791905D02*
X33702381Y-35315714D01*
X34178571Y-35268095D01*
X34130952Y-35315714D01*
X34083333Y-35410952D01*
X34083333Y-35649048D01*
X34130952Y-35744286D01*
X34178571Y-35791905D01*
X34273810Y-35839524D01*
X34511905Y-35839524D01*
X34607143Y-35791905D01*
X34654762Y-35744286D01*
X34702381Y-35649048D01*
X34702381Y-35410952D01*
X34654762Y-35315714D01*
X34607143Y-35268095D01*
X33702381Y-36172857D02*
X33702381Y-36791905D01*
X34083333Y-36458571D01*
X34083333Y-36601429D01*
X34130952Y-36696667D01*
X34178571Y-36744286D01*
X34273810Y-36791905D01*
X34511905Y-36791905D01*
X34607143Y-36744286D01*
X34654762Y-36696667D01*
X34702381Y-36601429D01*
X34702381Y-36315714D01*
X34654762Y-36220476D01*
X34607143Y-36172857D01*
X37952381Y-34837143D02*
X37476190Y-34503809D01*
X37952381Y-34265714D02*
X36952381Y-34265714D01*
X36952381Y-34646667D01*
X37000000Y-34741905D01*
X37047619Y-34789524D01*
X37142857Y-34837143D01*
X37285714Y-34837143D01*
X37380952Y-34789524D01*
X37428571Y-34741905D01*
X37476190Y-34646667D01*
X37476190Y-34265714D01*
X36952381Y-35741905D02*
X36952381Y-35265714D01*
X37428571Y-35218095D01*
X37380952Y-35265714D01*
X37333333Y-35360952D01*
X37333333Y-35599048D01*
X37380952Y-35694286D01*
X37428571Y-35741905D01*
X37523810Y-35789524D01*
X37761905Y-35789524D01*
X37857143Y-35741905D01*
X37904762Y-35694286D01*
X37952381Y-35599048D01*
X37952381Y-35360952D01*
X37904762Y-35265714D01*
X37857143Y-35218095D01*
X37047619Y-36170476D02*
X37000000Y-36218095D01*
X36952381Y-36313333D01*
X36952381Y-36551429D01*
X37000000Y-36646667D01*
X37047619Y-36694286D01*
X37142857Y-36741905D01*
X37238095Y-36741905D01*
X37380952Y-36694286D01*
X37952381Y-36122857D01*
X37952381Y-36741905D01*
X40902381Y-34887143D02*
X40426190Y-34553809D01*
X40902381Y-34315714D02*
X39902381Y-34315714D01*
X39902381Y-34696667D01*
X39950000Y-34791905D01*
X39997619Y-34839524D01*
X40092857Y-34887143D01*
X40235714Y-34887143D01*
X40330952Y-34839524D01*
X40378571Y-34791905D01*
X40426190Y-34696667D01*
X40426190Y-34315714D01*
X39902381Y-35791905D02*
X39902381Y-35315714D01*
X40378571Y-35268095D01*
X40330952Y-35315714D01*
X40283333Y-35410952D01*
X40283333Y-35649048D01*
X40330952Y-35744286D01*
X40378571Y-35791905D01*
X40473810Y-35839524D01*
X40711905Y-35839524D01*
X40807143Y-35791905D01*
X40854762Y-35744286D01*
X40902381Y-35649048D01*
X40902381Y-35410952D01*
X40854762Y-35315714D01*
X40807143Y-35268095D01*
X40902381Y-36791905D02*
X40902381Y-36220476D01*
X40902381Y-36506190D02*
X39902381Y-36506190D01*
X40045238Y-36410952D01*
X40140476Y-36315714D01*
X40188095Y-36220476D01*
X43902381Y-34887143D02*
X43426190Y-34553809D01*
X43902381Y-34315714D02*
X42902381Y-34315714D01*
X42902381Y-34696667D01*
X42950000Y-34791905D01*
X42997619Y-34839524D01*
X43092857Y-34887143D01*
X43235714Y-34887143D01*
X43330952Y-34839524D01*
X43378571Y-34791905D01*
X43426190Y-34696667D01*
X43426190Y-34315714D01*
X42902381Y-35791905D02*
X42902381Y-35315714D01*
X43378571Y-35268095D01*
X43330952Y-35315714D01*
X43283333Y-35410952D01*
X43283333Y-35649048D01*
X43330952Y-35744286D01*
X43378571Y-35791905D01*
X43473810Y-35839524D01*
X43711905Y-35839524D01*
X43807143Y-35791905D01*
X43854762Y-35744286D01*
X43902381Y-35649048D01*
X43902381Y-35410952D01*
X43854762Y-35315714D01*
X43807143Y-35268095D01*
X42902381Y-36458571D02*
X42902381Y-36553810D01*
X42950000Y-36649048D01*
X42997619Y-36696667D01*
X43092857Y-36744286D01*
X43283333Y-36791905D01*
X43521429Y-36791905D01*
X43711905Y-36744286D01*
X43807143Y-36696667D01*
X43854762Y-36649048D01*
X43902381Y-36553810D01*
X43902381Y-36458571D01*
X43854762Y-36363333D01*
X43807143Y-36315714D01*
X43711905Y-36268095D01*
X43521429Y-36220476D01*
X43283333Y-36220476D01*
X43092857Y-36268095D01*
X42997619Y-36315714D01*
X42950000Y-36363333D01*
X42902381Y-36458571D01*
X35057143Y-87763334D02*
X35104762Y-87715715D01*
X35152381Y-87572858D01*
X35152381Y-87477620D01*
X35104762Y-87334762D01*
X35009524Y-87239524D01*
X34914286Y-87191905D01*
X34723810Y-87144286D01*
X34580952Y-87144286D01*
X34390476Y-87191905D01*
X34295238Y-87239524D01*
X34200000Y-87334762D01*
X34152381Y-87477620D01*
X34152381Y-87572858D01*
X34200000Y-87715715D01*
X34247619Y-87763334D01*
X34485714Y-88620477D02*
X35152381Y-88620477D01*
X34104762Y-88382381D02*
X34819048Y-88144286D01*
X34819048Y-88763334D01*
X39257143Y-87863334D02*
X39304762Y-87815715D01*
X39352381Y-87672858D01*
X39352381Y-87577620D01*
X39304762Y-87434762D01*
X39209524Y-87339524D01*
X39114286Y-87291905D01*
X38923810Y-87244286D01*
X38780952Y-87244286D01*
X38590476Y-87291905D01*
X38495238Y-87339524D01*
X38400000Y-87434762D01*
X38352381Y-87577620D01*
X38352381Y-87672858D01*
X38400000Y-87815715D01*
X38447619Y-87863334D01*
X38352381Y-88768096D02*
X38352381Y-88291905D01*
X38828571Y-88244286D01*
X38780952Y-88291905D01*
X38733333Y-88387143D01*
X38733333Y-88625239D01*
X38780952Y-88720477D01*
X38828571Y-88768096D01*
X38923810Y-88815715D01*
X39161905Y-88815715D01*
X39257143Y-88768096D01*
X39304762Y-88720477D01*
X39352381Y-88625239D01*
X39352381Y-88387143D01*
X39304762Y-88291905D01*
X39257143Y-88244286D01*
X37961905Y-85482381D02*
X37961905Y-86291905D01*
X37914286Y-86387143D01*
X37866667Y-86434762D01*
X37771429Y-86482381D01*
X37580952Y-86482381D01*
X37485714Y-86434762D01*
X37438095Y-86387143D01*
X37390476Y-86291905D01*
X37390476Y-85482381D01*
X37009524Y-85482381D02*
X36342857Y-85482381D01*
X36771429Y-86482381D01*
M02*
